<?xml version="1.0" encoding="UTF-8" standalone="no"?>
<svg width="13px" height="24px" viewBox="0 0 13 24" version="1.1" xmlns="http://www.w3.org/2000/svg" xmlns:xlink="http://www.w3.org/1999/xlink">
    <!-- Generator: Sketch 50.2 (55047) - http://www.bohemiancoding.com/sketch -->
    <title>Icon/Attachment</title>
    <desc>Created with Sketch.</desc>
    <defs></defs>
    <g id="Icon" stroke="none" stroke-width="1" fill="none" fill-rule="evenodd">
        <g id="Fontastic" transform="translate(-710.000000, -882.000000)">
            <g id="Icon/Attachment" transform="translate(703.000000, 882.000000)">
                <rect id="Rectangle-Copy-10" fill-opacity="0" fill="#D8D8D8" x="0" y="0" width="24" height="24"></rect>
                <g id="Group-3" stroke-width="1" transform="translate(8.000000, 1.000000)" fill="#222222">
                    <path d="M7.02099909,15.763696 L7.02099909,4.10854371 C7.02099909,2.32283492 5.79284865,1 4.125,1 C2.39911016,1 1,2.39911016 1,4.125 L1,16.9583333 C1,19.1904842 2.8095158,21 5.04166667,21 L5.95833333,21 C8.1904842,21 10,19.1904842 10,16.9583333 L10,11 C10,10.4477153 10.4477153,10 11,10 C11.5522847,10 12,10.4477153 12,11 L12,16.9583333 C12,20.2950537 9.2950537,23 5.95833333,23 L5.04166667,23 C1.7049463,23 -1,20.2950537 -1,16.9583333 L-1,4.125 C-1,1.29454066 1.29454066,-1 4.125,-1 C6.93196815,-1 9.02099909,1.25008517 9.02099909,4.10854371 L9.02099909,15.8661832 L9.00227944,16.0587679 C8.62671422,17.9723921 7.38400002,19.0478186 5.5,19.0478186 C3.60512768,19.0478186 2.37866268,17.9568177 2.06080175,16.028856 L2.04748181,15.8661832 L2.04748181,11 C2.04748181,10.4477153 2.49519706,10 3.04748181,10 C3.59976656,10 4.04748181,10.4477153 4.04748181,11 L4.04748181,15.7798635 C4.21777631,16.7033197 4.62805498,17.0478186 5.5,17.0478186 C6.37856333,17.0478186 6.81701138,16.691779 7.02099909,15.763696 Z" id="Rectangle-6" fill-rule="nonzero"></path>
                </g>
            </g>
        </g>
    </g>
</svg>