<?xml version="1.0" encoding="UTF-8" standalone="no"?>
<svg width="18px" height="10px" viewBox="0 0 18 10" version="1.1" xmlns="http://www.w3.org/2000/svg" xmlns:xlink="http://www.w3.org/1999/xlink">
    <!-- Generator: Sketch 49.3 (51167) - http://www.bohemiancoding.com/sketch -->
    <title>Icon/Backward</title>
    <desc>Created with Sketch.</desc>
    <defs></defs>
    <g id="Icon" stroke="none" stroke-width="1" fill="none" fill-rule="evenodd">
        <g id="Fontastic" transform="translate(-959.000000, -793.000000)">
            <g id="Icon/backward" transform="translate(956.000000, 786.000000)">
                <g id="Group-12">
                    <rect id="Rectangle-Copy-18" fill-opacity="0" fill="#D8D8D8" x="0" y="0" width="24" height="24"></rect>
                    <g id="Group-Copy" transform="translate(3.000000, 7.000000)" fill="#222222">
                        <path d="M10.5734459,5.8737229 L16.5143199,9.17453938 C16.9970922,9.44277312 17.6059029,9.26885524 17.8741366,8.78608292 C17.9566822,8.63751583 18,8.47036145 18,8.30040278 L18,1.6994317 C18,1.14714695 17.5522847,0.699431702 17,0.699431702 C16.8300702,0.699431702 16.6629432,0.742734857 16.5143943,0.825253753 L10.5735203,4.12540835 C10.0907252,4.39360098 9.91675545,5.00239687 10.1849481,5.48519202 C10.2756301,5.64843594 10.4102097,5.78302703 10.5734459,5.8737229 Z" id="Fill-4"></path>
                        <path d="M0.573445889,5.8737229 L6.51431986,9.17453938 C6.99709217,9.44277312 7.60590287,9.26885524 7.8741366,8.78608292 C7.95668215,8.63751583 8,8.47036145 8,8.30040278 L8,1.6994317 C8,1.14714695 7.55228475,0.699431702 7,0.699431702 C6.83007017,0.699431702 6.66294319,0.742734857 6.51439428,0.825253753 L0.573520311,4.12540835 C0.0907251615,4.39360098 -0.0832445515,5.00239687 0.184948082,5.48519202 C0.275630058,5.64843594 0.410209684,5.78302703 0.573445889,5.8737229 Z" id="Fill-5"></path>
                    </g>
                </g>
            </g>
        </g>
    </g>
</svg>