<?xml version="1.0" encoding="UTF-8" standalone="no"?>
<svg width="20px" height="21px" viewBox="0 0 20 21" version="1.1" xmlns="http://www.w3.org/2000/svg" xmlns:xlink="http://www.w3.org/1999/xlink">
    <!-- Generator: Sketch 49.3 (51167) - http://www.bohemiancoding.com/sketch -->
    <title>Icon/Bank</title>
    <desc>Created with Sketch.</desc>
    <defs></defs>
    <g id="Icon" stroke="none" stroke-width="1" fill="none" fill-rule="evenodd">
        <g id="Fontastic" transform="translate(-1125.000000, -349.000000)">
            <g id="Icon/Bank" transform="translate(1123.000000, 348.000000)">
                <g id="Group-2">
                    <rect id="Rectangle-Copy-22" fill-opacity="0" fill="#D8D8D8" x="0" y="0" width="24" height="24"></rect>
                    <g id="Group-9-Copy" transform="translate(2.000000, 2.000000)" fill="#222222">
                        <path d="M16.5755438,17 L3.49921232,17 L3.28172612,18 L16.8957118,18 L16.5755438,17 Z M1.88743095,15 L18.035215,15 L19.636055,20 L0.799999952,20 L1.88743095,15 Z" id="Rectangle-8" fill-rule="nonzero"></path>
                        <path d="M5,5 L15,5 L10,1.25 L5,5 Z M10.6,-0.8 L18.6,5.2 C19.3688098,5.77660738 18.9610123,7 18,7 L2,7 C1.03898771,7 0.631190165,5.77660738 1.4,5.2 L9.4,-0.8 C9.75555556,-1.06666667 10.2444444,-1.06666667 10.6,-0.8 Z" id="Triangle" fill-rule="nonzero"></path>
                        <rect id="Rectangle-9" x="3" y="7" width="3" height="8"></rect>
                        <rect id="Rectangle-9-Copy" x="8.5" y="7" width="3" height="8"></rect>
                        <rect id="Rectangle-9-Copy-2" x="14" y="7" width="3" height="8"></rect>
                    </g>
                </g>
            </g>
        </g>
    </g>
</svg>