<?xml version="1.0" encoding="UTF-8" standalone="no"?>
<svg width="24px" height="24px" viewBox="0 0 24 24" version="1.1" xmlns="http://www.w3.org/2000/svg" xmlns:xlink="http://www.w3.org/1999/xlink">
    <!-- Generator: Sketch 49.3 (51167) - http://www.bohemiancoding.com/sketch -->
    <title>Icon/Bill</title>
    <desc>Created with Sketch.</desc>
    <defs></defs>
    <g id="Icon" stroke="none" stroke-width="1" fill="none" fill-rule="evenodd">
        <g id="Fontastic" transform="translate(-871.000000, -444.000000)">
            <g id="Icon/Bill" transform="translate(871.000000, 444.000000)">
                <rect id="Rectangle-Copy" fill-opacity="0" fill="#D8D8D8" x="0.181818182" y="0" width="24" height="24"></rect>
                <g id="Group" stroke-width="1" fill="#222222">
                    <path d="M19.1959347,19.9731404 C19.2880931,22.1046412 18.2124407,23.4062863 16.2218634,23.4062865 L2.95978195,23.4062865 C1.11149469,23.4062865 0.0941768399,22.1251038 0.0620519418,20.0163364 L0.0620519418,18.2573982 C0.0620519418,17.7051134 0.509767192,17.2573982 1.06205194,17.2573982 L14.0635546,17.2573982 C14.6158393,17.2573982 15.0635546,17.7051134 15.0635546,18.2573982 L15.0629952,19.9828939 C15.0991938,21.0647013 15.4076714,21.4062865 16.2218631,21.4062865 C17.0024026,21.4062865 17.2434201,21.1146316 17.1968681,20.0163364 L17.196877,5.7451788 C17.1968681,5.18866156 17.6445833,4.74094631 18.1968681,4.74094631 L19.2326251,4.74094631 C19.2074388,5.0341765 19.1952845,5.36644413 19.1968681,5.74094631 L19.1968025,6.74094631 L18.1968681,6.74094631 C17.6452891,6.74094631 17.1980125,6.29437458 17.1968702,5.74306307 C17.1843621,2.67769608 18.1942755,0.861178711 20.3528082,0.861178711 C22.5004522,0.861178711 23.5370097,2.66542413 23.5816681,5.72635808 C23.5898082,6.28428935 23.1397652,6.74094631 22.5817745,6.74094631 L19.1968025,6.74094631 L19.1959347,19.9731404 Z M13.0635546,20.0163364 L13.0635546,19.2573982 L2.06193508,19.2573982 L2.06193508,20.0010488 C2.07864823,21.0941691 2.32648371,21.4062865 2.95978195,21.4062865 L13.2974256,21.4062865 C13.1597649,20.9982008 13.080713,20.5331651 13.0635546,20.0163364 Z M21.5252341,4.74094631 C21.3795482,3.38714211 20.9668362,2.86117871 20.3528082,2.86117871 C19.7462078,2.86117871 19.3493834,3.38159758 19.2326251,4.74094631 L21.5252341,4.74094631 Z" id="Path-10" fill-rule="nonzero"></path>
                    <path d="M6.33344203,18.2672822 C6.33344203,18.819567 5.88572678,19.2672822 5.33344203,19.2672822 C4.78115728,19.2672822 4.33344203,18.819567 4.33344203,18.2672822 L4.3350251,5.10374515 C4.18556289,2.45066548 5.45163416,0.878694346 7.88560879,0.878694346 L20.5771129,0.878694346 C21.1293977,0.878694346 21.5771129,1.3264096 21.5771129,1.87869435 C21.5771129,2.4309791 21.1293977,2.87869435 20.5771129,2.87869435 L7.88560879,2.87869435 C6.6786734,2.87869435 6.24330016,3.41925963 6.33344203,5.04749897 L6.33344203,18.2672822 Z" id="Path-11" fill-rule="nonzero"></path>
                    <path d="M11.6720002,13 L10.5920002,13 L9.40800019,11.008 L8.48000019,11.008 L8.48000019,13 L7.54400019,13 L7.54400019,7.664 L9.88800019,7.664 C10.9440002,7.664 11.6320002,8.352 11.6320002,9.336 C11.6320002,10.288 11.0080002,10.8 10.3680002,10.904 L11.6720002,13 Z M9.76000019,10.184 C10.2880002,10.184 10.6720002,9.848 10.6720002,9.336 C10.6720002,8.824 10.2880002,8.488 9.76000019,8.488 L8.48000019,8.488 L8.48000019,10.184 L9.76000019,10.184 Z M14.6240002,13.096 C14.1360002,13.096 13.6960002,12.88 13.3840002,12.464 L13.3840002,14.472 L12.5440002,14.472 L12.5440002,9.136 L13.3840002,9.136 L13.3840002,9.664 C13.6720002,9.28 14.1200002,9.04 14.6240002,9.04 C15.6240002,9.04 16.3360002,9.792 16.3360002,11.064 C16.3360002,12.336 15.6240002,13.096 14.6240002,13.096 Z M14.3760002,12.352 C15.0400002,12.352 15.4640002,11.816 15.4640002,11.064 C15.4640002,10.32 15.0400002,9.784 14.3760002,9.784 C13.9840002,9.784 13.5680002,10.016 13.3840002,10.304 L13.3840002,11.832 C13.5680002,12.112 13.9840002,12.352 14.3760002,12.352 Z" id="Rp"></path>
                </g>
            </g>
        </g>
    </g>
</svg>