<?xml version="1.0" encoding="UTF-8" standalone="no"?>
<svg width="24px" height="24px" viewBox="0 0 24 24" version="1.1" xmlns="http://www.w3.org/2000/svg" xmlns:xlink="http://www.w3.org/1999/xlink">
    <!-- Generator: Sketch 49.3 (51167) - http://www.bohemiancoding.com/sketch -->
    <title>Icon/BPJS</title>
    <desc>Created with Sketch.</desc>
    <defs></defs>
    <g id="Icon/BPJS" stroke="none" stroke-width="1" fill="none" fill-rule="evenodd">
        <rect id="Rectangle-Copy-14" fill-opacity="0" fill="#D8D8D8" x="0" y="0" width="24" height="24"></rect>
        <g id="Bayar.in_BPJS" transform="translate(2.000000, 2.000000)" fill="#222222" fill-rule="nonzero">
            <g id="Group-4">
                <path d="M3,7 C0.790861001,7 -1,5.209139 -1,3 C-1,0.790861001 0.790861001,-1 3,-1 C5.209139,-1 7,0.790861001 7,3 C7,5.209139 5.209139,7 3,7 Z M3,5 C4.1045695,5 5,4.1045695 5,3 C5,1.8954305 4.1045695,1 3,1 C1.8954305,1 1,1.8954305 1,3 C1,4.1045695 1.8954305,5 3,5 Z" id="Oval-2"></path>
                <path d="M17.25,7 C15.040861,7 13.25,5.209139 13.25,3 C13.25,0.790861001 15.040861,-1 17.25,-1 C19.459139,-1 21.25,0.790861001 21.25,3 C21.25,5.209139 19.459139,7 17.25,7 Z M17.25,5 C18.3545695,5 19.25,4.1045695 19.25,3 C19.25,1.8954305 18.3545695,1 17.25,1 C16.1454305,1 15.25,1.8954305 15.25,3 C15.25,4.1045695 16.1454305,5 17.25,5 Z" id="Oval-2"></path>
                <path d="M3,21.25 C0.790861001,21.25 -1,19.459139 -1,17.25 C-1,15.040861 0.790861001,13.25 3,13.25 C5.209139,13.25 7,15.040861 7,17.25 C7,19.459139 5.209139,21.25 3,21.25 Z M3,19.25 C4.1045695,19.25 5,18.3545695 5,17.25 C5,16.1454305 4.1045695,15.25 3,15.25 C1.8954305,15.25 1,16.1454305 1,17.25 C1,18.3545695 1.8954305,19.25 3,19.25 Z" id="Oval-2"></path>
                <path d="M17.25,21.25 C15.040861,21.25 13.25,19.459139 13.25,17.25 C13.25,15.040861 15.040861,13.25 17.25,13.25 C19.459139,13.25 21.25,15.040861 21.25,17.25 C21.25,19.459139 19.459139,21.25 17.25,21.25 Z M17.25,19.25 C18.3545695,19.25 19.25,18.3545695 19.25,17.25 C19.25,16.1454305 18.3545695,15.25 17.25,15.25 C16.1454305,15.25 15.25,16.1454305 15.25,17.25 C15.25,18.3545695 16.1454305,19.25 17.25,19.25 Z" id="Oval-2"></path>
            </g>
            <path d="M0.00440211214,5.40204172 L1.82090667,6.2388877 C1.28248689,7.4076117 1,8.68287074 1,10 C1,11.3655142 1.30365748,12.6858464 1.88083756,13.8885541 L0.0777214976,14.7538705 C-0.62837499,13.2825313 -1,11.6666697 -1,10 C-1,8.39246879 -0.654307178,6.83187285 0.00440211214,5.40204172 Z M5.46823825,20.0258277 L6.29299157,18.2038008 C7.44710767,18.7262196 8.70329741,19 10,19 C11.2387791,19 12.4407637,18.7501631 13.5526366,18.2719313 L14.3428686,20.1091938 C12.9825143,20.6943009 11.5117721,21 10,21 C8.41743469,21 6.88022173,20.664972 5.46823825,20.0258277 Z M19.9572024,14.680399 L18.14771,13.8284969 C18.7064361,12.6417284 19,11.3426647 19,10 C19,8.7650101 18.7516911,7.56657824 18.2762882,6.45751026 L20.1145253,5.6695483 C20.6961725,7.02647353 21,8.49285892 21,10 C21,11.6387417 20.6407388,13.2285259 19.9572024,14.680399 Z M15.1001918,0.251518385 L14.1716962,2.02292912 C12.8957745,1.3541471 11.4744581,1 10,1 C8.63436725,1 7.31392483,1.30371029 6.11113496,1.88098681 L5.24574912,0.0779040696 C6.71718866,-0.6283103 8.33318542,-1 10,-1 C11.7998324,-1 13.5394917,-0.566531906 15.1001918,0.251518385 Z" id="Oval-11"></path>
        </g>
    </g>
</svg>