<?xml version="1.0" encoding="UTF-8" standalone="no"?>
<svg width="24px" height="24px" viewBox="0 0 24 24" version="1.1" xmlns="http://www.w3.org/2000/svg" xmlns:xlink="http://www.w3.org/1999/xlink">
    <!-- Generator: Sketch 49.3 (51167) - http://www.bohemiancoding.com/sketch -->
    <title>Icon/Calendar</title>
    <desc>Created with Sketch.</desc>
    <defs></defs>
    <g id="Icon/Calendar" stroke="none" stroke-width="1" fill="none" fill-rule="evenodd">
        <g id="ic_calendar" fill="#222222">
            <g id="calendar" transform="translate(1.000000, 1.000000)">
                <path d="M2,4 L2,20 L20,20 L20,4 L2,4 Z M20,20.0066023 L20,20.0001179 C19.9995121,20.0007896 20,20.0025159 20,20.0066023 Z M0,3.99339768 C0,2.89494563 0.900516155,2 1.99180311,2 L20.0081969,2 C21.108564,2 22,2.89298531 22,3.99339768 L22,20.0066023 C22,21.1050544 21.0994838,22 20.0081969,22 L1.99180311,22 C0.891436002,22 0,21.1070147 0,20.0066023 L0,3.99339768 Z" id="Rectangle" fill-rule="nonzero"></path>
                <polygon id="Line" fill-rule="nonzero" points="2 10 2 8 20 8 20 10"></polygon>
                <path d="M4,12 L6,12 L6,14 L4,14 L4,12 Z M8,12 L10,12 L10,14 L8,14 L8,12 Z M12,12 L14,12 L14,14 L12,14 L12,12 Z M16,12 L18,12 L18,14 L16,14 L16,12 Z" id="Combined-Shape"></path>
                <path d="M4,16 L6,16 L6,18 L4,18 L4,16 Z M8,16 L10,16 L10,18 L8,18 L8,16 Z M12,16 L14,16 L14,18 L12,18 L12,16 Z M16,16 L18,16 L18,18 L16,18 L16,16 Z" id="Combined-Shape"></path>
                <path d="M4,1.5 C4,0.94771525 4.44771525,0.5 5,0.5 C5.55228475,0.5 6,0.94771525 6,1.5 L6,4.5 C6,5.05228475 5.55228475,5.5 5,5.5 C4.44771525,5.5 4,5.05228475 4,4.5 L4,1.5 Z" id="Line" fill-rule="nonzero"></path>
                <path d="M16,1.5 C16,0.94771525 16.4477153,0.5 17,0.5 C17.5522847,0.5 18,0.94771525 18,1.5 L18,4.5 C18,5.05228475 17.5522847,5.5 17,5.5 C16.4477153,5.5 16,5.05228475 16,4.5 L16,1.5 Z" id="Line" fill-rule="nonzero"></path>
            </g>
        </g>
    </g>
</svg>