<?xml version="1.0" encoding="UTF-8"?>
<svg width="21px" height="21px" viewBox="0 0 21 21" version="1.1" xmlns="http://www.w3.org/2000/svg" xmlns:xlink="http://www.w3.org/1999/xlink">
    <!-- Generator: Sketch 50.2 (55047) - http://www.bohemiancoding.com/sketch -->
    <title>Icon/Cancel_Confirmation</title>
    <desc>Created with Sketch.</desc>
    <defs></defs>
    <g id="Icon" stroke="none" stroke-width="1" fill="none" fill-rule="evenodd">
        <g id="Fontastic" transform="translate(-537.000000, -554.000000)">
            <g id="Icon/CancelConfirmation" transform="translate(535.000000, 552.000000)">
                <rect id="Rectangle-Copy-10" fill-opacity="0" fill="#D8D8D8" x="0" y="0" width="24" height="24"></rect>
                <g id="Group" stroke-width="1" transform="translate(2.500000, 2.000000)" fill="#222222">
                    <path d="M2,18 L8.05343294,18 C8.60571769,18 9.05343294,18.4477153 9.05343294,19 C9.05343294,19.5522847 8.60571769,20 8.05343294,20 L1,20 C0.44771525,20 0,19.5522847 0,19 L0,1 C0,0.44771525 0.44771525,0 1,0 L15,0 C15.5522847,0 16,0.44771525 16,1 L16,10 C16,10.5522847 15.5522847,11 15,11 C14.4477153,11 14,10.5522847 14,10 L14,2 L2,2 L2,18 Z" id="Rectangle" fill-rule="nonzero"></path>
                    <path d="M4.5,15.5 C3.94771525,15.5 3.5,15.0522847 3.5,14.5 C3.5,13.9477153 3.94771525,13.5 4.5,13.5 L8,13.5 C8.55228475,13.5 9,13.9477153 9,14.5 C9,15.0522847 8.55228475,15.5 8,15.5 L4.5,15.5 Z" id="Line-2-Copy-3" fill-rule="nonzero"></path>
                    <path d="M4.5,11 C3.94771525,11 3.5,10.5522847 3.5,10 C3.5,9.44771525 3.94771525,9 4.5,9 L11.5,9 C12.0522847,9 12.5,9.44771525 12.5,10 C12.5,10.5522847 12.0522847,11 11.5,11 L4.5,11 Z" id="Line-2-Copy-2" fill-rule="nonzero"></path>
                    <path d="M4.5,6.5 C3.94771525,6.5 3.5,6.05228475 3.5,5.5 C3.5,4.94771525 3.94771525,4.5 4.5,4.5 L11.5,4.5 C12.0522847,4.5 12.5,4.94771525 12.5,5.5 C12.5,6.05228475 12.0522847,6.5 11.5,6.5 L4.5,6.5 Z" id="Line-2-Copy-2" fill-rule="nonzero"></path>
                    <g id="Group-2" transform="translate(11.000000, 12.000000)" fill-rule="nonzero">
                        <path d="M0.292893219,1.70710678 C-0.0976310729,1.31658249 -0.0976310729,0.683417511 0.292893219,0.292893219 C0.683417511,-0.0976310729 1.31658249,-0.0976310729 1.70710678,0.292893219 L8.30677007,6.89255651 C8.69729436,7.2830808 8.69729436,7.91624578 8.30677007,8.30677007 C7.91624578,8.69729436 7.2830808,8.69729436 6.89255651,8.30677007 L0.292893219,1.70710678 Z" id="Line"></path>
                        <path d="M6.82622655,0.292893219 C7.21675084,-0.0976310729 7.84991582,-0.0976310729 8.24044011,0.292893219 C8.63096441,0.683417511 8.63096441,1.31658249 8.24044011,1.70710678 L1.70710678,8.24044011 C1.31658249,8.63096441 0.683417511,8.63096441 0.292893219,8.24044011 C-0.0976310729,7.84991582 -0.0976310729,7.21675084 0.292893219,6.82622655 L6.82622655,0.292893219 Z" id="Line"></path>
                    </g>
                </g>
            </g>
        </g>
    </g>
</svg>