<?xml version="1.0" encoding="UTF-8" standalone="no"?>
<svg width="11px" height="20px" viewBox="0 0 11 20" version="1.1" xmlns="http://www.w3.org/2000/svg" xmlns:xlink="http://www.w3.org/1999/xlink">
    <!-- Generator: Sketch 49.3 (51167) - http://www.bohemiancoding.com/sketch -->
    <title>Icon/Cashtag</title>
    <desc>Created with Sketch.</desc>
    <defs></defs>
    <g id="Icon" stroke="none" stroke-width="1" fill="none" fill-rule="evenodd">
        <g id="Fontastic" transform="translate(-626.000000, -350.000000)">
            <g id="Icon/cashtag" transform="translate(619.000000, 348.000000)">
                <g id="Group-7" fill="#D8D8D8" fill-opacity="0">
                    <rect id="Rectangle-Copy-40" x="0" y="0" width="24" height="24"></rect>
                </g>
                <g id="Group-6" transform="translate(7.000000, 3.000000)" fill="#222222">
                    <path d="M5.71101395,9.87461233 L5.71101395,14.1001752 C6.36037429,13.9711424 6.86286798,13.7109786 7.21639695,13.3186349 C7.56887687,12.9262912 7.74616588,12.4699556 7.74616588,11.948579 C7.74616588,11.3883877 7.57412211,10.9561802 7.23003457,10.6509074 C6.88594702,10.3456346 6.38030619,10.0865199 5.71101395,9.87461233 M4.48572661,7.00966392 L4.48572661,3.31386999 C3.94546721,3.47437424 3.52479921,3.68733086 3.22162451,3.95064176 C2.91949887,4.21395265 2.76843604,4.6136397 2.76843604,5.14760482 C2.76843604,5.65534375 2.91005744,6.0392951 3.19330023,6.29945885 C3.47654303,6.56067164 3.90665246,6.79670731 4.48572661,7.00966392 M5.71101395,1.43292804 C6.39918904,1.50426326 6.98875367,1.64483561 7.48075689,1.85674318 C7.97380916,2.0696998 8.40286954,2.3907083 8.77003612,2.82186677 C9.05852416,3.1502186 9.28197125,3.48801186 9.43932836,3.83524654 C9.59773451,4.18248123 9.67641306,4.50034258 9.67641306,4.78987966 C9.67641306,5.11193721 9.55891976,5.38993477 9.32393314,5.62492138 C9.08894653,5.85885895 8.80465469,5.9774013 8.47000857,5.9774013 C7.8395311,5.9774013 7.43145166,5.63541185 7.24472123,4.9545801 C7.03281366,4.14996076 6.52087853,3.61599564 5.71101395,3.35268475 L5.71101395,7.36634004 C6.50828997,7.58454189 7.14401268,7.78386089 7.616084,7.96429704 C8.08920437,8.14473319 8.51197047,8.40489694 8.88438229,8.74583734 C9.28406934,9.09936631 9.59039118,9.52213241 9.80649494,10.0141356 C10.0215497,10.5061389 10.1296015,11.0453492 10.1296015,11.6296686 C10.1296015,12.3640018 9.95755776,13.0500788 9.61347022,13.6899977 C9.26938268,14.3299166 8.76269279,14.8523422 8.09340056,15.2572745 C7.42515738,15.6632558 6.62997946,15.9045367 5.71101395,15.9811171 L4.48572661,16 C3.73355964,15.9171253 3.07580693,15.7398362 2.51351753,15.4702311 C1.95017909,15.1995768 1.48020586,14.8638817 1.10464689,14.4620965 C0.728038884,14.0592623 0.450041327,13.6417415 0.269605178,13.2074359 C0.090218075,12.7731302 0,12.347217 0,11.9286471 C0,11.6202272 0.119591402,11.3422296 0.3608723,11.0946544 C0.602153198,10.8470793 0.903229797,10.7232917 1.26305305,10.7232917 C1.55363917,10.7232917 1.79701817,10.7914797 1.99633717,10.9257578 C2.19565617,11.0610849 2.33413043,11.2509625 2.41175993,11.4943415 C2.5859018,12.0230614 2.73591558,12.4258956 2.8649484,12.7059912 C2.99398123,12.9860869 3.188055,13.2410054 3.4492678,13.4728449 C3.70943155,13.7036353 4.05456814,13.8809243 4.48572661,14.0036628 L4.48572661,9.51688717 C3.62340966,9.27980246 2.90376316,9.01439347 2.324689,8.72170925 C1.74561485,8.42902503 1.27564162,8.01255322 0.915818366,7.47229382 C0.555995113,6.93203442 0.376608011,6.23756505 0.376608011,5.38888572 C0.376608011,4.28214073 0.728038884,3.37576379 1.43194968,2.66765681 C2.13690952,1.96059887 3.15448548,1.54832325 4.48572661,1.43292804 L4.48572661,0.410106836 C4.48572661,-0.130152566 5.71101395,-0.13644685 5.71101395,0.390174936 L5.71101395,1.43292804 Z" id="Fill-1"></path>
                    <path d="M6,18 C6,18.5522847 5.55228475,19 5,19 C4.44771525,19 4,18.5522847 4,18 L4,6.43929354e-15 C4,-0.55228475 4.44771525,-1 5,-1 C5.55228475,-1 6,-0.55228475 6,-6.66133815e-15 L6,18 Z" id="Stroke-4" fill-rule="nonzero"></path>
                </g>
            </g>
        </g>
    </g>
</svg>