<?xml version="1.0" encoding="UTF-8" standalone="no"?>
<svg width="16px" height="20px" viewBox="0 0 16 20" version="1.1" xmlns="http://www.w3.org/2000/svg" xmlns:xlink="http://www.w3.org/1999/xlink">
    <!-- Generator: Sketch 49.3 (51167) - http://www.bohemiancoding.com/sketch -->
    <title>Icon/Catatan</title>
    <desc>Created with Sketch.</desc>
    <defs></defs>
    <g id="Icon" stroke="none" stroke-width="1" fill="none" fill-rule="evenodd">
        <g id="Fontastic" transform="translate(-1043.000000, -446.000000)">
            <g id="Icon/Catatan" transform="translate(1039.000000, 444.000000)">
                <g id="Group-3">
                    <g id="Group-2">
                        <rect id="Rectangle-Copy-20" fill-opacity="0" fill="#D8D8D8" x="0" y="0" width="24" height="24"></rect>
                        <g id="Group-Copy" transform="translate(5.000000, 3.000000)" fill="#222222" fill-rule="nonzero">
                            <path d="M1,1 L1,17 L13,17 L13,1 L1,1 Z M0,-1 L14,-1 C14.5522847,-1 15,-0.55228475 15,0 L15,18 C15,18.5522847 14.5522847,19 14,19 L0,19 C-0.55228475,19 -1,18.5522847 -1,18 L-1,0 C-1,-0.55228475 -0.55228475,-1 0,-1 Z" id="Rectangle"></path>
                            <path d="M3.5,14.5 C2.94771525,14.5 2.5,14.0522847 2.5,13.5 C2.5,12.9477153 2.94771525,12.5 3.5,12.5 L7.5,12.5 C8.05228475,12.5 8.5,12.9477153 8.5,13.5 C8.5,14.0522847 8.05228475,14.5 7.5,14.5 L3.5,14.5 Z" id="Line-2-Copy-3"></path>
                            <path d="M3.5,10 C2.94771525,10 2.5,9.55228475 2.5,9 C2.5,8.44771525 2.94771525,8 3.5,8 L10.5,8 C11.0522847,8 11.5,8.44771525 11.5,9 C11.5,9.55228475 11.0522847,10 10.5,10 L3.5,10 Z" id="Line-2-Copy-2"></path>
                            <path d="M3.5,5.5 C2.94771525,5.5 2.5,5.05228475 2.5,4.5 C2.5,3.94771525 2.94771525,3.5 3.5,3.5 L10.5,3.5 C11.0522847,3.5 11.5,3.94771525 11.5,4.5 C11.5,5.05228475 11.0522847,5.5 10.5,5.5 L3.5,5.5 Z" id="Line-2-Copy-2"></path>
                        </g>
                    </g>
                </g>
            </g>
        </g>
    </g>
</svg>