<?xml version="1.0" encoding="UTF-8"?>
<svg width="16px" height="16px" viewBox="0 0 16 16" version="1.1" xmlns="http://www.w3.org/2000/svg" xmlns:xlink="http://www.w3.org/1999/xlink">
    <!-- Generator: Sketch 50.2 (55047) - http://www.bohemiancoding.com/sketch -->
    <title>Icon/Close_inCircle</title>
    <desc>Created with Sketch.</desc>
    <defs></defs>
    <g id="Icon" stroke="none" stroke-width="1" fill="none" fill-rule="evenodd">
        <g id="Fontastic" transform="translate(-959.000000, -994.000000)">
            <g id="Icon/Close_circle" transform="translate(955.000000, 990.000000)">
                <rect id="Rectangle-Copy-12" x="0" y="0" width="24" height="24"></rect>
                <g id="Group" stroke-width="1" fill-rule="evenodd" transform="translate(4.000000, 4.000000)" fill="#222222">
                    <path d="M8,6.58578644 L5.70710678,4.29289322 C5.31658249,3.90236893 4.68341751,3.90236893 4.29289322,4.29289322 C3.90236893,4.68341751 3.90236893,5.31658249 4.29289322,5.70710678 L6.58578644,8 L4.29289322,10.2928932 C3.90236893,10.6834175 3.90236893,11.3165825 4.29289322,11.7071068 C4.68341751,12.0976311 5.31658249,12.0976311 5.70710678,11.7071068 L8,9.41421356 L10.2928932,11.7071068 C10.6834175,12.0976311 11.3165825,12.0976311 11.7071068,11.7071068 C12.0976311,11.3165825 12.0976311,10.6834175 11.7071068,10.2928932 L9.41421356,8 L11.7071068,5.70710678 C12.0976311,5.31658249 12.0976311,4.68341751 11.7071068,4.29289322 C11.3165825,3.90236893 10.6834175,3.90236893 10.2928932,4.29289322 L8,6.58578644 Z M8,16 C3.581722,16 0,12.418278 0,8 C0,3.581722 3.581722,0 8,0 C12.418278,0 16,3.581722 16,8 C16,12.418278 12.418278,16 8,16 Z" id="Oval"></path>
                </g>
            </g>
        </g>
    </g>
</svg>