<?xml version="1.0" encoding="UTF-8" standalone="no"?>
<svg width="17px" height="17px" viewBox="0 0 17 17" version="1.1" xmlns="http://www.w3.org/2000/svg" xmlns:xlink="http://www.w3.org/1999/xlink">
    <!-- Generator: Sketch 49.3 (51167) - http://www.bohemiancoding.com/sketch -->
    <title>Icon/Close</title>
    <desc>Created with Sketch.</desc>
    <defs></defs>
    <g id="Icon" stroke="none" stroke-width="1" fill="none" fill-rule="evenodd">
        <g id="Fontastic" transform="translate(-539.000000, -790.000000)">
            <g id="Icon/Close" transform="translate(535.000000, 786.000000)">
                <g id="Icon/Close_off">
                    <rect id="Rectangle-Copy-9" fill-opacity="0" fill="#D8D8D8" x="0" y="0" width="24" height="24"></rect>
                    <path d="M12,10.5857864 L18.2928932,4.29289322 C18.6834175,3.90236893 19.3165825,3.90236893 19.7071068,4.29289322 C20.0976311,4.68341751 20.0976311,5.31658249 19.7071068,5.70710678 L13.4142136,12 L19.8492424,18.4350288 C20.2397667,18.8255531 20.2397667,19.4587181 19.8492424,19.8492424 C19.4587181,20.2397667 18.8255531,20.2397667 18.4350288,19.8492424 L12,13.4142136 L5.70710678,19.7071068 C5.31658249,20.0976311 4.68341751,20.0976311 4.29289322,19.7071068 C3.90236893,19.3165825 3.90236893,18.6834175 4.29289322,18.2928932 L10.5857864,12 L4.29289322,5.70710678 C3.90236893,5.31658249 3.90236893,4.68341751 4.29289322,4.29289322 C4.68341751,3.90236893 5.31658249,3.90236893 5.70710678,4.29289322 L12,10.5857864 Z" id="Line" fill="#222222" fill-rule="nonzero"></path>
                    <g id="cross" transform="translate(5.000000, 5.000000)"></g>
                </g>
            </g>
        </g>
    </g>
</svg>