<?xml version="1.0" encoding="UTF-8"?>
<svg width="20px" height="20px" viewBox="0 0 20 20" version="1.1" xmlns="http://www.w3.org/2000/svg" xmlns:xlink="http://www.w3.org/1999/xlink">
    <!-- Generator: Sketch 50.2 (55047) - http://www.bohemiancoding.com/sketch -->
    <title>Icon/Compliment</title>
    <desc>Created with Sketch.</desc>
    <defs></defs>
    <g id="Icon" stroke="none" stroke-width="1" fill="none" fill-rule="evenodd">
        <g id="Fontastic" transform="translate(-1041.000000, -554.000000)">
            <g id="Icon/Compliment" transform="translate(1039.000000, 552.000000)">
                <g id="Group-2-Copy">
                    <g id="Group">
                        <g id="Group-4" fill="#D8D8D8" fill-opacity="0">
                            <rect id="Rectangle-Copy-10" x="0" y="0" width="24" height="24"></rect>
                        </g>
                        <path d="M12,22 C6.4771525,22 2,17.5228475 2,12 C2,6.4771525 6.4771525,2 12,2 C17.5228475,2 22,6.4771525 22,12 C22,17.5228475 17.5228475,22 12,22 Z M12,20 C16.418278,20 20,16.418278 20,12 C20,7.581722 16.418278,4 12,4 C7.581722,4 4,7.581722 4,12 C4,16.418278 7.581722,20 12,20 Z" id="Oval" fill="#222222" fill-rule="nonzero"></path>
                        <polygon id="Star-Copy-2" fill="#222222" points="12 15.9501553 8.29179607 18 9 13.6583592 6 10.5835921 10.145898 9.95015528 12 6 13.854102 9.95015528 18 10.5835921 15 13.6583592 15.7082039 18"></polygon>
                    </g>
                </g>
            </g>
        </g>
    </g>
</svg>