<?xml version="1.0" encoding="UTF-8" standalone="no"?>
<svg width="22px" height="22px" viewBox="0 0 22 22" version="1.1" xmlns="http://www.w3.org/2000/svg" xmlns:xlink="http://www.w3.org/1999/xlink">
    <!-- Generator: Sketch 49.3 (51167) - http://www.bohemiancoding.com/sketch -->
    <title>Icon/Compass</title>
    <desc>Created with Sketch.</desc>
    <defs></defs>
    <g id="Icon" stroke="none" stroke-width="1" fill="none" fill-rule="evenodd">
        <g id="Fontastic" transform="translate(-536.000000, -445.000000)" fill="#222222">
            <g id="Icon/Compass" transform="translate(535.000000, 444.000000)">
                <g id="Group-11" transform="translate(-4.000000, -4.000000)">
                    <g id="Group-2" transform="translate(16.342087, 16.012131) rotate(-45.000000) translate(-16.342087, -16.012131) translate(5.342087, 5.012131)">
                        <g id="Group" transform="translate(0.000000, 0.000000)">
                            <path d="M10.6923077,21.3846154 C4.78710921,21.3846154 7.10542736e-14,16.5975062 7.10542736e-14,10.6923077 C7.10542736e-14,4.78710921 4.78710921,7.10542736e-14 10.6923077,7.10542736e-14 C16.5975062,7.10542736e-14 21.3846154,4.78710921 21.3846154,10.6923077 C21.3846154,16.5975062 16.5975062,21.3846154 10.6923077,21.3846154 Z M10.6923077,19.3846154 C15.4929367,19.3846154 19.3846154,15.4929367 19.3846154,10.6923077 C19.3846154,5.89167871 15.4929367,2 10.6923077,2 C5.89167871,2 2,5.89167871 2,10.6923077 C2,15.4929367 5.89167871,19.3846154 10.6923077,19.3846154 Z" id="Oval-4" fill-rule="nonzero"></path>
                            <path d="M9.71314253,11.643713 C9.84819679,11.7735663 9.974553,11.9551619 10.1016102,12.2020756 L11.2475844,10.1149739 L9.19106527,11.3015874 C9.41698555,11.4110345 9.58727716,11.5226947 9.71314253,11.643713 Z M6.2424256,10.6939035 L13.3455704,6.59538208 C14.2218115,6.08979016 15.2088012,7.0560702 14.7219018,7.94283422 L10.7926169,15.0990311 C10.3662464,15.8755568 9.21534347,15.7551808 8.95888072,14.9072357 C8.62858343,13.8151709 8.34545662,13.103197 8.32696134,13.0854139 C8.30835195,13.0675212 7.5895725,12.8136591 6.49053617,12.5278749 C5.62472426,12.3027365 5.46755802,11.1410028 6.2424256,10.6939035 Z" id="Path-5" fill-rule="nonzero"></path>
                            <path d="M6.74219866,11.5600599 L13.8453435,7.46153846 L9.9160586,14.6177353 C9.52038615,13.3095199 9.22171726,12.5584627 9.02005194,12.3645634 C8.81838661,12.1706642 8.05910218,11.9024964 6.74219866,11.5600599 Z" id="Path-5"></path>
                            <path d="M10.7454195,19.4131314 C10.3772297,19.4131314 10.0261924,19.3858948 9.69230769,19.3314218 L9.69230769,17.7327402 C9.69230769,17.1804554 10.1400229,16.7327402 10.6923077,16.7327402 C11.2445924,16.7327402 11.6923077,17.1804554 11.6923077,17.7327402 L11.6923077,19.3317347 C11.4292388,19.3859991 11.1136094,19.4131314 10.7454195,19.4131314 Z" id="Path-6" fill-rule="nonzero"></path>
                            <path d="M1.99036597,10.7421719 C1.99036597,10.373982 2.01189481,10.0232581 2.05495248,9.69 L3.5,9.69 C4.05228475,9.69 4.5,10.1377153 4.5,10.69 C4.5,11.2422847 4.05228475,11.69 3.5,11.69 L2.05318299,11.69 C2.01130498,11.4263044 1.99036597,11.1103617 1.99036597,10.7421719 Z" id="Path-6" fill-rule="nonzero"></path>
                            <path d="M19.3898366,10.6759885 C19.3898366,11.0441783 19.3710699,11.3829514 19.3335365,11.6923077 L17.7327402,11.6923077 C17.1804554,11.6923077 16.7327402,11.2445924 16.7327402,10.6923077 C16.7327402,10.1400229 17.1804554,9.69230769 17.7327402,9.69230769 L19.3311412,9.69230769 C19.3702715,9.97990507 19.3898366,10.3077987 19.3898366,10.6759885 Z" id="Path-6" fill-rule="nonzero"></path>
                            <path d="M10.7232012,1.99212458 C11.0579911,1.99232326 11.3805289,2.01366151 11.6908145,2.05613933 L11.6923077,3.5 C11.6923077,4.05228475 11.2445924,4.5 10.6923077,4.5 C10.1400229,4.5 9.69230769,4.05228475 9.69230769,3.5 L9.68739204,2.05207165 C10.0431416,2.01190827 10.3884114,1.99192591 10.7232012,1.99212458 Z" id="Path-6" fill-rule="nonzero"></path>
                        </g>
                    </g>
                </g>
            </g>
        </g>
    </g>
</svg>