<?xml version="1.0" encoding="UTF-8"?>
<svg width="21px" height="20px" viewBox="0 0 21 20" version="1.1" xmlns="http://www.w3.org/2000/svg" xmlns:xlink="http://www.w3.org/1999/xlink">
    <!-- Generator: Sketch 50.2 (55047) - http://www.bohemiancoding.com/sketch -->
    <title>Icon/Confirmation_done</title>
    <desc>Created with Sketch.</desc>
    <defs></defs>
    <g id="Icon" stroke="none" stroke-width="1" fill="none" fill-rule="evenodd">
        <g id="Fontastic" transform="translate(-621.000000, -554.000000)">
            <g id="Icon/ConfirmationDone" transform="translate(619.000000, 552.000000)">
                <rect id="Rectangle-Copy-10" fill-opacity="0" fill="#D8D8D8" x="0" y="0" width="24" height="24"></rect>
                <g id="Group" stroke-width="1" transform="translate(2.500000, 2.000000)" fill="#222222">
                    <path d="M2,18 L8.05343294,18 C8.60571769,18 9.05343294,18.4477153 9.05343294,19 C9.05343294,19.5522847 8.60571769,20 8.05343294,20 L1,20 C0.44771525,20 0,19.5522847 0,19 L0,1 C0,0.44771525 0.44771525,0 1,0 L15,0 C15.5522847,0 16,0.44771525 16,1 L16,10 C16,10.5522847 15.5522847,11 15,11 C14.4477153,11 14,10.5522847 14,10 L14,2 L2,2 L2,18 Z" id="Rectangle" fill-rule="nonzero"></path>
                    <path d="M4.5,15.5 C3.94771525,15.5 3.5,15.0522847 3.5,14.5 C3.5,13.9477153 3.94771525,13.5 4.5,13.5 L8,13.5 C8.55228475,13.5 9,13.9477153 9,14.5 C9,15.0522847 8.55228475,15.5 8,15.5 L4.5,15.5 Z" id="Line-2-Copy-3" fill-rule="nonzero"></path>
                    <path d="M4.5,11 C3.94771525,11 3.5,10.5522847 3.5,10 C3.5,9.44771525 3.94771525,9 4.5,9 L11.5,9 C12.0522847,9 12.5,9.44771525 12.5,10 C12.5,10.5522847 12.0522847,11 11.5,11 L4.5,11 Z" id="Line-2-Copy-2" fill-rule="nonzero"></path>
                    <path d="M4.5,6.5 C3.94771525,6.5 3.5,6.05228475 3.5,5.5 C3.5,4.94771525 3.94771525,4.5 4.5,4.5 L11.5,4.5 C12.0522847,4.5 12.5,4.94771525 12.5,5.5 C12.5,6.05228475 12.0522847,6.5 11.5,6.5 L4.5,6.5 Z" id="Line-2-Copy-2" fill-rule="nonzero"></path>
                    <g id="Group-3" transform="translate(10.000000, 12.000000)" fill-rule="nonzero">
                        <path d="M0.501226552,4.20710678 C0.11070226,3.81658249 0.11070226,3.18341751 0.501226552,2.79289322 C0.891750844,2.40236893 1.52491582,2.40236893 1.91544011,2.79289322 L4.41544011,5.29289322 C4.80596441,5.68341751 4.80596441,6.31658249 4.41544011,6.70710678 C4.02491582,7.09763107 3.39175084,7.09763107 3.00122655,6.70710678 L0.501226552,4.20710678 Z" id="Line"></path>
                        <path d="M4.41544011,6.70710678 C4.02491582,7.09763107 3.39175084,7.09763107 3.00122655,6.70710678 C2.61070226,6.31658249 2.61070226,5.68341751 3.00122655,5.29289322 L8.00122655,0.292893219 C8.39175084,-0.0976310729 9.02491582,-0.0976310729 9.41544011,0.292893219 C9.80596441,0.683417511 9.80596441,1.31658249 9.41544011,1.70710678 L4.41544011,6.70710678 Z" id="Line"></path>
                    </g>
                </g>
            </g>
        </g>
    </g>
</svg>