<?xml version="1.0" encoding="UTF-8"?>
<svg width="15px" height="20px" viewBox="0 0 15 20" version="1.1" xmlns="http://www.w3.org/2000/svg" xmlns:xlink="http://www.w3.org/1999/xlink">
    <!-- Generator: Sketch 50.2 (55047) - http://www.bohemiancoding.com/sketch -->
    <title>Icon/Dari_Provinsi</title>
    <desc>Created with Sketch.</desc>
    <defs></defs>
    <g id="Icon" stroke="none" stroke-width="1" fill="none" fill-rule="evenodd">
        <g id="Fontastic" transform="translate(-706.000000, -554.000000)">
            <g id="Icon/DariProvinsi" transform="translate(703.000000, 552.000000)">
                <rect id="Rectangle-Copy-10" fill-opacity="0" fill="#D8D8D8" x="0" y="0" width="24" height="24"></rect>
                <g id="Group" stroke-width="1" transform="translate(3.000000, 2.000000)" fill="#222222">
                    <path d="M8.20888232,19.6253918 C7.80856855,20.1248694 7.0485743,20.1248694 6.64826054,19.6253918 C2.22271852,14.1035755 0,10.1026822 0,7.42857143 C0,3.32588472 3.32588472,0 7.42857143,0 C11.5312581,0 14.8571429,3.32588472 14.8571429,7.42857143 C14.8571429,10.1026822 12.6344243,14.1035755 8.20888232,19.6253918 Z M12.8571429,7.42857143 C12.8571429,4.43045422 10.4266886,2 7.42857143,2 C4.43045422,2 2,4.43045422 2,7.42857143 C2,9.35475421 3.80410047,12.7270484 7.42857143,17.3866872 C11.0530424,12.7270484 12.8571429,9.35475421 12.8571429,7.42857143 Z" id="Oval" fill-rule="nonzero"></path>
                    <circle id="Oval-2" cx="7.42857143" cy="7.42857143" r="2.57142857"></circle>
                </g>
            </g>
        </g>
    </g>
</svg>