<?xml version="1.0" encoding="UTF-8" standalone="no"?>
<svg width="12px" height="22px" viewBox="0 0 12 22" version="1.1" xmlns="http://www.w3.org/2000/svg" xmlns:xlink="http://www.w3.org/1999/xlink">
    <!-- Generator: Sketch 49.3 (51167) - http://www.bohemiancoding.com/sketch -->
    <title>Icon/Electricity</title>
    <desc>Created with Sketch.</desc>
    <defs></defs>
    <g id="Icon" stroke="none" stroke-width="1" fill="none" fill-rule="evenodd">
        <g id="Fontastic" transform="translate(-457.000000, -553.000000)" fill="#222222">
            <g id="Icon/Electricity" transform="translate(451.000000, 552.000000)">
                <g id="Group-5">
                    <path d="M9.2755461,14.5323763 L7,14.5323763 C6.34462908,14.5323763 5.86641558,13.9125044 6.03273965,13.2785901 L9.05856136,1.74621385 C9.17391786,1.30655326 9.57127958,1 10.0258217,1 L17,1 C17.779841,1 18.2595759,1.85296101 17.8545479,2.51937252 L14.2967458,8.37319124 L15.9862459,8.37319124 C16.7545751,8.37319124 17.2358814,9.20365935 16.8539224,9.87032054 L9.61947869,22.4971293 C9.05396893,23.4841552 7.54208004,22.9113692 7.77253905,21.7974077 L9.2755461,14.5323763 Z M8.29622407,12.5323763 L10.5036044,12.5323763 C11.1373494,12.5323763 11.6112595,13.1143655 11.4828676,13.7349686 L11.0014517,16.0619716 L14.2607995,10.3731912 L12.5187618,10.3731912 C11.7389208,10.3731912 11.2591859,9.52023023 11.6642139,8.85381873 L15.2220161,3 L10.7972933,3 L8.29622407,12.5323763 Z" id="Path-4" fill-rule="nonzero"></path>
                </g>
            </g>
        </g>
    </g>
</svg>