<?xml version="1.0" encoding="UTF-8" standalone="no"?>
<svg width="24px" height="24px" viewBox="0 0 24 24" version="1.1" xmlns="http://www.w3.org/2000/svg" xmlns:xlink="http://www.w3.org/1999/xlink">
    <!-- Generator: Sketch 50.2 (55047) - http://www.bohemiancoding.com/sketch -->
    <title>Icon/Emoticon</title>
    <desc>Created with Sketch.</desc>
    <defs></defs>
    <g id="Icon" stroke="none" stroke-width="1" fill="none" fill-rule="evenodd">
        <g id="Fontastic" transform="translate(-619.000000, -882.000000)">
            <g id="Icon/Emoticon" transform="translate(619.000000, 882.000000)">
                <rect id="Rectangle-Copy-10" fill-opacity="0" fill="#D8D8D8" x="0" y="0" width="24" height="24"></rect>
                <g id="Group-5" stroke-width="1" fill="#222222">
                    <path d="M12,24 C5.372583,24 0,18.627417 0,12 C0,5.372583 5.372583,0 12,0 C18.627417,0 24,5.372583 24,12 C24,18.627417 18.627417,24 12,24 Z M12,22 C17.5228475,22 22,17.5228475 22,12 C22,6.4771525 17.5228475,2 12,2 C6.4771525,2 2,6.4771525 2,12 C2,17.5228475 6.4771525,22 12,22 Z" id="Oval-3" fill-rule="nonzero"></path>
                    <circle id="Oval-5" cx="7" cy="10" r="2"></circle>
                    <circle id="Oval-5" cx="17" cy="10" r="2"></circle>
                    <path d="M7,16 C8.13893392,17.9329016 9.80560059,18.8993524 12,18.8993524 C14.1943994,18.8993524 15.8610661,17.9329016 17,16" id="Path-2"></path>
                </g>
            </g>
        </g>
    </g>
</svg>