<?xml version="1.0" encoding="UTF-8" standalone="no"?>
<svg width="21px" height="21px" viewBox="0 0 21 21" version="1.1" xmlns="http://www.w3.org/2000/svg" xmlns:xlink="http://www.w3.org/1999/xlink">
    <!-- Generator: Sketch 49.3 (51167) - http://www.bohemiancoding.com/sketch -->
    <title>Icon/FlashLighting</title>
    <desc>Created with Sketch.</desc>
    <defs></defs>
    <g id="Icon" stroke="none" stroke-width="1" fill="none" fill-rule="evenodd">
        <g id="Fontastic" transform="translate(-873.000000, -350.000000)">
            <g id="Icon/FlashLighting" transform="translate(871.000000, 348.000000)">
                <g id="Group-2">
                    <rect id="Rectangle-Copy-42" fill-opacity="0" fill="#D8D8D8" x="0" y="0" width="24" height="24"></rect>
                    <g id="Group-Copy" transform="translate(3.000000, 3.000000)" fill="#222222">
                        <polygon id="Path-2" points="8.16097943 3.02814805 12.1701096 2 9.96769261 7.92889264 13.8137751 6.70938494 7.08448685 17 8.60532054 10.7131833 6 11.4451587"></polygon>
                        <path d="M9.5,20 C3.70101013,20 -1,15.2989899 -1,9.5 C-1,3.70101013 3.70101013,-1 9.5,-1 C15.2989899,-1 20,3.70101013 20,9.5 C20,15.2989899 15.2989899,20 9.5,20 Z M9.5,18 C14.1944204,18 18,14.1944204 18,9.5 C18,4.80557963 14.1944204,1 9.5,1 C4.80557963,1 1,4.80557963 1,9.5 C1,14.1944204 4.80557963,18 9.5,18 Z" id="Oval" fill-rule="nonzero"></path>
                    </g>
                </g>
            </g>
        </g>
    </g>
</svg>