<?xml version="1.0" encoding="UTF-8"?>
<svg width="21px" height="15px" viewBox="0 0 21 15" version="1.1" xmlns="http://www.w3.org/2000/svg" xmlns:xlink="http://www.w3.org/1999/xlink">
    <!-- Generator: Sketch 50.2 (55047) - http://www.bohemiancoding.com/sketch -->
    <title>Icon/Folder</title>
    <desc>Created with Sketch.</desc>
    <defs></defs>
    <g id="Icon" stroke="none" stroke-width="1" fill="none" fill-rule="evenodd">
        <g id="Fontastic" transform="translate(-537.000000, -995.000000)">
            <g id="Icon/Folder" transform="translate(535.000000, 990.000000)">
                <g id="Reshuffle">
                    <rect id="Rectangle_1459" x="0" y="0" width="24" height="24"></rect>
                    <path d="M8.34902467,6.07695441 L17,6.07695441 C18.1045695,6.07695441 19,6.97238492 19,8.07695441 L19,9.33521966 L7.82158086,9.31199628 C6.71701374,9.30970152 5.8197249,10.2032698 5.81743014,11.3078369 C5.8174223,11.3116107 5.81742514,11.3153844 5.81743866,11.3191582 L5.84854326,20 L4,20 C2.8954305,20 2,19.1045695 2,18 L2,8.07695441 L2,7 C2,5.8954305 2.8954305,5 4,5 L7.3029775,5 L8.34902467,6.07695441 Z" id="Rectangle" fill="#222222"></path>
                    <path d="M7.39669145,11 L5.99077887,18 L19.6033085,18 L21.0092211,11 L7.39669145,11 Z M7.39669145,9 L21.0092211,9 C22.1086979,9 23,9.8954305 23,11 C23,11.1328442 22.9868254,11.2653578 22.9606715,11.3955776 L21.5547589,18.3955776 C21.3673164,19.3288484 20.5509984,20 19.6033085,20 L5.99077887,20 C4.89130206,20 4,19.1045695 4,18 C4,17.8671558 4.01317458,17.7346422 4.03932852,17.6044224 L5.44524111,10.6044224 C5.63268356,9.67115156 6.44900162,9 7.39669145,9 Z" id="Rectangle" fill="#222222" fill-rule="nonzero"></path>
                </g>
            </g>
        </g>
    </g>
</svg>