<?xml version="1.0" encoding="UTF-8" standalone="no"?>
<svg width="18px" height="9px" viewBox="0 0 18 9" version="1.1" xmlns="http://www.w3.org/2000/svg" xmlns:xlink="http://www.w3.org/1999/xlink">
    <!-- Generator: Sketch 49.3 (51167) - http://www.bohemiancoding.com/sketch -->
    <title>Icon/Forward</title>
    <desc>Created with Sketch.</desc>
    <defs></defs>
    <g id="Icon" stroke="none" stroke-width="1" fill="none" fill-rule="evenodd">
        <g id="Fontastic" transform="translate(-1043.000000, -794.000000)">
            <g id="Icon/forward" transform="translate(1040.000000, 786.000000)">
                <g id="Group-13" fill="#D8D8D8" fill-opacity="0">
                    <rect id="Rectangle-Copy-21" x="0" y="0" width="24" height="24"></rect>
                </g>
                <g id="Group-2-Copy" transform="translate(3.000000, 7.000000)" fill="#222222">
                    <path d="M7.1910121,4.29226445 L1.63608242,1.08527465 C1.15778419,0.809141989 0.546197112,0.97302956 0.270064446,1.45132779 C0.182302643,1.60334282 0.1361,1.77578043 0.1361,1.95131021 L0.1361,8.36528979 C0.1361,8.91757454 0.58381525,9.36528979 1.1361,9.36528979 C1.31162978,9.36528979 1.48406739,9.31908715 1.63608242,9.23132535 L7.1910121,6.02433555 C7.66931032,5.74820289 7.83319789,5.13661581 7.55706523,4.65831758 C7.4692931,4.50628467 7.34304501,4.38003658 7.1910121,4.29226445 Z" id="Fill-2"></path>
                    <path d="M17.3858121,4.29226445 L11.8308824,1.08527465 C11.3525842,0.809141989 10.7409971,0.97302956 10.4648644,1.45132779 C10.3771026,1.60334282 10.3309,1.77578043 10.3309,1.95131021 L10.3309,8.36528979 C10.3309,8.91757454 10.7786153,9.36528979 11.3309,9.36528979 C11.5064298,9.36528979 11.6788674,9.31908715 11.8308824,9.23132535 L17.3858121,6.02433555 C17.8641103,5.74820289 18.0279979,5.13661581 17.7518652,4.65831758 C17.6640931,4.50628467 17.537845,4.38003658 17.3858121,4.29226445 Z" id="Fill-3"></path>
                </g>
            </g>
        </g>
    </g>
</svg>