<?xml version="1.0" encoding="UTF-8"?>
<svg width="22px" height="18px" viewBox="0 0 22 18" version="1.1" xmlns="http://www.w3.org/2000/svg" xmlns:xlink="http://www.w3.org/1999/xlink">
    <!-- Generator: Sketch 50.2 (55047) - http://www.bohemiancoding.com/sketch -->
    <title>Icon/Galeri</title>
    <desc>Created with Sketch.</desc>
    <defs></defs>
    <g id="Icon" stroke="none" stroke-width="1" fill="none" fill-rule="evenodd">
        <g id="Fontastic" transform="translate(-452.000000, -993.000000)" fill="#222222">
            <g id="Icon/Gallery" transform="translate(451.000000, 990.000000)">
                <g id="Group" transform="translate(1.000000, 3.000000)">
                    <path d="M3,2 C2.44771525,2 2,2.44771525 2,3 L2,15 C2,15.5522847 2.44771525,16 3,16 L19,16 C19.5522847,16 20,15.5522847 20,15 L20,3 C20,2.44771525 19.5522847,2 19,2 L3,2 Z M3,0 L19,0 C20.6568542,-2.22044605e-16 22,1.34314575 22,3 L22,15 C22,16.6568542 20.6568542,18 19,18 L3,18 C1.34314575,18 2.22044605e-16,16.6568542 0,15 L0,3 C-2.22044605e-16,1.34314575 1.34314575,3.33066907e-16 3,0 Z" id="Rectangle-10" fill-rule="nonzero"></path>
                    <path d="M2,12.9716423 L6.94881293,6.77340849 C7.29340733,6.34181476 7.92263213,6.27128786 8.35422586,6.61588226 C8.39517337,6.6485757 8.43348794,6.68443692 8.46881564,6.72313464 L12.6625689,11.3169447 L15.0830466,9.46305929 C15.4734777,9.16402139 16.0233881,9.19325791 16.3799106,9.53200834 L20,12.9716423 L20,15.000082 C20,15.5523668 19.5522847,16.000082 19,16.000082 L3,16.000082 C2.44771525,16.000082 2,15.5523668 2,15.000082 L2,12.9716423 Z" id="Path-14"></path>
                    <circle id="Oval-12" cx="14.5" cy="5.5" r="2.5"></circle>
                </g>
            </g>
        </g>
    </g>
</svg>