<?xml version="1.0" encoding="UTF-8"?>
<svg width="21px" height="20px" viewBox="0 0 21 20" version="1.1" xmlns="http://www.w3.org/2000/svg" xmlns:xlink="http://www.w3.org/1999/xlink">
    <!-- Generator: Sketch 50.2 (55047) - http://www.bohemiancoding.com/sketch -->
    <title>Icon/Graphic</title>
    <desc>Created with Sketch.</desc>
    <defs>
        <rect id="path-1" x="0" y="0" width="24" height="24"></rect>
    </defs>
    <g id="Icon" stroke="none" stroke-width="1" fill="none" fill-rule="evenodd">
        <g id="Fontastic" transform="translate(-621.000000, -992.000000)">
            <g id="Icon/Graphic" transform="translate(619.000000, 990.000000)">
                <g id="Path-15-+-Path-38-+-Path-16-+-Path-16-+-Path-16-+-Path-16-Mask">
                    <mask id="mask-2" fill="white">
                        <use xlink:href="#path-1"></use>
                    </mask>
                    <g id="Mask"></g>
                    <path d="M18.4012551,4.56549474 L16.1806571,5.00793621 C15.6390188,5.11585455 15.1124491,4.76425503 15.0045307,4.2226167 C14.8966124,3.68097838 15.2482119,3.15440866 15.7898502,3.04649032 L20.8088147,2.04649032 C21.4274056,1.92323961 22.0042182,2.39646333 22.0042182,3.02721326 L22.0042182,8.02568882 C22.0042182,8.57797357 21.5565029,9.02568882 21.0042182,9.02568882 C20.4519334,9.02568882 20.0042182,8.57797357 20.0042182,8.02568882 L20.0042182,5.76557763 L11.8003647,15.6687375 C11.3736749,16.1838098 10.5713922,16.1429026 10.1993046,15.5871019 L6.87392584,10.6198634 L3.73212575,13.7583873 C3.34139779,14.1487078 2.7082329,14.1483775 2.31791238,13.7576495 C1.92759187,13.3669216 1.92792216,12.7337567 2.31865013,12.3434361 L6.32127467,8.34498546 C6.76701628,7.89970866 7.50849017,7.97260074 7.85898903,8.49615357 L11.1154497,13.3604466 L18.4012551,4.56549474 Z" id="Combined-Shape" fill="#222222" fill-rule="nonzero" mask="url(#mask-2)"></path>
                    <path d="M13.0287779,18.0323347 C13.0287779,17.4800499 13.4764931,17.0323347 14.0287779,17.0323347 C14.5810626,17.0323347 15.0287779,17.4800499 15.0287779,18.0323347 L15.0287779,21.0115222 C15.0287779,21.5638069 14.5810626,22.0115222 14.0287779,22.0115222 C13.4764931,22.0115222 13.0287779,21.5638069 13.0287779,21.0115222 L13.0287779,18.0323347 Z" id="Path-16" fill="#222222" fill-rule="nonzero" mask="url(#mask-2)"></path>
                    <path d="M8.02877785,19.0323347 C8.02877785,18.4800499 8.4764931,18.0323347 9.02877785,18.0323347 C9.5810626,18.0323347 10.0287779,18.4800499 10.0287779,19.0323347 L10.0287779,21.0115222 C10.0287779,21.5638069 9.5810626,22.0115222 9.02877785,22.0115222 C8.4764931,22.0115222 8.02877785,21.5638069 8.02877785,21.0115222 L8.02877785,19.0323347 Z" id="Path-16" fill="#222222" fill-rule="nonzero" mask="url(#mask-2)"></path>
                    <path d="M3.02877785,17.0323347 C3.02877785,16.4800499 3.4764931,16.0323347 4.02877785,16.0323347 C4.5810626,16.0323347 5.02877785,16.4800499 5.02877785,17.0323347 L5.02877785,21.0115222 C5.02877785,21.5638069 4.5810626,22.0115222 4.02877785,22.0115222 C3.4764931,22.0115222 3.02877785,21.5638069 3.02877785,21.0115222 L3.02877785,17.0323347 Z" id="Path-16" fill="#222222" fill-rule="nonzero" mask="url(#mask-2)"></path>
                    <path d="M18.0287779,13.0323347 C18.0287779,12.4800499 18.4764931,12.0323347 19.0287779,12.0323347 C19.5810626,12.0323347 20.0287779,12.4800499 20.0287779,13.0323347 L20.0287779,21.0115222 C20.0287779,21.5638069 19.5810626,22.0115222 19.0287779,22.0115222 C18.4764931,22.0115222 18.0287779,21.5638069 18.0287779,21.0115222 L18.0287779,13.0323347 Z" id="Path-16" fill="#222222" fill-rule="nonzero" mask="url(#mask-2)"></path>
                </g>
            </g>
        </g>
    </g>
</svg>