<?xml version="1.0" encoding="UTF-8" standalone="no"?>
<svg width="22px" height="19px" viewBox="0 0 22 19" version="1.1" xmlns="http://www.w3.org/2000/svg" xmlns:xlink="http://www.w3.org/1999/xlink">
    <!-- Generator: Sketch 49.3 (51167) - http://www.bohemiancoding.com/sketch -->
    <title>Icon/Home</title>
    <desc>Created with Sketch.</desc>
    <defs></defs>
    <g id="Icon" stroke="none" stroke-width="1" fill="none" fill-rule="evenodd">
        <g id="Fontastic" transform="translate(-453.000000, -693.000000)">
            <g id="Icon/Home" transform="translate(452.000000, 690.000000)">
                <rect id="Rectangle-Copy-27" fill-opacity="0" fill="#D8D8D8" x="0" y="0" width="24" height="24"></rect>
                <g id="Page-1" stroke-width="1" transform="translate(1.500000, 3.000000)" fill="#222222">
                    <path d="M10.5294118,2.26290535 L1.61074807,9.1420223 C1.17343521,9.47932914 0.545481866,9.39825825 0.208175022,8.96094539 C-0.129131823,8.52363253 -0.0480609289,7.89567918 0.389251931,7.55837234 L9.9186637,0.208175022 C10.2785244,-0.0693916739 10.7802991,-0.0693916739 11.1401598,0.208175022 L20.6695716,7.55837234 C21.1068845,7.89567918 21.1879554,8.52363253 20.8506485,8.96094539 C20.5133417,9.39825825 19.8853883,9.47932914 19.4480755,9.1420223 L10.5294118,2.26290535 Z" id="Stroke-1" fill-rule="nonzero"></path>
                    <polygon id="Fill-3" points="8.2000002 17 12.9647061 17 12.9647061 9.47058824 8.2000002 9.47058824"></polygon>
                    <path d="M16.4117647,16.9411765 L16.4117647,6.29411765 C16.4117647,5.7418329 16.85948,5.29411765 17.4117647,5.29411765 C17.9640495,5.29411765 18.4117647,5.7418329 18.4117647,6.29411765 L18.4117647,17.9411765 C18.4117647,18.4934612 17.9640495,18.9411765 17.4117647,18.9411765 L3.64705882,18.9411765 C3.09477407,18.9411765 2.64705882,18.4934612 2.64705882,17.9411765 L2.64705882,6.29411765 C2.64705882,5.7418329 3.09477407,5.29411765 3.64705882,5.29411765 C4.19934357,5.29411765 4.64705882,5.7418329 4.64705882,6.29411765 L4.64705882,16.9411765 L16.4117647,16.9411765 Z" id="Stroke-4" fill-rule="nonzero"></path>
                </g>
            </g>
        </g>
    </g>
</svg>