<?xml version="1.0" encoding="UTF-8" standalone="no"?>
<svg width="20px" height="20px" viewBox="0 0 20 20" version="1.1" xmlns="http://www.w3.org/2000/svg" xmlns:xlink="http://www.w3.org/1999/xlink">
    <!-- Generator: Sketch 49.3 (51167) - http://www.bohemiancoding.com/sketch -->
    <title>Icon/Information</title>
    <desc>Created with Sketch.</desc>
    <defs></defs>
    <g id="Icon" stroke="none" stroke-width="1" fill="none" fill-rule="evenodd">
        <g id="Fontastic" transform="translate(-1042.000000, -692.000000)">
            <g id="Icon/Info" transform="translate(1040.000000, 690.000000)">
                <g id="ic_search" stroke-width="1"></g>
                <g id="search" stroke-width="1" transform="translate(3.000000, 3.000000)" fill="#222222">
                    <path d="M9,19 C3.4771525,19 -1,14.5228475 -1,9 C-1,3.4771525 3.4771525,-1 9,-1 C14.5228475,-1 19,3.4771525 19,9 C19,14.5228475 14.5228475,19 9,19 Z M9,17 C13.418278,17 17,13.418278 17,9 C17,4.581722 13.418278,1 9,1 C4.581722,1 1,4.581722 1,9 C1,13.418278 4.581722,17 9,17 Z" id="Oval-8" fill-rule="nonzero"></path>
                </g>
                <path d="M12.16,8.244 C11.53,8.244 10.99,7.722 10.99,7.074 C10.99,6.426 11.53,5.904 12.16,5.904 C12.808,5.904 13.33,6.426 13.33,7.074 C13.33,7.722 12.808,8.244 12.16,8.244 Z M13.114,18 L11.224,18 L11.224,9.306 L13.114,9.306 L13.114,18 Z" id="i" fill="#222222"></path>
            </g>
        </g>
    </g>
</svg>