<?xml version="1.0" encoding="UTF-8" standalone="no"?>
<svg width="20px" height="16px" viewBox="0 0 20 16" version="1.1" xmlns="http://www.w3.org/2000/svg" xmlns:xlink="http://www.w3.org/1999/xlink">
    <!-- Generator: Sketch 49.3 (51167) - http://www.bohemiancoding.com/sketch -->
    <title>Icon/Invisible</title>
    <desc>Created with Sketch.</desc>
    <defs></defs>
    <g id="Icon" stroke="none" stroke-width="1" fill="none" fill-rule="evenodd">
        <g id="Fontastic" transform="translate(-622.000000, -694.000000)">
            <g id="Icon/Invisible" transform="translate(620.000000, 690.000000)">
                <g id="Group-20">
                    <rect id="Rectangle-Copy-33" fill-opacity="0" fill="#D8D8D8" x="0" y="0" width="24" height="24"></rect>
                    <g id="Page-1" transform="translate(3.000000, 5.000000)" fill="#222222">
                        <path d="M9.0272,1.0991 C13.4635896,1.0991 17.4077643,3.27271566 18.9583771,6.55494222 C19.0861613,6.82542661 19.08614,7.13891343 18.9583191,7.40938047 C17.407457,10.6909817 13.4629403,12.8651 9.0272,12.8651 C4.59145966,12.8651 0.646943013,10.6909817 -0.903919128,7.40938047 C-1.03173999,7.13891343 -1.03176126,6.82542661 -0.903977101,6.55494222 C0.646635728,3.27271566 4.5908104,1.0991 9.0272,1.0991 Z M9.0272,3.0991 C5.533862,3.0991 2.47206229,4.67638811 1.12936458,6.98202296 C2.47231559,9.28737599 5.53446996,10.8651 9.0272,10.8651 C12.51993,10.8651 15.5820844,9.28737599 16.9250354,6.98202296 C15.5823377,4.67638811 12.520538,3.0991 9.0272,3.0991 Z" id="Stroke-1" fill-rule="nonzero"></path>
                        <path d="M12.5316,6.9819 C12.5316,8.9169 10.9626,10.4859 9.0276,10.4859 C7.0916,10.4859 5.5226,8.9169 5.5226,6.9819 C5.5226,5.0459 7.0916,3.4769 9.0276,3.4769 C10.9626,3.4769 12.5316,5.0459 12.5316,6.9819" id="Fill-3"></path>
                        <path d="M15.5797932,-0.707106781 C15.9703175,-1.09763107 16.6034825,-1.09763107 16.9940068,-0.707106781 C17.3845311,-0.316582489 17.3845311,0.316582489 16.9940068,0.707106781 L3.37900678,14.3221068 C2.98848249,14.7126311 2.35531751,14.7126311 1.96479322,14.3221068 C1.57426893,13.9315825 1.57426893,13.2984175 1.96479322,12.9078932 L15.5797932,-0.707106781 Z" id="Stroke-5" fill-rule="nonzero"></path>
                    </g>
                </g>
            </g>
        </g>
    </g>
</svg>