<?xml version="1.0" encoding="UTF-8"?>
<svg width="20px" height="20px" viewBox="0 0 20 20" version="1.1" xmlns="http://www.w3.org/2000/svg" xmlns:xlink="http://www.w3.org/1999/xlink">
    <!-- Generator: Sketch 50.2 (55047) - http://www.bohemiancoding.com/sketch -->
    <title>Icon/Ke_Provinsi</title>
    <desc>Created with Sketch.</desc>
    <defs></defs>
    <g id="Icon" stroke="none" stroke-width="1" fill="none" fill-rule="evenodd">
        <g id="Fontastic" transform="translate(-790.000000, -554.000000)">
            <g id="Icon/KeProvinsi" transform="translate(787.000000, 552.000000)">
                <rect id="Rectangle-Copy-10" fill-opacity="0" fill="#D8D8D8" x="0" y="0" width="24" height="24"></rect>
                <g id="Group" stroke-width="1" transform="translate(3.000000, 2.000000)" fill="#222222">
                    <path d="M7.69669484,16.9520573 C7.79323765,16.819939 7.88824572,16.6895444 7.98171876,16.5608742 C8.09441071,16.4056215 8.09441071,16.4056215 8.20508477,16.25264 C8.52862183,15.8050439 9.15374872,15.7044743 9.60134476,16.0280113 C10.0489408,16.3515484 10.1495105,16.9766753 9.82597341,17.4242713 C9.7138858,17.5792067 9.7138858,17.5792067 9.59982071,17.7363512 C9.50524551,17.8665386 9.40914119,17.9984377 9.31150748,18.1320489 C9.08340096,18.4442116 8.72377809,18.9317025 8.23204205,19.5953444 C7.84165478,20.122207 7.0583509,20.1370678 6.64826054,19.6253918 C2.22271852,14.1035755 0,10.1026822 0,7.42857143 C0,3.32588472 3.32588472,0 7.42857143,0 C11.5312581,0 14.8571429,3.32588472 14.8571429,7.42857143 C14.8571429,8.56680957 14.4625446,9.9131373 13.6933189,11.4928673 C13.4515333,11.9894135 12.852997,12.1959378 12.3564508,11.9541521 C11.8599046,11.7123664 11.6533804,11.1138302 11.8951661,10.617284 C12.5431409,9.2865623 12.8571429,8.21522055 12.8571429,7.42857143 C12.8571429,4.43045422 10.4266886,2 7.42857143,2 C4.43045422,2 2,4.43045422 2,7.42857143 C2,9.35011102 3.79541314,12.7107985 7.40239207,17.3530125 C7.51764012,17.196494 7.61575032,17.0628295 7.69669484,16.9520573 Z" id="Oval" fill-rule="nonzero"></path>
                    <circle id="Oval-2" cx="7.42857143" cy="7.42857143" r="2.57142857"></circle>
                </g>
                <g id="Group-2" stroke-width="1" transform="translate(13.000000, 13.500000)" fill="#222222">
                    <path d="M8.05660189,3.5 L5.5,1.90212382 L5.5,5.09787618 L8.05660189,3.5 Z M9.26499947,3.92399915 L5.26499947,6.42399915 C4.93197547,6.63213915 4.5,6.39271777 4.5,6 L4.5,1 C4.5,0.60728223 4.93197547,0.367860846 5.26499947,0.576000848 L9.26499947,3.07600085 C9.57833351,3.27183462 9.57833351,3.72816538 9.26499947,3.92399915 Z" id="Triangle-2" fill-rule="nonzero"></path>
                    <polygon id="Triangle-2" points="9 3.5 5 6 5 1"></polygon>
                    <path d="M6.5,2.5 C7.05228475,2.5 7.5,2.94771525 7.5,3.5 C7.5,4.05228475 7.05228475,4.5 6.5,4.5 L1.5,4.5 C0.94771525,4.5 0.5,4.05228475 0.5,3.5 C0.5,2.94771525 0.94771525,2.5 1.5,2.5 L6.5,2.5 Z" id="Line" fill-rule="nonzero"></path>
                </g>
            </g>
        </g>
    </g>
</svg>