<?xml version="1.0" encoding="UTF-8" standalone="no"?>
<svg width="24px" height="23px" viewBox="0 0 24 23" version="1.1" xmlns="http://www.w3.org/2000/svg" xmlns:xlink="http://www.w3.org/1999/xlink">
    <!-- Generator: Sketch 49.3 (51167) - http://www.bohemiancoding.com/sketch -->
    <title>Icon/KirimUang</title>
    <desc>Created with Sketch.</desc>
    <defs></defs>
    <g id="Icon" stroke="none" stroke-width="1" fill="none" fill-rule="evenodd">
        <g id="Fontastic" transform="translate(-367.000000, -349.000000)">
            <g id="Icon/KirimUang" transform="translate(367.000000, 348.000000)">
                <g id="Group-2" fill="#D8D8D8" fill-opacity="0">
                    <rect id="Rectangle-Copy-32" x="0" y="0" width="24" height="24"></rect>
                </g>
                <g id="Group" transform="translate(14.000000, 13.000000) rotate(-90.000000) translate(-14.000000, -13.000000) translate(-2.000000, -3.000000)">
                    <rect id="Rectangle-Copy-29" fill-opacity="0" fill="#D8D8D8" x="5" y="2" width="24" height="24"></rect>
                    <g id="Page-1" transform="translate(15.950278, 15.887649) rotate(35.000000) translate(-15.950278, -15.887649) translate(4.450278, 4.887649)" fill="#222222">
                        <path d="M7.59131547,15.1597848 L22.5913155,15.1597848 L22.5913155,7.15978479 L13.7048695,7.15978479 L13.7449009,7.7350649 C13.5680568,9.1515468 12.77512,10.0315252 11.3660906,10.3750001 C10.4165101,10.4827386 9.80409946,10.0551425 9.17360265,9.7927923 C8.89669562,9.6764129 8.39348859,9.48854035 7.66398155,9.22917467 L7.59131547,15.1597848 Z" id="Fill-1"></path>
                        <g id="Group-5" transform="translate(1.000000, 0.000000)" fill-rule="nonzero">
                            <path d="M1,9.204 C0.44771525,9.204 -3.55271368e-15,8.75628475 -3.55271368e-15,8.204 L-3.55271368e-15,2 C-3.55271368e-15,1.44771525 0.44771525,1 1,1 L4.251,1 C4.80328475,1 5.251,1.44771525 5.251,2 L5.251,8.204 C5.251,8.75628475 4.80328475,9.204 4.251,9.204 L1,9.204 Z M2,7.204 L3.251,7.204 L3.251,3 L2,3 L2,7.204 Z" id="Stroke-2"></path>
                            <path d="M9.85295466,8.35476516 C10.1203386,8.47292604 10.5390857,8.26061332 10.6928271,7.86626577 C10.876955,7.39397688 10.5930961,6.84851039 9.47613591,6.34233797 C8.49601045,5.89817489 8.81282995,4.4315 9.8889,4.4315 L17.497188,4.4315 C17.3571646,4.2627356 17.2419533,4.14720802 17.1819889,4.10589901 C16.2992443,3.4952426 14.9531874,3.2893321 11.7135317,3.16883845 C11.2900383,3.15342651 10.642388,3.13553208 9.806927,3.11570922 C9.30992499,3.10391694 8.752875,3.09159502 8.14642876,3.07888906 C7.23571062,3.05980816 6.25974568,3.04080402 5.28375336,3.02276189 C5.18002095,3.0208443 5.08828719,3.01915591 4.9999,3.01753903 L4.9999,6.82599546 C6.34187594,6.96650886 7.51387544,7.32155225 9.85295466,8.35476516 Z M4.24385752,8.77110066 C4.0853301,8.76157885 4.01689631,8.7572618 3.92865295,8.7509587 C3.40534755,8.71357974 2.9999,8.27813867 2.9999,7.7535 L2.9999,1.9995 C2.9999,1.44046604 3.45819982,0.990005135 4.01715059,0.999648803 C4.08250798,1.00077644 4.08250798,1.00077644 4.37582112,1.00595755 C4.76683791,1.01294485 4.97861131,1.01677935 5.32071892,1.02310353 C6.29823082,1.04117375 7.27577008,1.06020855 8.18832254,1.07932788 C8.79649907,1.09207009 9.35535062,1.10443186 9.85436734,1.11627195 C10.6976508,1.13628041 11.3522797,1.15436765 11.7870676,1.17019095 C15.4555529,1.30663385 16.9903446,1.5414157 18.318186,2.45997916 C18.5665615,2.6310737 18.8070707,2.87411064 19.0653225,3.18955569 C19.197757,3.35131955 19.3334041,3.53103589 19.4718318,3.72610448 C19.6596422,3.99076192 19.8438956,4.27114956 20.0181037,4.55116414 C20.1227596,4.71938352 20.201742,4.8516513 20.247535,4.93082443 C20.6331289,5.5974908 20.1520472,6.4315 19.3819,6.4315 L12.4699092,6.4315 C12.8039621,7.11242018 12.8419635,7.85980795 12.5562229,8.59273423 C12.0120714,9.98848568 10.4240416,10.7936672 9.04476997,10.1842015 C6.55800117,9.08575502 5.64482067,8.85507769 4.24385752,8.77110066 Z" id="Stroke-4"></path>
                        </g>
                        <path d="M1.81920442,18.3343044 L16.8192044,18.3343044 L16.8192044,11.8904297 L7.76515496,17.1275908 L4.28353338,10.9939962 L3.55519242,11.2635976 C3.49543438,11.5376389 3.36772793,11.7500549 3.17207305,11.9008457 C3.06649835,11.9822119 2.88056676,12.07268 2.62293809,12.225444 C2.45118564,12.3272866 2.18327441,12.4794142 1.81920442,12.6818268 L1.81920442,18.3343044 Z" id="Fill-1" transform="translate(9.319204, 14.664150) rotate(30.000000) translate(-9.319204, -14.664150) "></path>
                    </g>
                </g>
            </g>
        </g>
    </g>
</svg>