<?xml version="1.0" encoding="UTF-8" standalone="no"?>
<svg width="21px" height="20px" viewBox="0 0 21 20" version="1.1" xmlns="http://www.w3.org/2000/svg" xmlns:xlink="http://www.w3.org/1999/xlink">
    <!-- Generator: Sketch 49.3 (51167) - http://www.bohemiancoding.com/sketch -->
    <title>Icon/Kontak</title>
    <desc>Created with Sketch.</desc>
    <defs></defs>
    <g id="Icon" stroke="none" stroke-width="1" fill="none" fill-rule="evenodd">
        <g id="Fontastic" transform="translate(-789.000000, -446.000000)">
            <g id="Icon/Kontak" transform="translate(788.000000, 444.000000)">
                <rect id="Rectangle-Copy" fill-opacity="0" fill="#D8D8D8" fill-rule="evenodd" x="0.181818182" y="0" width="24" height="24"></rect>
                <g id="Group-2" stroke-width="1" fill-rule="evenodd" transform="translate(7.600000, 6.000000)" fill="#222222">
                    <path d="M7.79327778,3.35527778 C7.79327778,4.65583333 6.73883333,5.71027778 5.43827778,5.71027778 C4.13716667,5.71027778 3.08272222,4.65583333 3.08272222,3.35527778 C3.08272222,2.05472222 4.13716667,0.999722222 5.43827778,0.999722222 C6.73883333,0.999722222 7.79327778,2.05472222 7.79327778,3.35527778 Z M8.29327778,3.35527778 C8.29327778,4.93197571 7.01497571,6.21027778 5.43827778,6.21027778 C3.86112844,6.21027778 2.58272222,4.93207984 2.58272222,3.35527778 C2.58272222,1.7784062 3.86119791,0.499722222 5.43827778,0.499722222 C7.01490626,0.499722222 8.29327778,1.77851035 8.29327778,3.35527778 Z" id="Stroke-1" fill-rule="nonzero"></path>
                    <path d="M0.499944444,9.82744444 C0.499944444,8.03391099 2.64962724,6.68535461 5.2955,6.62022222 L5.48949997,6.62037436 C8.12303943,6.68535461 10.2727222,8.03391099 10.2727222,9.82744444 C10.2727222,10.9559722 8.30901034,11.4209417 5.52957857,11.4508414 C5.51235288,11.4526358 5.49486718,11.4535556 5.47716667,11.4535556 C5.44669578,11.4533679 5.44669578,11.4533679 5.42243834,11.4529159 C5.40127912,11.4525345 5.40127912,11.4525345 5.38605556,11.4524444 C5.37126738,11.4525333 5.37126738,11.4525333 5.35020114,11.4529151 C5.32597432,11.4533678 5.32597432,11.4533678 5.2955,11.4535556 C5.27779948,11.4535556 5.26031379,11.4526358 5.2430881,11.4508414 C2.46365633,11.4209417 0.499944444,10.9559722 0.499944444,9.82744444 Z M9.77272222,9.82744444 C9.77272222,10.558 7.65383333,10.9318889 5.47716667,10.9513333 L5.47716667,10.9535556 C5.44661111,10.9535556 5.41661111,10.9524444 5.38605556,10.9524444 C5.35605556,10.9524444 5.32605556,10.9535556 5.2955,10.9535556 L5.2955,10.9513333 C3.11883333,10.9318889 0.999944444,10.558 0.999944444,9.82744444 C0.999944444,8.36411111 2.90883333,7.17911111 5.2955,7.12022222 L5.47716667,7.12022222 C7.86383333,7.17911111 9.77272222,8.36411111 9.77272222,9.82744444 Z" id="Stroke-3" fill-rule="nonzero"></path>
                </g>
                <path d="M5,4 L5,20 L18,20 C19.1045695,20 20,19.1045695 20,18 L20,6 C20,4.8954305 19.1045695,4 18,4 L5,4 Z M4,2 L18,2 C20.209139,2 22,3.790861 22,6 L22,18 C22,20.209139 20.209139,22 18,22 L4,22 C3.44771525,22 3,21.5522847 3,21 L3,3 C3,2.44771525 3.44771525,2 4,2 Z" id="Rectangle-6" fill="#222222" fill-rule="nonzero"></path>
                <path d="M2.5,7.5 C1.94771525,7.5 1.5,7.05228475 1.5,6.5 C1.5,5.94771525 1.94771525,5.5 2.5,5.5 L5.5,5.5 C6.05228475,5.5 6.5,5.94771525 6.5,6.5 C6.5,7.05228475 6.05228475,7.5 5.5,7.5 L2.5,7.5 Z" id="Line" fill="#222222" fill-rule="nonzero"></path>
                <path d="M2.5,12.5 C1.94771525,12.5 1.5,12.0522847 1.5,11.5 C1.5,10.9477153 1.94771525,10.5 2.5,10.5 L5.5,10.5 C6.05228475,10.5 6.5,10.9477153 6.5,11.5 C6.5,12.0522847 6.05228475,12.5 5.5,12.5 L2.5,12.5 Z" id="Line" fill="#222222" fill-rule="nonzero"></path>
                <path d="M2.5,18 C1.94771525,18 1.5,17.5522847 1.5,17 C1.5,16.4477153 1.94771525,16 2.5,16 L5.5,16 C6.05228475,16 6.5,16.4477153 6.5,17 C6.5,17.5522847 6.05228475,18 5.5,18 L2.5,18 Z" id="Line" fill="#222222" fill-rule="nonzero"></path>
            </g>
        </g>
    </g>
</svg>