<?xml version="1.0" encoding="UTF-8" standalone="no"?>
<svg width="18px" height="18px" viewBox="0 0 18 18" version="1.1" xmlns="http://www.w3.org/2000/svg" xmlns:xlink="http://www.w3.org/1999/xlink">
    <!-- Generator: Sketch 49.3 (51167) - http://www.bohemiancoding.com/sketch -->
    <title>Icon/KotakSurat</title>
    <desc>Created with Sketch.</desc>
    <defs>
        <polygon id="path-1" points="0 17.1428571 17.7857143 17.1428571 17.7857143 0.549428571 0 0.549428571"></polygon>
    </defs>
    <g id="Icon" stroke="none" stroke-width="1" fill="none" fill-rule="evenodd">
        <g id="Fontastic" transform="translate(-706.000000, -351.000000)">
            <g id="Icon/KotakSurat" transform="translate(703.000000, 348.000000)">
                <g id="Group-17">
                    <rect id="Rectangle-Copy-30" fill-opacity="0" fill="#D8D8D8" x="0" y="0" width="24" height="24"></rect>
                    <g id="Page-1" transform="translate(3.000000, 3.000000)">
                        <g id="Group-6" transform="translate(0.000000, 0.307971)">
                            <mask id="mask-2" fill="white">
                                <use xlink:href="#path-1"></use>
                            </mask>
                            <g id="Clip-4"></g>
                            <path d="M15.9285714,6.91028571 C15.9285714,6.35800096 16.3762867,5.91028571 16.9285714,5.91028571 C17.4808562,5.91028571 17.9285714,6.35800096 17.9285714,6.91028571 L17.9285714,16.2857143 C17.9285714,16.837999 17.4808562,17.2857143 16.9285714,17.2857143 L0.857142857,17.2857143 C0.304858107,17.2857143 -0.142857143,16.837999 -0.142857143,16.2857143 L-0.142857143,6.91028571 C-0.142857143,6.35800096 0.304858107,5.91028571 0.857142857,5.91028571 C1.40942761,5.91028571 1.85714286,6.35800096 1.85714286,6.91028571 L1.85714286,15.2857143 L15.9285714,15.2857143 L15.9285714,6.91028571 Z" id="Stroke-3" fill="#222222" fill-rule="nonzero" mask="url(#mask-2)"></path>
                            <path d="M16.4248546,6.04677398 C16.901901,5.76848421 17.514222,5.92960827 17.7925117,6.40665465 C18.0708015,6.88370102 17.9096774,7.49602196 17.4326311,7.77431173 L9.39691678,12.462026 C9.08554559,12.6436675 8.70051155,12.6436675 8.38914036,12.462026 L0.353426074,7.77431173 C-0.123620303,7.49602196 -0.284744365,6.88370102 -0.00645458992,6.40665465 C0.271835185,5.92960827 0.88415612,5.76848421 1.3612025,6.04677398 L8.89302857,10.44054 L16.4248546,6.04677398 Z" id="Stroke-5" fill="#222222" fill-rule="nonzero" mask="url(#mask-2)"></path>
                        </g>
                        <path d="M1.52919927,7.69109769 C1.05817418,7.97946171 0.442567673,7.83138565 0.154203656,7.36036055 C-0.13416036,6.88933546 0.0139156996,6.27372895 0.484940793,5.98536494 L2.9071867,4.50280531 L2.9071867,6.94844055 L1.52919927,7.69109769 Z M14.8704199,4.49163381 L17.3103389,5.98536494 C17.781364,6.27372895 17.9294401,6.88933546 17.6410761,7.36036055 C17.352712,7.83138565 16.7371055,7.97946171 16.2660804,7.69109769 C16.0927859,7.43675638 15.9814865,7.27471399 15.932182,7.2049705 C15.8423125,7.07784592 15.744851,6.94458621 15.6397976,6.80519138 L14.8704199,6.29705811 L14.8704199,4.49163381 Z M2.89451599,0.865670264 L2.89451599,6.9526825 L2.62724304,7.09233093 L2.91214286,7.26264954 L8.89386852,10.7552034 L15.6469269,6.81105042 L14.8727143,6.30018616 L14.8727143,0.8574 L2.89451599,0.865670264 Z M9.19285714,5.99802857 C9.31971429,5.79402857 9.38314286,5.5566 9.38314286,5.28574286 C9.38314286,5.10917143 9.34457143,4.97631429 9.26657143,4.88631429 C9.19028571,4.79631429 9.08228571,4.75088571 8.94514286,4.75088571 C8.73,4.75088571 8.56285714,4.85374286 8.44285714,5.06031429 C8.322,5.26602857 8.262,5.50002857 8.262,5.76317143 C8.262,5.92174286 8.29628571,6.05117143 8.36485714,6.15231429 C8.43342857,6.25345714 8.532,6.30402857 8.66142857,6.30402857 C8.88942857,6.30402857 9.066,6.20202857 9.19285714,5.99802857 M7.34657143,8.03374286 C6.91285714,7.80402857 6.58028571,7.48345714 6.348,7.07031429 C6.11571429,6.65888571 6,6.18831429 6,5.65945714 C6,5.05002857 6.12342857,4.52631429 6.37028571,4.09002857 C6.61714286,3.6546 6.95914286,3.32202857 7.39457143,3.09488571 C7.83085714,2.86688571 8.328,2.75288571 8.88685714,2.75288571 C9.45428571,2.75288571 9.942,2.85488571 10.35,3.05888571 C10.758,3.26374286 11.0691429,3.54574286 11.2842857,3.9066 C11.4985714,4.26745714 11.6065714,4.68402857 11.6065714,5.15717143 C11.6065714,5.51374286 11.5517143,5.82574286 11.442,6.09488571 C11.3322857,6.36317143 11.1754286,6.5706 10.9714286,6.71631429 C10.7674286,6.86288571 10.5282857,6.93574286 10.2531429,6.93574286 C10.0294286,6.93574286 9.84428571,6.88688571 9.69514286,6.79002857 C9.54771429,6.69402857 9.45171429,6.56631429 9.40885714,6.40688571 L9.396,6.40688571 C9.276,6.57488571 9.14828571,6.70431429 9.01285714,6.79688571 C8.87742857,6.88945714 8.7,6.93574286 8.48057143,6.93574286 C8.14542857,6.93574286 7.88914286,6.82688571 7.71085714,6.61002857 C7.53257143,6.39317143 7.44342857,6.1086 7.44342857,5.75631429 C7.44342857,5.44688571 7.50085714,5.16745714 7.61742857,4.91802857 C7.73314286,4.66945714 7.89342857,4.47402857 8.09742857,4.33174286 C8.30142857,4.19031429 8.532,4.11917143 8.79,4.11917143 C8.958,4.11917143 9.10371429,4.15088571 9.22885714,4.2126 C9.35314286,4.27517143 9.44742857,4.37117143 9.51257143,4.49974286 L9.53142857,4.49974286 L9.53142857,4.48688571 C9.54857143,4.39174286 9.59142857,4.31888571 9.66,4.26745714 C9.72857143,4.21602857 9.82114286,4.19031429 9.93771429,4.19031429 C10.0534286,4.19031429 10.1442857,4.22374286 10.2111429,4.28974286 C10.278,4.3566 10.3114286,4.44574286 10.3114286,4.55717143 C10.3114286,4.57945714 10.3071429,4.61545714 10.2985714,4.66688571 L10.1305714,5.60202857 C10.1091429,5.74345714 10.0988571,5.8566 10.0988571,5.94317143 C10.0988571,6.06317143 10.1211429,6.15402857 10.1657143,6.21317143 C10.2111429,6.27402857 10.2874286,6.30402857 10.3945714,6.30402857 C10.4631429,6.30402857 10.5334286,6.26545714 10.6045714,6.18831429 C10.6748571,6.11031429 10.7357143,5.98602857 10.7845714,5.8146 C10.8342857,5.64231429 10.8591429,5.42374286 10.8591429,5.15717143 C10.8591429,4.59831429 10.6902857,4.16888571 10.3534286,3.86802857 C10.0157143,3.56717143 9.52714286,3.41717143 8.88685714,3.41717143 C8.48314286,3.41717143 8.12314286,3.50374286 7.80771429,3.67774286 C7.49142857,3.85174286 7.24628571,4.10717143 7.06971429,4.44488571 C6.89314286,4.7826 6.80485714,5.18717143 6.80485714,5.65945714 C6.80485714,6.07174286 6.88714286,6.43174286 7.05,6.7386 C7.21371429,7.04631429 7.45114286,7.2846 7.76228571,7.45431429 C8.07342857,7.62402857 8.44285714,7.70888571 8.868,7.70888571 C9.12514286,7.70888571 9.348,7.6866 9.534,7.64117143 C9.72171429,7.59574286 9.91371429,7.52202857 10.1117143,7.41917143 C10.1845714,7.37974286 10.2505714,7.36088571 10.3114286,7.36088571 C10.4057143,7.36088571 10.4871429,7.39517143 10.5557143,7.46374286 C10.6242857,7.53317143 10.6585714,7.61202857 10.6585714,7.70202857 C10.6585714,7.82288571 10.5994286,7.92574286 10.4785714,8.01145714 C10.3114286,8.11002857 10.086,8.1966 9.80142857,8.26945714 C9.51857143,8.34231429 9.20742857,8.37917143 8.868,8.37917143 C8.28771429,8.37917143 7.78114286,8.26431429 7.34657143,8.03374286" id="Stroke-1" fill="#222222" fill-rule="nonzero"></path>
                    </g>
                </g>
            </g>
        </g>
    </g>
</svg>