<?xml version="1.0" encoding="UTF-8" standalone="no"?>
<svg width="15px" height="19px" viewBox="0 0 15 19" version="1.1" xmlns="http://www.w3.org/2000/svg" xmlns:xlink="http://www.w3.org/1999/xlink">
    <!-- Generator: Sketch 49.3 (51167) - http://www.bohemiancoding.com/sketch -->
    <title>Icon/Lock</title>
    <desc>Created with Sketch.</desc>
    <defs></defs>
    <g id="Icon" stroke="none" stroke-width="1" fill="none" fill-rule="evenodd">
        <g id="Fontastic" transform="translate(-539.000000, -201.000000)">
            <g id="Icon/Lock" transform="translate(535.000000, 198.000000)">
                <g id="Group">
                    <rect id="Rectangle-Copy-12" fill-opacity="0" fill="#D8D8D8" x="0" y="0" width="24" height="24"></rect>
                    <g id="Page-1" transform="translate(5.000000, 4.000000)" fill="#222222">
                        <path d="M-1.11022302e-16,17.71 C-0.55228475,17.71 -1,17.2622847 -1,16.71 L-1,7.6 C-1,7.04771525 -0.55228475,6.6 -1.11022302e-16,6.6 L12.8,6.6 C13.3522847,6.6 13.8,7.04771525 13.8,7.6 L13.8,16.71 C13.8,17.2622847 13.3522847,17.71 12.8,17.71 L-1.11022302e-16,17.71 Z M1,15.71 L11.8,15.71 L11.8,8.6 L1,8.6 L1,15.71 Z" id="Stroke-1" fill-rule="nonzero"></path>
                        <path d="M8.0695,10.8316 C8.0695,9.9906 7.3875,9.3086 6.5455,9.3086 C5.7045,9.3086 5.0225,9.9906 5.0225,10.8316 C5.0225,11.4766 5.4245,12.0206 5.9905,12.2436 L5.5985,14.4396 L7.4855,14.4396 L7.0835,12.2466 C7.6575,12.0286 8.0695,11.4826 8.0695,10.8316" id="Fill-4"></path>
                        <path d="M10.09,6.5998 L10.09,4.6798 C10.09,3.68261723 9.70276708,2.76678064 9.01289322,2.07690678 C8.32815661,1.39217017 7.39394192,0.9998 6.4,0.9998 C4.35971263,0.9998 2.71,2.64465339 2.71,4.6798 L2.71,6.5998 L10.09,6.5998 Z M12.09,4.6798 L12.09,7.5998 C12.09,8.15208475 11.6422847,8.5998 11.09,8.5998 L1.71,8.5998 C1.15771525,8.5998 0.71,8.15208475 0.71,7.5998 L0.71,4.6798 C0.71,1.53876104 3.25646167,-1.0002 6.4,-1.0002 C7.92796284,-1.0002 9.36977443,-0.394639134 10.4271068,0.662693219 C11.4883957,1.72398215 12.09,3.14682404 12.09,4.6798 Z" id="Stroke-3" fill-rule="nonzero"></path>
                    </g>
                </g>
            </g>
        </g>
    </g>
</svg>