<?xml version="1.0" encoding="UTF-8"?>
<svg width="21px" height="20px" viewBox="0 0 21 20" version="1.1" xmlns="http://www.w3.org/2000/svg" xmlns:xlink="http://www.w3.org/1999/xlink">
    <!-- Generator: Sketch 50.2 (55047) - http://www.bohemiancoding.com/sketch -->
    <title>Icon/MicroApps</title>
    <desc>Created with Sketch.</desc>
    <defs></defs>
    <g id="Icon" stroke="none" stroke-width="1" fill="none" fill-rule="evenodd">
        <g id="Fontastic" transform="translate(-957.000000, -554.000000)">
            <g id="Icon/MicroApps" transform="translate(955.000000, 552.000000)">
                <rect id="Rectangle-Copy-14" fill-opacity="0" fill="#D8D8D8" x="0" y="0" width="24" height="24"></rect>
                <g id="Page-1" stroke-width="1" transform="translate(3.000000, 3.000000)" fill="#222222">
                    <g id="Group-5" fill-rule="nonzero">
                        <polygon id="Fill-1" points="1 11.5 10.7399998 11.5 10.7399998 13.5 2.64730931 13.5 -1 13.5 -1 2.5 10.7399998 2.5 10.7399998 4.5 1 4.5"></polygon>
                        <path d="M10,17 L10,10.5119732 C10,9.95968843 10.4477153,9.51197318 11,9.51197318 C11.5522847,9.51197318 12,9.95968843 12,10.5119732 L12,18 C12,18.5522847 11.5522847,19 11,19 L0,19 C-0.55228475,19 -1,18.5522847 -1,18 L-1,0 C-1,-0.55228475 -0.55228475,-1 0,-1 L11,-1 C11.5522847,-1 12,-0.55228475 12,0 L12,2.99432437 C12,3.54660912 11.5522847,3.99432437 11,3.99432437 C10.4477153,3.99432437 10,3.54660912 10,2.99432437 L10,1 L1,1 L1,17 L10,17 Z" id="Stroke-2"></path>
                        <path d="M4,16 C3.44771525,16 3,15.5522847 3,15 C3,14.4477153 3.44771525,14 4,14 L8,14 C8.55228475,14 9,14.4477153 9,15 C9,15.5522847 8.55228475,16 8,16 L4,16 Z" id="Stroke-4"></path>
                    </g>
                </g>
                <g id="Group-7" stroke-width="1" transform="translate(8.000000, 5.500000)" fill="#222222">
                    <rect id="Rectangle" x="0" y="0" width="11" height="11"></rect>
                </g>
                <g id="Group-7" stroke-width="1" transform="translate(16.000000, 1.500000)" fill="#222222">
                    <polygon id="Rectangle" points="0 0.52554667 7 0.52554667 7 12.5 4.03471328 12.5 4.03471328 3.04684038 0 3.04684038"></polygon>
                </g>
            </g>
        </g>
    </g>
</svg>