<?xml version="1.0" encoding="UTF-8"?>
<svg width="24px" height="24px" viewBox="0 0 24 24" version="1.1" xmlns="http://www.w3.org/2000/svg" xmlns:xlink="http://www.w3.org/1999/xlink">
    <!-- Generator: Sketch 50.2 (55047) - http://www.bohemiancoding.com/sketch -->
    <title>Icon/Minus_inCircle</title>
    <desc>Created with Sketch.</desc>
    <defs></defs>
    <g id="Icon" stroke="none" stroke-width="1" fill="none" fill-rule="evenodd">
        <g id="Fontastic" transform="translate(-871.000000, -990.000000)" fill="#222222">
            <g id="Icon/Minus_in_circle" transform="translate(871.000000, 990.000000)">
                <g id="Group-7">
                    <path d="M12,24 C5.372583,24 0,18.627417 0,12 C0,5.372583 5.372583,0 12,0 C18.627417,0 24,5.372583 24,12 C24,18.627417 18.627417,24 12,24 Z M12,22 C17.5228475,22 22,17.5228475 22,12 C22,6.4771525 17.5228475,2 12,2 C6.4771525,2 2,6.4771525 2,12 C2,17.5228475 6.4771525,22 12,22 Z" id="Oval" fill-rule="nonzero"></path>
                    <path d="M14.8288543,7.79898774 C15.2193951,7.40846345 15.8525869,7.40846345 16.2431278,7.79898774 C16.6336687,8.18951203 16.6336687,8.82267701 16.2431278,9.21320131 L9.31378178,16.1421335 C8.92324093,16.5326578 8.29004909,16.5326578 7.89950824,16.1421335 C7.50896739,15.7516092 7.50896739,15.1184442 7.89950824,14.7279199 L14.8288543,7.79898774 Z" id="Line" fill-rule="nonzero" transform="translate(12.071318, 11.970561) rotate(45.000000) translate(-12.071318, -11.970561) "></path>
                </g>
            </g>
        </g>
    </g>
</svg>