<?xml version="1.0" encoding="UTF-8" standalone="no"?>
<svg width="22px" height="22px" viewBox="0 0 22 22" version="1.1" xmlns="http://www.w3.org/2000/svg" xmlns:xlink="http://www.w3.org/1999/xlink">
    <!-- Generator: Sketch 49.3 (51167) - http://www.bohemiancoding.com/sketch -->
    <title>Icon/Mission</title>
    <desc>Created with Sketch.</desc>
    <defs></defs>
    <g id="Icon" stroke="none" stroke-width="1" fill="none" fill-rule="evenodd">
        <g id="Fontastic" transform="translate(-368.000000, -553.000000)">
            <g id="Icon/Mission" transform="translate(367.000000, 552.000000)">
                <g id="Group-2" fill="#D8D8D8" fill-opacity="0">
                    <rect id="Rectangle-Copy-32" x="0" y="0" width="24" height="24"></rect>
                </g>
                <g id="Group-2" transform="translate(12.440342, 10.254555) rotate(-345.000000) translate(-12.440342, -10.254555) translate(3.440342, -0.745445)" fill="#222222">
                    <path d="M10.1355904,3.06385967 C10.6843728,3.12595915 11.0789072,3.62117674 11.0168078,4.16995912 C10.9547083,4.7187415 10.4594907,5.11327594 9.91070832,5.05117646 C9.6100584,5.01715532 9.30619182,5 9,5 C4.581722,5 1,8.581722 1,13 C1,17.418278 4.581722,21 9,21 C13.418278,21 17,17.418278 17,13 C17,11.2489151 16.437113,9.58570235 15.4109115,8.21367744 C15.0801221,7.77141413 15.1704896,7.14473111 15.6127529,6.81394173 C16.0550162,6.48315235 16.6816992,6.57351982 17.0124886,7.01578313 C18.2951726,8.73072353 19,10.8133402 19,13 C19,18.5228475 14.5228475,23 9,23 C3.4771525,23 -1,18.5228475 -1,13 C-1,7.4771525 3.4771525,3 9,3 C9.38136949,3 9.76031549,3.02139406 10.1355904,3.06385967 Z" id="Oval-2" fill-rule="nonzero"></path>
                    <path d="M8.11089095,7.06555817 C8.65716438,6.98429453 9.16588369,7.36125946 9.24714732,7.9075329 C9.32841096,8.45380633 8.95144603,8.96252564 8.4051726,9.04378927 C6.45982242,9.33317956 5,11.0120749 5,13 C5,15.209139 6.790861,17 9,17 C11.209139,17 13,15.209139 13,13 C13,12.5366689 12.9216163,12.0854736 12.7701233,11.6594506 C12.5850828,11.1390868 12.856916,10.5672437 13.3772798,10.3822032 C13.8976436,10.1971627 14.4694867,10.468996 14.6545272,10.9893598 C14.8822535,11.629763 15,12.3075401 15,13 C15,16.3137085 12.3137085,19 9,19 C5.6862915,19 3,16.3137085 3,13 C3,10.0176092 5.18889132,7.50023482 8.11089095,7.06555817 Z" id="Oval-2" fill-rule="nonzero"></path>
                    <g id="Group" transform="translate(11.854094, 8.150848) rotate(-330.000000) translate(-11.854094, -8.150848) translate(9.854094, 0.650848)">
                        <path d="M1,11.2675644 L1,4 L3,4 L3,11.2675644 C3.59780137,11.6133738 4,12.2597176 4,13 C4,14.1045695 3.1045695,15 2,15 C0.8954305,15 0,14.1045695 0,13 C0,12.2597176 0.40219863,11.6133738 1,11.2675644 Z" id="Oval"></path>
                        <path d="M2,5 L1.84741111e-13,3.4636045 L1.84741111e-13,0 L2,1.40196659 L4,0 L4,3.4636045 L2,5 Z" id="Fill-1" transform="translate(2.000000, 2.500000) scale(-1, 1) translate(-2.000000, -2.500000) "></path>
                    </g>
                </g>
            </g>
        </g>
    </g>
</svg>