<?xml version="1.0" encoding="UTF-8" standalone="no"?>
<svg width="19px" height="20px" viewBox="0 0 19 20" version="1.1" xmlns="http://www.w3.org/2000/svg" xmlns:xlink="http://www.w3.org/1999/xlink">
    <!-- Generator: Sketch 49.3 (51167) - http://www.bohemiancoding.com/sketch -->
    <title>Icon/NomorSaya</title>
    <desc>Created with Sketch.</desc>
    <defs></defs>
    <g id="Icon" stroke="none" stroke-width="1" fill="none" fill-rule="evenodd">
        <g id="Fontastic" transform="translate(-707.000000, -446.000000)">
            <g id="Icon/NomorSaya" transform="translate(704.000000, 444.000000)">
                <g id="Group" fill="#D8D8D8" fill-opacity="0">
                    <rect id="Rectangle-Copy" x="0" y="0" width="24" height="24"></rect>
                </g>
                <g id="Group-3" transform="translate(4.000000, 3.000000)" fill="#222222">
                    <g id="Group-5" fill-rule="nonzero">
                        <polygon id="Fill-1" points="1 11.5 10.7399998 11.5 10.7399998 13.5 -1 13.5 -1 2.5 10.7399998 2.5 10.7399998 4.5 1 4.5"></polygon>
                        <path d="M1,17 L11,17 C11.5522847,17 12,17.4477153 12,18 C12,18.5522847 11.5522847,19 11,19 L0,19 C-0.55228475,19 -1,18.5522847 -1,18 L-1,0 C-1,-0.55228475 -0.55228475,-1 0,-1 L11,-1 C11.5522847,-1 12,-0.55228475 12,8.65973959e-15 L12,6.99432437 C12,7.54660912 11.5522847,7.99432437 11,7.99432437 C10.4477153,7.99432437 10,7.54660912 10,6.99432437 L10,1 L1,1 L1,17 Z" id="Stroke-2"></path>
                        <path d="M4,16 C3.44771525,16 3,15.5522847 3,15 C3,14.4477153 3.44771525,14 4,14 L7.78435486,14 C8.33663961,14 8.78435486,14.4477153 8.78435486,15 C8.78435486,15.5522847 8.33663961,16 7.78435486,16 L4,16 Z" id="Stroke-4"></path>
                    </g>
                    <g id="Group-2" transform="translate(7.000000, 7.050000)" fill-rule="nonzero">
                        <path d="M6.47260556,2.59080556 C6.47260556,1.71228971 5.76024244,0.999694444 4.88210556,0.999694444 C4.00341559,0.999694444 3.29099444,1.71223166 3.29099444,2.59080556 C3.29099444,3.46918992 4.00322611,4.18130556 4.88210556,4.18130556 C5.76043192,4.18130556 6.47260556,3.46913192 6.47260556,2.59080556 Z M8.47260556,2.59080556 C8.47260556,4.57370142 6.86500142,6.18130556 4.88210556,6.18130556 C2.89872955,6.18130556 1.29099444,4.57383238 1.29099444,2.59080556 C1.29099444,0.607735088 2.89877315,-1.00030556 4.88210556,-1.00030556 C6.86495785,-1.00030556 8.47260556,0.607866067 8.47260556,2.59080556 Z" id="Stroke-1"></path>
                        <path d="M-1.00006111,9.71018889 C-1.00006111,7.43449717 1.5906379,5.80927893 4.72505,5.73224444 L4.94954994,5.73254871 C8.05929544,5.80927893 10.6499944,7.43449717 10.6499944,9.71018889 C10.6499944,11.3653827 8.3744537,11.9083521 5.00548969,11.9457095 C4.97890046,11.9478304 4.95201811,11.9489111 4.92488333,11.9489111 C4.88450407,11.9486607 4.88450407,11.9486607 4.85642669,11.9481317 C4.81533477,11.9477417 4.81533477,11.9477417 4.79351477,11.9481302 C4.76543614,11.9486607 4.76543614,11.9486607 4.72505,11.9489111 C4.69791522,11.9489111 4.67103287,11.9478304 4.64444364,11.9457095 C1.27547963,11.9083521 -1.00006111,11.3653827 -1.00006111,9.71018889 Z M4.92488333,7.73224444 L4.74971661,7.73194018 C2.79099795,7.78026983 1.30568539,8.60020048 1.04179895,9.44496612 C1.19704247,9.51333007 1.41806328,9.58389069 1.6920037,9.647856 C2.4683152,9.82912534 3.56539617,9.93606743 4.73398277,9.94650656 C4.74987602,9.94664854 4.76567995,9.94716071 4.78138641,9.94803483 C4.79113846,9.9478998 4.80083357,9.9478388 4.82466111,9.94768889 C4.84887421,9.94783903 4.85856812,9.94789914 4.86850302,9.94803727 C4.88422393,9.94716166 4.9000425,9.94664867 4.91595056,9.94650656 C6.08453716,9.93606743 7.18161814,9.82912534 7.95792964,9.647856 C8.23188087,9.58388817 8.45290831,9.5133245 8.60815276,9.44495803 C8.34445962,8.6001978 6.86126621,7.7802985 4.92488333,7.73224444 Z M4.72505,9.96645143 L4.72505,10.9489111 L4.92488333,10.9489111 L4.92488333,9.96645143 C4.89213355,9.95980966 4.85879982,9.95476677 4.82496667,9.95140803 C4.79113352,9.95476677 4.75779978,9.95980966 4.72505,9.96645143 Z" id="Stroke-3"></path>
                    </g>
                </g>
            </g>
        </g>
    </g>
</svg>