<?xml version="1.0" encoding="UTF-8" standalone="no"?>
<svg width="21px" height="18px" viewBox="0 0 21 18" version="1.1" xmlns="http://www.w3.org/2000/svg" xmlns:xlink="http://www.w3.org/1999/xlink">
    <!-- Generator: Sketch 49.3 (51167) - http://www.bohemiancoding.com/sketch -->
    <title>Icon/NoSound</title>
    <desc>Created with Sketch.</desc>
    <defs></defs>
    <g id="Icon" stroke="none" stroke-width="1" fill="none" fill-rule="evenodd">
        <g id="Fontastic" transform="translate(-873.000000, -693.000000)">
            <g id="Icon/SoundOff" transform="translate(872.000000, 690.000000)">
                <g id="Group-3">
                    <rect id="Rectangle-Copy-18" fill-opacity="0" fill="#D8D8D8" x="0" y="0" width="24" height="24"></rect>
                    <g id="Group-Copy" transform="translate(3.000000, 4.000000)" fill="#222222" fill-rule="nonzero">
                        <path d="M11.6999998,1.98994325 L7.94246373,4.78445355 C7.7699532,4.91275104 7.56068844,4.98203672 7.34569977,4.98203672 L5.5,4.98203672 L5.5,11.5339613 L7.09197388,11.5339613 C7.26652228,11.5339613 7.43803061,11.5796491 7.58944768,11.6664823 L11.6999998,14.0237636 L11.6999998,1.98994325 Z M7.01460879,2.98203672 L12.1032358,-0.802416834 C12.7629717,-1.29306776 13.6999998,-0.822185917 13.6999998,0 L13.6999998,15.75 C13.6999998,16.5185055 12.8691884,16.9997904 12.202526,16.617479 L6.82558598,13.5339613 L4.5,13.5339613 C3.94771525,13.5339613 3.5,13.0862461 3.5,12.5339613 L3.5,3.98203672 C3.5,3.42975197 3.94771525,2.98203672 4.5,2.98203672 L7.01460879,2.98203672 Z" id="Path-2"></path>
                        <path d="M1.25507093,14.5556464 C0.556073729,15.0002748 -0.371017996,14.7940681 -0.815646394,14.0950709 C-1.26027479,13.3960737 -1.05406813,12.468982 -0.355070931,12.0243536 L16.5449291,1.27435361 C17.2439263,0.829725208 18.171018,1.03593187 18.6156464,1.73492907 C19.0602748,2.43392627 18.8540681,3.361018 18.1550709,3.80564639 L1.25507093,14.5556464 Z" id="Path-4"></path>
                    </g>
                </g>
            </g>
        </g>
    </g>
</svg>