<?xml version="1.0" encoding="UTF-8" standalone="no"?>
<svg width="9px" height="13px" viewBox="0 0 9 13" version="1.1" xmlns="http://www.w3.org/2000/svg" xmlns:xlink="http://www.w3.org/1999/xlink">
    <!-- Generator: Sketch 49.3 (51167) - http://www.bohemiancoding.com/sketch -->
    <title>Icon/Pause</title>
    <desc>Created with Sketch.</desc>
    <defs></defs>
    <g id="Icon" stroke="none" stroke-width="1" fill="none" fill-rule="evenodd">
        <g id="Fontastic" transform="translate(-880.000000, -791.000000)">
            <g id="Icon/Pause" transform="translate(872.000000, 786.000000)">
                <g id="Group-10">
                    <rect id="Rectangle-Copy-20" fill-opacity="0" fill="#D8D8D8" x="0" y="0" width="24" height="24"></rect>
                    <g id="Group-3-Copy" transform="translate(8.000000, 5.000000)" fill="#222222">
                        <path d="M1,13 L2,13 C2.55228475,13 3,12.5522847 3,12 L3,1 C3,0.44771525 2.55228475,-1.01453063e-16 2,0 L1,0 C0.44771525,1.01453063e-16 -6.76353751e-17,0.44771525 0,1 L0,12 C6.76353751e-17,12.5522847 0.44771525,13 1,13 Z" id="Fill-7"></path>
                        <path d="M7,13 L8,13 C8.55228475,13 9,12.5522847 9,12 L9,1 C9,0.44771525 8.55228475,-1.01453063e-16 8,0 L7,0 C6.44771525,1.01453063e-16 6,0.44771525 6,1 L6,12 C6,12.5522847 6.44771525,13 7,13 Z" id="Fill-8"></path>
                    </g>
                </g>
            </g>
        </g>
    </g>
</svg>