<?xml version="1.0" encoding="UTF-8" standalone="no"?>
<svg width="20px" height="18px" viewBox="0 0 20 18" version="1.1" xmlns="http://www.w3.org/2000/svg" xmlns:xlink="http://www.w3.org/1999/xlink">
    <!-- Generator: Sketch 49.3 (51167) - http://www.bohemiancoding.com/sketch -->
    <title>Icon/Pengaturan</title>
    <desc>Created with Sketch.</desc>
    <defs></defs>
    <g id="Icon" stroke="none" stroke-width="1" fill="none" fill-rule="evenodd">
        <g id="Fontastic" transform="translate(-369.000000, -693.000000)">
            <g id="Icon/Pengaturan" transform="translate(367.000000, 690.000000)">
                <g id="Group-2">
                    <rect id="Rectangle-Copy-22" fill-opacity="0" fill="#D8D8D8" x="0" y="0" width="24" height="24"></rect>
                    <g id="grey-copy" transform="translate(2.000000, 3.000000)" fill="#222222" fill-rule="nonzero">
                        <path d="M1,5 C0.44771525,5 0,4.55228475 0,4 C0,3.44771525 0.44771525,3 1,3 L9,3 C9.55228475,3 10,3.44771525 10,4 C10,4.55228475 9.55228475,5 9,5 L1,5 Z M14,5 C13.4477153,5 13,4.55228475 13,4 C13,3.44771525 13.4477153,3 14,3 L19,3 C19.5522847,3 20,3.44771525 20,4 C20,4.55228475 19.5522847,5 19,5 L14,5 Z" id="Shape"></path>
                        <circle id="Oval" cx="12" cy="4" r="3"></circle>
                        <path d="M12,8 C9.790861,8 8,6.209139 8,4 C8,1.790861 9.790861,0 12,0 C14.209139,0 16,1.790861 16,4 C16,6.209139 14.209139,8 12,8 Z M12,6 C13.1045695,6 14,5.1045695 14,4 C14,2.8954305 13.1045695,2 12,2 C10.8954305,2 10,2.8954305 10,4 C10,5.1045695 10.8954305,6 12,6 Z" id="Oval"></path>
                        <path d="M1,15 C0.44771525,15 0,14.5522847 0,14 C0,13.4477153 0.44771525,13 1,13 L4,13 C4.55228475,13 5,13.4477153 5,14 C5,14.5522847 4.55228475,15 4,15 L1,15 Z M11,15 C10.4477153,15 10,14.5522847 10,14 C10,13.4477153 10.4477153,13 11,13 L19,13 C19.5522847,13 20,13.4477153 20,14 C20,14.5522847 19.5522847,15 19,15 L11,15 Z" id="Shape"></path>
                        <path d="M8,18 C5.790861,18 4,16.209139 4,14 C4,11.790861 5.790861,10 8,10 C10.209139,10 12,11.790861 12,14 C12,16.209139 10.209139,18 8,18 Z M8,16 C9.1045695,16 10,15.1045695 10,14 C10,12.8954305 9.1045695,12 8,12 C6.8954305,12 6,12.8954305 6,14 C6,15.1045695 6.8954305,16 8,16 Z" id="Oval"></path>
                    </g>
                </g>
            </g>
        </g>
    </g>
</svg>