<?xml version="1.0" encoding="UTF-8"?>
<svg width="24px" height="24px" viewBox="0 0 24 24" version="1.1" xmlns="http://www.w3.org/2000/svg" xmlns:xlink="http://www.w3.org/1999/xlink">
    <!-- Generator: Sketch 50.2 (55047) - http://www.bohemiancoding.com/sketch -->
    <title>Icon/Plus_inCircle</title>
    <desc>Created with Sketch.</desc>
    <defs></defs>
    <g id="Icon" stroke="none" stroke-width="1" fill="none" fill-rule="evenodd">
        <g id="Fontastic" transform="translate(-787.000000, -990.000000)" fill="#222222">
            <g id="Icon/Plus_in_circle" transform="translate(787.000000, 990.000000)">
                <g id="Group-7" stroke-width="1" fill-rule="evenodd">
                    <path d="M12,24 C5.372583,24 0,18.627417 0,12 C0,5.372583 5.372583,0 12,0 C18.627417,0 24,5.372583 24,12 C24,18.627417 18.627417,24 12,24 Z M12,22 C17.5228475,22 22,17.5228475 22,12 C22,6.4771525 17.5228475,2 12,2 C6.4771525,2 2,6.4771525 2,12 C2,17.5228475 6.4771525,22 12,22 Z" id="Oval" fill-rule="nonzero"></path>
                </g>
                <path d="M12,10.5857864 L15.4644661,7.12132034 C15.8549904,6.73079605 16.4881554,6.73079605 16.8786797,7.12132034 C17.2692039,7.51184464 17.2692039,8.14500961 16.8786797,8.53553391 L13.4142136,12 L17.0208153,15.6066017 C17.4113396,15.997126 17.4113396,16.630291 17.0208153,17.0208153 C16.630291,17.4113396 15.997126,17.4113396 15.6066017,17.0208153 L12,13.4142136 L8.53553391,16.8786797 C8.14500961,17.2692039 7.51184464,17.2692039 7.12132034,16.8786797 C6.73079605,16.4881554 6.73079605,15.8549904 7.12132034,15.4644661 L10.5857864,12 L7.12132034,8.53553391 C6.73079605,8.14500961 6.73079605,7.51184464 7.12132034,7.12132034 C7.51184464,6.73079605 8.14500961,6.73079605 8.53553391,7.12132034 L12,10.5857864 Z" id="Line" fill-rule="nonzero" transform="translate(12.071068, 12.071068) rotate(45.000000) translate(-12.071068, -12.071068) "></path>
            </g>
        </g>
    </g>
</svg>