<?xml version="1.0" encoding="UTF-8" standalone="no"?>
<svg width="19px" height="21px" viewBox="0 0 19 21" version="1.1" xmlns="http://www.w3.org/2000/svg" xmlns:xlink="http://www.w3.org/1999/xlink">
    <!-- Generator: Sketch 49.3 (51167) - http://www.bohemiancoding.com/sketch -->
    <title>Icon/ProfileUser</title>
    <desc>Created with Sketch.</desc>
    <defs></defs>
    <g id="Icon" stroke="none" stroke-width="1" fill="none" fill-rule="evenodd">
        <g id="Fontastic" transform="translate(-369.000000, -200.000000)">
            <g id="Icon/ProfileUser" transform="translate(367.000000, 198.000000)">
                <g id="Group" stroke-width="1" fill-rule="evenodd">
                    <rect id="Rectangle" x="0" y="0" width="24" height="24"></rect>
                </g>
                <path d="M11.6116,11.1395 C9.0876,11.1395 7.0416,9.0935 7.0416,6.5695 C7.0416,4.0465 9.0876,2.0005 11.6116,2.0005 C14.1346,2.0005 16.1806,4.0465 16.1806,6.5695 C16.1806,9.0935 14.1346,11.1395 11.6116,11.1395 Z" id="Fill-1" fill="#222222" fill-rule="evenodd"></path>
                <path d="M2.0004,19.1276 C2.0004,15.6278575 6.18653379,13.0020478 11.3344,12.8756 L11.7120146,12.875903 C16.8352662,13.0020478 21.0214,15.6278575 21.0214,19.1276 C21.0214,21.3446886 17.2011527,22.2493171 11.7874298,22.3076595 C11.7545295,22.310927 11.7211601,22.3126 11.6874,22.3126 C11.6290267,22.3122662 11.6290267,22.3122662 11.5819533,22.3114564 C11.5405267,22.3107662 11.5405267,22.3107662 11.5104,22.3106 C11.4810494,22.3107643 11.4810494,22.3107643 11.4397938,22.3114552 C11.3927793,22.3122662 11.3927793,22.3122662 11.3344,22.3126 C11.3006407,22.3126 11.2672721,22.3109271 11.2343726,22.3076598 C5.8201105,22.2493254 2.0004,21.3447515 2.0004,19.1276 Z M11.6783999,20.3086405 C13.7908003,20.2896279 15.7796552,20.0955662 17.2102027,19.7614346 C17.9197515,19.595706 18.4648137,19.4013141 18.8025864,19.2008645 C18.9959431,19.086118 19.0214,19.0533091 19.0214,19.1276 C19.0214,16.9737271 15.8399967,14.9781484 11.6874,14.8756 L11.3590146,14.875297 C7.18180333,14.9781484 4.0004,16.9737271 4.0004,19.1276 C4.0004,19.0533759 4.02584243,19.086173 4.21913826,19.2009033 C4.55682883,19.4013387 5.10178951,19.5957198 5.8112396,19.7614386 C7.24169433,20.0955754 9.23055507,20.2896284 11.343398,20.3086405 C11.366678,20.30885 11.3897663,20.3098537 11.4126373,20.3116258 C11.4526549,20.3109348 11.45549,20.3109183 11.5104,20.3106 C11.5658577,20.3109171 11.5686277,20.3109329 11.6091322,20.3116282 C11.6320125,20.3098546 11.6551103,20.3088501 11.6783999,20.3086405 Z" id="Stroke-3" fill="#222222" fill-rule="nonzero"></path>
            </g>
        </g>
    </g>
</svg>