<?xml version="1.0" encoding="UTF-8" standalone="no"?>
<svg width="20px" height="20px" viewBox="0 0 20 20" version="1.1" xmlns="http://www.w3.org/2000/svg" xmlns:xlink="http://www.w3.org/1999/xlink">
    <!-- Generator: Sketch 49.3 (51167) - http://www.bohemiancoding.com/sketch -->
    <title>Icon/QRCode</title>
    <desc>Created with Sketch.</desc>
    <defs>
        <polygon id="path-1" points="0 20 19.822 20 19.822 0.813 0 0.813"></polygon>
    </defs>
    <g id="Icon" stroke="none" stroke-width="1" fill="none" fill-rule="evenodd">
        <g id="Fontastic" transform="translate(-537.000000, -351.000000)">
            <g id="Icon/QRCode" transform="translate(535.000000, 348.000000)">
                <g id="Group-10">
                    <rect id="Rectangle-Copy-34" fill-opacity="0" fill="#D8D8D8" x="0" y="0" width="24" height="24"></rect>
                    <g id="Page-1" transform="translate(2.000000, 2.000000)">
                        <path d="M1,20.1875 C0.44771525,20.1875 0,19.7397847 0,19.1875 L0,12.1565 C0,11.6042153 0.44771525,11.1565 1,11.1565 L8.031,11.1565 C8.58328475,11.1565 9.031,11.6042153 9.031,12.1565 L9.031,19.1875 C9.031,19.7397847 8.58328475,20.1875 8.031,20.1875 L1,20.1875 Z M2,18.1875 L7.031,18.1875 L7.031,13.1565 L2,13.1565 L2,18.1875 Z" id="Stroke-1" fill="#222222" fill-rule="nonzero"></path>
                        <polygon id="Fill-3" fill="#222222" points="3.17 17.0185 5.862 17.0185 5.862 14.3255 3.17 14.3255"></polygon>
                        <path d="M1,10.0315 C0.44771525,10.0315 0,9.58378475 0,9.0315 L0,2.0005 C0,1.44821525 0.44771525,1.0005 1,1.0005 L8.031,1.0005 C8.58328475,1.0005 9.031,1.44821525 9.031,2.0005 L9.031,9.0315 C9.031,9.58378475 8.58328475,10.0315 8.031,10.0315 L1,10.0315 Z M7.031,8.0315 L7.031,3.0005 L2,3.0005 L2,8.0315 L7.031,8.0315 Z" id="Stroke-4" fill="#222222" fill-rule="nonzero"></path>
                        <polygon id="Fill-6" fill="#222222" points="3.17 6.8625 5.862 6.8625 5.862 4.1695 3.17 4.1695"></polygon>
                        <g id="Group-13" transform="translate(0.000000, 0.187500)">
                            <path d="M15.8636,7.844 C16.9449177,7.844 17.8216,6.96711292 17.8216,5.886 L17.8216,2.813 L14.2716,2.813 C13.4535693,2.813 12.7906,3.47560017 12.7906,4.293 L12.7906,7.844 L15.8636,7.844 Z M15.8636,9.844 L11.7906,9.844 C11.2383153,9.844 10.7906,9.39628475 10.7906,8.844 L10.7906,4.293 C10.7906,2.37078124 12.3492491,0.813 14.2716,0.813 L18.8216,0.813 C19.3738847,0.813 19.8216,1.26071525 19.8216,1.813 L19.8216,5.886 C19.8216,8.07157788 18.0495917,9.844 15.8636,9.844 Z" id="Stroke-7" fill="#222222" fill-rule="nonzero"></path>
                            <mask id="mask-2" fill="white">
                                <use xlink:href="#path-1"></use>
                            </mask>
                            <g id="Clip-10"></g>
                            <polygon id="Fill-9" fill="#222222" mask="url(#mask-2)" points="13.961 6.675 16.653 6.675 16.653 3.982 13.961 3.982"></polygon>
                            <path d="M11.791,20 C11.2387153,20 10.791,19.5522847 10.791,19 L10.791,11.969 C10.791,11.4167153 11.2387153,10.969 11.791,10.969 L18.822,10.969 C19.3742847,10.969 19.822,11.4167153 19.822,11.969 L19.822,19 C19.822,19.5522847 19.3742847,20 18.822,20 L11.791,20 Z M12.791,18 L17.822,18 L17.822,12.969 L12.791,12.969 L12.791,18 Z" id="Stroke-11" fill="#222222" fill-rule="nonzero" mask="url(#mask-2)"></path>
                            <polygon id="Fill-12" fill="#222222" mask="url(#mask-2)" points="13.961 16.831 16.653 16.831 16.653 14.138 13.961 14.138"></polygon>
                        </g>
                    </g>
                </g>
            </g>
        </g>
    </g>
</svg>