<?xml version="1.0" encoding="UTF-8" standalone="no"?>
<svg width="22px" height="16px" viewBox="0 0 22 16" version="1.1" xmlns="http://www.w3.org/2000/svg" xmlns:xlink="http://www.w3.org/1999/xlink">
    <!-- Generator: Sketch 49.3 (51167) - http://www.bohemiancoding.com/sketch -->
    <title>Icon/Rekening_Favorit</title>
    <desc>Created with Sketch.</desc>
    <defs></defs>
    <g id="Icon" stroke="none" stroke-width="1" fill="none" fill-rule="evenodd">
        <g id="Fontastic" transform="translate(-1040.000000, -353.000000)" fill="#222222">
            <g id="Icon/Rekening_Favorit" transform="translate(1039.000000, 348.000000)">
                <path d="M2,9 L23,9 L23,13 L15.9724989,13 C15.5377948,12.3333333 15.2146027,12 15.0029226,12 C14.7912425,12 14.4481541,12.3333333 13.9736575,13 L2,13 L2,9 Z" id="Rectangle" fill-rule="evenodd"></path>
                <path d="M3,18 L11.5945108,18 C12.1467956,18 12.5945108,18.4477153 12.5945108,19 C12.5945108,19.5522847 12.1467956,20 11.5945108,20 L2,20 C1.44771525,20 1,19.5522847 1,19 L1,6 C1,5.44771525 1.44771525,5 2,5 L22,5 C22.5522847,5 23,5.44771525 23,6 L23,19 C23,19.5522847 22.5522847,20 22,20 L18.3004647,20 C17.74818,20 17.3004647,19.5522847 17.3004647,19 C17.3004647,18.4477153 17.74818,18 18.3004647,18 L21,18 L21,7 L3,7 L3,18 Z" id="Rectangle-5" fill-rule="nonzero"></path>
                <path d="M14.7158672,18.3622351 C14.8615292,18.285656 15.0355463,18.285656 15.1812083,18.3622351 L17.3428368,19.4986704 L16.9300025,17.0916618 C16.9021835,16.9294647 16.9559578,16.7639646 17.0738008,16.6490961 L18.822595,14.944443 L16.4058209,14.5932652 C16.2429658,14.569601 16.102183,14.4673163 16.029352,14.3197446 L14.9485378,12.1297757 L13.8677235,14.3197446 C13.7948925,14.4673163 13.6541097,14.569601 13.4912547,14.5932652 L11.0744806,14.944443 L12.8232747,16.6490961 C12.9411178,16.7639646 12.994892,16.9294647 12.967073,17.0916618 L12.5542387,19.4986704 L14.7158672,18.3622351 Z M12.1228438,20.8552439 C11.7560301,21.0480893 11.3273139,20.7366087 11.3973691,20.3281557 L11.9370286,17.1816992 L9.65099415,14.9533663 C9.35423564,14.6640983 9.51799067,14.1601121 9.92810084,14.1005196 L13.0873227,13.6414578 L14.5001697,10.7787171 C14.6835766,10.4070943 15.213499,10.4070943 15.3969058,10.7787171 L16.8097528,13.6414578 L19.9689747,14.1005196 C20.3790849,14.1601121 20.5428399,14.6640983 20.2460814,14.9533663 L17.9600469,17.1816992 L18.4997065,20.3281557 C18.5697617,20.7366087 18.1410454,21.0480893 17.7742318,20.8552439 L14.9485378,19.3696887 L12.1228438,20.8552439 Z" id="Star-Copy-2" fill-rule="nonzero"></path>
            </g>
        </g>
    </g>
</svg>