<?xml version="1.0" encoding="UTF-8" standalone="no"?>
<svg width="16px" height="16px" viewBox="0 0 16 16" version="1.1" xmlns="http://www.w3.org/2000/svg" xmlns:xlink="http://www.w3.org/1999/xlink">
    <!-- Generator: Sketch 50.2 (55047) - http://www.bohemiancoding.com/sketch -->
    <title>Icon/Repeat</title>
    <desc>Created with Sketch.</desc>
    <defs></defs>
    <g id="Icon" stroke="none" stroke-width="1" fill="none" fill-rule="evenodd">
        <g id="Fontastic" transform="translate(-1127.000000, -886.000000)">
            <g id="Icon/Repeat" transform="translate(1123.000000, 882.000000)">
                <g id="Repeat">
                    <path d="M9,14 C9.5,14 9.7,14.3 9.3,14.7 L7.8,16.2 C8.90703023,17.3315846 10.4171076,17.9787606 12,18 C15.0170565,18.0058581 17.5769784,15.7872591 18,12.8 C18.1068991,12.2954497 18.5764525,11.9522473 19.0896434,12.0035664 C19.6028342,12.0548855 19.9951287,12.4842726 20,13 L20,13.2 C19.4018446,17.1443044 15.989147,20.0450974 12,20 C9.87690979,19.9847611 7.83911111,19.1624915 6.3,17.7 L4.7,19.3 C4.3,19.7 4,19.5 4,19 L4,14.5 C3.99172449,14.3650245 4.04173962,14.2329823 4.13736095,14.137361 C4.23298229,14.0417396 4.36502447,13.9917245 4.5,14 L9,14 Z M15,10 C14.5,10 14.3,9.7 14.7,9.3 L16.2,7.8 C15.0929698,6.66841544 13.5828924,6.02123943 12,6 C8.98294349,5.99414186 6.42302155,8.21274087 6,11.2 C5.92350349,11.6850269 5.48998892,12.0318386 5,12 C4.73013663,12.0162218 4.46624806,11.9160853 4.2750814,11.7249186 C4.08391473,11.5337519 3.9837782,11.2698634 4,11 L4,10.8 C4.59815538,6.85569555 8.01085302,3.95490256 12,4 C14.1230902,4.0152389 16.1608889,4.83750854 17.7,6.3 L19.3,4.7 C19.7,4.3 20,4.5 20,5 L20,9.5 C20.0082755,9.63497553 19.9582604,9.76701771 19.862639,9.86263905 C19.7670177,9.95826038 19.6349755,10.0082755 19.5,10 L15,10 Z" id="Path_189" fill="#222222"></path>
                    <rect id="Rectangle_1473" x="0" y="0" width="24" height="24"></rect>
                </g>
            </g>
        </g>
    </g>
</svg>