<?xml version="1.0" encoding="UTF-8" standalone="no"?>
<svg width="24px" height="21px" viewBox="0 0 24 21" version="1.1" xmlns="http://www.w3.org/2000/svg" xmlns:xlink="http://www.w3.org/1999/xlink">
    <!-- Generator: Sketch 49.3 (51167) - http://www.bohemiancoding.com/sketch -->
    <title>Icon/Riwayat</title>
    <desc>Created with Sketch.</desc>
    <defs></defs>
    <g id="Icon" stroke="none" stroke-width="1" fill="none" fill-rule="evenodd">
        <g id="Fontastic" transform="translate(-451.000000, -445.000000)">
            <g id="Icon/Riwayat" transform="translate(451.000000, 444.000000)">
                <g id="Group-2-Copy" transform="translate(-3.000000, -2.000000)">
                    <g id="Group" transform="translate(0.500000, 0.000000)">
                        <g id="Group-4" transform="translate(8.571429, 10.761905)"></g>
                        <path d="M23.8123757,13.5023753 C23.8123757,14.05466 23.3646604,14.5023753 22.8123757,14.5023753 C22.2600909,14.5023753 21.8123757,14.05466 21.8123757,13.5023753 C21.8123757,8.91288877 18.0918618,5.19237485 13.5023753,5.19237485 C8.91288876,5.19237485 5.19237484,8.91288877 5.19237484,13.5023753 C5.19237484,18.0918618 8.91288876,21.8123757 13.5023753,21.8123757 C14.05466,21.8123757 14.5023753,22.2600909 14.5023753,22.8123757 C14.5023753,23.3646604 14.05466,23.8123757 13.5023753,23.8123757 C7.80831926,23.8123757 3.19237484,19.1964313 3.19237484,13.5023753 C3.19237484,7.80831927 7.80831926,3.19237485 13.5023753,3.19237485 C19.1964313,3.19237485 23.8123757,7.80831927 23.8123757,13.5023753 Z" id="Oval" fill="#222222" fill-rule="nonzero" transform="translate(13.502375, 13.502375) rotate(-105.000000) translate(-13.502375, -13.502375) "></path>
                        <path d="M21.1753305,13.6953121 C20.8347896,14.1301114 20.2062523,14.2065228 19.7714531,13.865982 C19.3366538,13.5254411 19.2602424,12.8969038 19.6007832,12.4621046 L21.6423315,9.85547596 C21.9729485,9.43334737 22.5776606,9.34709986 23.0131071,9.65996807 L25.5419319,11.476928 C25.9904488,11.7991872 26.0928008,12.4240248 25.7705416,12.8725417 C25.4482823,13.3210586 24.8234447,13.4234106 24.3749278,13.1011513 L22.6252805,11.8440302 L21.1753305,13.6953121 Z" id="Path-2" fill="#222222" fill-rule="nonzero"></path>
                        <path d="M13.9836441,5.1711224 C13.4327047,5.13259696 13.0173111,4.65474129 13.0558365,4.10380187 C13.094362,3.55286246 13.5722177,3.13746886 14.1231571,3.1759943 C15.7498717,3.28974527 17.5558396,3.96613037 18.4397674,4.66823548 C18.8722288,5.01174025 18.9443425,5.64078517 18.6008377,6.07324663 C18.2573329,6.50570809 17.628288,6.57782174 17.1958265,6.23431697 C16.6351576,5.78897682 15.2154557,5.25725906 13.9836441,5.1711224 Z" id="Path-3" fill="#222222" fill-rule="nonzero" transform="translate(15.935598, 4.812416) rotate(-2.000000) translate(-15.935598, -4.812416) "></path>
                        <path d="M19.8012223,8.06216965 C19.4321919,7.6512743 19.4661302,7.01901954 19.8770255,6.64998911 C20.2879209,6.28095869 20.9201756,6.31489692 21.289206,6.72579227 L21.4368729,6.8902113 C21.8059033,7.30110665 21.7719651,7.93336142 21.3610697,8.30239184 C20.9501744,8.67142226 20.3179196,8.63748403 19.9488892,8.22658868 L19.8012223,8.06216965 Z" id="Path-4" fill="#222222" fill-rule="nonzero"></path>
                        <path d="M12.8280657,15.5096525 L11.2413401,15.5096525 L9.96611884,13.4673493 L8.95372946,13.4673493 L8.95372946,15.5096525 L7.57142857,15.5096525 L7.57142857,9.76190476 L10.6085967,9.76190476 C11.9616941,9.76190476 12.7891277,10.5460802 12.7891277,11.614627 C12.7891277,12.63147 12.0687737,13.1743607 11.3678887,13.320855 L12.8280657,15.5096525 Z M10.4041719,12.3901852 C10.9590392,12.3901852 11.3776233,12.0971966 11.3776233,11.614627 C11.3776233,11.1320575 10.9590392,10.8390689 10.4041719,10.8390689 L8.95372946,10.8390689 L8.95372946,12.3901852 L10.4041719,12.3901852 Z M16.4882427,15.6130603 C15.9333755,15.6130603 15.4174463,15.4062448 15.0378003,14.9753791 L15.0378003,17.0952381 L13.8015171,17.0952381 L13.8015171,11.3474903 L15.0378003,11.3474903 L15.0378003,11.8731464 C15.3979772,11.4681327 15.9139064,11.2440826 16.4882427,11.2440826 C17.6953224,11.2440826 18.5714286,12.0368754 18.5714286,13.4242628 C18.5714286,14.8116502 17.6953224,15.6130603 16.4882427,15.6130603 Z M16.0988622,14.6393039 C16.8094817,14.6393039 17.2864728,14.1481171 17.2864728,13.4242628 C17.2864728,12.7090258 16.8094817,12.217839 16.0988622,12.217839 C15.6997472,12.217839 15.242225,12.4246545 15.0378003,12.6917912 L15.0378003,14.1653517 C15.242225,14.4238711 15.6997472,14.6393039 16.0988622,14.6393039 Z" id="Rp" fill="#222222"></path>
                    </g>
                </g>
            </g>
        </g>
    </g>
</svg>