<?xml version="1.0" encoding="UTF-8" standalone="no"?>
<svg width="24px" height="14px" viewBox="0 0 24 14" version="1.1" xmlns="http://www.w3.org/2000/svg" xmlns:xlink="http://www.w3.org/1999/xlink">
    <!-- Generator: Sketch 49.3 (51167) - http://www.bohemiancoding.com/sketch -->
    <title>Icon/Rupiah</title>
    <desc>Created with Sketch.</desc>
    <defs></defs>
    <g id="Icon" stroke="none" stroke-width="1" fill="none" fill-rule="evenodd">
        <g id="Fontastic" transform="translate(-1123.000000, -449.000000)">
            <g id="Icon/Rupiah" transform="translate(1123.000000, 444.000000)">
                <g id="Group">
                    <rect id="Rectangle-Copy-14" fill-opacity="0" fill="#D8D8D8" x="0" y="0" width="24" height="24"></rect>
                    <path d="M2,7 L2,17 L22,17 L22,7 L2,7 Z M1,5 L23,5 C23.5522847,5 24,5.44771525 24,6 L24,18 C24,18.5522847 23.5522847,19 23,19 L1,19 C0.44771525,19 0,18.5522847 0,18 L0,6 C0,5.44771525 0.44771525,5 1,5 Z" id="Rectangle" fill="#222222" fill-rule="nonzero"></path>
                    <path d="M12,17 C9.23857625,17 7,14.7614237 7,12 C7,9.23857625 9.23857625,7 12,7 C14.7614237,7 17,9.23857625 17,12 C17,14.7614237 14.7614237,17 12,17 Z M12,15 C13.6568542,15 15,13.6568542 15,12 C15,10.3431458 13.6568542,9 12,9 C10.3431458,9 9,10.3431458 9,12 C9,13.6568542 10.3431458,15 12,15 Z" id="Oval" fill="#222222" fill-rule="nonzero"></path>
                </g>
            </g>
        </g>
    </g>
</svg>