<?xml version="1.0" encoding="UTF-8" standalone="no"?>
<svg width="18px" height="18px" viewBox="0 0 18 18" version="1.1" xmlns="http://www.w3.org/2000/svg" xmlns:xlink="http://www.w3.org/1999/xlink">
    <!-- Generator: Sketch 49.3 (51167) - http://www.bohemiancoding.com/sketch -->
    <title>Icon/Search</title>
    <desc>Created with Sketch.</desc>
    <defs></defs>
    <g id="Icon" stroke="none" stroke-width="1" fill="none" fill-rule="evenodd">
        <g id="Fontastic" transform="translate(-959.000000, -693.000000)" fill="#222222">
            <g id="Icon/Search" transform="translate(956.000000, 690.000000)">
                <g id="ic_search">
                    <g id="search" transform="translate(4.000000, 4.000000)" fill-rule="nonzero">
                        <path d="M16.7071068,15.2928932 C17.0976311,15.6834175 17.0976311,16.3165825 16.7071068,16.7071068 C16.3165825,17.0976311 15.6834175,17.0976311 15.2928932,16.7071068 L11.7573593,13.1715729 C11.366835,12.7810486 11.366835,12.1478836 11.7573593,11.7573593 C12.1478836,11.366835 12.7810486,11.366835 13.1715729,11.7573593 L16.7071068,15.2928932 Z" id="Line"></path>
                        <path d="M7,15 C2.581722,15 -1,11.418278 -1,7 C-1,2.581722 2.581722,-1 7,-1 C11.418278,-1 15,2.581722 15,7 C15,11.418278 11.418278,15 7,15 Z M7,13 C10.3137085,13 13,10.3137085 13,7 C13,3.6862915 10.3137085,1 7,1 C3.6862915,1 1,3.6862915 1,7 C1,10.3137085 3.6862915,13 7,13 Z" id="Oval-8"></path>
                    </g>
                </g>
            </g>
        </g>
    </g>
</svg>