<?xml version="1.0" encoding="UTF-8" standalone="no"?>
<svg width="18px" height="20px" viewBox="0 0 18 20" version="1.1" xmlns="http://www.w3.org/2000/svg" xmlns:xlink="http://www.w3.org/1999/xlink">
    <!-- Generator: Sketch 49.3 (51167) - http://www.bohemiancoding.com/sketch -->
    <title>Icon/SetNumber</title>
    <desc>Created with Sketch.</desc>
    <defs></defs>
    <g id="Icon" stroke="none" stroke-width="1" fill="none" fill-rule="evenodd">
        <g id="Fontastic" transform="translate(-706.000000, -200.000000)">
            <g id="Icon/SetNumber" transform="translate(703.000000, 198.000000)">
                <rect id="Rectangle-Copy-14" fill-opacity="0" fill="#D8D8D8" x="0" y="0" width="24" height="24"></rect>
                <g id="Page-1" stroke-width="1" transform="translate(3.000000, 2.000000)" fill="#222222">
                    <g id="Group-5" fill-rule="nonzero">
                        <path d="M11,18 L11,14.4994965 L2,14.4994965 L2,12.5030212 L11,12.5030212 L11,11.4902039 L13,11.4902039 L13,19 C13,19.5522847 12.5522847,20 12,20 L1,20 C0.44771525,20 0,19.5522847 0,19 L0,1 C0,0.44771525 0.44771525,0 1,0 L12,0 C12.5522847,0 13,0.44771525 13,1 L13,3.50003223 L11,3.50003223 L11,2 L2,2 L2,18 L11,18 Z" id="Stroke-2"></path>
                        <path d="M5,17 C4.44771525,17 4,16.5522847 4,16 C4,15.4477153 4.44771525,15 5,15 L9,15 C9.55228475,15 10,15.4477153 10,16 C10,16.5522847 9.55228475,17 9,17 L5,17 Z" id="Stroke-4"></path>
                    </g>
                </g>
                <g id="Group-7" stroke-width="1" transform="translate(4.000000, 5.500000)" fill="#222222">
                    <path d="M5,2 L5,6 L15,6 L15,2 L5,2 Z M0.998091395,0 L16,0 C16.5522847,0 17,0.44771525 17,1 L17,7 C17,7.55228475 16.5522847,8 16,8 L4,8 C3.44771525,8 3,7.55228475 3,7 L3,1.99923751 L0.998091395,1.99923751 L0.998091395,0 Z" id="Rectangle" fill-rule="nonzero"></path>
                    <g id="Group-3" transform="translate(6.000000, 3.500000)" fill-rule="nonzero">
                        <g id="Group-5">
                            <path d="M-0.353553391,0.353553391 C-0.548815536,0.158291245 -0.548815536,-0.158291245 -0.353553391,-0.353553391 C-0.158291245,-0.548815536 0.158291245,-0.548815536 0.353553391,-0.353553391 L1.35355339,0.646446609 C1.54881554,0.841708755 1.54881554,1.15829124 1.35355339,1.35355339 C1.15829124,1.54881554 0.841708755,1.54881554 0.646446609,1.35355339 L-0.353553391,0.353553391 Z" id="Path-2-Copy"></path>
                        </g>
                        <path d="M0.646446609,-0.353553391 C0.841708755,-0.548815536 1.15829124,-0.548815536 1.35355339,-0.353553391 C1.54881554,-0.158291245 1.54881554,0.158291245 1.35355339,0.353553391 L0.353553391,1.35355339 C0.158291245,1.54881554 -0.158291245,1.54881554 -0.353553391,1.35355339 C-0.548815536,1.15829124 -0.548815536,0.841708755 -0.353553391,0.646446609 L0.646446609,-0.353553391 Z" id="Path-2-Copy"></path>
                    </g>
                    <g id="Group-3-Copy" transform="translate(9.500000, 3.500000)" fill-rule="nonzero">
                        <g id="Group-5">
                            <path d="M-0.353553391,0.353553391 C-0.548815536,0.158291245 -0.548815536,-0.158291245 -0.353553391,-0.353553391 C-0.158291245,-0.548815536 0.158291245,-0.548815536 0.353553391,-0.353553391 L1.35355339,0.646446609 C1.54881554,0.841708755 1.54881554,1.15829124 1.35355339,1.35355339 C1.15829124,1.54881554 0.841708755,1.54881554 0.646446609,1.35355339 L-0.353553391,0.353553391 Z" id="Path-2-Copy"></path>
                        </g>
                        <path d="M0.646446609,-0.353553391 C0.841708755,-0.548815536 1.15829124,-0.548815536 1.35355339,-0.353553391 C1.54881554,-0.158291245 1.54881554,0.158291245 1.35355339,0.353553391 L0.353553391,1.35355339 C0.158291245,1.54881554 -0.158291245,1.54881554 -0.353553391,1.35355339 C-0.548815536,1.15829124 -0.548815536,0.841708755 -0.353553391,0.646446609 L0.646446609,-0.353553391 Z" id="Path-2-Copy"></path>
                    </g>
                    <g id="Group-3-Copy-2" transform="translate(13.000000, 3.500000)" fill-rule="nonzero">
                        <g id="Group-5">
                            <path d="M-0.353553391,0.353553391 C-0.548815536,0.158291245 -0.548815536,-0.158291245 -0.353553391,-0.353553391 C-0.158291245,-0.548815536 0.158291245,-0.548815536 0.353553391,-0.353553391 L1.35355339,0.646446609 C1.54881554,0.841708755 1.54881554,1.15829124 1.35355339,1.35355339 C1.15829124,1.54881554 0.841708755,1.54881554 0.646446609,1.35355339 L-0.353553391,0.353553391 Z" id="Path-2-Copy"></path>
                        </g>
                        <path d="M0.646446609,-0.353553391 C0.841708755,-0.548815536 1.15829124,-0.548815536 1.35355339,-0.353553391 C1.54881554,-0.158291245 1.54881554,0.158291245 1.35355339,0.353553391 L0.353553391,1.35355339 C0.158291245,1.54881554 -0.158291245,1.54881554 -0.353553391,1.35355339 C-0.548815536,1.15829124 -0.548815536,0.841708755 -0.353553391,0.646446609 L0.646446609,-0.353553391 Z" id="Path-2-Copy"></path>
                    </g>
                </g>
            </g>
        </g>
    </g>
</svg>