<?xml version="1.0" encoding="UTF-8"?>
<svg width="21px" height="22px" viewBox="0 0 21 22" version="1.1" xmlns="http://www.w3.org/2000/svg" xmlns:xlink="http://www.w3.org/1999/xlink">
    <!-- Generator: Sketch 50.2 (55047) - http://www.bohemiancoding.com/sketch -->
    <title>Icon/Share</title>
    <desc>Created with Sketch.</desc>
    <defs></defs>
    <g id="Icon" stroke="none" stroke-width="1" fill="none" fill-rule="evenodd">
        <g id="Fontastic" transform="translate(-872.000000, -553.000000)">
            <g id="Icon/Share" transform="translate(871.000000, 552.000000)">
                <rect id="Rectangle-Copy-10" fill-opacity="0" fill="#D8D8D8" fill-rule="evenodd" x="0" y="0" width="24" height="24"></rect>
                <path d="M8.87415935,12.0699564 L15.5314921,16.2471178 C15.9993122,16.5406528 16.1405982,17.157853 15.8470632,17.6256731 C15.5535282,18.0934932 14.936328,18.2347793 14.4685079,17.9412443 L6.46850789,12.9216227 C5.84564073,12.530803 5.84341354,11.6239917 6.46435343,11.2301172 L14.4643534,6.15555772 C14.930726,5.85972829 15.5486128,5.99798084 15.8444423,6.46435343 C16.1402717,6.93072603 16.0020192,7.54861285 15.5356466,7.84444228 L8.87415935,12.0699564 Z" id="Path-7" fill="#222222" fill-rule="nonzero"></path>
                <path d="M18,9 C15.790861,9 14,7.209139 14,5 C14,2.790861 15.790861,1 18,1 C20.209139,1 22,2.790861 22,5 C22,7.209139 20.209139,9 18,9 Z M18,7 C19.1045695,7 20,6.1045695 20,5 C20,3.8954305 19.1045695,3 18,3 C16.8954305,3 16,3.8954305 16,5 C16,6.1045695 16.8954305,7 18,7 Z" id="Oval-10" fill="#222222" fill-rule="nonzero"></path>
                <path d="M18,23 C15.790861,23 14,21.209139 14,19 C14,16.790861 15.790861,15 18,15 C20.209139,15 22,16.790861 22,19 C22,21.209139 20.209139,23 18,23 Z M18,21 C19.1045695,21 20,20.1045695 20,19 C20,17.8954305 19.1045695,17 18,17 C16.8954305,17 16,17.8954305 16,19 C16,20.1045695 16.8954305,21 18,21 Z" id="Oval-10" fill="#222222" fill-rule="nonzero"></path>
                <circle id="Oval-10" fill="#222222" fill-rule="evenodd" cx="5" cy="12" r="4"></circle>
            </g>
        </g>
    </g>
</svg>