<?xml version="1.0" encoding="UTF-8" standalone="no"?>
<svg width="16px" height="14px" viewBox="0 0 16 14" version="1.1" xmlns="http://www.w3.org/2000/svg" xmlns:xlink="http://www.w3.org/1999/xlink">
    <!-- Generator: Sketch 50.2 (55047) - http://www.bohemiancoding.com/sketch -->
    <title>Icon/Shuffle</title>
    <desc>Created with Sketch.</desc>
    <defs></defs>
    <g id="Icon" stroke="none" stroke-width="1" fill="none" fill-rule="evenodd">
        <g id="Fontastic" transform="translate(-1043.000000, -887.000000)">
            <g id="Icon/Shuffle" transform="translate(1039.000000, 882.000000)">
                <g id="Reshuffle">
                    <rect id="Rectangle_1459" x="0" y="0" width="24" height="24"></rect>
                    <path d="M16.234,16.293 L14.823,16.293 C13.030881,16.2705037 11.3995634,15.2544941 10.589,13.656 L8.895,10.361 C8.43260789,9.37628187 7.4388334,8.75126647 6.351,8.761 L4,8.761 L4,6.88 L6.351,6.88 C8.14443232,6.9014647 9.77742771,7.91755928 10.589,9.517 L12.283,12.81 C12.7428238,13.7951274 13.7358939,14.4206833 14.823,14.41 L16.234,14.41 L16.234,12.527 L20,15.353 L16.234,18.175 L16.234,16.293 Z M4,16.293 L4,14.41 L6.351,14.41 C7.1306551,14.4322546 7.88346884,14.1243019 8.424,13.562 L8.799,14.503 C8.93485206,14.7671582 9.09274517,15.0193857 9.271,15.257 C8.4549422,15.9432305 7.41807047,16.3108777 6.352,16.292 L4,16.293 Z M16.234,8.764 L14.823,8.764 C14.0436637,8.74349272 13.2915284,9.0511679 12.75,9.612 L12.375,8.673 C12.2395609,8.40860714 12.0816464,8.15634532 11.903,7.919 C12.7190578,7.23276952 13.7559295,6.86512229 14.822,6.884 L16.233,6.884 L16.233,5 L19.999,7.82 L16.233,10.648 L16.234,8.764 Z" id="Union_48" fill="#222222" fill-rule="nonzero"></path>
                </g>
            </g>
        </g>
    </g>
</svg>