<?xml version="1.0" encoding="UTF-8" standalone="no"?>
<svg width="21px" height="18px" viewBox="0 0 21 18" version="1.1" xmlns="http://www.w3.org/2000/svg" xmlns:xlink="http://www.w3.org/1999/xlink">
    <!-- Generator: Sketch 49.3 (51167) - http://www.bohemiancoding.com/sketch -->
    <title>Icon/Sound</title>
    <desc>Created with Sketch.</desc>
    <defs></defs>
    <g id="Icon" stroke="none" stroke-width="1" fill="none" fill-rule="evenodd">
        <g id="Fontastic" transform="translate(-789.000000, -693.000000)">
            <g id="Icon/SoundOn" transform="translate(788.000000, 690.000000)">
                <g id="Group-2" fill="#D8D8D8" fill-opacity="0">
                    <polygon id="Rectangle-Copy-9" points="0 0 24 0 24 24 12 24 0 24"></polygon>
                </g>
                <g id="Group-3" transform="translate(2.000000, 4.000000)" fill="#222222">
                    <g id="Group-Copy" fill-rule="nonzero">
                        <path d="M7.51578915,2.01730861 L3.88725836,4.77789235 C3.7131863,4.91032626 3.5004951,4.98203672 3.28177194,4.98203672 L1.5,4.98203672 L1.5,11.5339613 L3.03374592,11.5339613 C3.21163874,11.5339613 3.38631148,11.5814156 3.53974961,11.67143 L7.51578915,14.0039722 L7.51578915,2.01730861 Z M2.94461431,2.98203672 L7.91030273,-0.795855635 C8.5686473,-1.29672373 9.51578915,-0.827216069 9.51578915,-2.22044605e-16 L9.51578915,15.75 C9.51578915,16.5228908 8.67642796,17.0036169 8.00978547,16.6125313 L2.76207066,13.5339613 L0.5,13.5339613 C-0.0522847498,13.5339613 -0.5,13.0862461 -0.5,12.5339613 L-0.5,3.98203672 C-0.5,3.42975197 -0.0522847498,2.98203672 0.5,2.98203672 L2.94461431,2.98203672 Z" id="Path-2"></path>
                        <g id="Group" transform="translate(12.000000, 1.000000)">
                            <path d="M-0.729738302,1.85039323 C-1.10735005,1.44736989 -1.0867499,0.814540118 -0.683726562,0.436928365 C-0.280703226,0.059316612 0.352126549,0.0799167696 0.729738302,0.482940105 C2.4499238,2.3188864 3.33333333,4.30655784 3.33333333,6.41666667 C3.33333333,8.52677549 2.4499238,10.5144469 0.729738302,12.3503932 C0.352126549,12.7534166 -0.280703226,12.7740167 -0.683726562,12.396405 C-1.0867499,12.0187932 -1.10735005,11.3859634 -0.729738302,10.9829401 C0.661187311,9.49841142 1.33333333,7.98608287 1.33333333,6.41666667 C1.33333333,4.84725047 0.661187311,3.33492191 -0.729738302,1.85039323 Z" id="Path-3"></path>
                            <path d="M3.84847805,0.574949903 C3.53094199,0.123076809 3.63984367,-0.500652551 4.09171676,-0.818188614 C4.54358986,-1.13572468 5.16731922,-1.026823 5.48485528,-0.574949903 C7.15578318,1.80288192 8,4.33553239 8,7 C8,9.66446761 7.15578318,12.1971181 5.48485528,14.5749499 C5.16731922,15.026823 4.54358986,15.1357247 4.09171676,14.8181886 C3.63984367,14.5006526 3.53094199,13.8769232 3.84847805,13.4250501 C5.28866127,11.375582 6,9.24156576 6,7 C6,4.75843424 5.28866127,2.62441804 3.84847805,0.574949903 Z" id="Path-3-Copy"></path>
                        </g>
                    </g>
                </g>
            </g>
        </g>
    </g>
</svg>