<?xml version="1.0" encoding="UTF-8" standalone="no"?>
<svg width="21px" height="23px" viewBox="0 0 21 23" version="1.1" xmlns="http://www.w3.org/2000/svg" xmlns:xlink="http://www.w3.org/1999/xlink">
    <!-- Generator: Sketch 50.2 (55047) - http://www.bohemiancoding.com/sketch -->
    <title>Icon/StartChat</title>
    <desc>Created with Sketch.</desc>
    <defs></defs>
    <g id="Icon" stroke="none" stroke-width="1" fill="none" fill-rule="evenodd">
        <g id="Fontastic" transform="translate(-537.000000, -883.000000)">
            <g id="Icon/startchat" transform="translate(535.000000, 882.000000)">
                <rect id="Rectangle-Copy-10" fill-opacity="0" fill="#D8D8D8" fill-rule="evenodd" x="0" y="0" width="24" height="24"></rect>
                <path d="M20,13.0885818 C20,12.536297 20.4477153,12.0885818 21,12.0885818 C21.5522847,12.0885818 22,12.536297 22,13.0885818 L22,19 C22,21.7614237 19.7614237,24 17,24 L7,24 C4.23857625,24 2,21.7614237 2,19 L2,11 C2,8.23857625 4.23857625,6 7,6 L10.0702079,6 C10.6224926,6 11.0702079,6.44771525 11.0702079,7 C11.0702079,7.55228475 10.6224926,8 10.0702079,8 L7,8 C5.34314575,8 4,9.34314575 4,11 L4,19 C4,20.6568542 5.34314575,22 7,22 L17,22 C18.6568542,22 20,20.6568542 20,19 L20,13.0885818 Z" id="Rectangle-3" fill="#222222" fill-rule="nonzero"></path>
                <path d="M11.2438971,16.7265867 L14.087279,15.4379072 L20.3180697,4.97052895 C20.5142324,4.64098675 20.399005,4.22388951 20.0316717,4.01818975 L18.4104918,3.11035936 C18.0075311,2.88470894 17.4880438,3.01971757 17.2704914,3.38519334 L11.0394763,13.8529486 L11.2438971,16.7265867 Z M19.3876736,1.36533339 L21.0088536,2.27316379 C22.351883,3.02523511 22.8120389,4.69089619 22.0366405,5.99352194 L15.4847198,17.0003805 L9.45279268,19.7341747 L9,13.369059 L15.5519207,2.36220035 C16.3273191,1.0595746 18.0446442,0.613262063 19.3876736,1.36533339 Z" id="Rectangle" fill="#222222" fill-rule="nonzero"></path>
                <path d="M16.5940841,5.50155973 L16.1701152,6.21457485 L18.2925073,7.40307468 L18.7150737,6.68927423 L16.5940841,5.50155973 Z" id="Rectangle-2" stroke="#222222" stroke-width="1"></path>
            </g>
        </g>
    </g>
</svg>