<?xml version="1.0" encoding="UTF-8"?>
<svg width="24px" height="24px" viewBox="0 0 24 24" version="1.1" xmlns="http://www.w3.org/2000/svg" xmlns:xlink="http://www.w3.org/1999/xlink">
    <!-- Generator: Sketch 50.2 (55047) - http://www.bohemiancoding.com/sketch -->
    <title>Icon/Switch</title>
    <desc>Created with Sketch.</desc>
    <defs></defs>
    <g id="Icon" stroke="none" stroke-width="1" fill="none" fill-rule="evenodd">
        <g id="Fontastic" transform="translate(-703.000000, -990.000000)" fill="#222222">
            <g id="Icon/Switch" transform="translate(703.000000, 990.000000)">
                <g id="Group-7">
                    <path d="M13.5856729,15 L12.7069932,14.1213203 C12.3164689,13.7307961 12.3164689,13.0976311 12.7069932,12.7071068 C13.0975175,12.3165825 13.7306825,12.3165825 14.1212068,12.7071068 L16.6651396,15.2510396 C16.6829099,15.2664775 16.7002651,15.2826469 16.7171659,15.2995477 C16.9213935,15.5037753 17.0188188,15.7743614 17.0094416,16.0419007 C17.0016784,16.2871077 16.9042153,16.530003 16.7170523,16.7171659 C16.7007092,16.733509 16.6839411,16.7491682 16.6667837,16.7641435 L14.1213203,19.3096068 C13.7307961,19.7001311 13.0976311,19.7001311 12.7071068,19.3096068 C12.3165825,18.9190825 12.3165825,18.2859175 12.7071068,17.8953932 L13.6025,17 L8,17 C7.44771525,17 7,16.5522847 7,16 C7,15.4477153 7.44771525,15 8,15 L13.5856729,15 Z" id="Combined-Shape" fill-rule="nonzero"></path>
                    <path d="M10.8387271,9.0166 L11.7174068,9.89527966 C12.1079311,10.2858039 12.1079311,10.9189689 11.7174068,11.3094932 C11.3268825,11.7000175 10.6937175,11.7000175 10.3031932,11.3094932 L7.75961572,8.76591572 C7.74168651,8.75035856 7.72417918,8.73405743 7.70713409,8.71701234 C7.49522613,8.50510438 7.39830457,8.22175302 7.41636942,7.9444921 C7.43088146,7.70962794 7.52787421,7.47890754 7.70734766,7.29943409 C7.72333754,7.28344421 7.73973419,7.26810903 7.75650432,7.25342855 L10.3029797,4.70695322 C10.6935039,4.31642893 11.3266689,4.31642893 11.7171932,4.70695322 C12.1077175,5.09747751 12.1077175,5.73064249 11.7171932,6.12116678 L10.82176,7.0166 L16.4243,7.0166 C16.9765847,7.0166 17.4243,7.46431525 17.4243,8.0166 C17.4243,8.56888475 16.9765847,9.0166 16.4243,9.0166 L10.8387271,9.0166 Z" id="Combined-Shape" fill-rule="nonzero"></path>
                    <path d="M12,24 C5.372583,24 0,18.627417 0,12 C0,5.372583 5.372583,0 12,0 C18.627417,0 24,5.372583 24,12 C24,18.627417 18.627417,24 12,24 Z M12,22 C17.5228475,22 22,17.5228475 22,12 C22,6.4771525 17.5228475,2 12,2 C6.4771525,2 2,6.4771525 2,12 C2,17.5228475 6.4771525,22 12,22 Z" id="Oval" fill-rule="nonzero"></path>
                </g>
            </g>
        </g>
    </g>
</svg>