<?xml version="1.0" encoding="UTF-8" standalone="no"?>
<svg width="22px" height="16px" viewBox="0 0 22 16" version="1.1" xmlns="http://www.w3.org/2000/svg" xmlns:xlink="http://www.w3.org/1999/xlink">
    <!-- Generator: Sketch 49.3 (51167) - http://www.bohemiancoding.com/sketch -->
    <title>Icon/TerimaBayar</title>
    <desc>Created with Sketch.</desc>
    <defs></defs>
    <g id="Icon" stroke="none" stroke-width="1" fill="none" fill-rule="evenodd">
        <g id="Fontastic" transform="translate(-453.000000, -353.000000)">
            <g id="Icon/TerimaBayar" transform="translate(451.000000, 348.000000)">
                <g id="Group-4">
                    <rect id="Rectangle-Copy-31" fill-opacity="0" fill="#D8D8D8" x="0" y="0" width="24" height="24"></rect>
                    <g id="Page-1" transform="translate(1.000000, 4.000000)" fill="#222222" fill-rule="nonzero">
                        <g id="Group-6" transform="translate(0.000000, 0.847500)">
                            <path d="M18.218,16 C17.6657153,16 17.218,15.5522847 17.218,15 L17.218,8.796 C17.218,8.24371525 17.6657153,7.796 18.218,7.796 L21.469,7.796 C22.0212847,7.796 22.469,8.24371525 22.469,8.796 L22.469,15 C22.469,15.5522847 22.0212847,16 21.469,16 L18.218,16 Z M20.469,14 L20.469,9.796 L19.218,9.796 L19.218,14 L20.469,14 Z" id="Stroke-3"></path>
                            <path d="M11.9884376,8.61466264 C11.7269965,8.96604106 11.8186991,9.37465997 12.6434378,9.97895617 C13.4231997,10.5502973 13.0190743,11.7856 12.0524,11.7856 L8.2044,11.7856 C7.16184458,11.7856 6.51256293,11.4676925 5.6351501,10.7542435 C5.54828722,10.6834077 5.54828722,10.6834077 5.46750664,10.6177152 C5.14069301,10.3531172 4.97056547,10.2479587 4.79103136,10.2001791 C4.25556643,10.0581561 3.7584,10.3380456 3.7584,10.5146 C3.7584,10.9665485 4.78232525,12.5462474 5.28631112,12.894201 C6.16926851,13.5050046 7.51764468,13.7111035 10.7552947,13.8302808 C11.162284,13.8453068 11.7768649,13.862558 12.5668039,13.8815456 C13.0870808,13.8940513 13.6763273,13.9071398 14.3218354,13.9206409 C15.23252,13.9396884 16.2084563,13.9586043 17.1844209,13.9765231 C17.2882027,13.9784286 17.3799741,13.9801058 17.4684,13.9817117 L17.4684,9.9432105 C16.0241692,9.79419783 14.8841105,9.39174059 12.8696139,8.21025895 C12.724606,8.12550538 12.2376788,8.27968107 11.9884376,8.61466264 Z M11.1632356,6.69131237 C10.8653455,6.88632489 10.598061,7.13290309 10.3838624,7.42078736 C10.3531546,7.46205873 10.323798,7.50368507 10.2957914,7.54564149 C10.5177866,7.20128983 10.8069346,6.91651346 11.1632356,6.69131237 Z M14.2167157,6.67916953 C14.2951375,6.72391628 14.3717268,6.7671235 14.4466109,6.8088467 C14.3655385,6.76337261 14.2889791,6.72000457 14.2167157,6.67916953 Z M15.999,7.56041638 C16.7539475,7.84984687 17.3844416,7.9485545 18.2088587,7.99551662 C18.3244987,8.00211732 18.377012,8.00522647 18.4444664,8.00961964 C18.4921138,8.01277082 18.4921138,8.01277082 18.5405221,8.01620419 C19.0634577,8.05401788 19.4684,8.48929902 19.4684,9.0136 L19.4684,14.9996 C19.4684,15.558567 19.0102056,16.0090012 18.4513202,15.9994541 C18.385954,15.9983375 18.385954,15.9983375 18.0926304,15.9932019 C17.701602,15.9862724 17.4898234,15.9824674 17.1477069,15.9761861 C16.1701672,15.9582384 15.1925993,15.9392909 14.2800133,15.9202036 C13.632566,15.9066619 13.0413016,15.8935286 12.5187444,15.880968 C11.7208737,15.8617899 11.0991077,15.844337 10.6816151,15.8289232 C7.01624709,15.6940017 5.47830774,15.4589281 4.14925036,14.5395253 C3.14967828,13.8494182 1.7584,11.7029718 1.7584,10.5146 C1.7584,8.86551748 3.61645464,7.81948961 5.30457756,8.26723583 C5.82721332,8.40632438 6.19640218,8.63452579 6.72600249,9.06330591 C6.81400339,9.1348674 6.81400339,9.1348674 6.89692229,9.20249258 C7.45074063,9.65281781 7.72192969,9.7856 8.2044,9.7856 L10.0093681,9.7856 C9.81505977,9.23867795 9.80863304,8.68026102 9.99182205,8.152 L0.999,8.152 L0.999,0.152 L15.999,0.152 L15.999,7.56041638 Z" id="Stroke-5"></path>
                        </g>
                    </g>
                </g>
            </g>
        </g>
    </g>
</svg>