<?xml version="1.0" encoding="UTF-8" standalone="no"?>
<svg width="21px" height="23px" viewBox="0 0 21 23" version="1.1" xmlns="http://www.w3.org/2000/svg" xmlns:xlink="http://www.w3.org/1999/xlink">
    <!-- Generator: Sketch 49.3 (51167) - http://www.bohemiancoding.com/sketch -->
    <title>Icon/TopUp</title>
    <desc>Created with Sketch.</desc>
    <defs></defs>
    <g id="Icon" stroke="none" stroke-width="1" fill="none" fill-rule="evenodd">
        <g id="Fontastic" transform="translate(-789.000000, -349.000000)">
            <g id="Icon/topup" transform="translate(787.000000, 348.000000)">
                <g id="Group-2">
                    <rect id="Rectangle-Copy-35" fill-opacity="0" fill="#D8D8D8" x="0" y="0" width="24" height="24"></rect>
                    <g id="Page-1" transform="translate(3.000000, 1.000000)" fill="#222222">
                        <path d="M-1.11022302e-16,22.0937 C-0.55228475,22.0937 -1,21.6459847 -1,21.0937 L-1,3.8457 C-1,3.29341525 -0.55228475,2.8457 -1.11022302e-16,2.8457 L18.678,2.8457 C19.2302847,2.8457 19.678,3.29341525 19.678,3.8457 L19.678,21.0937 C19.678,21.6459847 19.2302847,22.0937 18.678,22.0937 L-1.11022302e-16,22.0937 Z M1,20.0937 L17.678,20.0937 L17.678,4.8457 L1,4.8457 L1,20.0937 Z" id="Stroke-1" fill-rule="nonzero"></path>
                        <path d="M17.6783,11.3112 L15.0903,11.3112 C14.4496677,11.3112 13.9313,11.8294018 13.9313,12.4692 C13.9313,13.1093323 14.4500017,13.6282 15.0903,13.6282 L17.6783,13.6282 L17.6783,11.3112 Z M18.6783,15.6282 L15.0903,15.6282 C13.3452889,15.6282 11.9313,14.2137586 11.9313,12.4692 C11.9313,10.724689 13.3452415,9.3112 15.0903,9.3112 L18.6783,9.3112 C19.2305847,9.3112 19.6783,9.75891525 19.6783,10.3112 L19.6783,14.6282 C19.6783,15.1804847 19.2305847,15.6282 18.6783,15.6282 Z" id="Stroke-3" fill-rule="nonzero"></path>
                        <path d="M16.2242,12.4469998 C16.2242,12.8599998 15.8902,13.1939998 15.4772,13.1939998 C15.0642,13.1939998 14.7302,12.8599998 14.7302,12.4469998 C14.7302,12.0339998 15.0642,11.6999998 15.4772,11.6999998 C15.8902,11.6999998 16.2242,12.0339998 16.2242,12.4469998" id="Fill-4"></path>
                        <path d="M2.2194,7.1072 C1.66711525,7.1072 1.2194,6.65948475 1.2194,6.1072 C1.2194,5.55491525 1.66711525,5.1072 2.2194,5.1072 L18.6784,5.1072 C19.2306847,5.1072 19.6784,5.55491525 19.6784,6.1072 C19.6784,6.65948475 19.2306847,7.1072 18.6784,7.1072 L2.2194,7.1072 Z" id="Stroke-5" fill-rule="nonzero"></path>
                        <polygon id="Fill-6" points="4.5236 5.2249 13.3196 -0.0001 16.3746 5.2249"></polygon>
                    </g>
                </g>
            </g>
        </g>
    </g>
</svg>