<?xml version="1.0" encoding="UTF-8" standalone="no"?>
<svg width="24px" height="22px" viewBox="0 0 24 22" version="1.1" xmlns="http://www.w3.org/2000/svg" xmlns:xlink="http://www.w3.org/1999/xlink">
    <!-- Generator: Sketch 49.3 (51167) - http://www.bohemiancoding.com/sketch -->
    <title>Icon/Transaksi_Favorit</title>
    <desc>Created with Sketch.</desc>
    <defs></defs>
    <g id="Icon" stroke="none" stroke-width="1" fill="none" fill-rule="evenodd">
        <g id="Fontastic" transform="translate(-367.000000, -445.000000)">
            <g id="Icon/TransaksiFavorit" transform="translate(367.000000, 444.000000)">
                <rect id="Rectangle-Copy-10" fill-opacity="0" fill="#D8D8D8" x="0" y="0" width="24" height="24"></rect>
                <g id="Group-2-Copy" stroke-width="1" transform="translate(-3.000000, -2.000000)">
                    <g id="Group" transform="translate(0.500000, 0.000000)">
                        <g id="Group-4" transform="translate(8.571429, 10.761905)"></g>
                        <path d="M12.8280657,15.5096525 L11.2413401,15.5096525 L9.96611884,13.4673493 L8.95372946,13.4673493 L8.95372946,15.5096525 L7.57142857,15.5096525 L7.57142857,9.76190476 L10.6085967,9.76190476 C11.9616941,9.76190476 12.7891277,10.5460802 12.7891277,11.614627 C12.7891277,12.63147 12.0687737,13.1743607 11.3678887,13.320855 L12.8280657,15.5096525 Z M10.4041719,12.3901852 C10.9590392,12.3901852 11.3776233,12.0971966 11.3776233,11.614627 C11.3776233,11.1320575 10.9590392,10.8390689 10.4041719,10.8390689 L8.95372946,10.8390689 L8.95372946,12.3901852 L10.4041719,12.3901852 Z M16.4882427,15.6130603 C15.9333755,15.6130603 15.4174463,15.4062448 15.0378003,14.9753791 L15.0378003,17.0952381 L13.8015171,17.0952381 L13.8015171,11.3474903 L15.0378003,11.3474903 L15.0378003,11.8731464 C15.3979772,11.4681327 15.9139064,11.2440826 16.4882427,11.2440826 C17.6953224,11.2440826 18.5714286,12.0368754 18.5714286,13.4242628 C18.5714286,14.8116502 17.6953224,15.6130603 16.4882427,15.6130603 Z M16.0988622,14.6393039 C16.8094817,14.6393039 17.2864728,14.1481171 17.2864728,13.4242628 C17.2864728,12.7090258 16.8094817,12.217839 16.0988622,12.217839 C15.6997472,12.217839 15.242225,12.4246545 15.0378003,12.6917912 L15.0378003,14.1653517 C15.242225,14.4238711 15.6997472,14.6393039 16.0988622,14.6393039 Z" id="Rp" fill="#222222"></path>
                        <path d="M23.8095238,13.5 C23.8095238,14.0522847 23.3618086,14.5 22.8095238,14.5 C22.2572391,14.5 21.8095238,14.0522847 21.8095238,13.5 C21.8095238,8.91077672 18.0892233,5.19047619 13.5,5.19047619 C8.91077672,5.19047619 5.19047619,8.91077672 5.19047619,13.5 C5.19047619,13.6449916 5.19418011,13.7894952 5.20156152,13.9334255 C5.203877,13.977095 5.203877,13.977095 5.20649091,14.0206784 C5.20770602,14.0401235 5.20770602,14.0401235 5.20898039,14.0595513 C5.24555588,14.6106236 4.82847381,15.0870063 4.27740152,15.1235818 C3.72632922,15.1601573 3.24994656,14.7430752 3.21337106,14.1920029 C3.21179302,14.1679456 3.21179302,14.1679456 3.21028852,14.1438695 C3.20705238,14.0899111 3.20705238,14.0899111 3.20418645,14.03586 C3.1950556,13.8578173 3.19047619,13.6791576 3.19047619,13.5 C3.19047619,7.80620722 7.80620722,3.19047619 13.5,3.19047619 C19.1937928,3.19047619 23.8095238,7.80620722 23.8095238,13.5 Z M6.14149127,20.7207122 C5.75465433,20.326535 5.76060474,19.693398 6.15478188,19.306561 C6.54895903,18.9197241 7.18209604,18.9256745 7.56893299,19.3198517 C7.61743937,19.3692784 7.66655793,19.4181016 7.71627625,19.4663089 C9.25697658,20.9601836 11.3102943,21.8095238 13.5,21.8095238 C14.0522847,21.8095238 14.5,22.2572391 14.5,22.8095238 C14.5,23.3618086 14.0522847,23.8095238 13.5,23.8095238 C10.7852706,23.8095238 8.23424073,22.7543086 6.32405072,20.9021738 C6.26244923,20.8424446 6.20159103,20.7819523 6.14149127,20.7207122 Z" id="Oval" fill="#222222" fill-rule="nonzero" transform="translate(13.500000, 13.500000) rotate(-105.000000) translate(-13.500000, -13.500000) "></path>
                        <path d="M18.9971552,22.1525732 C19.1428172,22.0759941 19.3168343,22.0759941 19.4624963,22.1525732 L21.0568112,22.9907541 L20.7523242,21.2154584 C20.7245052,21.0532613 20.7782794,20.8877612 20.8961225,20.7728927 L22.1859503,19.5156212 L20.4034521,19.2566091 C20.240597,19.2329448 20.0998142,19.1306601 20.0269832,18.9830884 L19.2298257,17.367871 L18.4326683,18.9830884 C18.3598373,19.1306601 18.2190545,19.2329448 18.0561994,19.2566091 L16.2737011,19.5156212 L17.563529,20.7728927 C17.681372,20.8877612 17.7351463,21.0532613 17.7073273,21.2154584 L17.4028402,22.9907541 L18.9971552,22.1525732 Z M16.9714453,24.3473276 C16.6046316,24.540173 16.1759154,24.2286924 16.2459706,23.8202394 L16.6772828,21.3054958 L14.8502147,19.5245445 C14.5534562,19.2352765 14.7172112,18.7312903 15.1273214,18.6716978 L17.6522675,18.3048017 L18.7814577,16.0168124 C18.9648645,15.6451895 19.4947869,15.6451895 19.6781938,16.0168124 L20.807384,18.3048017 L23.3323301,18.6716978 C23.7424402,18.7312903 23.9061953,19.2352765 23.6094368,19.5245445 L21.7823686,21.3054958 L22.2136809,23.8202394 C22.2837361,24.2286924 21.8550199,24.540173 21.4882062,24.3473276 L19.2298257,23.1600268 L16.9714453,24.3473276 Z" id="Star-Copy-2" fill="#222222" fill-rule="nonzero"></path>
                        <path d="M21.1753305,13.6953121 C20.8347896,14.1301114 20.2062523,14.2065228 19.7714531,13.865982 C19.3366538,13.5254411 19.2602424,12.8969038 19.6007832,12.4621046 L21.6423315,9.85547596 C21.9729485,9.43334737 22.5776606,9.34709986 23.0131071,9.65996807 L25.5419319,11.476928 C25.9904488,11.7991872 26.0928008,12.4240248 25.7705416,12.8725417 C25.4482823,13.3210586 24.8234447,13.4234106 24.3749278,13.1011513 L22.6252805,11.8440302 L21.1753305,13.6953121 Z" id="Path-2" fill="#222222" fill-rule="nonzero"></path>
                        <path d="M13.9802234,5.1711224 C13.4292839,5.13259696 13.0138903,4.65474129 13.0524158,4.10380187 C13.0909412,3.55286246 13.5687969,3.13746886 14.1197363,3.1759943 C15.7464509,3.28974527 17.5524188,3.96613037 18.4363466,4.66823548 C18.8688081,5.01174025 18.9409217,5.64078517 18.5974169,6.07324663 C18.2539121,6.50570809 17.6248672,6.57782174 17.1924058,6.23431697 C16.6317369,5.78897682 15.2120349,5.25725906 13.9802234,5.1711224 Z" id="Path-3" fill="#222222" fill-rule="nonzero" transform="translate(15.932177, 4.812416) rotate(-4.000000) translate(-15.932177, -4.812416) "></path>
                        <path d="M19.8012223,8.06216965 C19.4321919,7.6512743 19.4661302,7.01901954 19.8770255,6.64998911 C20.2879209,6.28095869 20.9201756,6.31489692 21.289206,6.72579227 L21.4368729,6.8902113 C21.8059033,7.30110665 21.7719651,7.93336142 21.3610697,8.30239184 C20.9501744,8.67142226 20.3179196,8.63748403 19.9488892,8.22658868 L19.8012223,8.06216965 Z" id="Path-4" fill="#222222" fill-rule="nonzero"></path>
                    </g>
                </g>
            </g>
        </g>
    </g>
</svg>