<?xml version="1.0" encoding="UTF-8" standalone="no"?>
<svg width="24px" height="21px" viewBox="0 0 24 21" version="1.1" xmlns="http://www.w3.org/2000/svg" xmlns:xlink="http://www.w3.org/1999/xlink">
    <!-- Generator: Sketch 49.3 (51167) - http://www.bohemiancoding.com/sketch -->
    <title>Icon/Transaksi</title>
    <desc>Created with Sketch.</desc>
    <defs></defs>
    <g id="Icon" stroke="none" stroke-width="1" fill="none" fill-rule="evenodd">
        <g id="Fontastic" transform="translate(-619.000000, -445.000000)">
            <g id="Icon/Transaksi" transform="translate(619.000000, 444.000000)">
                <rect id="Rectangle-Copy-10" fill-opacity="0" fill="#D8D8D8" x="0" y="0" width="24" height="24"></rect>
                <g id="Group-2-Copy" stroke-width="1" transform="translate(-3.000000, -2.000000)">
                    <g id="Group" transform="translate(0.500000, 0.000000)">
                        <g id="Group-4" transform="translate(8.571429, 10.761905)"></g>
                        <path d="M23.8123757,13.5023753 C23.8123757,14.05466 23.3646604,14.5023753 22.8123757,14.5023753 C22.2600909,14.5023753 21.8123757,14.05466 21.8123757,13.5023753 C21.8123757,8.91288877 18.0918618,5.19237485 13.5023753,5.19237485 C8.91288876,5.19237485 5.19237484,8.91288877 5.19237484,13.5023753 C5.19237484,18.0918618 8.91288876,21.8123757 13.5023753,21.8123757 C14.05466,21.8123757 14.5023753,22.2600909 14.5023753,22.8123757 C14.5023753,23.3646604 14.05466,23.8123757 13.5023753,23.8123757 C7.80831926,23.8123757 3.19237484,19.1964313 3.19237484,13.5023753 C3.19237484,7.80831927 7.80831926,3.19237485 13.5023753,3.19237485 C19.1964313,3.19237485 23.8123757,7.80831927 23.8123757,13.5023753 Z" id="Oval" fill="#222222" fill-rule="nonzero" transform="translate(13.502375, 13.502375) rotate(-105.000000) translate(-13.502375, -13.502375) "></path>
                        <circle id="Oval-5" fill="#222222" cx="13.5" cy="13.5" r="4.5"></circle>
                        <path d="M21.1753305,13.6953121 C20.8347896,14.1301114 20.2062523,14.2065228 19.7714531,13.865982 C19.3366538,13.5254411 19.2602424,12.8969038 19.6007832,12.4621046 L21.6423315,9.85547596 C21.9729485,9.43334737 22.5776606,9.34709986 23.0131071,9.65996807 L25.5419319,11.476928 C25.9904488,11.7991872 26.0928008,12.4240248 25.7705416,12.8725417 C25.4482823,13.3210586 24.8234447,13.4234106 24.3749278,13.1011513 L22.6252805,11.8440302 L21.1753305,13.6953121 Z" id="Path-2" fill="#222222" fill-rule="nonzero"></path>
                        <path d="M13.9836441,5.1711224 C13.4327047,5.13259696 13.0173111,4.65474129 13.0558365,4.10380187 C13.094362,3.55286246 13.5722177,3.13746886 14.1231571,3.1759943 C15.7498717,3.28974527 17.5558396,3.96613037 18.4397674,4.66823548 C18.8722288,5.01174025 18.9443425,5.64078517 18.6008377,6.07324663 C18.2573329,6.50570809 17.628288,6.57782174 17.1958265,6.23431697 C16.6351576,5.78897682 15.2154557,5.25725906 13.9836441,5.1711224 Z" id="Path-3" fill="#222222" fill-rule="nonzero"></path>
                        <path d="M20.5452142,7.39398096 L20.692881,7.55839999" id="Path-4" stroke="#222222" stroke-width="2" stroke-linecap="round" stroke-linejoin="round"></path>
                    </g>
                </g>
            </g>
        </g>
    </g>
</svg>