<?xml version="1.0" encoding="UTF-8" standalone="no"?>
<svg width="16px" height="18px" viewBox="0 0 16 18" version="1.1" xmlns="http://www.w3.org/2000/svg" xmlns:xlink="http://www.w3.org/1999/xlink">
    <!-- Generator: Sketch 49.3 (51167) - http://www.bohemiancoding.com/sketch -->
    <title>Icon/TrashCan</title>
    <desc>Created with Sketch.</desc>
    <defs></defs>
    <g id="Icon" stroke="none" stroke-width="1" fill="none" fill-rule="evenodd">
        <g id="Fontastic" transform="translate(-708.000000, -693.000000)">
            <g id="Icon/TrashCan" transform="translate(704.000000, 690.000000)">
                <g id="Group-3">
                    <rect id="Rectangle-Copy-44" fill-opacity="0" fill="#D8D8D8" x="0" y="0" width="24" height="24"></rect>
                    <g id="Group-2-Copy" transform="translate(5.000000, 3.000000)" fill="#222222">
                        <path d="M2,4 L2,16 L12,16 L12,4 L2,4 Z M1,2 L13,2 C13.5522847,2 14,2.44771525 14,3 L14,17 C14,17.5522847 13.5522847,18 13,18 L1,18 C0.44771525,18 0,17.5522847 0,17 L0,3 C0,2.44771525 0.44771525,2 1,2 Z" id="Rectangle" fill-rule="nonzero"></path>
                        <g id="Group" transform="translate(3.000000, 6.000000)" fill-rule="nonzero">
                            <path d="M4.4408921e-16,0.573214289 C4.80368571e-16,0.0209295389 0.44771525,-0.426785711 1,-0.426785711 C1.55228475,-0.426785711 2,0.0209295389 2,0.573214289 L2,7.33363376 C2,7.88591851 1.55228475,8.33363376 1,8.33363376 C0.44771525,8.33363376 -3.6279361e-17,7.88591851 0,7.33363376 L4.4408921e-16,0.573214289 Z" id="Path-2"></path>
                            <path d="M3,0.573214289 C3,0.0209295389 3.44771525,-0.426785711 4,-0.426785711 C4.55228475,-0.426785711 5,0.0209295389 5,0.573214289 L5,7.33363376 C5,7.88591851 4.55228475,8.33363376 4,8.33363376 C3.44771525,8.33363376 3,7.88591851 3,7.33363376 L3,0.573214289 Z" id="Path-2-Copy"></path>
                            <path d="M6,0.573214289 C6,0.0209295389 6.44771525,-0.426785711 7,-0.426785711 C7.55228475,-0.426785711 8,0.0209295389 8,0.573214289 L8,7.33363376 C8,7.88591851 7.55228475,8.33363376 7,8.33363376 C6.44771525,8.33363376 6,7.88591851 6,7.33363376 L6,0.573214289 Z" id="Path-2-Copy-2"></path>
                        </g>
                        <path d="M2.22044605e-16,4 C-0.55228475,4 -1,3.55228475 -1,3 C-1,2.44771525 -0.55228475,2 -1.11022302e-16,2 L14,2 C14.5522847,2 15,2.44771525 15,3 C15,3.55228475 14.5522847,4 14,4 L2.22044605e-16,4 Z" id="Path-3" fill-rule="nonzero"></path>
                        <rect id="Rectangle-2" x="3" y="0" width="8" height="2" rx="1"></rect>
                    </g>
                </g>
            </g>
        </g>
    </g>
</svg>