<?xml version="1.0" encoding="UTF-8" standalone="no"?>
<svg width="15px" height="20px" viewBox="0 0 15 20" version="1.1" xmlns="http://www.w3.org/2000/svg" xmlns:xlink="http://www.w3.org/1999/xlink">
    <!-- Generator: Sketch 49.3 (51167) - http://www.bohemiancoding.com/sketch -->
    <title>Icon/Unlock</title>
    <desc>Created with Sketch.</desc>
    <defs></defs>
    <g id="Icon" stroke="none" stroke-width="1" fill="none" fill-rule="evenodd">
        <g id="Fontastic" transform="translate(-623.000000, -200.000000)">
            <g id="Icon/Unlock" transform="translate(619.000000, 198.000000)">
                <g id="Group">
                    <rect id="Rectangle-Copy-12" fill-opacity="0" fill="#D8D8D8" x="0" y="0" width="24" height="24"></rect>
                    <g id="Page-1" transform="translate(5.000000, 3.000000)" fill="#222222">
                        <path d="M-1.11022302e-16,18.8656 C-0.55228475,18.8656 -1,18.4178847 -1,17.8656 L-1,8.7556 C-1,8.20331525 -0.55228475,7.7556 -1.11022302e-16,7.7556 L12.8,7.7556 C13.3522847,7.7556 13.8,8.20331525 13.8,8.7556 L13.8,17.8656 C13.8,18.4178847 13.3522847,18.8656 12.8,18.8656 L-1.11022302e-16,18.8656 Z M1,16.8656 L11.8,16.8656 L11.8,9.7556 L1,9.7556 L1,16.8656 Z" id="Stroke-1" fill-rule="nonzero"></path>
                        <path d="M2.7102,8.7558 C2.7102,9.30808475 2.26248475,9.7558 1.7102,9.7558 C1.15791525,9.7558 0.7102,9.30808475 0.7102,8.7558 L0.7102,4.6798 C0.7102,1.53876104 3.25666167,-1.0002 6.4002,-1.0002 C7.92816284,-1.0002 9.36997443,-0.394639134 10.4273068,0.662693219 C11.4885957,1.72398215 12.0902,3.14682404 12.0902,4.6798 C12.0902,5.23208475 11.6424847,5.6798 11.0902,5.6798 C10.5379153,5.6798 10.0902,5.23208475 10.0902,4.6798 C10.0902,3.68261723 9.70296708,2.76678064 9.01309322,2.07690678 C8.32835661,1.39217017 7.39414192,0.9998 6.4002,0.9998 C4.35991263,0.9998 2.7102,2.64465339 2.7102,4.6798 L2.7102,8.7558 Z" id="Stroke-3" fill-rule="nonzero"></path>
                        <path d="M7.9236,12.1327 C7.9236,11.2917 7.2416,10.6097 6.4006,10.6097 C5.5586,10.6097 4.8766,11.2917 4.8766,12.1327 C4.8766,12.7777 5.2786,13.3217 5.8446,13.5447 L5.4526,15.7407 L7.3396,15.7407 L6.9376,13.5477 C7.5116,13.3297 7.9236,12.7837 7.9236,12.1327" id="Fill-4"></path>
                    </g>
                </g>
            </g>
        </g>
    </g>
</svg>