<?xml version="1.0" encoding="UTF-8" standalone="no"?>
<svg width="20px" height="12px" viewBox="0 0 20 12" version="1.1" xmlns="http://www.w3.org/2000/svg" xmlns:xlink="http://www.w3.org/1999/xlink">
    <!-- Generator: Sketch 49.3 (51167) - http://www.bohemiancoding.com/sketch -->
    <title>Icon/Visible</title>
    <desc>Created with Sketch.</desc>
    <defs></defs>
    <g id="Icon" stroke="none" stroke-width="1" fill="none" fill-rule="evenodd">
        <g id="Fontastic" transform="translate(-538.000000, -696.000000)" fill="#222222">
            <g id="Icon/Visible" transform="translate(536.000000, 690.000000)">
                <g id="Group-19" transform="translate(3.000000, 7.000000)">
                    <g id="Page-1">
                        <path d="M9.0272,-1 C13.4635896,-1 17.4077643,1.17361566 18.9583771,4.45584222 C19.0861613,4.72632661 19.08614,5.03981343 18.9583191,5.31028047 C17.407457,8.5918817 13.4629403,10.766 9.0272,10.766 C4.59145966,10.766 0.646943013,8.5918817 -0.903919128,5.31028047 C-1.03173999,5.03981343 -1.03176126,4.72632661 -0.903977101,4.45584222 C0.646635728,1.17361566 4.5908104,-1 9.0272,-1 Z M9.0272,1 C5.533862,1 2.47206229,2.57728811 1.12936458,4.88292296 C2.47231559,7.18827599 5.53446996,8.766 9.0272,8.766 C12.51993,8.766 15.5820844,7.18827599 16.9250354,4.88292296 C15.5823377,2.57728811 12.520538,1 9.0272,1 Z" id="Stroke-1" fill-rule="nonzero"></path>
                        <path d="M12.5316,4.8828 C12.5316,6.8188 10.9626,8.3868 9.0276,8.3868 C7.0916,8.3868 5.5226,6.8188 5.5226,4.8828 C5.5226,2.9468 7.0916,1.3788 9.0276,1.3788 C10.9626,1.3788 12.5316,2.9468 12.5316,4.8828" id="Fill-3"></path>
                    </g>
                </g>
            </g>
        </g>
    </g>
</svg>