<?xml version="1.0" encoding="UTF-8" standalone="no"?>
<svg width="24px" height="24px" viewBox="0 0 24 24" version="1.1" xmlns="http://www.w3.org/2000/svg" xmlns:xlink="http://www.w3.org/1999/xlink">
    <!-- Generator: Sketch 49.3 (51167) - http://www.bohemiancoding.com/sketch -->
    <title>Icon/Water</title>
    <desc>Created with Sketch.</desc>
    <defs></defs>
    <g id="Icon/Water" stroke="none" stroke-width="1" fill="none" fill-rule="evenodd">
        <rect id="Rectangle-Copy-10" fill-opacity="0" fill="#D8D8D8" x="0" y="0" width="24" height="24"></rect>
        <g id="Group" transform="translate(12.500000, 12.000000) scale(1, -1) translate(-12.500000, -12.000000) translate(5.000000, 2.000000)" fill="#222222" fill-rule="nonzero">
            <path d="M8.20888232,19.6253918 C7.80856855,20.1248694 7.0485743,20.1248694 6.64826054,19.6253918 C2.22271852,14.1035755 0,10.1026822 0,7.42857143 C0,3.32588472 3.32588472,0 7.42857143,0 C11.5312581,0 14.8571429,3.32588472 14.8571429,7.42857143 C14.8571429,10.1026822 12.6344243,14.1035755 8.20888232,19.6253918 Z M12.8571429,7.42857143 C12.8571429,4.43045422 10.4266886,2 7.42857143,2 C4.43045422,2 2,4.43045422 2,7.42857143 C2,9.35475421 3.80410047,12.7270484 7.42857143,17.3866872 C11.0530424,12.7270484 12.8571429,9.35475421 12.8571429,7.42857143 Z" id="Oval"></path>
        </g>
    </g>
</svg>