<?xml version="1.0" encoding="UTF-8"?>
<svg width="24px" height="24px" viewBox="0 0 24 24" version="1.1" xmlns="http://www.w3.org/2000/svg" xmlns:xlink="http://www.w3.org/1999/xlink">
    <!-- Generator: Sketch 50.2 (55047) - http://www.bohemiancoding.com/sketch -->
    <title>Icon/ZipCode</title>
    <desc>Created with Sketch.</desc>
    <defs></defs>
    <g id="Icon" stroke="none" stroke-width="1" fill="none" fill-rule="evenodd">
        <g id="Fontastic" transform="translate(-1039.000000, -990.000000)">
            <g id="Icon/Zipcode" transform="translate(1039.000000, 990.000000)">
                <g id="IconKodepos">
                    <polygon id="Shape" fill-opacity="0.01" fill="#D8D8D8" points="0 0 24 0 24 24 0 24"></polygon>
                    <path d="M8,2 L16,2 C16.5522847,2 17,2.44771525 17,3 L17,6 C17,6.55228475 16.5522847,7 16,7 L8,7 L8,2 Z" id="Rectangle-path" fill="#222222" fill-rule="nonzero"></path>
                    <path d="M6.66665,7.66665 L6.66665,23.66665 L15.33335,23.66665 C16.4379049,23.66665 17.33335,22.7712256 17.33335,21.66665 L17.33335,9.66665 C17.33335,8.5621046 16.4378851,7.66665 15.33335,7.66665 L6.66665,7.66665 Z M5.66665,5.66665 L15.33335,5.66665 C17.5424494,5.66665 19.33335,7.45752994 19.33335,9.66665 L19.33335,21.66665 C19.33335,23.8758054 17.5424641,25.66665 15.33335,25.66665 L5.66665,25.66665 C5.11436525,25.66665 4.66665,25.2189347 4.66665,24.66665 L4.66665,6.66665 C4.66665,6.11436525 5.11436525,5.66665 5.66665,5.66665 Z" id="Shape" fill="#222222" fill-rule="nonzero" transform="translate(12.000000, 15.666650) rotate(-90.000000) translate(-12.000000, -15.666650) "></path>
                    <rect id="Rectangle-path" fill="#222222" fill-rule="nonzero" x="6" y="1" width="2" height="14" rx="0.784091"></rect>
                </g>
            </g>
        </g>
    </g>
</svg>