<svg xmlns="http://www.w3.org/2000/svg" width="46" height="44" viewBox="0 0 46 44">
    <g fill="none" fill-rule="evenodd">
        <path fill="none" d="M0-1h46v46H0z"/>
        <path fill="#979797" fill-rule="nonzero" d="M36.792 37.282c.177 4.085-1.885 6.58-5.7 6.58H5.672c-3.542 0-5.491-2.456-5.553-6.497v-3.372c0-1.058.858-1.916 1.917-1.916h24.92c1.058 0 1.916.858 1.916 1.916l-.001 3.308c.07 2.073.66 2.728 2.22 2.728 1.497 0 1.959-.56 1.87-2.664V10.012C32.937 4.132 34.872.65 39.01.65c4.116 0 6.103 3.458 6.188 9.325a1.917 1.917 0 0 1-1.916 1.944h-6.488l-.002 25.362zm-11.754.083V35.91H3.952v1.425c.032 2.095.507 2.694 1.72 2.694h19.815c-.264-.782-.416-1.674-.449-2.664zM41.257 8.087c-.28-2.595-1.07-3.603-2.247-3.603-1.163 0-1.924.997-2.147 3.603h4.394z"/>
        <path fill="#979797" fill-rule="nonzero" d="M12.14 34.012a1.917 1.917 0 0 1-3.834 0l.003-25.23C8.022 3.697 10.449.684 15.114.684H39.44a1.917 1.917 0 1 1 0 3.833H15.114c-2.313 0-3.148 1.037-2.975 4.157v25.338z"/>
        <path fill="#4286F5" d="M22.371 23.917h-2.07l-2.269-3.818h-1.779v3.818H14.46V13.689h4.493c2.024 0 3.343 1.319 3.343 3.205 0 1.825-1.196 2.806-2.423 3.005l2.5 4.018zm-3.664-5.398c1.012 0 1.748-.644 1.748-1.625s-.736-1.625-1.748-1.625h-2.454v3.25h2.454zm9.322 5.582c-.935 0-1.778-.414-2.376-1.212v3.849h-1.61V16.511h1.61v1.012a2.955 2.955 0 0 1 2.376-1.196c1.917 0 3.282 1.441 3.282 3.879 0 2.438-1.365 3.895-3.282 3.895zm-.475-1.426c1.273 0 2.085-1.028 2.085-2.469 0-1.426-.812-2.453-2.085-2.453-.751 0-1.549.444-1.901.996v2.929c.352.537 1.15.997 1.901.997z"/>
    </g>
</svg>
