<svg xmlns="http://www.w3.org/2000/svg" width="1057" height="340" viewBox="0 0 1057 340">
    <g fill="none" fill-rule="evenodd" opacity=".201">
        <g transform="translate(-9 -32)">
            <g transform="translate(940 158)">
                <path stroke="#4286F5" d="M42 0L8.5 75.5"/>
                <circle cx="8.5" cy="75.5" r="8.5" fill="#4286F5"/>
            </g>
            <g transform="rotate(-90 591 -391)">
                <path stroke="#4286F5" d="M42 0L8.5 75.5"/>
                <circle cx="8.5" cy="75.5" r="8.5" fill="#4286F5"/>
            </g>
            <g transform="rotate(-165 520.739 19.956)">
                <path stroke="#4286F5" d="M42 0L8.5 75.5"/>
                <circle cx="8.5" cy="75.5" r="8.5" fill="#4286F5"/>
            </g>
            <g transform="rotate(-90 485.998 -232.002)">
                <path stroke="#4286F5" d="M42 0L8.5 75.5"/>
                <circle cx="8.5" cy="75.5" r="8.5" fill="#4286F5"/>
            </g>
            <g transform="rotate(-165 377.62 61.148)">
                <path stroke="#4286F5" d="M9.37.023L8.5 106.5"/>
                <circle cx="8.5" cy="106.5" r="8.5" fill="#4286F5"/>
            </g>
            <g transform="rotate(-165 291.12 20.646)">
                <path stroke="#4286F5" d="M42 0L8.5 75.5"/>
                <circle cx="8.5" cy="75.5" r="8.5" fill="#4286F5"/>
            </g>
            <g transform="rotate(75 218.648 371.186)">
                <path stroke="#4286F5" d="M42 0L8.5 75.5"/>
                <circle cx="8.5" cy="75.5" r="8.5" fill="#4286F5"/>
            </g>
            <g transform="rotate(60 -66.706 353.457)">
                <path stroke="#4286F5" d="M42 0L8.5 75.5"/>
                <circle cx="8.5" cy="75.5" r="8.5" fill="#4286F5"/>
            </g>
            <g transform="rotate(-30 701.827 -227.972)">
                <path stroke="#4286F5" d="M99 0L8.538 54.16"/>
                <circle cx="8.538" cy="54.16" r="8.5" fill="#4286F5"/>
            </g>
            <g transform="rotate(-105 250.648 23.412)">
                <path stroke="#4286F5" d="M.89.853l46.64 19.12"/>
                <circle cx="49.178" cy="20.416" r="8.5" fill="#4286F5"/>
            </g>
            <g>
                <g transform="rotate(60 -94.43 145.44)">
                    <path stroke="#4286F5" d="M42 0L8.5 75.5"/>
                    <circle cx="8.5" cy="75.5" r="8.5" fill="#4286F5"/>
                </g>
                <g transform="rotate(-105 122.718 56.08)">
                    <path stroke="#4286F5" d="M.56.346l43.659 49.91"/>
                    <circle cx="44.219" cy="50.257" r="8.5" fill="#4286F5"/>
                </g>
            </g>
            <circle cx="99" cy="190" r="13" fill="#4286F5"/>
            <circle cx="293" cy="270" r="13" fill="#4286F5"/>
            <circle cx="528" cy="104" r="13" fill="#4286F5"/>
            <circle cx="717" cy="216" r="13" fill="#4286F5"/>
            <circle cx="982" cy="158" r="13" fill="#4286F5"/>
        </g>
        <path stroke="#4286F5" d="M90 158l194 80L519 72l189 112 265-58"/>
    </g>
</svg>
