<svg xmlns="http://www.w3.org/2000/svg" xmlns:xlink="http://www.w3.org/1999/xlink" width="358" height="348" viewBox="0 0 358 348">
    <defs>
        <path id="a" d="M21.78.913L37.42 7.95a2 2 0 0 1 1.18 1.83l-.051 14.459a1 1 0 0 1-.544.886L17.635 35.58.758 28V10.6L20.937.924a1 1 0 0 1 .844-.01z"/>
        <path id="c" d="M1.421.66l16 7.432A1 1 0 0 1 18 9v15.795a1 1 0 0 1-1.421.907l-16-7.432A1 1 0 0 1 0 17.362V1.567A1 1 0 0 1 1.421.66z"/>
        <path id="e" d="M1.421.66l16 7.432A1 1 0 0 1 18 9v15.795a1 1 0 0 1-1.421.907l-16-7.432A1 1 0 0 1 0 17.362V1.567A1 1 0 0 1 1.421.66z"/>
        <linearGradient id="g" x1="0%" y1="46.419%" y2="53.581%">
            <stop offset="0%" stop-color="#A28FFD"/>
            <stop offset="100%" stop-color="#888"/>
        </linearGradient>
        <linearGradient id="h" x1="53.219%" x2="46.781%" y1="100%" y2="0%">
            <stop offset="0%" stop-color="#A28FFD"/>
            <stop offset="100%" stop-color="#4286F5"/>
        </linearGradient>
        <linearGradient id="i" x1="94.397%" x2="5.603%" y1="100%" y2="0%">
            <stop offset="0%" stop-color="#A28FFD"/>
            <stop offset="100%" stop-color="#4286F5"/>
        </linearGradient>
        <linearGradient id="j" x1="100%" x2="0%" y1="53.581%" y2="46.419%">
            <stop offset="0%" stop-color="#A28FFD"/>
            <stop offset="100%" stop-color="#4286F5"/>
        </linearGradient>
        <linearGradient id="k" x1="100%" x2="0%" y1="0%" y2="0%">
            <stop offset="0%" stop-color="#A28FFD"/>
            <stop offset="100%" stop-color="#888"/>
        </linearGradient>
    </defs>
    <g fill="none" fill-rule="evenodd">
        <g transform="translate(180 1)">
            <circle cx="35" cy="35" r="35" fill="#4286F5" fill-rule="nonzero" stroke="#4286F5" stroke-linecap="round" stroke-width="2"/>
            <text fill="#FFF" font-family="ProximaNova-Semibold, Proxima Nova" font-size="13" font-weight="500">
                <tspan x="18.288" y="32">Buy A</tspan> <tspan x="19.042" y="48">Get C</tspan>
            </text>
        </g>
        <g transform="translate(247 36)">
            <circle cx="35" cy="35" r="35" fill="#4286F5" fill-rule="nonzero" stroke="#4286F5" stroke-linecap="round" stroke-width="2"/>
            <text fill="#FFF" font-family="ProximaNova-Semibold, Proxima Nova" font-size="13" font-weight="500">
                <tspan x="8.012" y="23">Purchase</tspan> <tspan x="21.799" y="39">With</tspan> <tspan x="8.012" y="55">Purchase</tspan>
            </text>
        </g>
        <g transform="translate(287 101)">
            <circle cx="35" cy="35" r="35" fill="#4286F5" fill-rule="nonzero" stroke="#4286F5" stroke-linecap="round" stroke-width="2"/>
            <text fill="#FFF" font-family="ProximaNova-Semibold, Proxima Nova" font-size="13" font-weight="500">
                <tspan x="15.2" y="31">Unlock</tspan> <tspan x="16.429" y="47">Promo</tspan>
            </text>
        </g>
        <g transform="translate(180 277)">
            <circle cx="35" cy="35" r="35" fill="#4286F5" fill-rule="nonzero" stroke="#4286F5" stroke-linecap="round" stroke-width="2"/>
            <text fill="#FFF" font-family="ProximaNova-Semibold, Proxima Nova" font-size="13" font-weight="500">
                <tspan x="14.427" y="31">Combo</tspan> <tspan x="20.309" y="47">A + B</tspan>
            </text>
        </g>
        <g transform="translate(247 242)">
            <circle cx="35" cy="35" r="35" fill="#4286F5" fill-rule="nonzero" stroke="#4286F5" stroke-linecap="round" stroke-width="2"/>
            <text fill="#FFF" font-family="ProximaNova-Semibold, Proxima Nova" font-size="13" font-weight="500">
                <tspan x="23.397" y="31">Join</tspan> <tspan x="11.495" y="47">Account</tspan>
            </text>
        </g>
        <g transform="translate(287 177)">
            <circle cx="35" cy="35" r="35" fill="#4286F5" fill-rule="nonzero" stroke="#4286F5" stroke-linecap="round" stroke-width="2"/>
            <text fill="#FFF" font-family="ProximaNova-Semibold, Proxima Nova" font-size="13" font-weight="500">
                <tspan x="17.788" y="31">Buy A</tspan> <tspan x="12.497" y="47">Trade C</tspan>
            </text>
        </g>
        <circle cx="35" cy="35" r="35" fill-rule="nonzero" stroke="#A28FFD" stroke-linecap="round" stroke-width="3" transform="translate(144 139)"/>
        <g transform="translate(163 154)">
            <mask id="b" fill="#fff">
                <use xlink:href="#a"/>
            </mask>
            <use fill="#A28FFD" fill-rule="nonzero" xlink:href="#a"/>
            <path fill="#E3DEFF" fill-rule="nonzero" d="M15.025 6.31c1.38-.708.396-2.402-2.2-3.782-2.596-1.381-5.82-1.926-7.2-1.217-1.381.708-.396 2.402 2.2 3.782 2.596 1.381 5.82 1.926 7.2 1.218zM18.318 12.26c.733-.33.21-1.12-1.167-1.764-1.377-.644-3.087-.898-3.82-.567-.732.33-.21 1.12 1.168 1.764 1.377.644 3.087.898 3.82.567zM24.494 4.532c.344-.205.099-.693-.547-1.091-.646-.399-1.448-.556-1.792-.351-.343.204-.098.692.548 1.09.646.399 1.448.556 1.791.352z" mask="url(#b)"/>
            <path fill="#BCAEFF" fill-rule="nonzero" d="M1.421 10.66l16 7.432A1 1 0 0 1 18 19v15.795a1 1 0 0 1-1.421.907l-16-7.432A1 1 0 0 1 0 27.362V11.567a1 1 0 0 1 1.421-.907z" mask="url(#b)"/>
            <path fill="#E3DEFF" fill-rule="nonzero" d="M4 17.236c1.105.552 2 .104 2-1 0-1.105-.895-2.448-2-3s-2-.104-2 1.001.895 2.447 2 3zM18 32.236c2.03-1.487 1.958-3.47 1.958-4 0-.53-1.215-.587-1.958 0-1.105-.552-2-.104-2 1.001s1.511 2.82 2 3z" mask="url(#b)"/>
            <path fill="#BCAEFF" fill-rule="nonzero" d="M17.595 18.204l20.174-9.42-19.776 10.32a1.012 1.012 0 0 0-.069-.438c-.052-.122-.161-.276-.329-.462z" mask="url(#b)"/>
            <path fill="#E3DEFF" fill-rule="nonzero" d="M32 15.314c1.657-.777 2.922-3.263 2.922-4.92-1.393-.746-4.77-.263-6.427.513-1.657.777-1.54 2.117.498 2.37 0 1.656 1.35 2.814 3.007 2.037zM22 24.41c1.105-.543 2-1.921 2-3.078 0-1.157-.895-1.655-2-1.113-1.105.543-2 1.92-2 3.078 0 1.156.895 1.655 2 1.112zM31 30.41c1.105-.543 2-1.921 2-3.078 0-1.157-.895-1.655-2-1.113-1.105.543-2 1.92-2 3.078 0 1.156.895 1.655 2 1.112zM39 15.41c1.105-.543 2-1.921 2-3.078 0-1.157-.895-1.655-2-1.113-1.105.543-2 1.92-2 3.078 0 1.156.895 1.655 2 1.112zM33 20.551c.552-.19 1-.675 1-1.082 0-.407-.448-.583-1-.392-.552.191-1 .676-1 1.083 0 .407.448.582 1 .391z" mask="url(#b)"/>
        </g>
        <g transform="translate(159 166)">
            <path fill="#A28FFD" fill-rule="nonzero" d="M2.392.16l15.61 7.023a2 2 0 0 1 1.18 1.831L19.13 23.67a1 1 0 0 1-.29.702l-1.204 1.21L3 18 .757.6l.746-.406a1 1 0 0 1 .89-.034z"/>
            <mask id="d" fill="#fff">
                <use xlink:href="#c"/>
            </mask>
            <use fill="#C9BDFF" fill-rule="nonzero" xlink:href="#c"/>
            <path fill="#E3DEFF" fill-rule="nonzero" d="M15 26.236c1.105.552 2 .104 2-1 0-1.105-.895-2.448-2-3s-2-.104-2 1.001.895 2.447 2 3zM15 13.236c1.105.552 2 .104 2-1 0-1.105-.895-2.448-2-3s-2-.104-2 1.001.895 2.447 2 3z" mask="url(#d)"/>
        </g>
        <g transform="translate(156 167)">
            <path fill="#A28FFD" fill-rule="nonzero" d="M2.392.16l15.61 7.023a2 2 0 0 1 1.18 1.831L19.13 23.67a1 1 0 0 1-.29.702l-1.204 1.21L3 18 .757.6l.746-.406a1 1 0 0 1 .89-.034z"/>
            <mask id="f" fill="#fff">
                <use xlink:href="#e"/>
            </mask>
            <use fill="#CFC5FF" fill-rule="nonzero" xlink:href="#e"/>
            <path fill="#E3DEFF" fill-rule="nonzero" d="M0 10.236c1.105.552 2 .104 2-1 0-1.105-.895-2.448-2-3s-2-.104-2 1.001.895 2.447 2 3zM15 14.236c1.105.552 2 .104 2-1 0-1.105-.895-2.448-2-3s-2-.104-2 1.001.895 2.447 2 3zM7.5 8.289c.828.428 1.5.08 1.5-.777 0-.858-.672-1.9-1.5-2.329-.828-.428-1.5-.08-1.5.777 0 .858.672 1.9 1.5 2.329zM10 24.236c1.105.552 2 .104 2-1 0-1.105-.895-2.448-2-3s-2-.104-2 1.001.895 2.447 2 3zM6 15.342c.552.305 1 .057 1-.554 0-.61-.448-1.352-1-1.657-.552-.305-1-.058-1 .553 0 .61.448 1.353 1 1.658z" mask="url(#f)"/>
        </g>
        <g transform="translate(1 101)">
            <circle cx="35" cy="35" r="35" stroke="#888" stroke-linecap="round" stroke-width="2"/>
            <text fill="#888" font-family="ProximaNova-Regular, Proxima Nova" font-size="13">
                <tspan x="8.194" y="35">Merchant</tspan> <tspan x="30.912" y="51">B</tspan>
            </text>
        </g>
        <g transform="translate(41 36)">
            <circle cx="35" cy="35" r="35" stroke="#888" stroke-linecap="round" stroke-width="2"/>
            <text fill="#888" font-family="ProximaNova-Regular, Proxima Nova" font-size="13">
                <tspan x="8.194" y="35">Merchant</tspan> <tspan x="30.723" y="51">A</tspan>
            </text>
        </g>
        <g transform="translate(40 242)">
            <circle cx="35" cy="35" r="35" stroke="#888" stroke-linecap="round" stroke-width="2"/>
            <text fill="#888" font-family="ProximaNova-Regular, Proxima Nova" font-size="13">
                <tspan x="4.444" y="36">Freelancer</tspan> <tspan x="30.912" y="52">B</tspan>
            </text>
        </g>
        <g transform="translate(1 177)">
            <circle cx="35" cy="35" r="35" stroke="#888" stroke-linecap="round" stroke-width="2"/>
            <text fill="#888" font-family="ProximaNova-Regular, Proxima Nova" font-size="13">
                <tspan x="4.444" y="37">Freelancer</tspan> <tspan x="30.723" y="53">A</tspan>
            </text>
        </g>
        <g>
            <path stroke="url(#g)" stroke-linecap="round" stroke-linejoin="round" stroke-width="2" d="M.264 7.5L71 25.764" transform="rotate(180 70.5 85.618)"/>
            <path fill="#A28FFD" d="M144.552 163.833l-6.494-5.76a1 1 0 0 0-1.63.49l-2.01 7.5a1 1 0 0 0 1.167 1.238l8.504-1.74a1 1 0 0 0 .463-1.728z"/>
            <path stroke="url(#g)" stroke-linecap="round" stroke-linejoin="round" stroke-width="2" d="M.264 7.5L71 25.764" transform="matrix(-1 0 0 1 141 176.236)"/>
            <path fill="#A28FFD" d="M144.552 183.64l-6.494 5.759a1 1 0 0 1-1.63-.49l-2.01-7.5a1 1 0 0 1 1.167-1.238l8.504 1.74a1 1 0 0 1 .463 1.729z"/>
            <path stroke="url(#h)" stroke-linecap="round" stroke-linejoin="round" stroke-width="2" d="M0 6.723l16 66" transform="rotate(180 102 141.138)"/>
            <path fill="#4286F5" d="M205.543 278.162l1.888-8.473a1 1 0 0 0-1.218-1.188l-7.533 1.878a1 1 0 0 0-.518 1.621l5.645 6.594a1 1 0 0 0 1.736-.432z"/>
            <path stroke="url(#i)" stroke-linecap="round" stroke-linejoin="round" stroke-width="2" d="M.223 8.5L49 59.723" transform="rotate(180 127 130.138)"/>
            <path fill="#4286F5" d="M256.998 253.825l-2.6-8.281a1 1 0 0 0-1.65-.42l-5.584 5.393a1 1 0 0 0 .362 1.663l8.186 2.888a1 1 0 0 0 1.286-1.243z"/>
            <path stroke="url(#j)" stroke-linecap="round" stroke-linejoin="round" stroke-width="2" d="M.264 7.5L71 25.764" transform="rotate(180 142.5 103.118)"/>
            <path fill="#4286F5" d="M288.552 198.833l-6.494-5.76a1 1 0 0 0-1.63.49l-2.01 7.5a1 1 0 0 0 1.167 1.238l8.504-1.74a1 1 0 0 0 .463-1.728z"/>
            <g>
                <path stroke="url(#j)" stroke-linecap="round" stroke-linejoin="round" stroke-width="2" d="M.264 7.5L71 25.764" transform="matrix(-1 0 0 1 285 140.236)"/>
                <path fill="#4286F5" d="M288.552 147.64l-6.494 5.759a1 1 0 0 1-1.63-.49l-2.01-7.5a1 1 0 0 1 1.167-1.238l8.504 1.74a1 1 0 0 1 .463 1.729z"/>
            </g>
            <g>
                <path stroke="url(#i)" stroke-linecap="round" stroke-linejoin="round" stroke-width="2" d="M.223 8.5L49 59.723" transform="matrix(-1 0 0 1 254 90.277)"/>
                <path fill="#4286F5" d="M256.998 96.729l-2.6 8.281a1 1 0 0 1-1.65.42l-5.584-5.393a1 1 0 0 1 .362-1.663l8.186-2.888a1 1 0 0 1 1.286 1.243z"/>
            </g>
            <g>
                <path stroke="url(#h)" stroke-linecap="round" stroke-linejoin="round" stroke-width="2" d="M0 6.723l16 66" transform="matrix(-1 0 0 1 204 66.277)"/>
                <path fill="#4286F5" d="M205.543 70.392l1.888 8.473a1 1 0 0 1-1.218 1.188l-7.533-1.879a1 1 0 0 1-.518-1.62l5.645-6.594a1 1 0 0 1 1.736.432z"/>
            </g>
            <g>
                <path stroke="url(#k)" stroke-linecap="round" stroke-linejoin="round" stroke-width="2" d="M0 5.935l53 54" transform="matrix(1 0 0 -1 102 260.722)"/>
                <path fill="#A28FFD" d="M156.035 200.786l-2.745 8.235a1 1 0 0 1-1.656.391l-5.49-5.49a1 1 0 0 1 .391-1.655l8.235-2.745a1 1 0 0 1 1.265 1.264z"/>
            </g>
            <g>
                <path stroke="url(#k)" stroke-linecap="round" stroke-linejoin="round" stroke-width="2" d="M0 5.935l53 54" transform="translate(102 88.835)"/>
                <path fill="#A28FFD" d="M156.035 148.77l-2.745-8.235a1 1 0 0 0-1.656-.39l-5.49 5.49a1 1 0 0 0 .391 1.655l8.235 2.745a1 1 0 0 0 1.265-1.265z"/>
            </g>
        </g>
    </g>
</svg>
