<svg xmlns="http://www.w3.org/2000/svg" width="24" height="24" viewBox="0 0 24 24">
    <g fill="none" fill-rule="evenodd">
        <path fill="#888" fill-rule="nonzero" d="M12 23C5.925 23 1 18.075 1 12S5.925 1 12 1s11 4.925 11 11-4.925 11-11 11zm0-2.2a8.8 8.8 0 1 0 0-17.6 8.8 8.8 0 0 0 0 17.6z"/>
        <path fill="#4286F5" d="M12 15.795L7.921 18.05l.779-4.776-3.3-3.382 4.56-.697L12 4.85l2.04 4.345 4.56.697-3.3 3.382.779 4.776z"/>
        <g fill="#D8D8D8" fill-opacity="0">
            <path fill="none" d="M0 0h24v24H0z"/>
        </g>
    </g>
</svg>
