<svg xmlns="http://www.w3.org/2000/svg" width="24" height="24" viewBox="0 0 24 24">
    <g fill="none" fill-rule="evenodd">
        <path d="M0 0h24v24H0z"/>
        <path stroke="#4286F5" stroke-linecap="round" stroke-linejoin="round" stroke-width="2" d="M4 21h10a1 1 0 0 0 1-1V10a1 1 0 0 0-1-1H4a1 1 0 0 0-1 1v10a1 1 0 0 0 1 1z"/>
        <path stroke="#4286F5" stroke-linecap="round" stroke-linejoin="round" stroke-width="2" d="M16.028 15H20a1 1 0 0 0 1-1V4a1 1 0 0 0-1-1H10a1 1 0 0 0-1 1v4.388"/>
    </g>
</svg>
