<svg xmlns="http://www.w3.org/2000/svg" xmlns:xlink="http://www.w3.org/1999/xlink" width="220" height="152" viewBox="0 0 220 152">
    <defs>
        <linearGradient id="a" x1="58.769%" x2="4.363%" y1="50%" y2="112.262%">
            <stop offset="0%" stop-color="#9F73BA" stop-opacity="0"/>
            <stop offset="100%" stop-color="#564F97"/>
        </linearGradient>
        <linearGradient id="b" x1="45.229%" x2="50%" y1="66.4%" y2="40.451%">
            <stop offset="0%" stop-color="#FFF" stop-opacity="0"/>
            <stop offset="100%" stop-color="#A4CFFF"/>
        </linearGradient>
        <path id="c" d="M205.547 135.38L124.02 80.995c-7.812-4.428-11.602-9.101-11.37-14.018.013-6.993.07-29.319.171-66.978H5.576C.659 5.065-1.006 10.305.58 15.719c1.294 4.417 8.025 34.544 20.193 90.38 5.307 24.352 26.863 41.716 51.785 41.716h120.553c6.868 0 12.436-5.568 12.436-12.436z"/>
        <linearGradient id="d" x1="50%" x2="82.394%" y1="35.196%" y2="113.399%">
            <stop offset="0%" stop-color="#BBDDF7" stop-opacity="0"/>
            <stop offset="100%" stop-color="#8EBCFE"/>
        </linearGradient>
        <path id="f" d="M0 0l32.028 18.43v65.577L0 65.547z"/>
        <path id="h" d="M.016 65.893v.655c.003.133.056.24.162.32.105.08.599.373 1.48.877.333.149.652.149.958 0 .306-.15 4.004-2.272 11.096-6.368.051-.042.077-.137.078-.283v-.711L.016 65.893z"/>
        <path id="j" d="M28.246 82.251v.656c.002.132.056.239.162.32.105.08.599.372 1.48.876.333.149.652.149.958 0 .305-.149 4.004-2.271 11.096-6.367.05-.043.077-.137.077-.284v-.71l-13.773 5.51z"/>
        <path id="l" d="M5.775.086l6.2 1.059v.743a.135.135 0 0 1 .07.215L7.525 7.81a1 1 0 0 1-1.103.327L.233 6.05a.23.23 0 0 1-.096-.372l-.006-.66L4.908.357a1 1 0 0 1 .867-.27z"/>
        <path id="n" d="M3.877.311c-.027.674-.254.874-.682.602C2.553.505 1.229-.092.57.514c-.658.607-.643 1.468 0 2.03.643.563 2.131 1.554 2.624 2.503.492.95 2.779 1.282 3.187 0 .168-.332.018-1.108 0-1.73-.181-.357-.284-1.437-.31-3.24"/>
        <path id="p" d="M5.728.252v1.446c-.053.824-.65 1.237-1.79 1.237-1.711 0-3.847 0-3.847 1.538s.79 1.717 1.804 1.972c1.015.256 3.588.47 4.117.677.528.208 3.46.843 3.688-.677.229-1.52.226-1.933-.258-3.51C9.12 1.883 9.037.905 9.192 0L5.728.252z"/>
        <path id="r" d="M6.862 7.41c1.253-2.246 2.482-3.678 3.688-4.296 1.41-.722 2.496-1.307 3.713-1.706.594-.195 1.08.323 1.799.148.54-.132.614-.646 1.036-.828C18.39.172 20.66-.026 21.267.16c1.343.405 2.04 2.157 2.092 5.255.074 2.292.064 3.625-.03 4-.141.56-.963.819-1.205.744-.104 1.208-.156 2.168-.156 2.88 0 1.392.198 3.464.595 6.216-1.24 1.864-2.794 2.723-4.66 2.577-2.8-.218-3.743-.494-5.768-2.577-1.07-.87-1.901-1.33-2.497-1.379-.028-.981.117-2.482.435-4.502.318-2.02.367-3.003.148-2.949-1.356 2.146-2.536 3.355-3.54 3.628-2.215.602-5.908-1.152-6.325-1.182-.785-.948.182-3.157.653-2.999 1.885.634 2.523.725 3.095.725.846 0 1.332-.12 1.459-.359l1.3-2.828z"/>
        <path id="t" d="M2.186.238L.099 13.6c-.17.84-.084 1.356.26 1.544.244.226.74-.177.74-.687 0-.34.962-5.15 2.883-14.426L2.186.238z"/>
        <path id="v" d="M.007.024L2.98 18.597c.154.532.378.798.672.798.294 0 .417-.266.369-.798L1.903.024H.007z"/>
        <path id="x" d="M1.118.103L6.737 15.33c-.09.587-.337.733-.743.44-.406-.294-2.388-5.013-5.947-14.157L1.118.103z"/>
        <path id="z" d="M4.189 8.078l11.944 7.226c1.652.968 3.06.968 4.225 0 1.747-1.452.659-5.396 5.114-9.53 4.454-4.133 7.57-5.328 9.64-4.377 2.07.95 1.896 2.972.708 7.162-1.189 4.19-2.933 10.246-4.652 11.534-1.146.86-3.045 2.08-5.696 3.664-4.755 1.878-8.437 2.258-11.044 1.14-2.608-1.116-6.788-3.364-12.54-6.742C.636 17.54.01 16.222.01 14.204V9.753c.167-1.984 1.12-2.76 2.86-2.326.528.243.967.46 1.319.651z"/>
        <path id="B" d="M6.176.119l3.99 2.36c.812.566.945 1.189.396 1.87-.643.388-1.689 1.022-3.137 1.899-1.14.71-2.236.764-3.288.162C3.085 5.808 1.72 4.96.041 3.862L6.176.119z"/>
        <path id="D" d="M3.741 31.131c.08.95.692 1.323 1.837 1.118 1.065-.558 7.98-4.53 20.74-11.915 1.012-.688 1.413-1.571 1.205-2.65-.21-1.077-1.39-6.582-3.544-16.511C23.564.06 22.833-.253 21.79.235c-1.046.488-7.757 4.347-20.135 11.576-1.291.508-1.798 1.542-1.521 3.1.278 1.558 1.48 6.965 3.608 16.22z"/>
        <ellipse id="F" cx="3.897" cy="42.808" rx="2.624" ry="1.311"/>
        <linearGradient id="H" x1="50%" x2="50%" y1="46.501%" y2="100.545%">
            <stop offset="0%" stop-color="#EEFDFD" stop-opacity="0"/>
            <stop offset="51.766%" stop-color="#E9D8A8" stop-opacity=".435"/>
            <stop offset="100%" stop-color="#C9942F"/>
        </linearGradient>
        <ellipse id="I" cx="7.894" cy="20.371" rx="5.696" ry="2.999"/>
        <path id="K" d="M9.89 17.25s-.21-2.732-.354-3.65c-.144-.918-.944-6.264-.222-8.918C9.657 2.593 10.8.815 12.039.262c1.239-.554 2.104.002 1.722.802-.38.799-1.163 2.8-1.163 2.8s1.229-.869 2.48-.778c1.251.091 1.823.92 1.823.92s.762 1.149-.72 2.137c-1.483.988-2.686 1.512-2.686 1.512s1.634.73.369 1.82c-1.266 1.09-2.435 2.349-2.641 4.623-.207 2.275-.372 3.41-.372 3.41s1.457-2.223 2.635-2.766c.578-.482 2.497-.99 3.667.273.903 1.095-.146 1.468-.497 1.585-.653.055-1.294-.002-1.294-.002s.763.703.58 1.165c-.181.462-.538.718-1.118.597-.58-.121-1.03-.269-1.03-.269s.999 1.683-.972 1.71c-1.97.027-2.738.98-2.738.98s-.183.368-.194.9c-.177.054-.576-.001-.576-.001s-.913-3.647-3.007-4.43c-.658-.304-1.58-.032-1.989-.79-.198-.554.014-1.07.345-1.445.853-.947 2.284-.917 2.284-.917s-.335-1.303-1.82-1.794c-.915-.463-3.029.48-3.537-1.098-.32-1.086.644-1.799 1.13-2.2.843-.568 1.943-.793 1.943-.793s-2.067.321-3.073-.187C.583 7.518-.338 6.62.266 5.522c.604-1.098 2.632-.625 2.632-.625s2.27.462 3.945 3.13c2.21 2.778 3.047 9.223 3.047 9.223z"/>
        <path id="M" d="M12.37.09C9.648.002 8.158.55 7.9 1.728c-.257 1.18-.836 3.528-1.737 7.046-.48.163-1.108.031-1.882-.395-.775-.425-1.397-.577-1.866-.455L.806 7.128c.042 1.02-.208 1.673-.748 1.96.464.192.893.382 1.285.572-.086.694.136 1.211.665 1.55.794.51 2.863.568 4.206.568 1.343 0 1.827-.199 2.25-1.083.282-.59.564-1.261.848-2.015.312-.329.468-.133.468.586 0 .72-.082 1.642-.245 2.768.614 1.052 1.927 1.618 3.94 1.7 2.014.081 3.5-.332 4.46-1.241-.12-2.067.377-3.927 1.491-5.58.134-.15.324-.154.56.215.156.246.916 1.216 2.281 2.908.177.202.117.422-.181.659-.447.355-2.221 1.11-2.508 2.248-.198.249-.537.513-1.017.79.678.826 1.017 1.387 1.017 1.686 0 .299.457.106 1.37-.58 1.158.321 2.01.138 2.558-.55.822-1.03 2.328-3.583 1.29-5.609-1.037-2.026-3.643-6.677-8.034-7.859-.925-.26-2.388-.503-4.392-.732z"/>
        <path id="O" d="M.223 0v62.848c-.872 5.17.81 9.221 5.049 12.154 4.238 2.932 40.162 27.203 107.772 72.813V0H.224z"/>
        <linearGradient id="P" x1="44.404%" x2="38.993%" y1="46.427%" y2="120.716%">
            <stop offset="0%" stop-color="#935BB1" stop-opacity="0"/>
            <stop offset="100%" stop-color="#5E4F97"/>
        </linearGradient>
        <path id="R" d="M0 0l32.017 18.43v65.577L0 65.547z"/>
        <ellipse id="T" cx="9.36" cy="17.591" rx="5.182" ry="2.878"/>
        <path id="V" d="M2.45.73c-.126.248-.64.576-1.146.735-.505.158-1.195.299-1.246.266C-.171 1.587.386.64 1.067.27c1.123-.57 1.647-.06 1.383.46z"/>
        <path id="X" d="M2.45.73c-.126.248-.64.576-1.146.735-.505.158-1.195.299-1.246.266C-.171 1.587.386.64 1.067.27c1.123-.57 1.647-.06 1.383.46z"/>
        <path id="Z" d="M2.45.73c-.126.248-.64.576-1.146.735-.505.158-1.195.299-1.246.266C-.171 1.587.386.64 1.067.27c1.123-.57 1.647-.06 1.383.46z"/>
        <path id="ab" d="M2.45.73c-.126.248-.64.576-1.146.735-.505.158-1.195.299-1.246.266C-.171 1.587.386.64 1.067.27c1.123-.57 1.647-.06 1.383.46z"/>
        <path id="ad" d="M2.45.73c-.126.248-.64.576-1.146.735-.505.158-1.195.299-1.246.266C-.171 1.587.386.64 1.067.27c1.123-.57 1.647-.06 1.383.46z"/>
        <path id="af" d="M2.45.73c-.126.248-.64.576-1.146.735-.505.158-1.195.299-1.246.266C-.171 1.587.386.64 1.067.27c1.123-.57 1.647-.06 1.383.46z"/>
        <path id="ah" d="M2.45.73c-.126.248-.64.576-1.146.735-.505.158-1.195.299-1.246.266C-.171 1.587.386.64 1.067.27c1.123-.57 1.647-.06 1.383.46z"/>
        <path id="aj" d="M3.296.994c-.17.338-.863.785-1.544 1.001-.681.216-1.61.407-1.68.363C-.235 2.16.516.87 1.433.366c1.515-.776 2.22-.08 1.864.628z"/>
        <path id="al" d="M3.296.9c-.17.305-.863.71-1.544.906-.681.195-1.61.368-1.68.328C-.235 1.956.516.788 1.433.331 2.947-.37 3.652.26 3.296.9z"/>
        <path id="an" d="M3.296.943c-.17.32-.863.745-1.544.95-.681.205-1.61.386-1.68.345C-.235 2.05.516.826 1.433.348 2.947-.39 3.652.27 3.296.943z"/>
        <path id="ap" d="M3.296.985c-.17.335-.863.779-1.544.993-.681.214-1.61.403-1.68.36C-.235 2.142.516.862 1.433.362c1.515-.77 2.22-.08 1.864.622z"/>
        <path id="ar" d="M3.587.915c-.185.31-.938.723-1.677.922-.74.198-1.749.374-1.824.334C-.249 1.99.566.8 1.563.337c1.644-.714 2.41-.074 2.024.578z"/>
        <path id="at" d="M3.5.894c-.18.304-.916.706-1.638.9-.723.195-1.71.367-1.783.327-.089-.048-.04-.16.02-.321S.815.66 1.522.33C3.13-.37 3.878.256 3.5.893z"/>
        <path id="av" d="M3.49.869c-.17.295-.863.686-1.544.875-.68.189-1.753.413-1.822.374C-.184 1.947.709.761 1.627.32 3.14-.358 3.847.25 3.49.87z"/>
        <path id="ax" d="M3.42.985c-.17.335-.863.779-1.544.993-.68.214-1.761.417-1.83.374-.11-.167.593-1.489 1.51-1.989 1.515-.77 2.22-.08 1.864.622z"/>
        <path id="az" d="M3.395.83c-.162.282-.824.656-1.475.836-.65.18-1.76.352-1.826.315C-.2 1.817.738.727 1.614.306 3.063-.342 3.736.239 3.396.83z"/>
        <path id="aB" d="M.733 1.7v9.632l6.222 3.587V5.343z"/>
        <path id="aD" d="M.733 1.7v9.632l6.222 3.587V5.343z"/>
        <path id="aF" d="M.733 1.7v9.632l6.222 3.587V5.343z"/>
        <path id="aH" d="M2.882 11.52c-.169.312-1.412.27-1.738-1.764C.818 7.72 1.015 3.492 0 0c1.402 3.903 1.789 7.744 1.789 8.054.15 1.669 1.592 2.458 1.093 3.466z"/>
        <path id="aJ" d="M4.047.088l3.992.69v.504a.092.092 0 0 1 .047.145l-2.888 3.69a1 1 0 0 1-1.11.33l-3.93-1.34a.157.157 0 0 1-.066-.253l-.004-.448L3.174.361a1 1 0 0 1 .873-.273z"/>
        <path id="aL" d="M27.452 17.345c8.08-.627 13.17-1.724 15.272-3.29 3.152-2.349 10.25-4.187 15.611.897 5.36 5.085 4.035 18.503 1.045 23.07-2.99 4.568-6.875 10.763-24.49 10.763-11.743 0-19.244-3.858-22.504-11.576-1.977-7.079-.05-12.465 5.78-16.158 3.124-1.916 6.219-3.151 9.286-3.706z"/>
        <path id="aN" d="M19.663 7.4C17.372 7.13 13.117 4.855 6.898.58c-1.956-1.166-2.896.025-3.2 1.123C3.395 2.8.668 11.093.114 14.138c.515.943 1.448 1.35 2.8 1.224 2.293-3.505 3.44-5.925 3.44-7.26.948.803 3.396 2.523 4.8 3.029.848.15 5.833 2.232 10.648 1.692 3.21-.36 2.497-2.168-2.14-5.423z"/>
        <path id="aP" d="M23.307 1.143c-5.796.686-9.845.784-12.145.295-3.45-.734-7.355-2.08-9.58-.876C.72 1.128.573 1.812.573 4.292c0 1.652-.188 5.383-.563 11.192-.079.733.445 1.206 1.57 1.421 1.689.323 2.282.164 2.564-.96.28-1.124 1.45-8.16 1.45-9.484 1.02.403 4.116 1.485 7.388 2.56 3.273 1.076 8.559 1.735 9.84.327 1.677-1.855 1.839-4.59.484-8.205z"/>
        <path id="aR" d="M10.339.545c-1.19.868-1.992 1.481-2.406 1.84C7.31 2.923 7.6 4.6.143 4.6c-.998-.37 3.684 6.694.299 11.989 2.107.28 8.653-.321 9.897-.688 1.243-.367 6.434-4.062 6.434-8.56 0-4.497-.605-6.534-1.891-7.113-.857-.386-2.372-.28-4.543.318z"/>
        <path id="aT" d="M.631 0c-.841 3.995-.841 6.206 0 6.634.41.323 1.171.476 2.283.458.258.346.258.796 0 1.349-.386.83.272 1.32.272 1.32s1.254.644 2.5-.819c1.245-1.462.415-1.737.28-3.157.02-.238.405-.691 1.152-1.359V2.751L4.886.741 2.003 0H.631z"/>
        <linearGradient id="aV" x1="99.029%" x2="40.763%" y1="45.601%" y2="38.451%">
            <stop offset="0%" stop-color="#7677EC" stop-opacity=".637"/>
            <stop offset="100%" stop-color="#4140AB" stop-opacity="0"/>
        </linearGradient>
        <path id="aW" d="M5.143.708C4.795.532 4.62.43 4.485.372c-1.29-.554-2.543-.49-3.76.194-.896.368-.991 1.718 0 2.82.992 1.101 3.111 2.274 3.523 2.992.411.72 1.71 2.305 3.455 2.305s2.7-.814 2.7-1.829c0-1.014-1.925-1.938-2.312-2.512-.619-.85-.845-1.392-1.143-1.89-.181-.304-.046-.7-.385-1.03-.26-.367-1.073-.539-1.42-.714z"/>
        <path id="aY" d="M1.488 3.772C.254 3.232-.212 2.528.092 1.659.546.355 1.437-.212 3.937.07c2.5.284 3.002.37 3.606.488.604.12 1.542.233 1.178 1.792.875.289 2.65 1.019 3.569 1.213.918.195 2.012.809 1.813 1.722-.2.913-1.078 1.867-3.668 1.39-2.59-.477-3.47-1.44-6.21-1.92-1.182-.348-2.094-.676-2.737-.984z"/>
    </defs>
    <g fill="none" fill-rule="evenodd">
        <path fill="url(#a)" d="M115.925 0v62.85c-.874 5.17.81 9.222 5.053 12.154 31.247 21.6 74.087 13.778 95.686-17.469a68.778 68.778 0 0 0 12.2-39.108V0h-112.94z" transform="translate(-9)"/>
        <path fill="url(#b)" d="M124.053 80.992c-7.814-4.428-11.606-9.101-11.374-14.018.007-3.478-.417-8.264-.417-19.33-7.016 4.195-59.242 37.818-91.429 57.136l.917 4.13c5.34 24.063 26.565 41.268 51.212 41.514l105.948 1.057c8.283.083 15.066-6.566 15.148-14.85a15 15 0 0 0-6.571-12.558l-63.434-43.081z" transform="translate(-9)"/>
        <g transform="translate(-9)">
            <mask id="e" fill="#fff">
                <use xlink:href="#c"/>
            </mask>
            <use fill="#D9F3FC" xlink:href="#c"/>
            <path fill="url(#d)" d="M112.524-17.716l.296 102.402-30.985-17.68-74.234 45.999V-17.716z" mask="url(#e)"/>
            <g mask="url(#e)">
                <g transform="translate(81.354 1.46)">
                    <mask id="g" fill="#fff">
                        <use xlink:href="#f"/>
                    </mask>
                    <use fill="#D9F3FC" xlink:href="#f"/>
                    <g mask="url(#g)">
                        <ellipse cx="10.186" cy="10.172" fill="#FFE57F" rx="10.186" ry="10.172" transform="rotate(70 11.412 34.075)"/>
                    </g>
                    <path fill="#BBDDF7" d="M1.397 28.982l10.825 4.612v8.866l5.292 2.69v4.714l7.294 3.896V40.873l6.617 3.46V83.23L1.397 65.498z" mask="url(#g)"/>
                    <path fill="#FFF" d="M14.57 33.165c1.165-1.177 2.87-1.177 5.116 0 1.138.275 1.215.675 4.517 0 3.301-.675 10.321-.995 5.479 1.727-1.987.88-4.098 2.466-7.168 4.023-1.483.752-4.13 1.898-7.943 3.438v-9.188z" mask="url(#g)" transform="matrix(-1 0 0 1 45.905 0)"/>
                    <path fill="#FFF" d="M1.397 8.011c2.958-.04 4.81 1.281 5.554 3.963 1.138.275.953 2.156 3.814 3.454 2.86 1.298 5.633 2.427 3.982 4.246-1.987.88-4.083 0-7.796-1.146-2.475-.763-4.326-1.564-5.554-2.402V8.01z" mask="url(#g)"/>
                    <path fill="#5F5863" d="M1.66 21.654l29.765 17.162v1.822L1.66 23.52z" mask="url(#g)"/>
                    <path fill="#5B5761" d="M1.66 44.588l29.765 17.161v1.822L1.66 46.452z" mask="url(#g)"/>
                    <path fill="#52565E" d="M.209 0l31.526 18.14a1 1 0 0 1 .501.868v63.268a1 1 0 0 1-1.499.867L.709 65.835a1 1 0 0 1-.5-.867V0zM3.16 2.446a1 1 0 0 0-1.5.866v61.743a1 1 0 0 0 .501.866L29.926 81.9a1 1 0 0 0 1.499-.866V19.35a1 1 0 0 0-.5-.865L3.16 2.446z" mask="url(#g)"/>
                </g>
            </g>
            <g mask="url(#e)">
                <g transform="matrix(-1 0 0 1 60.623 37.677)">
                    <mask id="i" fill="#fff">
                        <use xlink:href="#h"/>
                    </mask>
                    <use fill="#C0C4D5" xlink:href="#h"/>
                    <path fill="#837E92" d="M-.11 66.457l1.927 1.103c.289.084.52.084.695 0 .175-.084 3.99-2.283 11.447-6.599v1.131l-11.617 6.27-1.56-.658-1.052-.833.16-.414z" mask="url(#i)"/>
                    <path fill="#D1D5E2" d="M.586 65.445l10.923-6.334c.227-.13.446-.13.656 0 .21.129.691.45 1.443.965.242.198.242.405 0 .62-.242.213-3.826 2.333-10.754 6.357-.562.254-1.016.254-1.362 0-.346-.254-.792-.56-1.338-.92-.184-.172-.184-.317 0-.433.184-.116.328-.2.432-.255z"/>
                    <path fill="#D4D6E3" d="M7.81 29.837l-.903.632c-.197.151-.295.413-.295.786 0 .372.098 4.408.295 12.109l1.911-4.485-1.007-9.042z"/>
                    <path fill="#AFB3C5" d="M8.111 30.307l-.688.555c-.148.086-.221.267-.221.543V42.54l2.713-6.116-1.804-6.117z"/>
                    <path fill="#C3C7D9" d="M11.337.484l.894-.308c.292-.102.515-.102.67 0 .156.103 8.597 5.008 25.325 14.715.61.485.87 1.104.78 1.857-.104.891-2.194 21.052-6.27 60.481-.12.667-.608 1.074-1.463 1.22-.855.147-7.5-25.841-19.936-77.965z"/>
                    <path fill="#D2D4E1" d="M10.71 1.524c.038-.477.164-.78.377-.91.278-.173.617-.173 1.018 0l25.11 14.343c.647.388 1.03.796 1.15 1.226.107.384 0 1.006 0 1.516 0 1.366-2.116 21.302-6.347 59.808-.065.472-.313.786-.745.943-.29.08-.628 0-1.015-.237L5.697 63.831c-.827-.488-1.241-.96-1.241-1.417 0-.457.106-2.13.32-5.017l5.933-55.873z"/>
                    <path fill="#F4F5F9" d="M11.08 1.597c.004-.631.255-.874.752-.728.456.143 8.892 4.989 25.309 14.538.46.334.689.822.689 1.462s-2.084 20.842-6.25 60.607c-.162.492-.493.638-.995.437-.468-.274-8.824-5.112-25.07-14.514-.51-.356-.727-.8-.65-1.332.076-.532 2.148-20.688 6.216-60.47z"/>
                    <path fill="#E5BDFF" d="M33.018 25.363l-3.42-2.058-.95 5.638 3.46 2.113z"/>
                    <path fill="#DBEDAA" d="M29.157 21.309l-3.726-2.102c-.188 1.697-.568 2.81-1.138 3.34-.457.44-.915.867-1.375 1.28l3.476 2.271c.19.152.379.095.565-.172.173-.247.279-.194 1.438-1.817.254-.355.508-1.289.76-2.8z"/>
                    <path fill="#FFE57F" d="M33.634 20.75l-3.727-2.102c-.429 1.932-1.14 3.124-2.135 3.576-.995.453-1.627.734-1.896.844l3.562 2.16c.192.144.455.137.79-.022.25-.12 1.475-.314 2.634-1.937.254-.356.511-1.195.772-2.52zM16.848 37.513l-3.726-2.102c-.43 1.932-1.141 3.124-2.136 3.576-.995.453-1.627.734-1.896.844l3.563 2.16c.192.144.455.137.789-.022.251-.12 1.475-.314 2.635-1.937.254-.356.51-1.195.771-2.52z"/>
                    <mask id="k" fill="#fff">
                        <use xlink:href="#j"/>
                    </mask>
                    <use fill="#C0C4D5" xlink:href="#j"/>
                    <path fill="#837E92" d="M28.12 82.815l1.927 1.103c.288.084.52.084.695 0 .175-.084 3.99-2.283 11.447-6.598v1.13L30.57 84.72l-1.558-.658-1.054-.833.16-.414z" mask="url(#k)"/>
                    <path fill="#D1D5E2" d="M28.816 81.803l10.922-6.334c.228-.129.447-.129.657 0 .21.129.69.45 1.443.965.242.199.242.405 0 .62-.242.214-3.827 2.333-10.755 6.357-.561.254-1.015.254-1.361 0-.347-.254-.793-.56-1.338-.92-.184-.172-.184-.316 0-.432.183-.116.327-.202.432-.256z"/>
                    <path fill="#D4D6E2" d="M34.913 47.633c-.018-.467.07-.764.263-.893.193-.128.413-.25.66-.362.19-.05.343-.05.459 0 .09.05.204.125.342.227l.127 32.435-1.348.847-.503-.298V47.633z"/>
                    <path fill="#B6B9CA" d="M35.416 47.962c.007-.48.07-.762.185-.85.116-.087.362-.233.737-.438.284-.148.426-.058.426.269V79.04l-1.348.847V47.962z"/>
                    <circle cx="36.206" cy="47.682" r="1" fill="#7F86A0" transform="rotate(37 36.206 47.682)"/>
                </g>
            </g>
            <g mask="url(#e)">
                <path fill="#44444E" d="M114.154 113.526l-.712 24.1c-.01.76-.155 1.141-.435 1.141-.42 0-.592-.18-.592-1.141 0-.642-.238-8.675-.712-24.1h2.45zM138.056 99.306l-.712 24.1c-.01.76-.155 1.141-.435 1.141-.42 0-.592-.18-.592-1.141 0-.642-.237-8.675-.711-24.1h2.45zM68.19 87.78l-2.257 19.9c-.094.835.043 1.259.41 1.271.406 0 .529-.079.719-1.271.126-.795 1.195-7.024 3.207-18.688L68.19 87.78z"/>
                <path fill="#EEEEF0" d="M65.647 85.826l23.645-13.83 49.64 26.222-26.125 15.318z"/>
                <path fill="#B9BBC6" d="M139.012 98.162l-26.199 15.408-46.952-27.617v.844l46.952 27.5 26.199-15.316z"/>
                <g>
                    <g transform="matrix(-1 0 0 1 96.104 76.731)">
                        <mask id="m" fill="#fff">
                            <use xlink:href="#l"/>
                        </mask>
                        <use fill="#7D7384" xlink:href="#l"/>
                        <path fill="#FFFEFF" d="M5.85-.322L11.961.816l.053.108a1 1 0 0 1-.116 1.066L7.482 7.51a1 1 0 0 1-1.106.32L.69 5.875a1 1 0 0 1-.663-1.097l.085-.557L5.006-.09a1 1 0 0 1 .844-.233z" mask="url(#m)"/>
                    </g>
                    <path fill="#6296EC" d="M90.116 75.92l-5.739 1.647a.4.4 0 0 0-.205.63l4.29 5.521a1 1 0 0 0 1.115.333l5.817-1.999a.5.5 0 0 0 .212-.804l-4.467-5.031a1 1 0 0 0-1.023-.297z"/>
                    <path fill="#C5DEF0" d="M91.014 78.41l-.93-1.022-3.39.82.97 1.15z"/>
                    <path fill="#7C8291" d="M90.787 84.74v-.583a1 1 0 0 0-.24-.651l-5.53-6.447-.543.149 5.484 6.491a1 1 0 0 1 .236.646v.595l.593-.2z"/>
                </g>
                <g>
                    <path fill="#D0CFDB" d="M101.898 97.147c.001.435-.066.69-.201.762-.169.109-1.21.754-3.126 1.935a.5.5 0 0 1-.512.008c-6.077-3.501-9.134-5.286-9.172-5.354-.062-.042-.053-.234-.054-.4.033-.092.373-.075 1.019.051l12.046 2.998z"/>
                    <path fill="#DBDAE4" d="M98.565 99.587l2.926-1.95a.5.5 0 0 0-.02-.846l-8.314-4.978a1 1 0 0 0-1.06.02l-2.834 1.846a.5.5 0 0 0 .022.851l8.752 5.074a.5.5 0 0 0 .528-.017z"/>
                </g>
                <g>
                    <g transform="matrix(-1 0 0 1 91.482 122.87)">
                        <mask id="o" fill="#fff">
                            <use xlink:href="#n"/>
                        </mask>
                        <use fill="#FA9E8E" xlink:href="#n"/>
                        <path fill="#BD6A6A" d="M3.47.821c-.58.8-.58 1.454 0 1.964.87.765 2.154.937 2.876-.164.48-.734.738-.254.772 1.44l-.657 1.827-1.895.336L.858 3.523-.195 2.07-.403.991.363.075l1.222-.33.744.33 1.142.745z" mask="url(#o)"/>
                        <path fill="#4F536F" d="M.57 2.544c1.271.522 2.171 1.162 2.702 1.92.53.757 1.287 1.045 2.27.864.429-.143.735-.432.919-.865.184-.432.47-.543.856-.33l-.368 1.755-2.727.336-2.978-1.84-.673-1.84z" mask="url(#o)"/>
                    </g>
                    <g transform="matrix(-1 0 0 1 101.328 126.31)">
                        <mask id="q" fill="#fff">
                            <use xlink:href="#p"/>
                        </mask>
                        <use fill="#FA9E8E" xlink:href="#p"/>
                        <path fill="#BD6A6A" d="M4.61 2.262c-.13 1.116.244 1.803 1.124 2.06 1.206.135 2.24.243 3.068-.279.827-.522 1.046-.922 1.046-1.258 0-.224.333.503 1 2.182l-.671 2.775-1.174.475-5.634-1.06L.09 6.103l-.589-1.916L1.04 2.262h3.572z" mask="url(#q)"/>
                        <path fill="#4F536F" d="M-.13 4.683c.713.821 1.64 1.29 2.779 1.405 1.71.173 3.13.374 3.89.643.761.269 2.581.343 3.309-.643.484-.658.744-.295.778 1.089L8.842 8.431 2.849 7.303-.654 6.088l.156-.848.368-.557z" mask="url(#q)"/>
                    </g>
                    <g fill="#3D3C4D">
                        <path d="M82.62 107.806c3.178-2.28 5.215-3.04 6.11-2.28.896.76 1.33 2.705 1.303 5.834l-2.94 2.792-5.645-.744 1.172-5.602zM89.534 115.781l-.605 6.425c-.13.562-.469.957-1.016 1.186-.82.343-2.388.184-2.66-.501-.183-.457-.183-3.23 0-8.321l4.281 1.211z"/>
                    </g>
                    <path fill="#48475B" d="M86.094 111.36c3.675-.921 6.275-1.486 7.801-1.692 1.526-.207 2.572.075 3.14.846.237.346.355 1.34.355 2.982 0 1.641-.252 5.801-.756 12.48-.39 1.018-1.303 1.528-2.739 1.528-1.435 0-2.153-.651-2.153-1.954v-9.592c-3.77 1.278-7.007 2.143-9.714 2.595-2.393.195-3.706-.378-4.86-.86-.798-.334-1.74-.8-2.225-1.427-.794-1.024-1.224-2.28-1.291-3.77l12.442-1.136z"/>
                    <path fill="#FCC1C0" d="M89.03 101.145l1.446 2.44c.168.247.565.37 1.191.37.939 0 3.774-.878 4.425-1.141.652-.264 1.587-1.004 1.847-.502.173.334.077.502-.29.502 2.299-.281 3.618-.024 3.957.77.34.795-.272 1.377-1.834 1.746-2.112.095-3.581.314-4.408.657-1.24.515-3.937 1.251-4.232 1.251-.296 0-1.629.363-2.506-.773-.585-.757-1.429-1.974-2.532-3.651l2.937-1.67z"/>
                    <path fill="#FA9E8E" d="M73.212 97.909l-.343 3.502c-.106 1.263.43 1.94 1.605 2.034 1.177.093 1.392-1.39.646-4.45l-1.908-1.086z"/>
                    <g transform="matrix(-1 0 0 1 96.215 93.24)">
                        <mask id="s" fill="#fff">
                            <use xlink:href="#r"/>
                        </mask>
                        <use fill="#FFF" xlink:href="#r"/>
                        <path fill="#E2EBF8" d="M9.965 10.848l1.643-2.677-.37 11.026-2.116-.77.225-5.635z" mask="url(#s)"/>
                    </g>
                    <g>
                        <path fill="#FCC1C0" d="M85.304 88.57c.255 3.274-.114 5.069-1.105 5.384-.618.123-1.29 0-1.6 0-.31 0-.5 0-.5.62.065.464-.711.656-2.328.577-.837-.434-1.2-.97-1.09-1.605.112-.636.199-2.774.262-6.415h3.514c1.009-1.738 1.688-2.5 2.038-2.287.35.213.619 1.455.81 3.726z"/>
                        <path fill="#965757" d="M77.172 92.034c.679.728 1.308 1.03 1.888.905 1.016-.199 1.187-.623 1.213-1.219.026-.596-.262-1.69.454-1.932.855-.2 1.204.49 1.287.93.083.44.402 1.129.581-.123.18-1.252.535-1.227 1.147-2.136.613-.909 1.784-1.521 2.068-2.766.285-1.245.546-2.505-1.315-3.652-1.427-.181-1.658.467-4.873.7-2.93.305-4.277 3-4.275 5.33-.013.929.188 1.77.602 2.524.142.209.215.202.298.283.077.105.174.288.333.498.118.182.315.402.592.658z"/>
                    </g>
                </g>
                <g>
                    <g transform="matrix(-1 0 0 1 99.103 120.263)">
                        <mask id="u" fill="#fff">
                            <use xlink:href="#t"/>
                        </mask>
                        <use fill="#44444E" xlink:href="#t"/>
                        <path fill="#2D2D33" d="M2.847.203L.192 15.51l-.646-.965L1.747.203l.409-.6z" mask="url(#u)"/>
                    </g>
                    <g transform="matrix(-1 0 0 1 83.109 127.026)">
                        <mask id="w" fill="#fff">
                            <use xlink:href="#v"/>
                        </mask>
                        <use fill="#44444E" xlink:href="#v"/>
                        <path fill="#2D2D33" d="M.427-.86L3.56 19.82l-.757-.343L-.455-.861z" mask="url(#w)"/>
                    </g>
                    <g transform="matrix(-1 0 0 1 67.761 119.641)">
                        <mask id="y" fill="#fff">
                            <use xlink:href="#x"/>
                        </mask>
                        <use fill="#44444E" xlink:href="#x"/>
                        <path fill="#2D2D33" d="M.08.724l6.665 16.303L4.997 15.7-.566 1.44z" mask="url(#y)"/>
                    </g>
                    <g transform="matrix(-1 0 0 1 99.066 102.112)">
                        <path fill="#363645" d="M35.253 1.715c-.15-.59-.556-1.052-1.22-1.387-.663-.335-1.314-.335-1.954 0l-6.928 4.058c-1.216.73-2.225 2.042-3.028 3.935-.803 1.893-1.787 4.566-2.952 8.02h2.486L32.079 5.878l3.174-4.164z"/>
                        <mask id="A" fill="#fff">
                            <use xlink:href="#z"/>
                        </mask>
                        <use fill="#DDD" xlink:href="#z"/>
                        <path fill="#F7F7F7" d="M1.065 7.636c1.334.284 6.23 3.284 14.69 8.998 1.362.885 4.525.845 5.462-.867 2.616-5.144 1.072-6.015 5.912-9.82 3.803-2.48 4.926-4.684 8.896-3.92 2.646.51 1.83-.057-2.449-1.7l-5.018 1.7-6.502 6.74-2.004 5.9-2.8.581-9.62-5.898-5.559-2.664L.8 7.349l.265.287z" mask="url(#A)"/>
                    </g>
                </g>
            </g>
        </g>
        <g transform="matrix(-1 0 0 1 98.999 86.103)">
            <mask id="C" fill="#fff">
                <use xlink:href="#B"/>
            </mask>
            <use fill="#C1C8D6" xlink:href="#B"/>
            <path fill="#ABB4C5" d="M.14 3.45l4.236 2.602c.667.446 1.467.499 2.4.16 1.252-.69 4.096-2.217 4.096-2.59 0-.248.164-.211.492.111L9.684 5.52l-1.818.915-1.94.963L1.123 5.06-.359 3.852l.5-.401z" mask="url(#C)"/>
        </g>
        <g transform="matrix(-1 0 0 1 109.873 61.307)">
            <mask id="E" fill="#fff">
                <use xlink:href="#D"/>
            </mask>
            <use fill="#D1D7E1" xlink:href="#D"/>
            <path fill="#44444E" d="M3.037 30.93l25.307-14.703-4.337-17.09h-1.844L-.663 12.614l.748 6.513z" mask="url(#E)"/>
            <path fill="#8AA9DD" d="M1.286 13.978L22.67 1.675l3.264 14.446L4.63 28.383z" mask="url(#E)"/>
            <path fill="#B3BBCA" d="M23.164.087c-.778.166-1.91.692-3.392 1.576-1.483.885-7.404 4.322-17.763 10.311C.759 12.53.235 13.48.434 14.827.75 16.293 1.923 21.675 3.95 30.97c.1.693.344 1.13.733 1.312.389.181.057.181-.996 0L-.39 14.255l.544-2.28L19.359.942l3.175-1.297.63.441z" mask="url(#E)"/>
            <path fill="#FFF" d="M2.692 14.76l.216.79 5.825-3.382-.292-.637zM3.9 19.584l.216.79 5.825-3.383-.292-.637zM4.303 22.09v.696l10.068-5.893-.074-.539zM3.498 17.159l.218.803 2.198-1.242-.186-.768z" mask="url(#E)"/>
        </g>
        <g transform="translate(98.709 58.52)">
            <ellipse cx="3.897" cy="47.302" fill="#A6ACB7" rx="2.386" ry="1"/>
            <ellipse cx="3.857" cy="45.779" fill="#A8BAD8" rx="3.857" ry="1.976"/>
            <ellipse cx="3.857" cy="45.555" fill="#D1D8E5" rx="3.857" ry="1.976"/>
            <ellipse cx="3.937" cy="45.585" fill="#E1ECFE" rx="2.346" ry="1.157"/>
            <path fill="#6988BB" d="M6.662 42.995s1.064-.264 1.194.698c.13.962-.52 1.478-.722 1.54-.202.061-.684.228-1.176-.22-.433-.532-.26-.066.279-.298.144.14.373.25.61.2.239-.05.383-.174.537-.515.294-.804-.095-1.217-.698-1.01-.38.155-.024-.395-.024-.395z"/>
            <path fill="#5D86C9" d="M3.897 46.202c1.581 0 2.863-1.382 2.863-3.086a3.36 3.36 0 0 0-.016-.33c-.154-1.549-1.37.704-2.847.704-1.483 0-2.702-2.244-2.848-.688-.01.104-.015.208-.015.314 0 1.704 1.282 3.086 2.863 3.086z"/>
            <ellipse cx="3.897" cy="42.808" fill="#666DA5" rx="2.863" ry="1.543"/>
            <mask id="G" fill="#fff">
                <use xlink:href="#F"/>
            </mask>
            <use fill="#9DC2FF" xlink:href="#F"/>
            <ellipse cx="3.857" cy="43.579" fill="#887058" mask="url(#G)" rx="2.664" ry="1.311"/>
            <path fill="url(#H)" d="M1.343 42.554s.974-.729.796-3.503c-.178-2.773-.808-5.566.45-10.72 1.257-5.154 1.198-8.003-.024-10.87-1.222-2.867-1.5-10.525.405-13.894C4.875.197 5.572.04 5.572.04S2.56 9.688 4.444 14.65c1.884 4.964 1.463 10.605.732 12.367-.732 1.763-2.473 8.036-.653 11.572.596 1.51 1.973 2.144 2.04 4.008.072 1.52-2.655 1.519-2.655 1.519s-1.122.01-1.951-.41c-.989-.63-.614-1.152-.614-1.152z" opacity=".3"/>
        </g>
        <g transform="scale(-1 1) rotate(-2 2802.69 4398.924)">
            <ellipse cx="7.744" cy="29.051" fill="#92A1BA" rx="5.281" ry="2.585"/>
            <path fill="#94B7F3" d="M12.74 27.9c-.095 1.62-2.325 2.916-5.062 2.916-2.798 0-5.065-1.354-5.065-3.023v-.066l-.415-7.459h11.391l-.843 7.632h-.007z"/>
            <mask id="J" fill="#fff">
                <use xlink:href="#I"/>
            </mask>
            <use fill="#517BC1" xlink:href="#I"/>
            <ellipse cx="7.894" cy="22.026" fill="#6D5049" mask="url(#J)" rx="5.696" ry="2.999"/>
            <g transform="matrix(-1 0 0 1 17.732 0)">
                <mask id="L" fill="#fff">
                    <use xlink:href="#K"/>
                </mask>
                <use fill="#7AB251" xlink:href="#K"/>
                <path fill="#5A8A39" d="M10.267 18.242s.194-.304.588-.781c.24-.457 1.6-2.682 1.6-2.682l2.924-1.402 5.525.636-6.679 7.03-4.406.899-.293-.271s-.202-1.073.22-1.709c.42-.635.52-1.72.52-1.72z" mask="url(#L)"/>
                <path fill="#578736" d="M7.633 18.212s1.427.53 1.742 1.7c.315 1.17.106.645.106.645s.81-.623 1.772-.44c.962.181-.74 1.6-.863 1.63-.124.03-1.712.224-1.712.224l-1.096-2.136.05-1.623z" mask="url(#L)"/>
                <path fill="#60973E" d="M13.79 7.828s-1.8.74-1.93.947c-.128.205-1.392.791-1.512 3.461.084 2.675.087 3.844.087 3.844l-.216 2.26.75-1.061.644-2.202s2.939-5.266 2.939-5.37l.012-1.764-.773-.115z" mask="url(#L)"/>
                <path fill="#578736" d="M6.95 14.096s1.62.449 1.837 1.655c-.31-.297-.721-1.428-2.955-1.614-2.234-.186 1.117-.041 1.117-.041zM13.515 7.653s-1.807.632-2.57 2.177c.892-.682 1.685-1.982 3.355-1.792 1.67.19-.785-.385-.785-.385z" mask="url(#L)"/>
                <g mask="url(#L)">
                    <path fill="#578736" d="M8.787 15.6s1.02 2.525.932 3.528c-.003-.031.116-.49.7-1.073.584-.582.66-.736 1.245-.921-.536.842-1.727 2.505-1.727 2.505l-.47.87-.22-2.103-.334-2.118-.126-.687z"/>
                    <path stroke="#FFF" stroke-width=".7" d="M9.51 21.755s-.318-1.071.583-2.396c.901-1.324 2.526-4.181 5.929-3.851M14.747 17.378s-1.52-.78-3.639.545M13.056 18.845s-2.014-.633-3.178.844"/>
                    <path stroke="#FFF" stroke-width=".7" d="M12.067 1.806s-1.537 1.057-1.765 6.506c-.014 4.322.163 6.804.144 7.475-.02.671 0 1.908-.364 3.61M14.52 5.006s-3.59.445-4.218 5.085M13.133 8.844s-2.26 1.34-2.751 4.458M2.49 6.29s6.247.34 6.97 14.848M3.33 10.486s2.712-1.273 4.808 2.436M5.854 15.694s2.943-.22 3.43 3.014"/>
                </g>
            </g>
        </g>
        <path fill="#965757" fill-rule="nonzero" d="M129.978 83.867c.769.812 1.153 1.349 1.153 1.61 0 .181 0 4.36-.785 4.594-.435.13-1.434-.66-2.149-1.538-.36-.443-.502-.9-.762-1.29-.16-.241-3.838 1.48-5.182.749-1.107-.603.072-3.698 0-3.733-.725-.351 1.084-.286 5.427.196l2.298-.588z"/>
        <path fill="#888" d="M129.48 141.051c.274.791.104 1.374-.509 1.749-.92.561-6.122.77-7.296.385-1.173-.385-1.393-.696-1.393-1.31 0-.409.727-.532 2.183-.369l5.657-1.007 1.359.552z"/>
        <path fill="#DDD" d="M128.89 138.056c.38.041.569.254.569.637v2.004c.027.542-.253.915-.84 1.117-.881.303-4.528 1.425-7.106.964-.913-.177-1.538-.612-1.057-1.347.48-.734 2.28-.828 3.622-1.707.894-.587 1.392-1.143 1.494-1.668h3.318z"/>
        <path stroke="#4286F5" stroke-linecap="round" stroke-linejoin="round" d="M126.017 140.059l-1.109-1.007M125.183 140.655l-.984-1.005"/>
        <path stroke="#4286F5" stroke-linecap="round" d="M124.297 141.16l-.836-1.126"/>
        <path fill="#888" d="M138.925 134.22c.797.305 1.159.81 1.085 1.51-.11 1.053-3.1 5.086-4.12 5.717-1.02.63-1.4.595-1.89.199-.327-.265.017-.89 1.03-1.875l2.63-4.89 1.265-.662z"/>
        <path fill="#DDD" d="M136.177 132.728c.263-.258.548-.263.853-.015l1.599 1.294c.449.33.576.78.38 1.351-.292.856-1.61 4.314-3.542 5.948-.695.57-1.422.757-1.716-.078-.294-.834.723-2.244.836-3.817.075-1.049-.066-1.781-.424-2.197l2.014-2.486z"/>
        <path stroke="#4286F5" stroke-linecap="round" stroke-linejoin="round" d="M136.031 136.174l-1.475.181M136 137.184l-1.398.089"/>
        <path stroke="#4286F5" stroke-linecap="round" d="M135.866 138.175l-1.406-.101"/>
        <path fill="#598BD4" fill-rule="nonzero" d="M121.437 99.413c-1.106 1.933-1.46 4.787-1.062 8.56.397 3.773 1.046 8.076 1.945 12.907l10.258 17.397c3.108-.986 4.853-2.933 5.235-5.84-2.565-1.665-5.754-2.187-9.13-10.711-2.25-5.683-2.687-12.639-1.311-20.866l-5.935-1.447z"/>
        <path fill="#6C9FE8" fill-rule="nonzero" d="M129.74 99.836c1.592 2.52 2.043 6.027 1.352 10.523-1.036 6.744.54 20.61 2.266 28.482-1.279.95-6.708 1.342-10.247-.758.586-3.081 3.15-23.364 2.18-29.617-.028-.007-1.818-.665-3.052-3.501-.35-.807-.653-2.658-.908-5.553l8.409.424z"/>
        <path fill="#FFB6C2" fill-rule="nonzero" d="M130.318 101.517c-.492.163-.869.163-1.131 0-.394-.244-.773-.441-.913-.253s.113.423.232.495c.118.072.231.33 0 .425-.155.064-.34.177-.555.34-.215.193-.215.465 0 .817.323.527.311 1.229 1.339 1.177 1.028-.053 1.138-1.166 1.138-1.458-.004-.27.174-.479.534-.63.225-.139.225-.385 0-.737-.173-.258-.388-.316-.644-.176z"/>
        <g fill-rule="nonzero">
            <path fill="#F5A4B1" d="M111.448 94.85c-.553.08-.888.01-1.006-.214-.177-.336-.46-.236-.503-.033-.043.204.158.612.755.797.398.124.65-.06.754-.55z"/>
            <path fill="#FFB6C2" d="M113.17 95.573c-.766-.646-1.391-.947-1.877-.903-.237.045-.72.347-1.45.907-.095-.384-.246-.49-.454-.316-.118.111-.238.515-.361 1.21.012.408.2.506.562.293.544-.32 1.805-1.08 2.222-.88.278.134.594.339.949.616.206.096.381-.004.526-.302.145-.298.106-.506-.117-.625z"/>
        </g>
        <g transform="translate(111.753 87.42)">
            <mask id="N" fill="#fff">
                <use xlink:href="#M"/>
            </mask>
            <use fill="#C8C5C5" fill-rule="nonzero" xlink:href="#M"/>
            <path fill="#BCB8B8" fill-rule="nonzero" d="M9.398 3.137a9.324 9.324 0 0 1-1.21 2.453c-.78 1.124.001 2.773.948 3.168.63.263.796.614.496 1.053 1.298-.369 2.433-.25 3.403.358 1.456.91 2.585.986 3.46.757.585-.152 1.109 0 1.573.456 3.207-1.063 5.059-1.531 5.555-1.404-.682-.475-4.35-2.027-4.35-3.476-.764.594-.984.363-2.511 2.622-1.528 2.258-3.794-.914-6.46-.64-2.43.097-2.064-2.767-1.54-3.146.299-.419.51-1.153.636-2.201z" mask="url(#N)"/>
        </g>
        <path fill="#F5A4B1" fill-rule="nonzero" d="M124.59 86.865l-.141 1.425c.026.871.556 1.115 1.59.73.843-.263 1.427-1.537 1.751-3.82l-3.2 1.665z"/>
        <path fill="#BCB8B8" fill-rule="nonzero" d="M124.709 87.499c.916.73 1.79.847 2.622.348.099-.204.066-.35-.1-.44l.141-.431c.364.054.575.228.632.523.012.298.012.75 0 1.356-.088.71-.436 1.134-1.043 1.273-.91.21-2.305.52-3.136-.962-.087-.298-.045-.806.128-1.526l.756-.141z"/>
        <path fill="#FFB6C2" fill-rule="nonzero" d="M122.776 80.092c-.424.605-.636 1.424-.636 2.457 0 1.549-.318 2.417 0 3.346.318.93.733 2.565 3.083 1.747 1.38-.523 2.278-1.29 2.692-2.302.132-.227.304-.34.515-.34.317 0 1.61-.285.963-1.512-.28-.437-.719-.488-1.315-.154.742-.297.945-.986.61-2.067-.244-.787-1.37-2.362-3.327-2.273-1.13-.09-1.99.276-2.585 1.098z"/>
        <path fill="#965757" fill-rule="nonzero" d="M122.96 80.179c2.366 2.345 3.903 3.26 4.61 2.745.065.481.14.939.223 1.371.298-.737.679-1.069 1.141-.994.694.112.694.952.694 1.193 0 .053-.11.641.04.794.54.551 1.272.844 1.605.25-.037-.316.79-3.76-.14-5.958-.557-1.05-1.563-2.588-4.037-2.82-1.216.08-1.962.43-2.24 1.05-.628.006-1.057.073-1.287.202-1.288.718-2.009 2.335-1.278 3.5.185.021.407-.423.668-1.333z"/>
        <g transform="translate(106.955)">
            <mask id="Q" fill="#fff">
                <use xlink:href="#O"/>
            </mask>
            <use fill="#3443AA" xlink:href="#O"/>
            <path fill="url(#P)" d="M9.73 79.652l57.678-33.95 56.054 31.82 3.889-30.117-2.991-65.027-129.651-9.836L-15.88 0l9.854 71.804L.893 83.715z" mask="url(#Q)"/>
            <g mask="url(#Q)">
                <path fill="#B797CA" d="M59.266 51.087s-.612-2.598 1.75-3.864c2.345-.937.88.21 4.62-1.482 3.738-1.69 6.346-.044 6.346-.044s2.415 1.194 2.088 4.61c-.327 3.418-3.533 2.953-3.533 2.953l-6.888 1.472s-.356-.283-.442-.978c-.085-.695-2.749-1.847-2.749-1.847l-1.192-.82z"/>
                <path fill="#41438E" d="M62.751 49.055l.816-1.043.353 1.652s1.127.687.626 2.723c-.537.188-1.504.919-1.2 1.718-.288.298-1.45.462-1.503.035-.052-.427.273-.597.273-.597s-.908-.013-1.144-.287c-.199.138-1.07.7-1.536.375-.466-.325-.01-.947.387-1.13-.19-.265-1.492-2.377.406-4.265.405.39.743.844.743.844s.92-.426 1.755-.022"/>
                <path fill="#41438E" d="M64.04 48.117l.222 1.403s1.123 1.473.379 2.944c1.29-.204.905-.306 3.16-.385 2.254-.078 4.532-.203 5.193-2.468.66-2.264-1.466-3.338-2.407-3.482-.94-.145-2.411-.008-3.761.952s-2.304.98-2.72 1.028"/>
                <path fill="#41438E" d="M74.085 50.135s.073 2.741-2.295 3.81c-2.368 1.067-6.122 1.658-7.621 1.114-1.5-.544-.25-1.603.587-1.695 1.92-.442 5.188.132 7.132-.901s2.197-2.328 2.197-2.328z"/>
            </g>
            <g mask="url(#Q)">
                <g transform="matrix(-1 0 0 1 31.282 1.46)">
                    <mask id="S" fill="#fff">
                        <use xlink:href="#R"/>
                    </mask>
                    <use fill="#8571B3" xlink:href="#R"/>
                    <g mask="url(#S)">
                        <g transform="rotate(70 11.3 33.92)">
                            <ellipse cx="10.182" cy="10.172" fill="#FFE57F" rx="10.182" ry="10.172"/>
                            <ellipse cx="4.769" cy="15.966" fill="#F2C75B" rx="1" ry="1.288" transform="rotate(-28 4.769 15.966)"/>
                            <ellipse cx="7.592" cy="2.446" fill="#F2C75B" rx="1" ry="1" transform="rotate(67 7.592 2.446)"/>
                            <ellipse cx="12.364" cy="15.984" fill="#F2C75B" rx="2.182" ry="2.18"/>
                            <ellipse cx="5.818" cy="8.719" fill="#F2C75B" rx="1.455" ry="1.453"/>
                            <path stroke="#F2C75B" stroke-linecap="round" stroke-width="2" d="M10.978 1.742c5.191.373 8.1 3.28 8.727 8.72"/>
                        </g>
                    </g>
                    <path fill="#AAA4C6" d="M14.357 33.165c1.164-1.177 2.869-1.177 5.114 0 1.137.275 1.215.675 4.515 0s10.318-.995 5.477 1.727c-1.986.88-4.096 2.466-7.165 4.023-1.483.752-4.13 1.898-7.941 3.438v-9.188z" mask="url(#S)" transform="matrix(-1 0 0 1 45.472 0)"/>
                    <path fill="#AAA4C6" d="M1.188 8.011c2.957-.04 4.808 1.281 5.552 3.963 1.137.275.953 2.156 3.813 3.454 2.86 1.298 5.63 2.427 3.98 4.246-1.986.88-4.081 0-7.793-1.146-2.474-.763-4.325-1.564-5.552-2.402V8.01z" mask="url(#S)"/>
                    <path fill="#9A89C0" d="M25.212 66.9l-.027-16.218 6.253-8.303v27.543zM5.64 36.74l6.485 3.898-.177 21.049-6.308-3.465z" mask="url(#S)"/>
                    <path fill="#725AA9" d="M-16.1 52.876c13.42-4.478 24.122-2.696 32.109 5.346C27.989 70.284 46.3 69.368 54.052 64.71c5.167-3.105 2.653 6.782-7.543 29.658L5.854 87.291-16.1 52.876z" mask="url(#S)"/>
                    <g mask="url(#S)">
                        <path fill="#725AA9" d="M4.633 44.929v.705a.559.559 0 0 1-.166.483c-.13.125-.315.27-.553.432l-.287-2.032-.746-.132c.101.712.152 1.433.152 2.164 0 1.097-.439 4.596-1.107 5.905.27.333 1.117.333 2.54 0-.275-1.48-.412-2.426-.412-2.837 0-.617.145-1.352.145-1.689 0-.224-.019-.48-.058-.768l.768-.61c.126-.119.19-.301.19-.547v-1.184l-.466.11zM6.965 42.247c.115-.625-.044-1.008-.478-1.151-.651-.215-.843-.152-1.116-.448-.273-.296-1.29-.34-1.575.36-.284.7-.971-.399-1.87-.268-.899.13-.406 1.054-.82 1.372-.415.318-.383.98-.096.98.191 0 2.177-.282 5.955-.845z"/>
                        <path fill="#7965A7" d="M7.334 44.002c.5-.311.59-.794.27-1.447-.318-.654-.868-1.015-1.649-1.082-.31.047-.53-.048-.66-.285-.197-.354-.824-1.212-1.783-.873-.958.34-1.17.743-1.378 1.375-.139.42-.28.606-.424.555-.101.002-.151.105-.151.31 0 .307-.278.201-.498.298-.22.097-.37.236-.37.815s.193 1.676 1.083 1.676c1.135.028 1.298-.798 1.84-.527.319.275.234.27 1.165.27.462.03.971.27 1.58 0 .258-.114.396-.44.59-.702.073-.1.202-.227.385-.383z"/>
                    </g>
                    <g mask="url(#S)">
                        <path fill="#725AA9" d="M14.442 52.226v.705a.559.559 0 0 1-.167.482c-.13.126-.314.27-.552.433l-.288-2.032-.746-.132c.102.712.152 1.433.152 2.164 0 1.097-.438 4.596-1.106 5.904.27.334 1.117.334 2.54 0-.275-1.48-.413-2.425-.413-2.836 0-.617.146-1.352.146-1.689 0-.224-.02-.48-.058-.768l.767-.61c.127-.119.19-.301.19-.547v-1.184l-.465.11zM16.774 49.544c.115-.625-.045-1.008-.479-1.151-.65-.215-.843-.152-1.115-.448-.273-.296-1.291-.34-1.575.36-.284.7-.971-.399-1.87-.268-.9.13-.406 1.054-.82 1.372-.415.318-.384.98-.096.98.191 0 2.176-.282 5.955-.845z"/>
                        <path fill="#7965A7" d="M17.143 51.3c.5-.312.59-.795.27-1.448-.319-.654-.868-1.015-1.649-1.082-.31.047-.53-.048-.661-.285-.196-.354-.824-1.212-1.782-.873-.958.34-1.171.743-1.379 1.375-.138.42-.28.606-.424.555-.1.002-.15.105-.15.31 0 .307-.279.201-.498.298-.22.097-.37.236-.37.815s.193 1.676 1.083 1.676c1.135.028 1.298-.798 1.84-.527.318.275.234.27 1.165.27.461.03.97.27 1.58 0 .257-.114.396-.44.589-.702.073-.1.202-.227.386-.383z"/>
                    </g>
                    <g mask="url(#S)">
                        <path fill="#725AA9" d="M30.72 60.357v.705a.559.559 0 0 1-.167.482c-.13.126-.314.27-.552.433l-.287-2.032-.747-.132c.102.712.152 1.433.152 2.164 0 1.097-.438 4.596-1.106 5.904.27.334 1.117.334 2.54 0-.275-1.48-.412-2.426-.412-2.836 0-.617.145-1.352.145-1.689 0-.224-.02-.48-.058-.768l.768-.61c.126-.119.19-.301.19-.547v-1.184l-.466.11zM33.052 57.675c.115-.625-.045-1.009-.478-1.151-.651-.215-.843-.152-1.116-.449-.273-.296-1.29-.339-1.575.36-.284.7-.971-.398-1.87-.267-.9.13-.406 1.053-.82 1.372-.415.318-.383.979-.096.979.191 0 2.176-.281 5.955-.844z"/>
                        <path fill="#7965A7" d="M33.421 59.43c.5-.311.59-.794.27-1.448-.318-.653-.868-1.014-1.649-1.081-.31.047-.53-.048-.66-.285-.197-.355-.825-1.212-1.783-.873-.958.34-1.17.743-1.379 1.374-.138.421-.28.606-.424.556-.1.002-.15.105-.15.31 0 .306-.278.201-.498.298-.22.097-.37.236-.37.815s.193 1.676 1.083 1.676c1.135.028 1.298-.798 1.84-.527.318.274.234.27 1.165.27.461.03.97.27 1.58 0 .258-.114.396-.44.589-.702.074-.1.202-.227.386-.383z"/>
                    </g>
                    <path fill="#5F5863" d="M1.45 21.654l29.756 17.162v1.822L1.45 23.52z" mask="url(#S)"/>
                    <path fill="#5B5761" d="M1.45 44.588l29.756 17.161v1.822L1.45 46.452z" mask="url(#S)"/>
                    <path fill="#52565E" d="M0 0l31.516 18.14a1 1 0 0 1 .501.867v63.27a1 1 0 0 1-1.5.865L.5 65.835a1 1 0 0 1-.5-.867V0zm2.951 2.446a1 1 0 0 0-1.5.866v61.743a1 1 0 0 0 .5.867l27.756 15.977a1 1 0 0 0 1.499-.867v-61.68a1 1 0 0 0-.5-.866L2.951 2.446z" mask="url(#S)"/>
                </g>
            </g>
            <g mask="url(#Q)">
                <g transform="translate(25.983 44.199)">
                    <ellipse cx="8.961" cy="26.146" fill="#857C99" rx="4.624" ry="1.999"/>
                    <path fill="#A799E7" d="M13.769 24.605c-.086 1.523-2.115 2.74-4.605 2.74-2.545 0-4.609-1.271-4.609-2.84 0-.022 0-.042.002-.063l-.379-7.011h10.364l-.767 7.174h-.006z"/>
                    <mask id="U" fill="#fff">
                        <use xlink:href="#T"/>
                    </mask>
                    <use fill="#6D5C95" xlink:href="#T"/>
                    <ellipse cx="9.36" cy="19.19" fill="#6D5049" mask="url(#U)" rx="5.182" ry="2.878"/>
                    <path stroke="#7AB251" d="M10.906 18.326s2.039-7.073 3.063-8.177M3.24 2.192s3.57 4.93 4.763 16.174"/>
                    <g transform="translate(13.865 8.522)">
                        <mask id="W" fill="#fff">
                            <use xlink:href="#V"/>
                        </mask>
                        <use fill="#7AB251" xlink:href="#V"/>
                        <path fill="#5A8A39" d="M.209 1.716l-.123-.022s.221-.53.536-.53c.263 0 .497-.014.533-.27.034-.233.279-.4.476-.325.075.028.283.036.404-.05.12-.086.25-.339.37-.282.208.098.234.697.234.697l-1.08.696-1.138.3-.212-.214z" mask="url(#W)"/>
                    </g>
                    <g transform="rotate(16 -29.512 53.66)">
                        <mask id="Y" fill="#fff">
                            <use xlink:href="#X"/>
                        </mask>
                        <use fill="#7AB251" xlink:href="#X"/>
                        <path fill="#5A8A39" d="M.186 1.801L.14 1.736s.168-.572.483-.572c.263 0 .497-.014.533-.27.034-.233.279-.4.476-.325.075.028.283.036.404-.05.12-.086.25-.339.37-.282.208.098.234.697.234.697l-1.08.696-1.138.3-.235-.129z" mask="url(#Y)"/>
                    </g>
                    <g transform="rotate(7 -93.307 109.133)">
                        <mask id="aa" fill="#fff">
                            <use xlink:href="#Z"/>
                        </mask>
                        <use fill="#7AB251" xlink:href="#Z"/>
                        <path fill="#5A8A39" d="M.186 1.801L.14 1.736s.168-.572.483-.572c.263 0 .497-.014.533-.27.034-.233.279-.4.476-.325.075.028.283.036.404-.05.12-.086.25-.339.37-.282.208.098.234.697.234.697l-1.08.696-1.138.3-.235-.129z" mask="url(#aa)"/>
                    </g>
                    <g transform="rotate(-1 859.659 -646.107)">
                        <mask id="ac" fill="#fff">
                            <use xlink:href="#ab"/>
                        </mask>
                        <use fill="#7AB251" xlink:href="#ab"/>
                        <path fill="#5A8A39" d="M.186 1.801L.14 1.736s.168-.572.483-.572c.263 0 .497-.014.533-.27.034-.233.279-.4.476-.325.075.028.283.036.404-.05.12-.086.25-.339.37-.282.208.098.234.697.234.697l-1.08.696-1.138.3-.235-.129z" mask="url(#ac)"/>
                    </g>
                    <g transform="scale(-1 1) rotate(-35 9.382 27.341)">
                        <mask id="ae" fill="#fff">
                            <use xlink:href="#ad"/>
                        </mask>
                        <use fill="#5A8A39" xlink:href="#ad"/>
                        <path fill="#7AB251" d="M.186 1.801L.14 1.736s.168-.572.483-.572c.263 0 .497-.014.533-.27.034-.233.279-.4.476-.325.075.028.283.036.404-.05.12-.086.25-.339.37-.282.208.098.234.697.234.697l-1.08.696-1.138.3-.235-.129z" mask="url(#ae)"/>
                    </g>
                    <g transform="scale(-1 1) rotate(-35 13.82 27.288)">
                        <mask id="ag" fill="#fff">
                            <use xlink:href="#af"/>
                        </mask>
                        <use fill="#5A8A39" xlink:href="#af"/>
                        <path fill="#7AB251" d="M.186 1.801L.14 1.736s.168-.572.483-.572c.263 0 .497-.014.533-.27.034-.233.279-.4.476-.325.075.028.283.036.404-.05.12-.086.25-.339.37-.282.208.098.234.697.234.697l-1.08.696-1.138.3-.235-.129z" mask="url(#ag)"/>
                    </g>
                    <g transform="scale(-1 1) rotate(-25 27.96 34.887)">
                        <mask id="ai" fill="#fff">
                            <use xlink:href="#ah"/>
                        </mask>
                        <use fill="#5A8A39" xlink:href="#ah"/>
                        <path fill="#7AB251" d="M.186 1.801L.14 1.736s.168-.572.483-.572c.263 0 .497-.014.533-.27.034-.233.279-.4.476-.325.075.028.283.036.404-.05.12-.086.25-.339.37-.282.208.098.234.697.234.697l-1.08.696-1.138.3-.235-.129z" mask="url(#ai)"/>
                    </g>
                    <g transform="matrix(-1 0 0 1 3.472 0)">
                        <mask id="ak" fill="#fff">
                            <use xlink:href="#aj"/>
                        </mask>
                        <use fill="#7AB251" xlink:href="#aj"/>
                        <path fill="#5A8A39" d="M.276 2.337l.075.044s.058-.796.482-.796c.354 0 .67-.019.719-.366.045-.319.375-.545.64-.444.101.038.381.05.545-.068.163-.118.336-.462.498-.385.281.134.317.95.317.95l-1.456.947-1.534.41-.286-.292z" mask="url(#ak)"/>
                    </g>
                    <g transform="scale(-1 1) rotate(13 -11.559 -16.219)">
                        <mask id="am" fill="#fff">
                            <use xlink:href="#al"/>
                        </mask>
                        <use fill="#5A8A39" xlink:href="#al"/>
                        <path fill="#7AB251" d="M.246 2.22l-.064-.08s.227-.705.651-.705c.354 0 .67-.017.719-.332.045-.288.375-.493.64-.401.101.034.381.044.545-.062.163-.107.336-.418.498-.348.281.12.317.86.317.86l-1.456.857-1.534.37-.316-.159z" mask="url(#am)"/>
                    </g>
                    <g transform="scale(-1 1) rotate(7 -42.613 -40.074)">
                        <mask id="ao" fill="#fff">
                            <use xlink:href="#an"/>
                        </mask>
                        <use fill="#5A8A39" xlink:href="#an"/>
                        <path fill="#7AB251" d="M.246 2.328l-.154-.07s.317-.754.741-.754c.354 0 .67-.018.719-.347.045-.303.375-.517.64-.421.101.036.381.046.545-.065.163-.112.336-.438.498-.365.281.127.317.9.317.9l-1.456.9-1.534.388-.316-.166z" mask="url(#ao)"/>
                    </g>
                    <g transform="scale(-1 1) rotate(-1 492.366 390.682)">
                        <mask id="aq" fill="#fff">
                            <use xlink:href="#ap"/>
                        </mask>
                        <use fill="#5A8A39" xlink:href="#ap"/>
                        <path fill="#7AB251" d="M.246 2.431L.09 2.362s.32-.79.743-.79c.354 0 .67-.02.719-.364.045-.316.375-.54.64-.44.101.038.381.049.545-.068.163-.116.336-.457.498-.38.281.132.317.94.317.94l-1.456.94-1.534.406-.316-.175z" mask="url(#aq)"/>
                    </g>
                    <g transform="rotate(-41 5.265 -2.678)">
                        <mask id="as" fill="#fff">
                            <use xlink:href="#ar"/>
                        </mask>
                        <use fill="#7AB251" xlink:href="#ar"/>
                        <path fill="#5A8A39" d="M.274 2.258l-.19-.092s.368-.707.828-.707c.384 0 .727-.017.78-.337.05-.293.408-.502.696-.408.11.035.414.045.591-.063.177-.109.366-.425.542-.354.305.123.343.874.343.874l-1.58.872-1.667.377-.343-.162z" mask="url(#as)"/>
                    </g>
                    <g transform="rotate(-35 11.36 -4.182)">
                        <mask id="au" fill="#fff">
                            <use xlink:href="#at"/>
                        </mask>
                        <use fill="#7AB251" xlink:href="#at"/>
                        <path fill="#5A8A39" d="M.263 2.206l-.03-.072s.204-.708.654-.708c.375 0 .71-.017.762-.33.048-.286.398-.49.68-.399.107.035.404.044.577-.061.173-.106.358-.415.53-.346.298.12.335.854.335.854l-1.544.853-1.629.368-.335-.159z" mask="url(#au)"/>
                    </g>
                    <g transform="rotate(-25 23.23 -8.38)">
                        <mask id="aw" fill="#fff">
                            <use xlink:href="#av"/>
                        </mask>
                        <use fill="#7AB251" xlink:href="#av"/>
                        <path fill="#5A8A39" d="M.44 2.144l-.338.019s.502-.778.926-.778c.354 0 .669-.016.718-.32.045-.278.375-.476.641-.387.1.033.38.042.544-.06.163-.103.337-.403.498-.336.281.117.317.83.317.83l-1.455.828-1.535.358-.316-.154z" mask="url(#aw)"/>
                    </g>
                    <g transform="scale(-1 1) rotate(-1 689.774 436.665)">
                        <mask id="ay" fill="#fff">
                            <use xlink:href="#ax"/>
                        </mask>
                        <use fill="#5A8A39" xlink:href="#ax"/>
                        <path fill="#7AB251" d="M.37 2.431L.042 2.39s.491-.818.916-.818c.353 0 .668-.018.718-.363.045-.316.375-.54.64-.44.101.038.382.049.545-.068.163-.116.336-.457.498-.38.281.132.317.94.317.94L2.22 2.2l-1.534.406L.37 2.43z" mask="url(#ay)"/>
                    </g>
                    <g transform="rotate(-25 31.92 -8.53)">
                        <mask id="aA" fill="#fff">
                            <use xlink:href="#az"/>
                        </mask>
                        <use fill="#7AB251" xlink:href="#az"/>
                        <path fill="#5A8A39" d="M.481 2.048l-.4-.027s.556-.697.961-.697c.338 0 .64-.016.687-.306.043-.266.358-.455.612-.37.096.031.364.04.52-.058.156-.098.322-.385.476-.32.269.11.303.792.303.792l-1.39.792-1.467.341-.302-.147z" mask="url(#aA)"/>
                    </g>
                </g>
            </g>
            <g mask="url(#Q)">
                <path fill="#E2E5EA" d="M85.125 33.238v36.487l21.55 12.29V45.557z"/>
                <path fill="#F8F8FA" d="M85.125 33.145l9.902-5.625 21.414 12.167-9.609 5.661z"/>
                <path stroke="#D9DAE3" stroke-linecap="round" d="M86.64 69.568v-35.32"/>
                <path stroke="#EEEEF4" stroke-linecap="round" d="M86.472 34.248l9.765-6.055"/>
                <path fill="#D5D5DE" d="M106.676 45.71l9.765-5.744V76.52l-9.765 5.832z"/>
                <path stroke="#EEEEF4" d="M115.094 39.293l-9.765 5.719"/>
                <path stroke="#D9DAE3" d="M105.232 44.676l-.143 35.993"/>
                <path fill="#C3BECA" d="M86.472 58.492l19.091 11.225v10.726L86.472 69.062z"/>
                <path fill="#D2CCD6" d="M86.472 69.062l9.119-5.192 9.972 5.847v10.726z"/>
                <path fill="#B2C1F2" d="M86.992 59.387l18.662 10.877-.09 9.831-18.572-11.047z"/>
                <path fill="#5E73CD" d="M86.992 59.387l.559-.261 18.103 10.615v.523zM95.17 65.7l1.49.948a.846.846 0 0 1 .391.714l.001.438a.3.3 0 0 1-.007.067.16.16 0 0 1-.032.07 1.097 1.097 0 0 1-.214.148c-.506-.27-1.272-.739-2.298-1.408l.06-1.1a.872.872 0 0 1 .61.124z"/>
                <path fill="#EFFFFF" d="M94.962 65.815l1.736 1.102a.3.3 0 0 1 .14.253v.429a.3.3 0 0 1-.46.254L94.64 66.76a.3.3 0 0 1-.14-.254v-.438a.3.3 0 0 1 .46-.253z"/>
                <path fill="#ECECF0" d="M94.721 65.993l1.828 1.123v.557l-1.828-1.179z"/>
                <g>
                    <path fill="#C3BECA" d="M86.472 46.538l19.091 11.225V68.49L86.472 57.108z"/>
                    <path fill="#D2CCD6" d="M86.472 57.108l9.119-5.192 9.972 5.847V68.49z"/>
                    <g>
                        <path fill="#B2C1F2" d="M86.992 47.433l18.662 10.877-.09 9.832-18.572-11.047z"/>
                        <path fill="#5E73CD" d="M86.992 47.433l.559-.261 18.103 10.615v.523zM95.17 53.747l1.49.947a.846.846 0 0 1 .391.714l.001.438a.3.3 0 0 1-.007.067.16.16 0 0 1-.032.071 1.097 1.097 0 0 1-.214.147c-.506-.27-1.272-.739-2.298-1.408l.06-1.1a.872.872 0 0 1 .61.124z"/>
                        <path fill="#EFFFFF" d="M94.962 53.861l1.736 1.102a.3.3 0 0 1 .14.254v.428a.3.3 0 0 1-.46.254l-1.737-1.093a.3.3 0 0 1-.14-.253v-.439a.3.3 0 0 1 .46-.253z"/>
                        <path fill="#ECECF0" d="M94.721 54.04l1.828 1.122v.557l-1.828-1.179z"/>
                    </g>
                </g>
                <g>
                    <path fill="#C3BECA" d="M86.472 34.584l19.091 11.225v10.727L86.472 45.154z"/>
                    <path fill="#D2CCD6" d="M86.472 45.154l9.119-5.192 9.972 5.847v10.727z"/>
                    <g>
                        <path fill="#B2C1F2" d="M86.992 35.48l18.662 10.876-.09 9.832L86.991 45.14z"/>
                        <path fill="#5E73CD" d="M86.992 35.48l.559-.262 18.103 10.616v.522zM95.17 41.793l1.49.947a.846.846 0 0 1 .391.714l.001.438a.3.3 0 0 1-.007.067.16.16 0 0 1-.032.071 1.097 1.097 0 0 1-.214.147c-.506-.27-1.272-.739-2.298-1.408l.06-1.1a.872.872 0 0 1 .61.124z"/>
                        <path fill="#EFFFFF" d="M94.962 41.907l1.736 1.103a.3.3 0 0 1 .14.253v.428a.3.3 0 0 1-.46.254l-1.737-1.092a.3.3 0 0 1-.14-.254v-.439a.3.3 0 0 1 .46-.253z"/>
                        <path fill="#ECECF0" d="M94.721 42.085l1.828 1.123v.557l-1.828-1.179z"/>
                    </g>
                </g>
            </g>
            <g mask="url(#Q)">
                <g transform="matrix(-1 0 0 1 47.091 12.509)">
                    <path fill="#2E2936" d="M.08.298L.786 0l7.717 4.384v11.68l-.746.384z"/>
                    <path fill="#5D535E" d="M.08.298v11.748l7.678 4.402V4.797z"/>
                    <mask id="aC" fill="#fff">
                        <use xlink:href="#aB"/>
                    </mask>
                    <use fill="#FCE7DB" xlink:href="#aB"/>
                    <path fill="#261E2B" stroke="#979797" d="M1.093 2.004v9.051l5.862 3.407.803.457-.382.617L.4 11.593V1.046l.694.345z" mask="url(#aC)"/>
                </g>
            </g>
            <g mask="url(#Q)">
                <g transform="matrix(-1 0 0 1 63.37 11.675)">
                    <path fill="#2E2936" d="M.08.298L.786 0l7.717 4.384v11.68l-.746.384z"/>
                    <path fill="#5D535E" d="M.08.298v11.748l7.678 4.402V4.797z"/>
                    <mask id="aE" fill="#fff">
                        <use xlink:href="#aD"/>
                    </mask>
                    <use fill="#D4CEE1" xlink:href="#aD"/>
                    <path fill="#261E2B" stroke="#979797" d="M1.093 2.004v9.051l5.862 3.407.803.457-.382.617L.4 11.593V1.046l.694.345z" mask="url(#aE)"/>
                </g>
            </g>
            <g mask="url(#Q)">
                <g transform="rotate(-119 29.598 -6.67)">
                    <path fill="#2E2936" d="M.08.298L.786 0l7.717 4.384v11.68l-.746.384z"/>
                    <path fill="#5D535E" d="M.08.298v11.748l7.678 4.402V4.797z"/>
                    <mask id="aG" fill="#fff">
                        <use xlink:href="#aF"/>
                    </mask>
                    <use fill="#E1EAE4" xlink:href="#aF"/>
                    <path fill="#261E2B" stroke="#979797" d="M1.093 2.004v9.051l5.862 3.407.803.457-.382.617L.4 11.593V1.046l.694.345z" mask="url(#aG)"/>
                </g>
            </g>
            <g mask="url(#Q)">
                <g transform="translate(92.974 18.972)">
                    <path fill="#E0CAFD" d="M1.992 13.767c.15 1.181.279 1.998.386 2.45.197.821.764 1.231 1.7 1.231 1.405 0 2.237-.256 2.404-1.23.11-.65.252-1.565.423-2.744l-.99-.39-2.777-.543-1.146 1.226z"/>
                    <path fill="#D1AAF4" stroke="#CCA3F1" d="M4.38 14.722c1.425 0 2.58-.732 2.58-1.636 0-.161.035-.684-.034-.832-.316-.676-1.376-.803-2.546-.803-1.232 0-2.323.187-2.579.92-.04.114 0 .593 0 .715 0 .904 1.155 1.636 2.58 1.636z"/>
                    <ellipse cx="4.376" cy="12.541" fill="#E0CAFD" rx="2.593" ry="1.636"/>
                    <ellipse cx="4.513" cy="12.405" fill="#552144" rx="2.183" ry="1.227"/>
                    <path fill="#3C7C07" d="M3.307 11.868c-.424-1.98-1.505-3.714-3.24-5.2.598 1.072 1.576 1.697 2.386 4.358.35 1.009.759 1.464 1.226 1.367l-.372-.525z"/>
                    <path fill="#548926" d="M4.629 3.272c.357 1.865.103 3.37-.762 4.516-.791 1.213-.355 2.005.46 3.76.542 1.17.073.915-1.409-.763-.51-1.45-.402-2.624.322-3.522.724-.899 1.187-2.229 1.389-3.991z"/>
                    <g transform="translate(1.51 .818)">
                        <mask id="aI" fill="#fff">
                            <use xlink:href="#aH"/>
                        </mask>
                        <use fill="#AAE183" xlink:href="#aH"/>
                        <path fill="#548A23" d="M.684 4.123c.413 1.941.62 3.549.62 4.823.104 1.306.777 2.29 2.02 2.953l-1.495.328-1.376-3.28.231-4.824z" mask="url(#aI)"/>
                    </g>
                    <path fill="#7DB24D" d="M4.143 12.541c-.244 0-.476-.751-.476-3.155C4.107 6.832 2.13 3.818 3.194 0c.068 1.334.221 3.273.72 4.532.5 1.259 1.132 2.871.759 4.854-.374 1.983.374 3.004-.53 3.155z"/>
                    <path fill="#3C7C07" d="M4.58 11.983c.295-2.013 1.273-3.826 2.935-5.44C6.98 7.66 6.03 8.356 5.39 11.08c-.286 1.035-.67 1.52-1.15 1.457l.34-.553z"/>
                    <path fill="#67A92F" d="M4.513 1.363C5.829 3.493 6.352 5.54 6.08 7.501c-.271 1.96-.331 3.451-.18 4.47-.013.346-.089.534-.227.567-.207.048-.484-.41-.484-1.024 0-.614.519-4.62.33-5.797-.041-1.12-.377-2.571-1.007-4.354z"/>
                </g>
            </g>
            <g mask="url(#Q)">
                <g transform="translate(100.151 35.485)">
                    <mask id="aK" fill="#fff">
                        <use xlink:href="#aJ"/>
                    </mask>
                    <use fill="#7D7384" xlink:href="#aJ"/>
                    <path fill="#FFFEFF" d="M4.09-.188l3.94.742c.137.281.1.616-.093.862L5.169 4.912a1 1 0 0 1-1.113.324L.72 4.076a1 1 0 0 1-.66-1.094l.017-.117L3.239.048a1 1 0 0 1 .85-.236z" mask="url(#aK)"/>
                </g>
                <path fill="#7D7384" d="M104.376 34.994L107.843 36a.4.4 0 0 1 .205.628l-2.621 3.411a1 1 0 0 1-1.121.336l-3.453-1.2a.5.5 0 0 1-.211-.802l2.703-3.078a1 1 0 0 1 1.03-.301z"/>
                <path fill="#C8C1CA" d="M103.944 36.626l.624-.695 2.276.557-.652.78z"/>
                <path fill="#462F4A" d="M103.72 40.922v-.28a1 1 0 0 1 .238-.647l3.636-4.287.365.101-3.607 4.317a1 1 0 0 0-.233.642v.289l-.398-.135z"/>
            </g>
            <g mask="url(#Q)">
                <g transform="translate(32.574 53.834)">
                    <path fill="#857C99" d="M12.345 37.176c-.075 2.712 1.816 5.326 5.675 7.84 5.789 3.77 16.295 5.403 22.477 4.783 6.183-.62 13.926-1.927 18.46-5.42 4.534-3.493 5.545-7.034 4.5-10.173-.696-2.093-1.91-3.413-3.641-3.96l-43.175 3.96-4.296 2.97z"/>
                    <mask id="aM" fill="#fff">
                        <use xlink:href="#aL"/>
                    </mask>
                    <use fill="#8670BB" xlink:href="#aL"/>
                    <path fill="#6D5C95" d="M10.827 34.533c6.677 8.013 15.946 11.61 27.807 10.794C56.426 44.1 62.513 27.77 62.513 22.737c.535 2.442.535 7.355 0 14.737l-10.14 9.782-14.927 4.358-21.084-4.358-4.727-7.754-.808-4.97z" mask="url(#aM)"/>
                    <path fill="#6D5C95" d="M10.827 33.463c.958-2.416 2.931-3.215 5.918-2.396 4.48 1.228 11.055 1.917 13.381 1.228 2.326-.69 5.471-.96 7.251-.185 1.78.773 7.948-7.243 7.948-9.373 0-2.13 1.449-7.507-4.417-9.026-3.91-1.013-8.276-1.153-13.097-.42l-9.018 2.221-8.695 13.507.729 4.444z" mask="url(#aM)"/>
                    <path fill="#FCC1C0" d="M8.438 24.604l-1.112 2.083c-.346.725-1.153 1.114-2.42 1.167-1.9.08-4.144-.042-4.054 1.228.09 1.269 6.514 1.616 6.827 1.736.314.12 1.358.033 1.552-1.306.129-.893.602-2.124 1.42-3.695l-2.213-1.213z"/>
                    <g transform="translate(7.79 11.606)">
                        <mask id="aO" fill="#fff">
                            <use xlink:href="#aN"/>
                        </mask>
                        <use fill="#3D3C4D" xlink:href="#aN"/>
                        <path fill="#5C4F66" d="M2.545 6.65c3.63-1.525 6.12-2.678 7.468-3.456 2.022-1.168 2.578-.408 2.578.152 0 .373 1.225 3.742 3.674 10.107.642 1.502 1.685 2.052 3.13 1.65 1.444-.4.4-5.148-3.13-14.24l-3.299-3.365-6.582 3.726-4.216 2.682c-2.257 1.13-3.571 1.89-3.944 2.276-.573.595-.752 1.89-.726 2.077.05.369 1.733-.167 5.047-1.608z" mask="url(#aO)" transform="matrix(-1 0 0 1 17.52 0)"/>
                    </g>
                    <path fill="#FCC1C0" d="M6.233 36.722l-.319 2.61c-.07.893-.743 1.619-2.02 2.179-1.918.84-4.267 1.61-3.674 2.894.592 1.284 7.316-.917 7.684-.917.369 0 1.406-.507 1.076-1.977-.22-.98-.22-2.45 0-4.41l-2.747-.379z"/>
                    <g transform="translate(5.911 20.97)">
                        <mask id="aQ" fill="#fff">
                            <use xlink:href="#aP"/>
                        </mask>
                        <use fill="#48475B" xlink:href="#aP"/>
                        <path fill="#5C4F66" d="M.498 7.287C5.284 6.624 7.99 6.04 8.615 5.533c.938-.76.563-2.756 2.187-2.756 1.624 0 10.6-2.798 10.6.856s.67 13.42 1.597 13.42c.618 0 1.137-.607 1.556-1.82l-.45-12.456-.701-3.14-2.608-.888-5.682 1.057-9.27.275-6.47-1.015v3.711l1.124 4.51z" mask="url(#aQ)" transform="matrix(-1 0 0 1 23.929 0)"/>
                    </g>
                    <path fill="#FCC1C0" d="M24.747 16.215c-.64-.469-1.506-.703-2.597-.703-1.637 0-.8.703.207.703.063.132.158.463.283.994l1.512.136c.495-.06.786-.171.873-.336.087-.165-.006-.43-.278-.794z"/>
                    <path fill="#C0B6C4" d="M40.336 14.952c-1.241-.512-3.699.269-7.373 2.343-.931.511-1.196.379-2.271 0s-5.945-1.08-5.945-1.08-.75 1.151-.75 1.971c0 .82 7.372 2.42 8.169 2.42.797 0 7.024-1.071 8.17-2.903.763-1.22.763-2.138 0-2.75z"/>
                    <g transform="translate(27.452 14.407)">
                        <mask id="aS" fill="#fff">
                            <use xlink:href="#aR"/>
                        </mask>
                        <use fill="#FFF" xlink:href="#aR"/>
                        <path fill="#C8BACC" d="M12.37 8.003l-3.487 4.544c-.15.173-.768.119-1.853-.16-1.086-.28-2.554-.577-4.406-.89l-1.127 1.558c-.24.406-.24.778 0 1.116.36.508 2.687 2.395 3.426 2.703.739.308 3.115 1.21 3.96-1.072.564-1.522 1.727-4.122 3.488-7.8z" mask="url(#aS)"/>
                    </g>
                    <g>
                        <g transform="translate(36.776 9.104)">
                            <mask id="aU" fill="#fff">
                                <use xlink:href="#aT"/>
                            </mask>
                            <use fill="#FCC1C0" xlink:href="#aT"/>
                            <path fill="#FCC1C0" d="M1.312.808c.507.627 1.085.976 1.735 1.048.974.109.05 1.672.512 2.384.462.711 1.22 1.936-.645 2.852-1.243.611-1.199 1.786.133 3.523l2.681-1.037 1.721-1.903-1.006-2.372.38-1.68-.858-1.23-1.2.21-.417-1.412L1.312.808z" mask="url(#aU)"/>
                        </g>
                        <path fill="#965757" d="M36.338 6.753c-.363 1.278.111 2.296 1.423 3.053 1.968 1.136 3.67.403 3.024 2.153-.3 1.695.615.88.87.44s1.852-.631 1.39 1.024c-.192.678-.604.43-.302 1.466.135.333 2.182-.687 2.774-2.195.593-1.509.415-2.982-.264-3.59-.68-.608-.625-1.513-1.358-1.999-1.485-.888-2.436-.16-3.56-.604-1.123-.445-2.05-1.438-3.448-.417-.25.154-.433.377-.549.669z"/>
                    </g>
                    <g>
                        <path fill="#B3BBCA" d="M20.117 11.187a.408.408 0 0 0-.03-.113c-.026-.04-.118-.009-.152.024-.017.015-.374 2.89-1.068 8.621l2.639 5.94c.102.06.153.01.153-.151 0-.16-.514-4.935-1.542-14.321z"/>
                        <path fill="#494978" d="M20.346 11.607l.906 2.01 1.407 3.124a1 1 0 0 1 .079.547l-1.024 7.415a.2.2 0 0 1-.38.056l-2.191-4.818a1 1 0 0 1-.083-.53l.905-7.745a.2.2 0 0 1 .381-.059z"/>
                        <path fill="#5F5FA9" d="M19.262 19.591l.898-8.119 2.45 5.5-1.09 7.656z"/>
                        <path fill="#C7C7D6" d="M21.598 25.332c-.042.25.007.414.146.493.14.078 2.532.83 7.176 2.255.23.04.37-.111.422-.454.05-.344-2.53-1.108-7.744-2.294z"/>
                        <path fill="#DEDDE6" d="M21.65 25.06c-.16.383.048.674.625.872.577.198 2.642.801 6.194 1.809.607.316.91.172.91-.433s.341-3.03 1.023-7.271c-.002-.377-.173-.614-.513-.713-.34-.099-2.59-.815-6.748-2.148-.202-.06-.327-.06-.377 0-.049.06-.42 2.688-1.114 7.883z"/>
                        <path fill="#48475B" d="M24.117 18.139l3.078.834a.3.3 0 0 1 .219.333l-1.007 6.846a.3.3 0 0 1-.39.241l-3.014-.983a.3.3 0 0 1-.204-.327l.943-6.696a.3.3 0 0 1 .375-.248z"/>
                        <path fill="url(#aV)" d="M30.71 11.022L9.623.059.196 23.697l5.07 10.206 23.9-8.684 2.544-5.55z" opacity=".5" transform="matrix(-1 0 0 1 50.749 .05)"/>
                    </g>
                    <g>
                        <path fill="#FCC1C0" d="M29.685 25.25c-2.195-1.336-3.593-1.78-4.192-1.336-.899.668.477 2.212 3.24 3.482 1.843.847 2.16.132.952-2.146z"/>
                        <path fill="#FFF" d="M39.804 22.406c-1.647 2.721-2.657 4.564-3.028 5.528-.92-.534-5.22-2.363-6.747-2.764-.836.164-1.268 1.085-1.295 2.764l6.363 3.528c2.03.955 3.41.955 4.142 0 1.097-1.432 4.987-5.402 4.987-10.306-.218-1.002-1.404-1.536-2.765-.723-.387.23-.94.889-1.657 1.973z"/>
                    </g>
                </g>
            </g>
            <g mask="url(#Q)">
                <g transform="translate(67.243 105.607)">
                    <mask id="aX" fill="#fff">
                        <use xlink:href="#aW"/>
                    </mask>
                    <use fill="#5E5FA1" xlink:href="#aW"/>
                    <path fill="#383A80" d="M.206 1.7c.307.835.64 1.419.999 1.753.894.917 2.195 1.277 3.1 2.5C5.21 7.176 6.356 8.27 8.097 8.27c1.741 0 2.332-1.624 2.306-2.318 0-.313.194.028.58 1.023l-.58 2.126H8.416l-2.16-.419-2.234-1.707-3.46-2.304-.689-2.248.333-.723z" mask="url(#aX)"/>
                </g>
                <path fill="#41438E" d="M70.062 109.949c-.033-.159-.078-1.42 1.56-2.685.986-.678 1.852-.647 2.289.158.156.311.183.689.131.893a.44.44 0 0 1-.295.265c-1.231.482-3.581 1.537-3.685 1.369z"/>
                <g transform="translate(60.163 110.937)">
                    <mask id="aZ" fill="#fff">
                        <use xlink:href="#aY"/>
                    </mask>
                    <use fill="#5E5FA1" xlink:href="#aY"/>
                    <path fill="#383A80" d="M-.18 1.547c.43 1.03 1.226 1.772 2.387 2.225 1.743.678 3.855.784 4.746 1.126 1.029.22 2.938 1.455 3.94 1.455 1.003 0 1.919.404 3.455-1.455 1.024-1.24.95-.4-.222 2.518l-3.233.645-7.077-2.357L-.179 4.45l-.645-3.447.645.544z" mask="url(#aZ)"/>
                </g>
                <path fill="#41438E" d="M66.126 115.387c.122-1.35.49-2.385 1.101-3.103.505-.562.99-.688 1.456-.378.36.59.237 1.142-.37 1.658-.605.516-1.335 1.124-2.187 1.823z"/>
            </g>
        </g>
    </g>
</svg>
