<svg xmlns="http://www.w3.org/2000/svg" xmlns:xlink="http://www.w3.org/1999/xlink" width="141" height="33" viewBox="0 0 141 33">
    <defs>
        <linearGradient id="a" x1="76.08%" x2="50%" y1="0%" y2="100%">
            <stop offset="0%" stop-color="#A677FB"/>
            <stop offset="100%" stop-color="#4286F5"/>
        </linearGradient>
        <path id="b" d="M0 32.382h140.836V.148H0z"/>
    </defs>
    <g fill="none" fill-rule="evenodd">
        <path fill="url(#a)" d="M0 21.412v-9.694l6.03 3.278v9.645L0 21.41zM8.218 6.909L17.796 0v17.07l-9.578 7.57V6.91z"/>
        <g>
            <mask id="c" fill="#fff">
                <use xlink:href="#b"/>
            </mask>
            <path fill="#4286F5" d="M25.392.148h7.778c.235.047.477.083.725.106.247.024.489.06.724.107.26.048.519.106.778.177l.778.213c.99.355 1.938.859 2.846 1.51.907.65 1.762 1.461 2.563 2.432a9.505 9.505 0 0 1 1.856 3.284c.412 1.243.619 2.61.619 4.1V12.54c0 .307-.024.668-.071 1.083-.048.414-.13.893-.248 1.437a9.578 9.578 0 0 1-.441 1.598c-.2.545-.442 1.101-.725 1.67a12.31 12.31 0 0 1-1.538 2.396c-.625.77-1.35 1.497-2.174 2.184-.825.686-1.803 1.207-2.934 1.562-1.132.355-2.417.544-3.854.568H30.13V21.7h1.944c0 .048.006.071.018.071h.335c.99 0 1.886-.147 2.687-.444a5.68 5.68 0 0 0 2.086-1.33 12.141 12.141 0 0 0 1.52-1.847 9.634 9.634 0 0 0 1.026-2.024c.047-.166.094-.325.141-.48.047-.153.094-.313.141-.479.047-.142.089-.29.124-.444a5.93 5.93 0 0 0 .089-.48c.047-.33.088-.638.123-.922.036-.284.053-.545.053-.781V12.308a.12.12 0 0 1 .036-.088V11.83a9.356 9.356 0 0 0-.584-3.072 9.555 9.555 0 0 0-1.643-2.787 6.635 6.635 0 0 0-2.758-2.006c-1.108-.438-2.428-.657-3.96-.657l-2.51-.071v21.8h-3.606V.148zM48.111 25.308h2.765V8.627h-2.765v16.681zm.1-21.454a1.03 1.03 0 0 1 .327-.417c.134-.1.28-.18.44-.24a1.4 1.4 0 0 1 .49-.088c.185 0 .352.025.503.076.151.05.302.135.453.252.15.118.264.257.34.417.075.16.112.35.112.568 0 .22-.037.413-.113.581-.075.169-.18.312-.314.43a1.535 1.535 0 0 1-.453.252 1.5 1.5 0 0 1-.477.076c-.168.016-.336 0-.503-.05a1.456 1.456 0 0 1-.478-.254.997.997 0 0 1-.327-.441 1.66 1.66 0 0 1-.1-.594v-.05c0-.185.033-.358.1-.518zM96.719 16.86c0 .15.01.304.034.465.023.16.051.316.086.465.034.15.062.304.085.464.114.506.297.999.549 1.481.251.482.56.942.925 1.377.389.437.87.758 1.44.965.572.206 1.246.31 2.023.31.732 0 1.418-.104 2.058-.31a5.594 5.594 0 0 0 1.748-.93c.526-.413.92-1.016 1.183-1.808.262-.792.394-1.762.394-2.91 0-.803-.114-1.532-.343-2.186a5.05 5.05 0 0 0-1.028-1.74 4.454 4.454 0 0 0-1.697-1.101c-.675-.252-1.446-.379-2.315-.379-.823 0-1.531.11-2.125.327a3.45 3.45 0 0 0-1.474 1.016 5.966 5.966 0 0 0-1.44 2.961l-.07.276a1.138 1.138 0 0 0-.033.275v.551-.068.499zm-2.606-3.909a7.511 7.511 0 0 1 1.92-2.651c.868-.758 1.788-1.326 2.76-1.704a8.37 8.37 0 0 1 3.068-.568h.309a.336.336 0 0 0 .154.034h.532a.335.335 0 0 0 .154.034h.154a9.172 9.172 0 0 1 2.623.81c.834.401 1.64.935 2.417 1.6.754.69 1.326 1.55 1.714 2.583.389 1.033.583 2.238.583 3.616v.275a.786.786 0 0 1-.034.241c0 .092-.006.185-.017.276a2.122 2.122 0 0 0-.017.275 9.183 9.183 0 0 1-.206 1.102 9.324 9.324 0 0 1-.943 2.359 9.995 9.995 0 0 1-1.628 2.118 5.924 5.924 0 0 1-2.297 1.48c-.892.322-1.886.482-2.983.482-1.555 0-2.897-.212-4.029-.637-1.131-.424-2.051-1.073-2.76-1.945a9.181 9.181 0 0 1-1.594-2.892c-.354-1.056-.532-2.193-.532-3.41v-.068c0-1.263.218-2.4.652-3.41zM59.037 28.995c.262.065.513.131.753.197.24.044.486.093.737.148.25.055.485.093.704.115h.196c.066 0 .142.01.23.033.065 0 .13.005.196.016.065.011.13.017.196.017h.197c.065 0 .13.01.196.033h.426c.785 0 1.5-.105 2.144-.312a5.163 5.163 0 0 0 1.72-.938 4.315 4.315 0 0 0 1.145-1.43 4.379 4.379 0 0 0 .426-1.792V24.85c-.022-.022-.033-.044-.033-.065v-7.399c0-.877-.126-1.672-.376-2.384a5.463 5.463 0 0 0-1.13-1.891c-.48-.548-1.01-.959-1.588-1.233a4.198 4.198 0 0 0-1.817-.411h-.164a.249.249 0 0 1-.098.033H62.639a5.695 5.695 0 0 0-1.687.526 6.654 6.654 0 0 0-1.555 1.085c-.48.46-.84 1.052-1.08 1.776-.24.723-.36 1.578-.36 2.565 0 .636.12 1.238.36 1.808.24.57.6 1.107 1.08 1.612.502.482 1.08.85 1.735 1.101.655.252 1.397.378 2.227.378h.507c.164 0 .322-.01.475-.032.175-.022.344-.05.508-.083.163-.033.321-.082.474-.148.153-.044.312-.093.475-.148.164-.054.322-.126.475-.213a4.644 4.644 0 0 0 .982-.658v3.025c-.262.22-.546.39-.851.51-.306.12-.622.224-.95.312-.327.066-.687.12-1.08.165-.393.043-.808.065-1.244.065-1.42-.065-2.642-.307-3.667-.723-1.027-.416-1.856-1.02-2.489-1.809a8.719 8.719 0 0 1-1.391-2.614 9.702 9.702 0 0 1-.475-3.075c0-1.096.136-2.076.41-2.943.272-.866.681-1.605 1.227-2.22a10.32 10.32 0 0 1 1.72-1.561 8.02 8.02 0 0 1 1.882-1.003c.262-.11.523-.198.785-.263a10.261 10.261 0 0 1 1.54-.263 8.356 8.356 0 0 1 3.634.493c.938.35 1.811.877 2.619 1.578.83.68 1.446 1.475 1.85 2.384.404.91.606 1.913.606 3.01v8.483c0 .132-.017.323-.05.576-.032.251-.081.553-.147.904a7.107 7.107 0 0 1-.295 1.118 9.045 9.045 0 0 1-.523 1.184 6.318 6.318 0 0 1-1.032 1.43 10.21 10.21 0 0 1-1.522 1.3c-.59.415-1.294.728-2.112.936-.819.209-1.763.313-2.832.313-.612 0-1.179-.022-1.703-.066a9.049 9.049 0 0 1-1.44-.23 9.038 9.038 0 0 1-.623-.148 21.25 21.25 0 0 0-.556-.148 33.54 33.54 0 0 0-.917-.329.26.26 0 0 0-.065-.049.142.142 0 0 0-.066-.017h-.033l-.032-.032.786-2.598c.283.087.556.164.818.23M75.572 24.644V25.292h2.766V8.611h-2.766zM89.257 8.688c-.369 0-.715.039-1.041.115-.326.076-.618.18-.879.31-.282.131-.526.273-.732.425a4.976 4.976 0 0 0-.57.49l-.195.197a1.32 1.32 0 0 0-.163.196c-.065.065-.114.12-.146.163a.319.319 0 0 1-.114.098V9.146h-2.832V25.292h2.825v-.455h.007V17.155c0-.196.01-.425.033-.687 0-.24.02-.49.065-.752.043-.26.108-.533.195-.817.108-.37.255-.735.44-1.095.184-.36.417-.703.7-1.03a3.85 3.85 0 0 1 1.106-.817c.433-.217.954-.38 1.562-.49h.781V8.623l-1.042.065zM75.673 3.854c.067-.16.176-.299.327-.416.134-.101.28-.181.44-.24.159-.06.323-.089.49-.089.184 0 .352.026.503.076.15.05.302.135.453.253.15.117.263.256.339.416.075.16.113.35.113.568 0 .22-.038.413-.113.581-.076.168-.18.312-.315.43a1.529 1.529 0 0 1-.452.252c-.15.05-.31.075-.478.075a1.28 1.28 0 0 1-.502-.05A1.455 1.455 0 0 1 76 5.458a1 1 0 0 1-.327-.442 1.658 1.658 0 0 1-.1-.594v-.05c0-.185.033-.358.1-.518M120.173 25.288h2.765V8.648h-2.765zM127.086 15.486c0-.898.156-1.745.47-2.543a7.378 7.378 0 0 1 1.408-2.24 6.454 6.454 0 0 1 2.28-1.532c.873-.348 1.867-.522 2.986-.522.178 0 .374.011.586.034.213.022.442.056.688.1.245.046.497.101.754.169.257.067.52.157.788.27.47.202.917.46 1.342.774.425.315.838.696 1.24 1.145.403.427.705.955.906 1.583.202.63.302 1.347.302 2.156v10.407h-3.186v-9.531a5.06 5.06 0 0 0-.218-1.465 4.963 4.963 0 0 0-.654-1.365 2.757 2.757 0 0 0-1.14-1.01c-.47-.224-1.029-.337-1.677-.337-.603 0-1.135.101-1.593.303a3.225 3.225 0 0 0-1.19.91 5.03 5.03 0 0 0-.788 1.297c-.19.46-.319.948-.386 1.465v9.733h-2.918v-9.8zM120.274 3.835a1.03 1.03 0 0 1 .326-.416c.134-.101.28-.181.44-.24.16-.06.323-.089.49-.089.185 0 .352.025.503.076.15.05.302.135.453.253.15.117.264.256.34.416.075.16.112.35.112.568 0 .22-.037.413-.113.581a1.24 1.24 0 0 1-.314.43 1.529 1.529 0 0 1-.453.252c-.15.05-.31.075-.477.075-.168.017-.336 0-.503-.05a1.456 1.456 0 0 1-.478-.252.998.998 0 0 1-.326-.442 1.653 1.653 0 0 1-.101-.594v-.05c0-.185.033-.358.1-.518M113.284 23.375c.066-.16.175-.299.326-.417.134-.1.28-.18.44-.24.16-.059.323-.088.49-.088.185 0 .353.025.503.076.151.05.302.135.453.252.15.118.264.257.34.417.075.16.112.35.112.568 0 .219-.037.413-.113.58-.075.17-.18.312-.314.43a1.529 1.529 0 0 1-.452.253 1.5 1.5 0 0 1-.478.075c-.168.017-.336 0-.503-.05a1.457 1.457 0 0 1-.478-.253.996.996 0 0 1-.326-.442 1.654 1.654 0 0 1-.1-.593v-.05c0-.185.032-.358.1-.518" mask="url(#c)"/>
        </g>
    </g>
</svg>
