<?xml version="1.0" encoding="utf-8"?>
<!-- Generator: Adobe Illustrator 22.1.0, SVG Export Plug-In . SVG Version: 6.00 Build 0)  -->
<svg version="1.1" id="Capa_1" xmlns="http://www.w3.org/2000/svg" xmlns:xlink="http://www.w3.org/1999/xlink" x="0px" y="0px"
	 viewBox="0 0 476.4 476.4" style="enable-background:new 0 0 476.4 476.4;" xml:space="preserve">
<style type="text/css">
	.st0{fill:#FFFFFF;}
</style>
<g>
	<path class="st0" d="M158.3,234.3L82.6,193c-1.6-0.9-3.5-0.7-4.9,0.4c-1.4,1.1-2,3-1.5,4.7l7.1,24.3l-67.5,0
		C7,222.5,0,229.5,0,238.2c0,8.7,7.1,15.7,15.7,15.7l67.5,0l-7,24.3c-0.5,1.7,0.1,3.6,1.5,4.7c1.4,1.1,3.3,1.3,4.9,0.4l75.7-41.3
		c1.4-0.8,2.3-2.3,2.3-3.9C160.6,236.6,159.8,235.1,158.3,234.3z"/>
	<path class="st0" d="M197.1,25.8c-8.7,0-15.7,7-15.7,15.7v393.4c0,8.7,7,15.7,15.7,15.7c8.7,0,15.7-7,15.7-15.7V41.5
		C212.8,32.8,205.8,25.8,197.1,25.8z"/>
	<path class="st0" d="M257,111.7h84.8c9.2,0,16.6-7.4,16.6-16.6V50.9c0-9.2-7.4-16.6-16.6-16.6H257c-9.2,0-16.6,7.4-16.6,16.6V95
		C240.4,104.2,247.8,111.7,257,111.7z"/>
	<path class="st0" d="M459.8,144.4H257c-9.2,0-16.6,7.4-16.6,16.6v44.1c0,9.2,7.4,16.6,16.6,16.6h202.8c9.2,0,16.6-7.4,16.6-16.6
		v-44.1C476.4,151.9,469,144.4,459.8,144.4z"/>
	<path class="st0" d="M257,332h134.6c9.2,0,16.6-7.4,16.6-16.6v-44.1c0-9.2-7.4-16.6-16.6-16.6H257c-9.2,0-16.6,7.4-16.6,16.6v44.1
		C240.4,324.5,247.8,332,257,332z"/>
	<path class="st0" d="M459.8,364.8H257c-9.2,0-16.6,7.4-16.6,16.6v44.1c0,9.2,7.4,16.6,16.6,16.6h202.8c9.2,0,16.6-7.4,16.6-16.6
		v-44.1C476.4,372.2,469,364.8,459.8,364.8z"/>
</g>
</svg>
