<svg xmlns="http://www.w3.org/2000/svg" xmlns:xlink="http://www.w3.org/1999/xlink" width="376" height="298" viewBox="0 0 376 298">
    <defs>
        <path id="a" d="M37.764.047l37.416 20.87v12.406a4 4 0 0 1-2.017 3.474L41.234 55.025a7 7 0 0 1-6.941 0L2.364 36.797a4 4 0 0 1-2.016-3.474V20.917L37.764.047z"/>
        <linearGradient id="c" x1="100%" x2="50%" y1="0%" y2="100%">
            <stop offset="0%" stop-color="#A677FB"/>
            <stop offset="100%" stop-color="#4286F5"/>
        </linearGradient>
        <linearGradient id="d" x1="50%" x2="50%" y1="28.443%" y2="123.766%">
            <stop offset="0%" stop-color="#77BBFB" stop-opacity="0"/>
            <stop offset="83.475%" stop-color="#6AA0F7" stop-opacity=".839"/>
            <stop offset="100%" stop-color="#4286F5"/>
        </linearGradient>
        <path id="e" d="M11.156 9.744c-2.682 5.746-4.179 9.016-4.49 9.809-.59 1.648-.668 3.993-.234 7.037l.486 5.131.187 3.574c-.952 1.798-2.359 2.432-4.22 1.903-.663-.15-1.285-1.211-1.865-3.187C.288 27.76.078 23.753.39 21.984c.313-1.769.64-3.1.981-3.995L6.13 9.32V6.021c0-1.202-.134-3.628.76-5.07.892-1.443 3.628-1.14 4.266 1.023.486 1.657 0 1.88 0 4.047.264-.2.74-.614 1.426-1.24.466-.426.856-.426 1.169 0 .312.427.13 1.05-.544 1.87l-1.031 1.11c-.342.335-.567.586-.676.753-.11.167-.224.577-.344 1.23z"/>
        <path id="g" d="M10.482.705c.503.367.601.298 1.558 1.04.957.74 3.836 2.626 5.114 3.238 1.694.7 4.769 2.807 6.05 4.41.58 1.121.473 3.225-.322 6.312-.535 5.517-1.084 9.564-1.647 12.141-.562 2.577-.463 6.48.296 11.707.697 5.19 1.045 9.607 1.045 13.252 0 5.467.137 9.243-.454 17.768-.394 5.684-.69 10.32-.887 13.908-.523.968-1.281 1.614-2.275 1.939-1.49.487-2.664-.09-3.708-1.312-.272-.331-.35-.373-.311-1.797.039-1.423.951-15.691 1.233-17.927.281-2.237.392-4.377-.42-7.35-.813-2.975-3.32-11.91-4.117-14.734-.175-1.13-.56-1.763-1.155-1.896-.219 7.144-.636 13.122-1.25 17.934a1007.86 1007.86 0 0 0-2.045 17.42c-.53 1.303-1.406 2.12-2.626 2.453-1.22.333-2.472-.357-3.757-2.07.312-4.814 1.136-11.673 2.472-20.578.247-1.8.878-4.13.439-5.955-.208-.865-.9-5.315-1.788-9.935C.939 35.54-.408 31.956.42 27.202 1.63 21.682 2.877 8.052 3.276 6.12c.398-1.931-.012-1.3.779-3.82C4.846-.22 8.988-.517 10.482.705z"/>
        <path id="i" d="M4.973 7.615c1.308 1.245 4.315 3.981 9.021 8.209l8.962-7.084c.819-.79 1.228-1.565 1.228-2.328 0-1.144-.129-2.113.663-2.584.528-.314.775.046.741 1.079.365-1.568 1.35-2.976 2.957-4.225.256-.348 1.247-.945 1.488 0 .24.946-2.351 1.884-2.351 3.455.669-.04 2.02.13 2.02 1.66 0 1.53.13 2.836-2.362 5.16-1.662 1.55-5.824 4.809-12.487 9.777-1.295 1.094-2.725.962-4.29-.395s-3.732-3.308-6.503-5.855C1.166 12.482-.17 10.568.051 8.74c.302-2.957 2.753-3.17 4.922-1.125z"/>
        <path id="k" d="M3.9 16.397c.043-.223.168-.484.376-.783.313-.448.377-.627.544-.954.353-.694.187-.939 0-1.053-2.303-1.08-3.181-2.004-3.754-3.44C.844 9.614.433 8.426.353 7.95c-.288-1.704 0-4.765 4.03-6.851 2.686-1.391 5.231-.84 7.635 1.655 1.754 1.997 2.631 4.57 2.631 7.72 0 4.725-.389 5.244-3.418 5.244-.95-.048-1.997-.243-2.204.199-.208.442-1.553 1.903-.246 2.496.708.32-1.872.665-3.676-.322-.785-.435-1.186-1-1.205-1.694z"/>
        <path id="l" d="M3.962 15.929c1.107.737 2.02.937 2.741.601 1.27-.564 1.38-1.316 1.237-2.096-.144-.78-.769-1.975.374-2.512 1.142-.538 2.214.22 2.453.764.24.544.863 1.34.724-.336-.14-1.675-.53-1.674 0-3.036s1.052-1.713 1.052-3.412c0-1.698.024-4.651-2.754-5.574-1.92.196-1.262 1.553-5.4 2.826C.648 4.434-.308 8.332.39 11.348c.261 1.206.775 2.235 1.542 3.086.249.228.342.196.475.276.132.114.314.321.585.545.208.2.531.425.97.674z"/>
        <path id="n" d="M2.962.074C.37 3.979-.514 7.979.308 12.072c1.234 6.14 2.467 5.631 2.467 14.47.085 2.513-2.032 3.298-.668 12.723.333 4.862.333 8.79 0 11.78-.958 1.96-1.197 3.47-.718 4.53.718 1.59 3.73 2.603 7.17-1.711s1.222-5.391 0-5.391h-1.24c.853-9.783 1.584-16.238 2.192-19.364.609-3.127.913-11.622.913-25.485L2.962.074z"/>
        <path id="p" d="M12.105 2.995c1.681 4.81 2.014 9.727.997 14.748-1.017 5.021-2.894 13.443-5.633 25.264-1.996 7.404-2.722 11.43-2.178 12.08.817.974 2.883 1.138 3.992 1.138 1.11 0 3.351.64 2.44 2.89-.91 2.25-6.162 1.684-8.336 2.522-4.192.486-3.31-2.22-3.31-4.174 0-1.954.506-4.03.892-5.384.386-1.356.085-7.55.647-15.937.673-6.066 2.235-7.662 1.77-12.539-1.416-8.958-3.714-11.948 0-20.608 2.302-3.993 5.208-3.993 8.719 0z"/>
        <path id="r" d="M7.515.075C5.65-.293 4.227.693 3.248 3.033 2.27 5.374 1.293 8.41.32 12.14c-.892 2.981.085 4.398 2.93 4.252 2.844-.147 6.482-.409 10.913-.786.067-2.128-.22-3.283-.865-3.466-2.734-.776-6.71 1.016-7.075 0-.057-1.786 2.948-5.627 3.388-9.107C9.57 1.363 8.872.376 7.515.075z"/>
        <path id="t" d="M12.972 2.64c2.661 4.766 2.378 8.032-.85 9.795-.528.793-.787 1.604-.777 2.433-.15.681.853 1.43 3.007 2.248 3.231 1.226 5.184 3.596 3.847 5.427-1.337 1.83-3.79 7.107-2.564 12.163.304 1.19.631 2.194.98 3.011-5.767 2.32-10.55 1.565-14.347-2.267.266-2.122.768-6.954-.587-10.35-1.356-3.395-3.245-10.95.587-11.808 3.121-.411 4.568 1.347 4.909-.207-.932-.524-5.662-.54-4.909-7.73.794-6.534 7.994-5.521 8.536-4.89.824.46 1.547 1.186 2.168 2.175z"/>
        <path id="v" d="M2.81.132C5.281 1.42 6.517 3.568 6.517 6.578c0 4.515.763 10.66 1.16 12.656.263 1.331.75 3.716 1.46 7.156.155.715.584 1.419 1.29 2.11.704.691.566.955-.417.792.563 1.195.47 2.404-.281 3.63-1.126 1.836-2.692.687-2.372-1.254.213-1.294-.212-2.913-1.275-4.856-1.953-4.145-3.138-7.301-3.554-9.47-.417-2.17-.906-5.286-1.467-9.348C-.124 4.422-.316 2.104.484 1.04 1.096.1 1.872-.203 2.81.132z"/>
        <path id="x" d="M19.058.522c-4.194-.134-6.49.717-6.886 2.555-.397 1.837-1.29 5.497-2.677 10.978-.74.253-1.707.048-2.9-.616-1.193-.663-2.152-.9-2.875-.71l-2.478-1.24c.064 1.588-.32 2.606-1.153 3.054.716.298 1.376.595 1.98.89-.132 1.082.21 1.887 1.025 2.416 1.223.793 4.41.884 6.48.884 2.068 0 2.814-.31 3.465-1.687.435-.919.87-1.965 1.307-3.14.481-.512.722-.207.722.914 0 1.12-.126 2.558-.379 4.312.946 1.638 2.97 2.52 6.072 2.648 3.102.127 5.391-.518 6.869-1.933-.185-3.22.581-6.118 2.298-8.695.206-.233.5-.239.861.336.242.384 1.413 1.894 3.516 4.531.273.315.18.657-.28 1.027-.688.553-3.42 1.73-3.863 3.501-.305.389-.827.8-1.567 1.233 1.045 1.285 1.567 2.16 1.567 2.625 0 .466.704.165 2.112-.902 1.782.5 3.096.214 3.94-.857 1.265-1.607 3.587-5.583 1.988-8.74-1.598-3.156-5.614-10.402-12.379-12.243-1.424-.404-3.679-.784-6.765-1.14z"/>
        <path id="z" d="M5.511 1.284c.143 1.43-.097 2.426-.72 2.989C3.358 5.977.017 7.183.017 10.436c-.323 3.001 3.968 2.056 4.774 1.488.806-.568 3.513-2.607 4.784-2.991 1.272-.384 2.109-1.383 2.109-2.88 0-1.5-.837-3.011-.837-4.587 0-1.05-1.779-1.111-5.336-.182z"/>
        <path id="B" d="M0 .82c.523 5.01.698 8.124.523 9.341-.261 1.826-.62 4.787 2.028 5.87 2.618.764 3.756-2.219 3.348-4.761-.408-2.543-.17-4.394-.408-5.988C5.253 3.687 5.473 0 3.66 0 2.45 0 1.23.273 0 .82z"/>
        <path id="D" d="M26.22 0c-2.798-.04-4.923 1.353-6.376 4.181-1.362 3.144-5.137 5.936-11.323 8.374-.924.214-1.758.08-2.503-.399-1.117-.72-2.406-1.57-2.667-.72-.26.852-5.093-1.16-2.677 2.3 1.611 2.307 4.578 3.026 8.9 2.156 7.172-1.822 11.34-3.54 12.5-5.153 1.862-2.436 5.093-5.052 5.093-9.23C27.119.727 26.804.224 26.22 0z"/>
        <path id="F" d="M7.414 2.985c-1.842 5.26-2.549 9.139-2.12 11.638.465 2.5 3.283 1.219 2.825 2.417.002.177-2.637.177-4.114.512-2.558.198-2.285 4.452-2.285 7.415 0 2.964-1.47 14.309-1.47 16.321 0 2.013-1.322 6.138 2.118 10.351 3.44 4.214 7.7 4.418 11.446 3.69 2.499-.484 5.379-2.272 8.641-5.364.565-2.178.712-8.287.442-18.327.15-10.951-1.252-11.022-3.233-12.34-1.32-.88-2.972-1.716-4.953-2.51.053-1.518.22-2.743.501-3.675.422-1.398.597-1.882 1.09-1.882.493 0 1.792-.394 1.792-1.863 0-1.47 1.46-2.948 0-5.675-.781-1.46-2.808-4.292-7.526-3.58-1.512.308-2.563 1.266-3.154 2.872z"/>
        <path id="H" d="M.389 5.806c1.79 6.432 2.686 10.813 2.686 13.143 0 3.496.227 14.05-1.016 15.328C.816 35.555.05 36.04.05 37.23c.218.712.888.537 2.01-.526-1.092 2.799-1.364 4.451-.819 4.956.82.758 4.408.085 4.865-2.172.457-2.258-.034-7.167.479-10.24.342-2.047.728-5.168 1.158-9.361.237-1.54.205-3.21-.094-5.009-.45-2.698-1.245-10.313-1.543-11.448C5.807 2.294 4.75-.523 2.4.085.156.76-.514 2.667.39 5.806z"/>
    </defs>
    <g fill="none" fill-rule="evenodd" transform="translate(-3)">
        <ellipse cx="83.964" cy="258.504" fill="#DDD" fill-opacity=".2" rx="30" ry="14" transform="matrix(-1 0 0 1 167.929 0)"/>
        <ellipse cx="316.964" cy="252.504" fill="#DDD" fill-opacity=".2" rx="30" ry="14" transform="matrix(-1 0 0 1 633.929 0)"/>
        <path fill="#DDD" fill-opacity=".2" d="M13 135.606C1.667 145.108.667 155.212 10 165.92c14 16.06 45.78 5.626 80.207-15.979 34.426-21.605 53.793-23.527 47.337-32.765-4.305-6.158-14.982-5.171-32.032 2.961l-43.26 15.47H13zM369.454 135.606c11.333 9.502 12.333 19.606 3 30.313-14 16.06-45.78 5.626-80.207-15.979-34.426-21.605-53.793-23.527-47.337-32.765 4.304-6.158 14.981-5.171 32.032 2.961l43.26 15.47h49.252z"/>
        <ellipse cx="252.964" cy="161.504" fill="#DDD" fill-opacity=".2" rx="30" ry="14" transform="matrix(-1 0 0 1 505.929 0)"/>
        <ellipse cx="114.964" cy="157.504" fill="#DDD" fill-opacity=".2" rx="30" ry="14" transform="matrix(-1 0 0 1 229.929 0)"/>
        <g fill-rule="nonzero" stroke="#78AEFC" stroke-width="2">
            <path d="M345.415 147.32l23.233 12.92-92.17 52.572-39.197-21.469 13.79-7.954-35.257-20.882-33.787 18.965"/>
            <path d="M255.596 165.293l34.27 19.074-53.876 33.259-18.743-10.597M305.218 249.439l-61.89 46.823-55.039-31.274-32.106 21.9-43.113-25.843 69.142-46.14"/>
            <path d="M77.874 248.77L57.42 237.266 35.1 250.354l77.053 42.073 77.513-51.374 42.2 24.315 33.479-24.059-55.04-30.35M117.249 158.87l52.95 28.374"/>
            <path d="M38.767 147.82L14 164.63l31.948 16.388-16.354 9.884 29.074 15.024 14.957-10.71 29.354-16.204 23.937 13.126-24.537 15.085 40.962 24.072 33.94-21.635"/>
        </g>
        <g transform="translate(153 96)">
            <path fill="#DDD" fill-opacity=".2" d="M37.668 80.719l37.393 20.823v12.373a4 4 0 0 1-2.019 3.475l-31.908 18.186a7 7 0 0 1-6.932 0L2.294 117.39a4 4 0 0 1-2.02-3.475V101.542L37.669 80.72z"/>
            <path fill="#7A73AA" fill-rule="nonzero" d="M37.668 72.719l37.393 20.823v12.373a4 4 0 0 1-2.019 3.475l-31.908 18.186a7 7 0 0 1-6.932 0L2.294 109.39a4 4 0 0 1-2.02-3.475V93.542L37.669 72.72z"/>
            <g transform="translate(0 69.009)">
                <mask id="b" fill="#fff">
                    <use xlink:href="#a"/>
                </mask>
                <path fill="#DDD6FF" fill-rule="nonzero" d="M37.764-.448l37.416 21.36-33.946 19.379a7 7 0 0 1-6.941 0L.348 20.912 37.764-.448z" mask="url(#b)"/>
            </g>
            <ellipse cx="37.393" cy="89.229" fill="#222" fill-opacity=".065" fill-rule="nonzero" rx="16.29" ry="6.493"/>
            <path fill="url(#c)" d="M19.427 69.17V46.341L33.6 54.06v22.712L19.427 69.17zm18.22-33.274l22.27-15.928v39.35l-22.27 17.455V35.896z"/>
            <path fill="url(#d)" fill-opacity=".7" fill-rule="nonzero" d="M38.831 0c12.804 0 25.036 6.68 36.696 20.039v69.978l-33.921 19.375a7 7 0 0 1-6.944 0L.74 90.017V20.039C13.33 6.679 26.027 0 38.831 0z"/>
        </g>
        <g fill-rule="nonzero">
            <path fill="#78AEFC" d="M369 46.856c-17.643 8.455-28.427 14.99-32.351 19.608-3.925 4.617-5.985 12.766-6.18 24.446l4.38-2.182v27.949l-11.725 6.432V161.7L369 136.232V46.856z"/>
            <path fill="#4E8DE8" d="M287.34 0l-33.223 24.027-5.545 20.19 5.545-2.943v30.873l-12.653 5.187 12.653 31.079 33.223-18.705z"/>
            <path fill="#767676" d="M313.047 98.322l-4.168 3.635-15.895-9.163v28.753l16.813 2.061c2.285-8.273 3.614-13.851 3.984-16.734.37-2.883.126-5.733-.734-8.552z"/>
            <path fill="#696969" d="M313.047 98.322l-4.168 3.635c3.965-.133 4.86 2.53 2.684 7.987-2.175 5.457-2.764 10.012-1.766 13.664 2.285-8.273 3.614-13.851 3.984-16.734.37-2.883.126-5.733-.734-8.552z"/>
            <path fill="#639FF6" d="M323.124 123.09l-80.599-45.78v39.533l80.599 44.857z"/>
            <path fill="#5C9AF3" d="M334.82 116.707l-79.914-44.579-12.386 5.22 80.604 45.82z"/>
            <g>
                <path fill="#FFB6C3" d="M291.073 71.165c-2.981 12.79-5.273 20.273-6.875 22.448-.71.965-2.968 1.653-2.968 3.155 0 1.5 2.133 3.668 3.572 2.96.958-.471 1.517-1.296 1.676-2.473.36-.228.624-.317.79-.267.578.177 1.063.756 1.43.517.788-.512-1.523-1.89-1.43-2.107 2.468-5.79 4.14-9.577 5.015-11.363 2.817-5.749 3.884-6.796 3.884-9.18 0-3.61-1.698-4.841-5.094-3.69z"/>
                <path fill="#FAA8B6" d="M291.073 71.165c.895 6.285 1.015 10.575.36 12.87-1.44 5.043-4.111 10.218-5.063 11.51-.05.068.246.817-.317 1.443-.278.31-.104.906-.358 1.312-.586.94-1.425 1.69-.893 1.428.958-.471 1.517-1.296 1.676-2.473.36-.228.624-.317.79-.267.578.177 1.063.756 1.43.517.788-.512-1.523-1.89-1.43-2.107 2.468-5.79 4.14-9.577 5.015-11.363 2.817-5.749 3.884-6.796 3.884-9.18 0-3.61-1.698-4.841-5.094-3.69z"/>
                <path fill="#565D98" d="M295.881 61.786c-6.31 9.018-7.784 14.294-4.42 15.828 5.047 2.302 4.706 2.657 4.706-2.76 0-3.61-.095-7.966-.286-13.068z"/>
                <g>
                    <path fill="#666DA5" d="M308.898 65.84c-4.778-4.998-11.177-7.634-14.747-2.149-2.38 3.658-2.925 13.478-1.636 29.462l15.986 8.983c2.61-1.554 3.976-2.916 4.096-4.087 1.407-13.711-.818-29.195-3.699-32.208z"/>
                    <path fill="#585F9A" d="M304.638 73.03c-2.65 16.116-2.294 24.941 1.07 26.475 1.61.735-.925-.665-1.07-2.737-.31-4.422-.31-12.819-.31-16.506 0-3.61.103-6.021.31-7.231z"/>
                </g>
                <g>
                    <path fill="#FFB6C3" d="M309.028 74.87a348.177 348.177 0 0 1-9.262 20.948c-.929 1.923-.929 3.53-2.232 4.417-.039.026-2.018-.663-2.41 0-.392.663 1.61.885 1.382 1.108-.9.879-1.74 2.38-1.748 2.542-.056 1.087 3.929 2.962 5.008 2.375.72-.39 1.304-1.82 1.752-4.29 6.739-10.612 10.108-17.724 10.108-21.334 0-3.611-.866-5.533-2.598-5.766z"/>
                    <path fill="#FAA8B6" d="M309.028 74.87c.688 5.522.461 9.86-.68 13.017-1.393 3.852-5.371 10.031-6.83 13.05-.366.76-.372 2.29-.798 3.285-.655 1.523-1.607 2.393-.954 2.038.72-.39 1.304-1.82 1.752-4.29 6.739-10.612 10.108-17.724 10.108-21.334 0-3.611-.866-5.533-2.598-5.766z"/>
                    <path fill="#666DA5" d="M308.791 67.864c-5.212 9.737-6.136 15.372-2.772 16.907 5.046 2.302 5.607 1.28 5.607-4.135 0-3.611-.945-7.868-2.835-12.772z"/>
                    <path fill="#585F9A" d="M308.791 67.864c1.599 8.278 2.147 13.244 1.645 14.898-.17.56-.175 1.794-.772 2.286-.77.635-5.482-1.115-3.645-.277 5.046 2.302 5.607 1.28 5.607-4.135 0-3.611-.945-7.868-2.835-12.772z"/>
                </g>
            </g>
            <g>
                <path fill="#78AEFC" d="M335.451 68.282c2.947-5.047 14.018-12.276 33.212-21.687L286.728 0c-20.377 10.943-31.878 18.89-34.504 23.84-2.625 4.949-3.8 11.82-3.524 20.61l81.889 46.562c.295-10.105 1.915-17.682 4.862-22.73z"/>
                <path fill="#FFF" d="M335.451 68.282c2.947-5.047 14.018-12.276 33.212-21.687l-10.95-6.266c-20.377 10.943-31.878 18.89-34.504 23.84-2.625 4.95-3.8 11.82-3.524 20.611l10.904 6.232c.295-10.105 1.915-17.682 4.862-22.73zm-21.36-12.091c2.946-5.048 14.017-12.277 33.21-21.687l-10.95-6.266c-20.376 10.943-31.877 18.889-34.503 23.839-2.625 4.95-3.8 11.82-3.524 20.611l10.904 6.232c.294-10.105 1.915-17.682 4.862-22.73zm-22.538-12.707c2.946-5.048 14.017-12.277 33.211-21.687l-10.95-6.266c-20.377 10.943-31.878 18.89-34.503 23.839-2.626 4.95-3.8 11.82-3.525 20.612l10.904 6.231c.295-10.105 1.916-17.682 4.863-22.73zm-22.538-12.707c2.947-5.048 14.017-12.277 33.211-21.687l-10.95-6.266c-20.376 10.943-31.878 18.89-34.503 23.839-2.625 4.95-3.8 11.82-3.525 20.612l10.98 6.004c.244-9.954 1.84-17.455 4.787-22.502z"/>
            </g>
        </g>
        <g fill-rule="nonzero">
            <path fill="#78AEFC" d="M13 47.775c17.643 8.387 28.427 14.87 32.351 19.45 3.925 4.58 5.985 12.664 6.18 24.251l-4.38-2.165v27.726l11.725 6.38V161.7L13 136.436v-88.66z"/>
            <path fill="#4E8DE8" d="M93.742 1.838l33.223 23.822 5.546 20.02-5.546-2.919v30.613l12.654 5.143-12.654 30.814-33.223-18.546z"/>
            <path fill="#767676" d="M68.915 98.322l3.995 3.635 15.233-9.163v28.753l-16.113 2.061c-2.19-8.273-3.463-13.851-3.818-16.734a21.013 21.013 0 0 1 .703-8.552z"/>
            <path fill="#696969" d="M68.915 98.322l3.995 3.635c-3.8-.133-4.657 2.53-2.573 7.987 2.085 5.457 2.649 10.012 1.693 13.664-2.19-8.273-3.463-13.851-3.818-16.734a21.013 21.013 0 0 1 .703-8.552z"/>
            <path fill="#639FF6" d="M58.876 123.43l80.599-45.258v39.138L58.876 161.7z"/>
            <path fill="#5C9AF3" d="M47.083 117.068l80.011-44.026 12.386 5.167-80.604 45.26z"/>
            <g>
                <path fill="#FFB6C3" d="M90.01 72.796c2.98 12.54 5.272 19.876 6.875 22.008.71.946 2.967 1.62 2.967 3.093 0 1.472-2.133 3.596-3.571 2.902-.959-.462-1.518-1.27-1.676-2.424-.361-.224-.625-.312-.79-.262-.578.173-1.064.741-1.431.507-.788-.503 1.523-1.854 1.43-2.066-2.467-5.676-4.14-9.39-5.015-11.14-2.817-5.636-3.884-6.663-3.884-9 0-3.54 1.698-4.746 5.094-3.618z"/>
                <path fill="#FAA8B6" d="M90.01 72.796c-.895 6.162-1.015 10.368-.36 12.617 1.44 4.944 4.11 10.018 5.063 11.286.05.065-.247.8.317 1.414.277.303.104.888.357 1.286.587.922 1.426 1.657.894 1.4-.959-.462-1.518-1.27-1.676-2.424-.361-.224-.625-.312-.79-.262-.578.173-1.064.741-1.431.507-.788-.503 1.523-1.854 1.43-2.066-2.467-5.676-4.14-9.39-5.015-11.14-2.817-5.636-3.884-6.663-3.884-9 0-3.54 1.698-4.746 5.094-3.618z"/>
                <path fill="#565D98" d="M85.201 63.6c6.311 8.842 7.784 14.014 4.42 15.519-5.046 2.256-4.706 2.605-4.706-2.705 0-3.54.096-7.811.286-12.813z"/>
                <g>
                    <path fill="#666DA5" d="M72.184 67.576c4.779-4.9 11.178-7.485 14.747-2.107 2.38 3.585 2.925 13.213 1.636 28.884l-15.985 8.807c-2.611-1.524-3.977-2.86-4.097-4.007-1.407-13.442.818-28.622 3.7-31.577z"/>
                    <path fill="#585F9A" d="M76.445 74.625c2.65 15.8 2.293 24.451-1.07 25.956-1.611.72.925-.652 1.07-2.684.309-4.335.31-12.567.31-16.182 0-3.54-.103-5.903-.31-7.09z"/>
                </g>
                <g>
                    <path fill="#FFB6C3" d="M72.054 76.428a337.983 337.983 0 0 0 9.262 20.538c.929 1.885.929 3.461 2.233 4.33.038.026 2.017-.65 2.41 0 .391.65-1.61.868-1.383 1.086.9.862 1.74 2.334 1.748 2.493.057 1.065-3.928 2.903-5.008 2.328-.72-.383-1.304-1.785-1.752-4.206C72.826 92.593 69.457 85.62 69.457 82.08c0-3.54.866-5.424 2.597-5.653z"/>
                    <path fill="#FAA8B6" d="M72.054 76.428c-.687 5.414-.46 9.668.68 12.762 1.393 3.777 5.372 9.835 6.83 12.795.367.745.372 2.245.799 3.22.654 1.493 1.606 2.346.953 1.998-.72-.383-1.304-1.785-1.752-4.206C72.826 92.593 69.457 85.62 69.457 82.08c0-3.54.866-5.424 2.597-5.653z"/>
                    <path fill="#666DA5" d="M72.291 69.56c5.213 9.546 6.137 15.07 2.773 16.575-5.047 2.257-5.607 1.256-5.607-4.054 0-3.54.945-7.714 2.834-12.522z"/>
                    <path fill="#585F9A" d="M72.291 69.56c-1.598 8.115-2.147 12.984-1.644 14.606.17.548.174 1.758.772 2.241.769.622 5.481-1.093 3.645-.272-5.047 2.257-5.607 1.256-5.607-4.054 0-3.54.945-7.714 2.834-12.522z"/>
                </g>
            </g>
            <g>
                <path fill="#78AEFC" d="M46.295 69.437c-2.925-4.997-13.912-12.154-32.96-21.47l81.314-46.13c20.223 10.834 31.637 18.701 34.242 23.601 2.606 4.9 3.772 11.702 3.498 20.406L51.12 91.939c-.292-10.004-1.9-17.505-4.825-22.502z"/>
                <path fill="#FFF" d="M46.295 69.437c-2.925-4.997-13.912-12.154-32.96-21.47l10.867-6.203c20.222 10.833 31.636 18.7 34.242 23.6 2.605 4.9 3.771 11.703 3.498 20.406L51.12 91.94c-.292-10.005-1.9-17.506-4.825-22.503zm21.199-11.97c-2.925-4.998-13.911-12.155-32.96-21.47L45.4 29.792c20.222 10.833 31.637 18.7 34.242 23.6 2.606 4.9 3.771 11.703 3.498 20.406L72.32 79.97c-.293-10.005-1.902-17.506-4.826-22.503zm22.367-12.58c-2.925-4.998-13.911-12.155-32.96-21.47l10.867-6.204c20.222 10.833 31.636 18.7 34.242 23.6 2.605 4.901 3.771 11.703 3.498 20.406l-10.821 6.17c-.293-10.005-1.902-17.505-4.826-22.503zm22.367-12.58c-2.925-4.998-13.912-12.154-32.96-21.47l10.867-6.204c20.222 10.834 31.636 18.7 34.242 23.6 2.605 4.901 3.771 11.703 3.498 20.406l-10.896 5.945c-.243-9.854-1.827-17.28-4.751-22.277z"/>
            </g>
        </g>
        <path fill="#C1C7D7" d="M234.465 154.67v1.461c.009.689.344 1.208 1.006 1.557.992.524 3.257.611 4.4-.753 1.537-2.209 4.019-4.682 3.54-6.923-.32-1.495-3.301.058-8.946 4.658z"/>
        <path fill="#E1E7EC" d="M234.855 152.142c-.524 1.552-.436 2.707.264 3.464 1.05 1.137 3.271 1.062 4.717 0 2.197-2.77 3.607-4.646 3.578-5.742-.013-1.255-.843-2.211-2.592-1.65-1.166.375-3.155 1.684-5.967 3.928z"/>
        <path fill="#C1C7D7" d="M248.244 164.488c-.454 1.392-.172 2.417.846 3.076 1.526.988 10.155 1.356 12.102.678 1.947-.678 2.312-1.224 2.312-2.304 0-.72-1.207-.936-3.622-.65l-9.383-1.77-2.255.97z"/>
        <path fill="#E1E7EC" d="M249.224 159.218c-.629.073-.943.447-.943 1.12v3.526c-.045.955.42 1.61 1.393 1.966 1.461.533 7.51 2.508 11.787 1.696 1.515-.311 2.551-1.077 1.754-2.37-.798-1.292-3.783-1.456-6.008-3.004-1.484-1.031-2.31-2.01-2.479-2.934h-5.504z"/>
        <path stroke="#63A0F6" stroke-linecap="round" stroke-linejoin="round" d="M253.99 162.742l1.84-1.77M255.373 163.79l1.632-1.766"/>
        <path stroke="#63A0F6" stroke-linecap="round" d="M256.843 164.68l1.387-1.982"/>
        <g transform="scale(1 -1) rotate(-12 -418.255 -1146.832)">
            <mask id="f" fill="#fff">
                <use xlink:href="#e"/>
            </mask>
            <use fill="#FFB6C3" xlink:href="#e"/>
            <path fill="#FFF" d="M14.132 29.062c-.296.991-.162 1.748.4 2.268.844.782 2.276 1.315 4.137.527 1.24-.525 4.731 1.96 10.473 7.455l2.46 2.564c-1.167 2.162-2.608 3.751-4.323 4.766-1.715 1.015-3.264 5.84-4.648 14.474-3.608 1.321-7.83.91-12.664-1.231-3.74-1.693-6.955-3.586-9.648-5.679l3.079-20.61.948-6.704 2.348-5.748c3.476.976 5.648 1.995 6.516 3.058.868 1.063.871 1.972.01 2.727l.912 2.133z" mask="url(#f)" transform="rotate(-21 15.96 41.508)"/>
            <path fill="#BA95CF" d="M.292 32.69c.484-1.245 1.044-1.785 1.679-1.62.879-.41 1.143-1.722.793-3.933-1.765.68-2.74 1.462-2.929 2.348-.188.885-.036 1.953.457 3.205zM1.108 34.898l.561-1.393.897 2.489-1.56-.62z" mask="url(#f)"/>
        </g>
        <g transform="translate(234.124 75.338)">
            <mask id="h" fill="#fff">
                <use xlink:href="#g"/>
            </mask>
            <use fill="#F5D3BB" xlink:href="#g"/>
            <path fill="#6B72AB" d="M-.587 25.486l9.397 6.872 6.666 1.664 6.763-1.664L24.37 62.6 22.24 85.418l-2.487 2.39-14.24-2.39-6.1-8.489L2.31 51.151l-2.896-20.01z" mask="url(#h)"/>
            <path fill="#4C5389" d="M10.469 41.37H9.91c-.145 7.488-.317 12.565-.517 15.23.527.126 1.365-3.464 2.514-10.77l-1.44-4.46z" mask="url(#h)"/>
            <path fill="#FFF" d="M12.836 1.728c-.281 1.006-.159 1.771.369 2.296.791.788 2.568 1.758 4.321.952 1.17-.537 4.302 1.82 9.398 7.073l2.305 2.587c-1.105 2.196-2.466 3.812-4.083 4.848s-3.007 5.969-4.168 14.8c-3.57 1.277-7.625.84-12.167-1.31-3.511-1.698-6.53-3.602-9.057-5.712L2.721 6.368 3.636-.43l2.23-5.833c3.266.973 5.307 1.996 6.12 3.07.812 1.073.812 1.994 0 2.763l.85 2.157z" mask="url(#h)"/>
            <path fill="#BA95CF" d="M11.747 1.258c-.29 1.358.262 2.478 1.658 3.36 1.396.88 3.24 1.116 5.535.706l-7.193-4.066z" mask="url(#h)"/>
            <path fill="#BA95CF" d="M9.514-.135c.262 2.252.706 3.781 1.332 4.589 2.358 3.042 6.487 3.94 9.944 2.45 7.245-.535 8.09.24 2.532 2.327-4.007.898-7.794.449-11.362-1.346C9.741 6.41 8.13 3.738 7.123-.135h2.39z" mask="url(#h)"/>
            <path fill="#BA95CF" d="M5.314.423C6.522 5.907 9.191 9.34 13.32 10.721c4.287 1.198 8.288 1.198 12.005 0l2.151 1.972c-5.999 2.549-11.393 2.702-16.183.458-4.79-2.244-7.452-6.17-7.988-11.781l2.01-.947z" mask="url(#h)"/>
            <path fill="#BA95CF" d="M2.742 5.501c-.42 1.529-.266 2.533.46 3.015 1.223 2.467 3.071 4.328 5.306 5.714 3.565 2.212 8.298 3.084 14.44 2.282 1.32 1.375 1.583 2.42.788 3.137-6.597.736-12.363-.46-17.297-3.59-3.388-2.874-3.544-3.713-3.697-4.867-.853-.83-1.176-1.721-.97-2.676l.97-3.015z" mask="url(#h)"/>
            <path fill="#222" d="M22.882 16.118l-.61-.444c-1.01 8.582-1.627 13.297-1.856 14.145-.228.848-.144 2.372.25 4.571l.476-.144 1.745-13.334-.005-4.794z" mask="url(#h)" opacity=".2"/>
            <path fill="#BA95CF" d="M1.957 15.255c6.82 6.637 13.805 8.85 20.955 6.637-.324 2.047-.573 3.274-.746 3.682-9.362 1.125-16.297-1.192-20.803-6.95s-4.308-6.881.594-3.369z" mask="url(#h)"/>
            <path fill="#BA95CF" d="M.757 22.109c8.196 6.273 15.314 7.967 21.356 5.082 6.041-2.886 6.041-1.551 0 4.004-8.07 2.3-15.397.398-21.979-5.702-6.582-6.1-6.374-7.229.623-3.384z" mask="url(#h)"/>
        </g>
        <g transform="translate(253.392 77.3)">
            <mask id="j" fill="#fff">
                <use xlink:href="#i"/>
            </mask>
            <use fill="#FFB6C3" xlink:href="#i"/>
            <path fill="#FFF" d="M-6.519-.123c-.296.962-.167 1.694.387 2.197.832.753 2.244 1.264 4.086.493 1.228-.514 4.67 1.88 10.324 7.18l2.421 2.474c-1.16 2.1-2.59 3.646-4.288 4.636-1.699.991-3.247 5.672-4.645 14.043-3.572 1.295-7.742.914-12.512-1.141-3.689-1.625-6.86-3.446-9.514-5.463l3.117-19.982.961-6.5 2.341-5.578c3.432.931 5.575 1.91 6.429 2.936.854 1.026.854 1.907 0 2.643l.893 2.062z" mask="url(#j)"/>
            <path fill="#BA95CF" d="M3.735 14.429c2.845-1.316 4.268-3.047 4.268-5.192s.69-1.382 2.067 2.288c-1.34 2.605-3.22 4.316-5.64 5.132-2.422.817-2.653.074-.695-2.228zM-14.2-1.087c1.264 5.268 4.056 8.566 8.378 9.894 5.715 1.969 9.724.798 12.028-3.51l1.947 2c-3.162 5.71-8.527 6.99-16.097 3.844-5.012-2.156-7.798-5.928-8.359-11.319l2.102-.909z" mask="url(#j)"/>
            <path fill="#BA95CF" d="M.05 7.834c1.594-.158 2.92-.696 3.975-1.613 1.056-.917-.08-1.131-3.407-.642L.049 7.834z" mask="url(#j)"/>
        </g>
        <g>
            <use fill="#FFB6C3" transform="translate(241.897 61.811)" xlink:href="#k"/>
            <path fill="#FE86A0" d="M256.165 68.935c.547.765.884 1.437 1.011 2.016a.849.849 0 0 1-.658.389c-.02-.326-.054-.66-.101-1.004a14.944 14.944 0 0 0-.252-1.4z"/>
            <g transform="translate(241.464 58.8)">
                <mask id="m" fill="#fff">
                    <use xlink:href="#l"/>
                </mask>
                <use fill="#572243" opacity=".403" xlink:href="#l"/>
                <path fill="#81656A" d="M1.861 14.431c1.457.955 3.562.33 6.315-1.877.702-.506 1.972.273 3.809 2.335l1.78-10.627-3.259-4.508L.092 2.629l-1.972 8.34 3.741 3.462z" mask="url(#m)"/>
            </g>
        </g>
        <g>
            <g transform="matrix(-1 0 0 1 123.103 101.063)">
                <mask id="o" fill="#fff">
                    <use xlink:href="#n"/>
                </mask>
                <use fill="#FAABBA" fill-rule="nonzero" xlink:href="#n"/>
                <path fill="#4269B8" fill-opacity=".808" fill-rule="nonzero" d="M1.407 49.985c.624 1.466 1.841 2.023 3.652 1.673 1.811-.35 2.711-1.377 2.702-3.08l2.817-2.736 1.912 5.367-4.73 8.708-6.818-1.822-3.186-4.232 3.651-3.878z" mask="url(#o)"/>
                <path fill="#B2A9DC" fill-rule="nonzero" d="M16.144-19.349c-6.83 1.239-9.509.234-8.037-3.015-3.211-.963-5.811-1.152-7.8-.568l-.635 7.38L1.47-8.167l.844 3.554L1.47.217-.328 5.094l-3.411 6.543 5.21 12.182c.674 2.35 2.886 4.176 6.636 5.48 3.75 1.303 7.596.703 11.538-1.8l3.326-17.23v-25.82l-6.827-3.797z" mask="url(#o)"/>
            </g>
            <g transform="matrix(-1 0 0 1 118.515 99.225)">
                <mask id="q" fill="#fff">
                    <use xlink:href="#p"/>
                </mask>
                <use fill="#FFB6C3" fill-rule="nonzero" xlink:href="#p"/>
                <path fill="#4A75CD" fill-opacity=".808" fill-rule="nonzero" d="M-.205 52.588c.034 1.619.961 2.54 2.782 2.764 1.82.224 3.383-1.545 4.687-5.309l4.6 5.31 2.564 3.49-5.522 3.775H.71l-2.135-1.638.666-6.05.555-2.342z" mask="url(#q)"/>
                <path fill="#B2A9DC" fill-rule="nonzero" d="M9.689-18.96c-6.512 1.258-9.067.237-7.664-3.064-3.062-.977-5.541-1.17-7.437-.577l-.606 7.498 1.715 7.502.804 3.61-.804 4.907-1.715 4.953-3.252 6.646 4.967 12.375c.643 2.387 2.752 4.242 6.328 5.566 3.576 1.324 7.243.715 11.002-1.828l3.172-17.503v-26.228l-6.51-3.857z" mask="url(#q)"/>
            </g>
            <g transform="matrix(-1 0 0 1 127.69 79.013)">
                <mask id="s" fill="#fff">
                    <use xlink:href="#r"/>
                </mask>
                <use fill="#FFB6C3" fill-rule="nonzero" xlink:href="#r"/>
                <path fill="#B2A9DC" fill-rule="nonzero" d="M0 6.788c2.011 2.817 4.69 4.226 8.035 4.226 3.345 0 3.849-3.9 1.511-11.7H3.678L0 6.788z" mask="url(#s)"/>
            </g>
            <g transform="matrix(-1 0 0 1 122.186 66.15)">
                <mask id="u" fill="#fff">
                    <use xlink:href="#t"/>
                </mask>
                <use fill="#FFB6C3" fill-rule="nonzero" xlink:href="#t"/>
                <path fill="#B2A9DC" fill-rule="nonzero" d="M14.23 16.032c-6.313 1.224-8.789.231-7.429-2.978-2.968-.951-5.37-1.138-7.209-.562l-.586 7.29 1.662 7.296.78 3.51-.78 4.773-1.662 4.816-3.153 6.463L.668 58.673C1.29 60.994 3.335 62.8 6.8 64.086c3.466 1.288 7.02.695 10.664-1.777l3.074-17.02V19.782l-6.31-3.75z" mask="url(#u)"/>
            </g>
            <g transform="matrix(-1 0 0 1 109.34 83.606)">
                <mask id="w" fill="#fff">
                    <use xlink:href="#v"/>
                </mask>
                <use fill="#FFB6C3" fill-rule="nonzero" xlink:href="#v"/>
                <path fill="#B2A9DC" fill-rule="nonzero" d="M.332 10.777c2.246 1.406 4.537 1.044 6.876-1.086 2.339-2.13 1.736-6.05-1.807-11.759l-4.493.671L-1.424.822l1.756 9.955z" mask="url(#w)"/>
            </g>
            <path fill="#6B3E5A" fill-rule="nonzero" d="M111.031 69.51c-1.031-2.423-1.031-4.203 0-5.338 1.547-1.702 3.977-2.525 5.583-.533 1.605 1.991 3.733.17 6.015 3.27 2.281 3.099.62 5.947 1.405 9.668 1.329 3.304 1.903 6.163-3.455 6.45-2.202.496-7.892 2.06-6.981-3.564-.184-1.219-.489-3.861.702-5.096 1.19-1.234.121-2.395-.702-2.191-.824.203-1.741.627-1.741-.328 0-.638-.275-1.417-.826-2.337z"/>
        </g>
        <g>
            <path fill="#81656A" fill-rule="nonzero" d="M316.246 165.36c.244.277.365.592.365.945 0 .529.264 1.956 1.771 1.242 1.005-.475.748-1.332-.769-2.568l-1.367.381z"/>
            <path fill="#888" d="M315.555 252.85c-.393 1.261-.149 2.19.73 2.786 1.32.895 8.782 1.228 10.465.614 1.683-.614 2-1.108 2-2.086 0-.652-1.045-.848-3.132-.588l-8.114-1.604-1.95.879z"/>
            <path fill="#DDD" d="M316.402 248.079c-.544.066-.816.404-.816 1.015v3.192c-.038.865.363 1.458 1.205 1.78 1.264.482 6.494 2.27 10.192 1.535 1.31-.281 2.206-.974 1.516-2.145-.69-1.17-3.27-1.32-5.195-2.72-1.282-.934-1.997-1.82-2.143-2.657h-4.759z"/>
            <path fill="#888" d="M300.706 241.643c-1.152.436-1.67 1.164-1.557 2.185.172 1.532 4.55 7.429 6.035 8.357 1.484.928 2.036.88 2.741.31.47-.381-.034-1.293-1.514-2.737l-3.865-7.139-1.84-.976z"/>
            <path fill="#DDD" d="M304.671 239.504c-.384-.377-.797-.387-1.237-.031l-2.302 1.864c-.647.475-.826 1.129-.537 1.96.434 1.248 2.381 6.29 5.2 8.687 1.014.837 2.069 1.117 2.486-.094.417-1.21-1.073-3.27-1.254-5.559-.12-1.526.076-2.589.59-3.19l-2.946-3.637z"/>
            <path fill="#D083AF" fill-rule="nonzero" d="M327.823 188.453c2.43 2.531 3.325 6.713 2.686 12.544-.639 5.832-1.681 12.48-3.127 19.947L310.89 247.83c-4.997-1.525-7.803-4.533-8.416-9.025 4.124-2.574 9.25-3.38 14.678-16.554 3.618-8.783 4.32-19.532 2.108-32.248l8.563-1.551z"/>
            <path fill="#D58EB6" fill-rule="nonzero" d="M315.136 188.858c-2.315 4.014-2.942 9.5-1.88 16.46 1.593 10.44-.83 31.903-3.484 44.087 1.967 1.47 10.313 2.077 15.754-1.174-.902-4.768-4.844-36.164-3.353-45.843.045-.01 2.797-1.028 4.693-5.419.54-1.249.923-3.915 1.152-7.998l-12.882-.113z"/>
            <path fill="#FFB6C2" fill-rule="nonzero" d="M312.929 190.324c.805.27 1.423.27 1.853 0 .644-.405 1.265-.732 1.496-.42.23.311-.185.702-.38.821-.195.12-.38.548 0 .706.253.105.556.293.908.563.352.321.352.773 0 1.356-.528.875-.51 2.04-2.193 1.953-1.684-.086-1.865-1.934-1.865-2.419.006-.446-.285-.795-.875-1.044-.369-.232-.369-.64 0-1.225.284-.427.636-.524 1.056-.29z"/>
            <g fill-rule="nonzero">
                <path fill="#F5A4B1" d="M343.399 180.734c.868.123 1.395.011 1.582-.336.28-.52.723-.368.79-.053.067.315-.252.948-1.19 1.239-.627.193-1.02-.09-1.182-.85z"/>
                <path fill="#FFB6C2" d="M340.69 181.864c1.205-1.005 2.19-1.475 2.953-1.41.373.07 1.131.536 2.275 1.4.15-.596.388-.76.715-.493.184.173.371.797.561 1.872-.021.634-.317.787-.885.458-.853-.493-2.832-1.663-3.487-1.351-.438.207-.936.527-1.495.957-.324.151-.599-.003-.825-.464-.226-.461-.164-.784.188-.97z"/>
            </g>
            <g transform="matrix(-1 0 0 1 342.614 169.508)">
                <mask id="y" fill="#fff">
                    <use xlink:href="#x"/>
                </mask>
                <use fill="#C3709F" fill-rule="nonzero" xlink:href="#x"/>
                <path fill="#B36892" fill-rule="nonzero" d="M14.478 5.27a14.594 14.594 0 0 1-1.865 3.823c-1.2 1.75.004 4.32 1.462 4.935.972.41 1.227.957.764 1.64 2-.574 3.748-.388 5.243.558 2.243 1.419 3.982 1.536 5.332 1.18.9-.238 1.707-.001 2.421.71 4.942-1.656 7.795-2.385 8.559-2.187-1.05-.74-6.701-3.16-6.701-5.416-1.178.926-1.516.566-3.87 4.085-2.354 3.518-5.845-1.424-9.953-.997-3.741.151-3.179-4.311-2.372-4.901.461-.653.788-1.796.98-3.43z" mask="url(#y)"/>
            </g>
            <g fill-rule="nonzero">
                <path fill="#4286F5" d="M348.566 180.878c.498-.33.568-.766.208-1.305-.345-.375-.758-.91-1.239-1.607-.116-.22-.3-.22-.553 0-.252.22-1.863 1.482-4.831 3.785-.268.35-.304.735-.108 1.155.196.42.574 1.031 1.135 1.835.166.399.445.399.839 0 .393-.399 1.91-1.686 4.549-3.863z"/>
                <path fill="#FFF" d="M348.448 179.956l-1.223-1.704-4.364 3.448 1.155 2.018z"/>
            </g>
            <path fill="#F5A4B1" fill-rule="nonzero" d="M323.138 168.524l.236 2.29c-.043 1.4-.928 1.792-2.654 1.174-1.571-.674-2.511-2.73-2.82-6.166l5.238 2.702z"/>
            <path fill="#B36892" fill-rule="nonzero" d="M318.9 169.454c1.58 1.213 3.088 1.406 4.522.578.17-.338.113-.581-.171-.73l.243-.716c.627.09.99.379 1.089.868.02.496.02 1.246 0 2.251-.152 1.178-.752 1.882-1.799 2.113-1.57.347-3.975.864-5.408-1.597-.15-.494-.077-1.338.22-2.532l1.305-.235z"/>
            <path fill="#FFB6C2" fill-rule="nonzero" d="M326.261 158.299c.715.88 1.073 2.069 1.073 3.568 0 2.25.536 3.51 0 4.86-.537 1.35-1.237 3.724-5.2 2.537-2.328-.76-3.841-1.874-4.54-3.344-.222-.329-.512-.493-.868-.493-.535 0-2.715-.414-1.625-2.196.473-.634 1.213-.709 2.22-.224-1.252-.431-1.596-1.432-1.03-3.001.41-1.143 2.31-3.43 5.611-3.301 1.904-.13 3.357.401 4.36 1.594z"/>
            <path fill="#81656A" fill-rule="nonzero" d="M326.044 158.244c-.052 2.41-1.58 3.4-4.584 2.965-.043.718-1.08 2.321-2.771 1.16a34.823 34.823 0 0 1-.357 2.062c-.476-1.109-1.083-1.607-1.82-1.495-1.002.312-.816 1.417-.816 1.78s-2.605-.895-1.906-2.347c.06-.474-2.27-1.721-.785-5.025.592-1.052 1.59-1.505 2.997-1.358.7-2.512 2.348-3.538 4.943-3.08.962.285 1.653.877 2.074 1.778 1.249-.756 2.185-.431 2.81.974 1.112.227 3.49 2.466 1.282 4.589-.295.033-.651-.635-1.067-2.003z"/>
        </g>
        <g transform="translate(48 147)">
            <g transform="translate(22.711 97.846)">
                <mask id="A" fill="#fff">
                    <use xlink:href="#z"/>
                </mask>
                <use fill="#365A89" fill-rule="nonzero" xlink:href="#z"/>
                <path fill="#BCBCBC" fill-rule="nonzero" d="M-.738 9.187c1.225 1.441 2.506 2 3.842 1.678 2.003-.484 3.901-2.794 4.99-3.198 1.09-.404 3.876-1.265 3.876-2.705 0-.96.08-.194.24 2.301l-2.82 3.602-5.43 1.465-3.437.334-1.261-1.799V9.187z" mask="url(#A)"/>
            </g>
            <g transform="translate(39.972 103.385)">
                <mask id="C" fill="#fff">
                    <use xlink:href="#B"/>
                </mask>
                <use fill="#365A89" fill-rule="nonzero" xlink:href="#B"/>
                <path fill="#BCBCBC" fill-rule="nonzero" d="M-.388 10.685c.92 2.612 1.805 4.01 2.655 4.192 1.274.274 3.644.023 3.986-4.17.229-2.796.344-1.135.345 4.98L4.87 17.236l-3.482-.275-2.8-3.647 1.025-2.628z" mask="url(#C)"/>
            </g>
            <path fill="#5B7DAA" fill-rule="nonzero" d="M24.528 57.23v17.654c.65 9.387 1.455 17.443 2.419 24.167 1.625.723 3.621.723 5.99 0-1.116-15.557-1.395-25.442-.837-29.654.558-4.211 1.072-6.876 1.543-7.995v9.682c.807 9.023 1.633 15.75 2.48 20.184a230.653 230.653 0 0 1 2.164 13.529c.993 1.263 2.388 1.644 4.184 1.143 1.797-.5 2.408-1.735 1.835-3.702-1.3-11.974-2.033-20.009-2.196-24.103-.164-4.095.012-10.043.527-17.845l-18.109-3.06z"/>
            <g transform="translate(1.908 28.538)">
                <mask id="E" fill="#fff">
                    <use xlink:href="#D"/>
                </mask>
                <use fill="#FFB6C3" fill-rule="nonzero" xlink:href="#D"/>
                <path fill="#6194E6" fill-rule="nonzero" d="M18.082 4.593c2.404 2.059 4.271 3.345 5.6 3.86 1.33.514 2.347-.602 3.054-3.347l-.626-3.508-2.263-4.363-3.74 4.759-2.025 2.599z" mask="url(#E)"/>
            </g>
            <g transform="translate(22.711 11.077)">
                <mask id="G" fill="#fff">
                    <use xlink:href="#F"/>
                </mask>
                <use fill="#FFB6C3" fill-rule="nonzero" xlink:href="#F"/>
                <path fill="#6194E6" fill-rule="nonzero" d="M1.603 16.145l-3.407 27.278L.328 52.2l8.53 4.409 11.071-1.269 6.643-7.478-1.804-25.636-5.577-6.082-5.905.447H8.857z" mask="url(#G)"/>
                <path fill="#F8ACBA" fill-rule="nonzero" d="M15.426 16.122c.573 2.023.223 3.571-1.05 4.645-1.908 1.61-6.171 3.233-6.171-.022 0-2.17-.029-3.405-.086-3.705l-1-.62c3.998.131 6.767-.795 8.307-2.776 1.54-1.982 1.54-1.155 0 2.478z" mask="url(#G)"/>
                <path fill="#81656A" fill-opacity=".55" fill-rule="nonzero" d="M15.552 3.692l-1.017 5.61c.327 1.135.666 1.135 1.017 0 .099-1.078.65-1.629 1.498-1.7 1.08-.021 1.727 1.274 1.277 2.26-.3.659.253-.426 1.659-3.253l-4.434-2.917z" mask="url(#G)"/>
            </g>
            <path fill="#81656A" fill-rule="nonzero" d="M36.078 15.098c-4.712.136-6.694-.785-5.945-2.763.243-.62-.007-2.068.85-3.083.867-1.029 2.858-1.607 5.649.365 1.01.953 2.527-.188 4.305 1.356 1.833 1.468.184 1.361 2.501 4.608.82 1.666-1.522 4.001-3.586 2.271-1.567-1.938-2.825-2.856-3.774-2.754z"/>
            <path fill="#DDD" fill-rule="nonzero" stroke="#4286F5" stroke-width=".6" d="M.115 40.179c-.153-.347-.153-1.057 0-2.131-.082-.422.272-.468 1.06-.139.79.33 2.285 1.003 4.487 2.021.879.453 1.318.903 1.318 1.35.102.473.188.922.259 1.345.15.672-.287.785-1.313.338-1.54-.67-5.805-2.261-5.81-2.784z"/>
            <g transform="translate(39.88 31.385)">
                <mask id="I" fill="#fff">
                    <use xlink:href="#H"/>
                </mask>
                <use fill="#FFB6C3" fill-rule="nonzero" xlink:href="#H"/>
                <path fill="#6194E6" fill-rule="nonzero" d="M.688 9.334c3.129 1.32 5.518.86 7.168-1.383 1.65-2.244.963-5.382-2.06-9.415H2.692L.292.682-.68 4.586l1.37 4.748z" mask="url(#I)"/>
            </g>
            <ellipse cx="37.338" cy="40.077" fill="#9EC3FF" fill-rule="nonzero" rx="1.817" ry="1.846"/>
        </g>
    </g>
</svg>
