<svg xmlns="http://www.w3.org/2000/svg" xmlns:xlink="http://www.w3.org/1999/xlink" width="301" height="33" viewBox="0 0 301 33">
    <defs>
        <linearGradient id="a" x1="83.351%" x2="33.331%" y1="-8.33%" y2="91.747%">
            <stop offset="0%" stop-color="#A677FB"/>
            <stop offset="100%" stop-color="#4286F5"/>
        </linearGradient>
        <path id="b" d="M171.915 24.15h8.875l-.257 1.439H170l2.92-16.178h9.925l-.256 1.44h-8.268l-1.005 5.62h7.895l-.257 1.395h-7.894l-1.145 6.283zm23.449-.87h.047l2.499-13.869h1.658l-2.92 16.178h-2.078l-6.773-14.053h-.047l-2.522 14.053h-1.659l2.92-16.178h2.078l6.797 13.87zm10.603 2.309h-1.658l2.662-14.738h-5.535l.257-1.44h12.752l-.257 1.44h-5.558l-2.663 14.738zm9.786-1.44h8.875l-.257 1.44h-10.533l2.92-16.178h9.925l-.257 1.44h-8.267l-1.005 5.62h7.894l-.256 1.395h-7.895l-1.144 6.283zm13.29 1.44h-1.659l2.92-16.178h4.46c.732 0 1.41.076 2.032.229a4.81 4.81 0 0 1 1.623.708c.46.32.818.724 1.075 1.211.257.488.385 1.059.385 1.714 0 .746-.124 1.394-.374 1.942a3.871 3.871 0 0 1-1.039 1.382 5.045 5.045 0 0 1-1.553.88 7.583 7.583 0 0 1-1.892.411l3.644 7.7h-1.892l-3.457-7.562h-2.92l-1.354 7.563zm1.61-8.934h2.944c.56 0 1.113-.042 1.658-.126a4.677 4.677 0 0 0 1.471-.469 2.8 2.8 0 0 0 1.063-.97c.272-.42.409-.964.409-1.634 0-.884-.327-1.546-.981-1.988-.654-.442-1.557-.663-2.71-.663h-2.802l-1.051 5.85zm13.64-7.244h4.414c1.62 0 2.873.343 3.76 1.029.888.685 1.332 1.637 1.332 2.856 0 .792-.156 1.485-.467 2.079a4.313 4.313 0 0 1-1.296 1.497c-.553.403-1.215.704-1.986.902-.77.198-1.615.297-2.534.297h-3.13l-1.354 7.518h-1.658l2.92-16.178zm.327 7.312h3.036c1.402 0 2.496-.274 3.282-.822.786-.549 1.18-1.356 1.18-2.423 0-.99-.32-1.683-.958-2.079-.639-.396-1.503-.594-2.593-.594h-2.872l-1.075 5.918zm11.958 8.866h-1.658l2.92-16.178h4.46c.732 0 1.41.076 2.032.229a4.81 4.81 0 0 1 1.623.708c.46.32.818.724 1.075 1.211.257.488.385 1.059.385 1.714 0 .746-.125 1.394-.374 1.942a3.871 3.871 0 0 1-1.039 1.382 5.045 5.045 0 0 1-1.553.88 7.583 7.583 0 0 1-1.892.411l3.644 7.7h-1.892l-3.457-7.562h-2.92l-1.354 7.563zm1.612-8.934h2.942c.561 0 1.114-.042 1.659-.126a4.677 4.677 0 0 0 1.471-.469 2.8 2.8 0 0 0 1.063-.97c.272-.42.408-.964.408-1.634 0-.884-.327-1.546-.98-1.988-.654-.442-1.557-.663-2.71-.663h-2.802l-1.051 5.85zm12.378 8.934h-1.658l2.92-16.178h1.657l-2.919 16.178zm14.947-13.664c-.295-.427-.724-.785-1.284-1.074-.56-.29-1.215-.434-1.962-.434-.483 0-.965.064-1.448.194s-.919.327-1.308.594c-.39.267-.704.602-.946 1.005-.241.404-.362.888-.362 1.451 0 .427.078.792.234 1.097.155.305.37.571.642.8.273.228.592.426.958.594.366.167.759.327 1.179.48.483.183.973.388 1.471.617a6.1 6.1 0 0 1 1.355.845c.405.335.732.727.981 1.177.25.45.374.979.374 1.588 0 .548-.102 1.123-.304 1.725a4.662 4.662 0 0 1-1.004 1.668c-.467.51-1.082.93-1.845 1.257-.763.327-1.705.491-2.826.491a7.286 7.286 0 0 1-2.92-.606c-.934-.403-1.65-1.001-2.148-1.793l1.494-.937c.312.533.779.986 1.402 1.36.622.373 1.37.56 2.242.56.56 0 1.094-.08 1.6-.24.506-.16.95-.389 1.33-.686.382-.297.682-.659.9-1.085.218-.427.327-.9.327-1.417 0-.457-.093-.853-.28-1.188a2.804 2.804 0 0 0-.76-.869 5.412 5.412 0 0 0-1.097-.64 19.593 19.593 0 0 0-1.32-.525 12.095 12.095 0 0 1-1.378-.594 5.117 5.117 0 0 1-1.19-.823 3.794 3.794 0 0 1-.83-1.13c-.21-.435-.315-.941-.315-1.52 0-.686.132-1.325.397-1.92a4.4 4.4 0 0 1 1.144-1.542c.499-.434 1.114-.777 1.845-1.028.732-.251 1.565-.377 2.5-.377 1.12 0 2.074.179 2.86.537.787.358 1.359.819 1.717 1.382l-1.425 1.006zm4.555 12.224h8.875l-.257 1.44h-10.533l2.919-16.178H301l-.257 1.44h-8.268l-1.004 5.62h7.894l-.257 1.395h-7.894l-1.144 6.283z"/>
    </defs>
    <g fill="none" fill-rule="evenodd">
        <path fill="#4286F5" d="M26.289.293h7.932l.734.107.734.106c.28.035.524.106.804.177.28.07.524.142.803.213a11.42 11.42 0 0 1 2.9 1.523c.909.638 1.783 1.453 2.621 2.445a9.616 9.616 0 0 1 1.887 3.295c.42 1.24.63 2.622.63 4.11v.496c0 .32-.036.674-.07 1.099-.036.425-.14.886-.245 1.452a9.105 9.105 0 0 1-.455 1.595c-.21.531-.454 1.098-.733 1.665-.42.85-.944 1.63-1.573 2.41-.629.78-1.363 1.488-2.201 2.196-.839.674-1.852 1.205-3.005 1.56-1.154.354-2.446.53-3.914.566h-1.992v-3.366h1.992c0 .036 0 .071.035.071H33.593c1.013 0 1.921-.142 2.725-.46a5.624 5.624 0 0 0 2.131-1.347c.594-.602 1.119-1.205 1.538-1.842.42-.638.769-1.311 1.048-2.02.035-.177.105-.319.14-.496.035-.142.105-.319.14-.496.035-.142.105-.284.14-.46.034-.142.07-.32.104-.497.035-.319.105-.638.14-.921.035-.283.07-.531.07-.78v-.248c0-.035 0-.07.035-.106V12.022c-.035-1.064-.21-2.091-.594-3.083-.385-.992-.944-1.914-1.677-2.8-.734-.92-1.678-1.558-2.796-2.02-1.118-.424-2.48-.672-4.018-.672l-2.551-.071v21.897h-3.879V.293z"/>
        <path fill="#4286F5" fill-rule="nonzero" d="M49.422 25.592h2.83V8.797h-2.83v16.795zm.104-21.578c.07-.178.175-.284.35-.426.14-.106.28-.177.454-.248.175-.07.315-.106.49-.106.174 0 .349.036.523.071.14.035.315.142.455.248.14.106.28.248.35.425.069.177.104.355.104.567 0 .213-.035.425-.105.567a.966.966 0 0 1-.314.425c-.14.107-.315.213-.455.248-.14.036-.314.071-.489.071s-.35 0-.524-.035a1.284 1.284 0 0 1-.49-.248 1.15 1.15 0 0 1-.349-.461 1.676 1.676 0 0 1-.104-.602v-.036c0-.141.034-.319.104-.46zM98.936 17.088c0 .142 0 .319.035.46.035.178.07.32.105.461a2.1 2.1 0 0 1 .07.46c.105.497.314.993.559 1.49.245.495.56.956.943 1.38a3.55 3.55 0 0 0 1.468.958c.594.212 1.258.318 2.062.318.734 0 1.432-.106 2.096-.318a6.095 6.095 0 0 0 1.782-.922c.525-.425.944-1.027 1.189-1.807.28-.78.384-1.771.384-2.94 0-.815-.105-1.524-.35-2.197a5.108 5.108 0 0 0-1.048-1.737c-.454-.496-1.048-.85-1.712-1.098a6.909 6.909 0 0 0-2.341-.39c-.839 0-1.573.107-2.167.32a3.479 3.479 0 0 0-1.502 1.027 6.238 6.238 0 0 0-.944 1.417 5.052 5.052 0 0 0-.489 1.56c-.035.105-.035.176-.07.283-.035.106-.035.177-.035.283v.567-.071.496h-.035zm-2.655-3.933c.454-1.027 1.083-1.913 1.956-2.657.874-.744 1.817-1.347 2.796-1.701.978-.39 2.027-.567 3.11-.567h.28c.034.035.104.035.14.035h.488c.035.036.105.036.14.036h.14a9.653 9.653 0 0 1 2.656.815c.838.39 1.677.957 2.446 1.594a6.626 6.626 0 0 1 1.747 2.587c.384 1.027.594 2.232.594 3.65v.283c0 .106 0 .177-.035.248v.283c0 .107-.035.177-.035.284-.035.177-.035.354-.07.567-.035.177-.07.354-.14.567a9.884 9.884 0 0 1-.943 2.374c-.42.744-.979 1.452-1.643 2.125a6.043 6.043 0 0 1-2.34 1.489 9.128 9.128 0 0 1-3.04.496c-1.573 0-2.936-.213-4.09-.638-1.152-.425-2.096-1.063-2.795-1.949a8.785 8.785 0 0 1-1.607-2.905c-.35-1.063-.524-2.197-.524-3.437v-.071c.105-1.347.314-2.48.769-3.508z"/>
        <path fill="#4286F5" d="M60.568 29.277c.28.07.525.141.77.212.244.036.488.107.733.142.245.07.49.106.734.106h.21c.07 0 .14 0 .244.036h.63c.069 0 .139 0 .209.035h.42c.803 0 1.537-.106 2.166-.319a5.263 5.263 0 0 0 1.747-.956c.524-.426.908-.886 1.153-1.453.28-.532.42-1.134.42-1.807V25.06c-.036-.035-.036-.035-.036-.07v-7.37c0-.886-.14-1.666-.384-2.41a5.38 5.38 0 0 0-1.153-1.913 4.812 4.812 0 0 0-1.608-1.24 4.29 4.29 0 0 0-1.852-.425h-.14c-.034.035-.07.035-.104.035h-.489a4.83 4.83 0 0 0-1.713.531c-.559.248-1.083.638-1.572 1.099-.49.46-.839 1.063-1.083 1.771-.245.745-.385 1.595-.385 2.587 0 .638.105 1.24.385 1.807a5.749 5.749 0 0 0 1.083 1.63 4.88 4.88 0 0 0 1.782 1.098 6.5 6.5 0 0 0 2.271.39h.524c.175 0 .315 0 .49-.035.174-.036.35-.036.524-.071.175-.036.314-.071.489-.142.14-.035.314-.106.49-.142.174-.07.314-.141.488-.212.175-.071.35-.177.525-.284.174-.106.314-.248.489-.354v3.047c-.28.213-.56.39-.874.496-.314.106-.629.213-.978.319-.35.07-.7.106-1.083.177-.385.036-.84.071-1.258.071-1.433-.07-2.691-.319-3.74-.744-1.048-.425-1.886-1.028-2.55-1.807-.63-.78-1.083-1.665-1.433-2.622a9.815 9.815 0 0 1-.49-3.083c0-1.098.14-2.09.42-2.94.28-.886.7-1.63 1.258-2.233a11.776 11.776 0 0 1 1.747-1.559 7.097 7.097 0 0 1 1.922-.992c.28-.106.524-.212.804-.248.28-.07.524-.106.804-.177.28-.035.524-.07.768-.106.245-.036.49-.036.7-.036 1.048 0 2.06.177 3.004.532a8.581 8.581 0 0 1 2.656 1.594 6.552 6.552 0 0 1 1.887 2.41c.42.92.629 1.913.629 3.011v8.433c0 .142 0 .319-.035.567-.035.248-.07.567-.14.921-.07.39-.174.744-.314 1.134-.14.39-.315.78-.524 1.205a8 8 0 0 1-1.049 1.452c-.419.461-.943.886-1.537 1.311-.594.426-1.328.745-2.167.957-.838.213-1.782.319-2.9.319a26.64 26.64 0 0 1-1.747-.07c-.524-.036-1.014-.107-1.468-.249-.21-.035-.42-.106-.629-.142a4.297 4.297 0 0 0-.559-.141 4.2 4.2 0 0 0-.49-.177c-.139-.071-.314-.107-.418-.142-.035-.036-.035-.036-.07-.036H59.066l-.035-.035.804-2.622c.174 0 .454.07.733.142M77.376 24.919v.637h2.83V8.797h-2.83zM91.319 8.868c-.385 0-.734.035-1.049.106-.314.071-.629.177-.908.319a6.83 6.83 0 0 0-.734.425c-.21.142-.42.32-.594.496l-.21.213c-.07.07-.105.142-.174.212a.62.62 0 0 0-.14.178l-.105.106v-1.56h-2.9V25.557h2.865V17.372c0-.213 0-.426.035-.674 0-.248.035-.496.07-.744s.105-.531.21-.815c.104-.354.244-.744.454-1.098.174-.354.42-.709.699-1.028a4.35 4.35 0 0 1 1.118-.815c.454-.212.978-.39 1.607-.496h.804v-2.87l-1.048.036zM77.481 4.014c.07-.178.175-.284.35-.426.14-.106.279-.177.454-.248.174-.07.314-.106.489-.106s.35.036.524.071c.14.035.315.142.454.248.14.106.28.248.35.425.07.177.105.355.105.567 0 .213-.035.425-.105.567a.966.966 0 0 1-.315.425c-.14.107-.314.213-.454.248-.14.036-.314.071-.49.071-.174 0-.349 0-.523-.035a1.284 1.284 0 0 1-.49-.248 1.15 1.15 0 0 1-.349-.461 1.676 1.676 0 0 1-.105-.602v-.036c0-.141.035-.319.105-.46M122.803 25.556h2.83V8.832h-2.83zM129.861 15.706a6.9 6.9 0 0 1 .49-2.55c.314-.816.803-1.56 1.432-2.269.664-.673 1.433-1.204 2.306-1.523.874-.354 1.887-.532 3.04-.532.175 0 .385 0 .594.036.21.035.455.07.7.106.244.036.488.106.768.177.245.071.524.142.804.284.489.212.943.46 1.362.78.42.318.84.708 1.258 1.133.42.425.734.957.909 1.595.21.637.314 1.346.314 2.16V25.522h-3.25v-9.567c0-.496-.07-.992-.209-1.488-.14-.496-.384-.957-.664-1.382-.28-.46-.699-.78-1.153-1.027a4.217 4.217 0 0 0-1.712-.355c-.63 0-1.153.107-1.608.32-.454.212-.873.495-1.223.92-.349.39-.594.85-.803 1.312-.21.46-.315.956-.385 1.488v9.779h-2.97v-9.815zM122.907 3.978c.07-.177.175-.283.35-.425.14-.106.28-.177.454-.248.175-.07.315-.106.49-.106.174 0 .349.035.523.07.14.036.315.142.455.249.14.106.28.248.35.425.069.177.104.354.104.567 0 .212-.035.425-.105.567a.966.966 0 0 1-.314.425c-.14.106-.315.212-.455.248-.14.035-.314.07-.489.07s-.35 0-.524-.035a1.284 1.284 0 0 1-.49-.248 1.15 1.15 0 0 1-.349-.46 1.676 1.676 0 0 1-.104-.603V4.44c0-.106.035-.284.104-.46M115.779 23.643c.07-.177.175-.283.35-.425.14-.106.279-.177.454-.248.174-.071.314-.107.489-.107s.35.036.524.071c.14.036.315.142.454.248.14.107.28.248.35.426.07.177.105.354.105.566 0 .213-.035.426-.105.567a.966.966 0 0 1-.315.426c-.14.106-.314.212-.454.248-.14.035-.315.07-.49.07-.174 0-.349 0-.523-.035a1.284 1.284 0 0 1-.49-.248 1.15 1.15 0 0 1-.349-.46 1.676 1.676 0 0 1-.105-.603v-.035c.035-.142.07-.32.105-.461"/>
        <path fill="url(#a)" fill-rule="nonzero" d="M.245 22.11v-9.921l6.115 3.366v9.85L.245 22.11zM8.56 7.299l9.68-7.051v17.433l-9.68 7.724V7.299z" transform="translate(.186 .08)"/>
        <g>
            <use fill="#000" xlink:href="#b"/>
            <use fill="#4286F5" xlink:href="#b"/>
        </g>
        <path stroke="#4286F5" stroke-width="2" d="M156.5 0v33"/>
    </g>
</svg>
