<svg xmlns="http://www.w3.org/2000/svg" width="358" height="348" viewBox="0 0 358 348">
    <defs>
        <linearGradient id="a" x1="53.219%" x2="46.781%" y1="100%" y2="0%">
            <stop offset="0%" stop-color="#A28FFD"/>
            <stop offset="100%" stop-color="#4286F5"/>
        </linearGradient>
        <linearGradient id="b" x1="94.397%" x2="5.603%" y1="100%" y2="0%">
            <stop offset="0%" stop-color="#A28FFD"/>
            <stop offset="100%" stop-color="#4286F5"/>
        </linearGradient>
        <linearGradient id="c" x1="100%" x2="0%" y1="53.581%" y2="46.419%">
            <stop offset="0%" stop-color="#A28FFD"/>
            <stop offset="100%" stop-color="#4286F5"/>
        </linearGradient>
        <linearGradient id="d" x1="0%" y1="46.419%" y2="53.581%">
            <stop offset="0%" stop-color="#A28FFD"/>
            <stop offset="100%" stop-color="#888"/>
        </linearGradient>
        <linearGradient id="e" x1="100%" x2="0%" y1="0%" y2="0%">
            <stop offset="0%" stop-color="#A28FFD"/>
            <stop offset="100%" stop-color="#888"/>
        </linearGradient>
    </defs>
    <g fill="none" fill-rule="evenodd">
        <g transform="translate(180 1)">
            <circle cx="35" cy="35" r="35" fill="#4286F5" fill-rule="nonzero" stroke="#4286F5" stroke-linecap="round" stroke-width="2"/>
            <text fill="#FFF" font-family="ProximaNova-Semibold, Proxima Nova" font-size="13" font-weight="500">
                <tspan x="20.108" y="29">Small</tspan> <tspan x="13.315" y="45">Change</tspan>
            </text>
        </g>
        <g transform="translate(247 36)">
            <circle cx="35" cy="35" r="35" fill="#4286F5" fill-rule="nonzero" stroke="#4286F5" stroke-linecap="round" stroke-width="2"/>
            <text fill="#FFF" font-family="ProximaNova-Semibold, Proxima Nova" font-size="13" font-weight="500">
                <tspan x="8.441" y="39">Donation</tspan>
            </text>
        </g>
        <g transform="translate(287 101)">
            <circle cx="35" cy="35" r="35" fill="#4286F5" fill-rule="nonzero" stroke="#4286F5" stroke-linecap="round" stroke-width="2"/>
            <text fill="#FFF" font-family="ProximaNova-Semibold, Proxima Nova" font-size="13" font-weight="500">
                <tspan x="13.075" y="39">Deposit</tspan>
            </text>
        </g>
        <path stroke="#4286F5" stroke-dasharray="8" stroke-linecap="round" stroke-width="2" d="M215 347c19.33 0 35-15.67 35-35s-15.67-35-35-35-35 15.67-35 35 15.67 35 35 35z"/>
        <text fill="#4286F5" font-family="ProximaNova-Semibold, Proxima Nova" font-size="13" font-weight="500" transform="translate(180 277)">
            <tspan x="9.708" y="24">Recreate</tspan> <tspan x="7.277" y="40">Your Own</tspan> <tspan x="10.014" y="56">Goodwill</tspan>
        </text>
        <g transform="translate(247 242)">
            <circle cx="35" cy="35" r="35" fill="#4286F5" fill-rule="nonzero" stroke="#4286F5" stroke-linecap="round" stroke-width="2"/>
            <text fill="#FFF" font-family="ProximaNova-Semibold, Proxima Nova" font-size="13" font-weight="500">
                <tspan x="14.076" y="31">Service</tspan> <tspan x="14.245" y="47">Charge</tspan>
            </text>
        </g>
        <g transform="translate(287 177)">
            <circle cx="35" cy="35" r="35" fill="#4286F5" fill-rule="nonzero" stroke="#4286F5" stroke-linecap="round" stroke-width="2"/>
            <text fill="#FFF" font-family="ProximaNova-Semibold, Proxima Nova" font-size="13" font-weight="500">
                <tspan x="23.358" y="39">Tips</tspan>
            </text>
        </g>
        <g>
            <path stroke="url(#a)" stroke-dasharray="8" stroke-linecap="round" stroke-linejoin="round" stroke-width="2" d="M0 6.723l16 66" transform="rotate(180 102 141.138)"/>
            <path fill="#4286F5" d="M205.543 278.162l1.888-8.473a1 1 0 0 0-1.218-1.188l-7.533 1.878a1 1 0 0 0-.518 1.621l5.645 6.594a1 1 0 0 0 1.736-.432z"/>
            <path stroke="url(#b)" stroke-linecap="round" stroke-linejoin="round" stroke-width="2" d="M.223 8.5L49 59.723" transform="rotate(180 127 130.138)"/>
            <path fill="#4286F5" d="M256.998 253.825l-2.6-8.281a1 1 0 0 0-1.65-.42l-5.584 5.393a1 1 0 0 0 .362 1.663l8.186 2.888a1 1 0 0 0 1.286-1.243z"/>
            <path stroke="url(#c)" stroke-linecap="round" stroke-linejoin="round" stroke-width="2" d="M.264 7.5L71 25.764" transform="rotate(180 142.5 103.118)"/>
            <path fill="#4286F5" d="M288.552 198.833l-6.494-5.76a1 1 0 0 0-1.63.49l-2.01 7.5a1 1 0 0 0 1.167 1.238l8.504-1.74a1 1 0 0 0 .463-1.728z"/>
            <g>
                <path stroke="url(#c)" stroke-linecap="round" stroke-linejoin="round" stroke-width="2" d="M.264 7.5L71 25.764" transform="matrix(-1 0 0 1 285 140.236)"/>
                <path fill="#4286F5" d="M288.552 147.64l-6.494 5.759a1 1 0 0 1-1.63-.49l-2.01-7.5a1 1 0 0 1 1.167-1.238l8.504 1.74a1 1 0 0 1 .463 1.729z"/>
            </g>
            <g>
                <path stroke="url(#b)" stroke-linecap="round" stroke-linejoin="round" stroke-width="2" d="M.223 8.5L49 59.723" transform="matrix(-1 0 0 1 254 90.277)"/>
                <path fill="#4286F5" d="M256.998 96.729l-2.6 8.281a1 1 0 0 1-1.65.42l-5.584-5.393a1 1 0 0 1 .362-1.663l8.186-2.888a1 1 0 0 1 1.286 1.243z"/>
            </g>
            <g>
                <path stroke="url(#a)" stroke-linecap="round" stroke-linejoin="round" stroke-width="2" d="M0 6.723l16 66" transform="matrix(-1 0 0 1 204 66.277)"/>
                <path fill="#4286F5" d="M205.543 70.392l1.888 8.473a1 1 0 0 1-1.218 1.188l-7.533-1.879a1 1 0 0 1-.518-1.62l5.645-6.594a1 1 0 0 1 1.736.432z"/>
            </g>
        </g>
        <g fill-rule="nonzero" transform="translate(144 139)">
            <circle cx="35" cy="35" r="35" stroke="#A28FFD" stroke-linecap="round" stroke-width="3"/>
            <path fill="#CFC5FF" d="M17.086 47.236c1.239-.772 2.171-2.258 2.171-3.572 0-1.313-.932-2.017-2.171-1.748v-3.02L54 21.514V34.36a2 2 0 0 1-1.148 1.81l-34.34 16.17a1 1 0 0 1-1.426-.906v-4.198z"/>
            <path fill="#E3DEFF" d="M29.571 45.694c1.5-.715 2.715-2.51 2.715-4.01 0-1.499-1.216-2.134-2.715-1.418-1.499.715-2.714 2.51-2.714 4.01 0 1.499 1.215 2.134 2.714 1.418zM36.629 38.147c1.199-.586 2.171-2.058 2.171-3.286 0-1.229-.972-1.75-2.171-1.163-1.2.587-2.172 2.058-2.172 3.287 0 1.228.972 1.749 2.172 1.162zM47.486 36.955c1.799-.844 3.257-2.964 3.257-4.733 0-1.77-1.458-2.52-3.257-1.675-1.8.845-3.257 2.964-3.257 4.734s1.458 2.52 3.257 1.674z"/>
            <path fill="#A28FFD" d="M17.053 38.915L32.286 15l21.72 6.514z"/>
            <path fill="#E3DEFF" d="M44.229 29.355c1.798-.844 3.257-2.964 3.257-4.733 0-1.77-6.309-.525-8.373.587-2.065 1.11 1.858.702 1.858 2.472s1.459 2.52 3.258 1.674z"/>
        </g>
        <g>
            <g transform="translate(41 36)">
                <circle cx="35" cy="35" r="35" stroke="#888" stroke-linecap="round" stroke-width="2"/>
                <text fill="#888" font-family="ProximaNova-Regular, Proxima Nova" font-size="13">
                    <tspan x="8.194" y="35">Merchant</tspan> <tspan x="30.723" y="51">A</tspan>
                </text>
            </g>
            <g transform="translate(1 101)">
                <circle cx="35" cy="35" r="35" stroke="#888" stroke-linecap="round" stroke-width="2"/>
                <text fill="#888" font-family="ProximaNova-Regular, Proxima Nova" font-size="13">
                    <tspan x="8.194" y="35">Merchant</tspan> <tspan x="30.912" y="51">B</tspan>
                </text>
            </g>
            <path stroke="#888" stroke-dasharray="8" stroke-linecap="round" stroke-width="2" d="M75 312c19.33 0 35-15.67 35-35s-15.67-35-35-35-35 15.67-35 35 15.67 35 35 35z"/>
            <text fill="#888" font-family="ProximaNova-Regular, Proxima Nova" font-size="13" transform="translate(40 240)">
                <tspan x="22.812" y="13">Your</tspan> <tspan x="8.213" y="29">Company</tspan> <tspan x="22.24" y="45">As A</tspan> <tspan x="9.474" y="61">Producer</tspan>
            </text>
            <g transform="translate(1 177)">
                <circle cx="35" cy="35" r="35" stroke="#888" stroke-linecap="round" stroke-width="2"/>
                <text fill="#888" font-family="ProximaNova-Regular, Proxima Nova" font-size="13">
                    <tspan x="8.194" y="36">Merchant</tspan> <tspan x="30.606" y="52">C</tspan>
                </text>
            </g>
        </g>
        <g>
            <path stroke="url(#d)" stroke-linecap="round" stroke-linejoin="round" stroke-width="2" d="M.264 7.5L71 25.764" transform="rotate(180 70.5 85.618)"/>
            <path fill="#A28FFD" d="M144.552 163.833l-6.494-5.76a1 1 0 0 0-1.63.49l-2.01 7.5a1 1 0 0 0 1.167 1.238l8.504-1.74a1 1 0 0 0 .463-1.728z"/>
            <path stroke="url(#d)" stroke-linecap="round" stroke-linejoin="round" stroke-width="2" d="M.264 7.5L71 25.764" transform="matrix(-1 0 0 1 141 176.236)"/>
            <path fill="#A28FFD" d="M144.552 183.64l-6.494 5.759a1 1 0 0 1-1.63-.49l-2.01-7.5a1 1 0 0 1 1.167-1.238l8.504 1.74a1 1 0 0 1 .463 1.729z"/>
            <g>
                <path stroke="url(#e)" stroke-dasharray="8" stroke-linecap="round" stroke-linejoin="round" stroke-width="2" d="M0 5.935l53 54" transform="matrix(1 0 0 -1 102 260.722)"/>
                <path fill="#A28FFD" d="M156.035 200.786l-2.745 8.235a1 1 0 0 1-1.656.391l-5.49-5.49a1 1 0 0 1 .391-1.655l8.235-2.745a1 1 0 0 1 1.265 1.264z"/>
            </g>
            <g>
                <path stroke="url(#e)" stroke-linecap="round" stroke-linejoin="round" stroke-width="2" d="M0 5.935l53 54" transform="translate(102 88.835)"/>
                <path fill="#A28FFD" d="M156.035 148.77l-2.745-8.235a1 1 0 0 0-1.656-.39l-5.49 5.49a1 1 0 0 0 .391 1.655l8.235 2.745a1 1 0 0 0 1.265-1.265z"/>
            </g>
        </g>
    </g>
</svg>
