<svg xmlns="http://www.w3.org/2000/svg" width="499" height="273" viewBox="0 0 499 273">
    <g fill="none" fill-rule="evenodd">
        <text fill="#4286F5" font-family="ProximaNova-Semibold, Proxima Nova" font-size="30" font-weight="500" transform="translate(3 4)">
            <tspan x="22.795" y="268">On-Premise</tspan>
        </text>
        <g transform="translate(3 4)">
            <path stroke="#888" stroke-width="5" d="M105 220C47.01 220 0 172.99 0 115S47.01 10 105 10c38.66 0 85.66 35 141 105-55.34 70-102.34 105-141 105zm282 0c-38.66 0-85.66-35-141-105C301.34 45 348.34 10 387 10c57.99 0 105 47.01 105 105s-47.01 105-105 105z"/>
            <circle cx="293" cy="61" r="12" fill="#A28FFD" stroke="#FFF" stroke-width="4"/>
            <circle cx="388" cy="10" r="12" fill="#A28FFD" stroke="#FFF" stroke-width="4"/>
            <circle cx="388" cy="220" r="12" fill="#A28FFD" stroke="#FFF" stroke-width="4"/>
            <circle cx="482" cy="169" r="12" fill="#A28FFD" stroke="#FFF" stroke-width="4"/>
            <circle cx="482" cy="61" r="12" fill="#A28FFD" stroke="#FFF" stroke-width="4"/>
            <circle cx="293" cy="169" r="12" fill="#A28FFD" stroke="#FFF" stroke-width="4"/>
            <path fill="#4286F5" stroke="#4286F5" stroke-width="2" d="M36.023 136.328c6.88-6.035 10.93-9.988 12.15-11.859 1.253-1.922 1.866-5.245 1.84-9.969 0-4.208-.614-7.377-1.84-9.507-1.197-2.075-5.254-6.16-12.173-12.253a69.421 69.421 0 0 1 13.923-24.239c8.737 2.969 14.226 4.514 16.466 4.636 2.29.125 5.475-1.005 9.553-3.39 3.644-2.104 6.08-4.22 7.311-6.348 1.211-2.095 2.738-7.745 4.58-16.95A69.78 69.78 0 0 1 102.015 45c4.828 0 9.54.492 14.091 1.43 1.818 9.172 3.238 14.765 4.26 16.781 1.037 2.047 3.607 4.24 7.711 6.58 3.644 2.104 6.695 3.157 9.153 3.158 2.409.002 8.028-1.488 16.857-4.47A69.423 69.423 0 0 1 168 92.648c-7.146 6.252-11.342 10.333-12.587 12.243-1.254 1.922-1.867 5.245-1.841 9.969 0 4.208.614 7.377 1.841 9.507 1.21 2.1 5.351 6.258 12.423 12.473a69.443 69.443 0 0 1-14.066 24.037c-8.91-3.035-14.497-4.613-16.762-4.737-2.291-.125-5.476 1.005-9.553 3.39-3.644 2.104-6.081 4.22-7.312 6.348-1.204 2.083-2.72 7.681-4.548 16.794a69.816 69.816 0 0 1-13.58 1.327 69.77 69.77 0 0 1-14.326-1.479c-1.783-8.956-3.179-14.428-4.187-16.418-1.037-2.046-3.608-4.24-7.712-6.579-3.644-2.104-6.694-3.157-9.152-3.159-2.378-.001-7.884 1.45-16.517 4.357a69.428 69.428 0 0 1-14.098-24.394zM102 145c17.12 0 31-13.88 31-31 0-17.12-13.88-31-31-31-17.12 0-31 13.88-31 31 0 17.12 13.88 31 31 31z"/>
        </g>
        <text fill="#A28FFD" font-family="ProximaNova-Semibold, Proxima Nova" font-size="27" font-weight="500" transform="translate(3 4)">
            <tspan x="367.21" y="265">API</tspan>
        </text>
    </g>
</svg>
