<svg xmlns="http://www.w3.org/2000/svg" width="24" height="24" viewBox="0 0 24 24">
    <g fill="none" fill-rule="nonzero">
        <path fill="#888" d="M11.998 11.494l-8.29-.686v4.216l7.667 4.641c.348.21.783.21 1.13 0l7.665-4.64v-4.193l-8.172.662zM12 9.305l9.374-.76.978-.277v6.757c0 .763-.4 1.47-1.052 1.866l-7.665 4.64a3.273 3.273 0 0 1-3.39 0l-7.666-4.64a2.182 2.182 0 0 1-1.052-1.867V8.268l1.3.277 9.173.76z"/>
        <path fill="#888" d="M13.09 20.857h-2.18v-9.039h2.18z"/>
        <path fill="#4286F5" d="M13.437 2.861l8.938 5.143a1 1 0 0 1 0 1.734l-8.938 5.143a3 3 0 0 1-2.993 0L1.506 9.738a1 1 0 0 1 0-1.734l8.938-5.143a3 3 0 0 1 2.993 0z"/>
        <path fill="#4286F5" d="M4.374 8.871l7.022 4.04a1.09 1.09 0 0 0 1.088 0l7.022-4.04-7.022-4.04a1.09 1.09 0 0 0-1.088 0L4.374 8.87zm9.199-5.932l8.665 4.987a1.09 1.09 0 0 1 0 1.89l-8.665 4.987a3.273 3.273 0 0 1-3.265 0L1.643 9.817a1.09 1.09 0 0 1 0-1.891l8.665-4.987a3.273 3.273 0 0 1 3.265 0z"/>
    </g>
</svg>
