<svg xmlns="http://www.w3.org/2000/svg" width="24" height="24" viewBox="0 0 24 24">
    <g fill="none" fill-rule="nonzero">
        <path fill="#4286F5" d="M17.822 18.737h-1.94a6.618 6.618 0 0 1-5.822-3.638l-2.33-4.546a3.826 3.826 0 0 0-3.497-2.208H1V5.75h3.233a6.621 6.621 0 0 1 5.827 3.638l2.33 4.543a3.812 3.812 0 0 0 3.492 2.208h1.94V13.54L23 17.44l-5.178 3.893v-2.596z"/>
        <path fill="#888" d="M1 18.583v-2.598h3.233a3.797 3.797 0 0 0 2.85-1.17l.516 1.298c.187.365.404.713.65 1.04a6.057 6.057 0 0 1-4.015 1.429L1 18.583zM17.823 8.194h-1.94a3.816 3.816 0 0 0-2.851 1.17l-.516-1.296a7.157 7.157 0 0 0-.649-1.04A6.057 6.057 0 0 1 15.881 5.6h1.94V3L23 6.891l-5.179 3.903.002-2.6z"/>
    </g>
</svg>
