<svg xmlns="http://www.w3.org/2000/svg" width="24" height="24" viewBox="0 0 24 24">
    <g fill="none" fill-rule="nonzero" transform="translate(-2 -1)">
        <path d="M1 0h26v26H1z"/>
        <g fill="#4286F5">
            <path d="M10.776 9.006a1 1 0 0 1 .803 1.831l-4.684 2.055a1 1 0 1 1-.803-1.831l4.684-2.055z"/>
            <path d="M5.238 6.727a1 1 0 1 0-1.823.824l2.106 4.661a1 1 0 0 0 1.823-.823L5.238 6.727z"/>
            <path d="M22.606 11.315a1 1 0 0 1-1.975.313c-.6-3.783-3.964-6.371-7.492-5.813-2.876.456-5.066 2.894-5.382 5.935a1 1 0 0 1-1.99-.206c.408-3.922 3.266-7.103 7.06-7.704 4.643-.735 9.011 2.625 9.78 7.475z"/>
        </g>
        <g fill="#888">
            <path d="M17.262 17.52a1 1 0 1 1-.804-1.832l4.684-2.055a1 1 0 0 1 .804 1.832l-4.684 2.054z"/>
            <path d="M23.007 19.55a1 1 0 1 0 1.823-.824l-2.106-4.662a1 1 0 1 0-1.823.824l2.106 4.661z"/>
            <path d="M4.906 14.971a1 1 0 0 1 1.975-.313c.597 3.769 4.174 6.338 7.995 5.733 3.119-.494 5.5-2.979 5.869-6.028a1 1 0 1 1 1.985.24c-.476 3.934-3.537 7.13-7.54 7.764-4.908.777-9.514-2.531-10.284-7.396z"/>
        </g>
        <circle cx="14" cy="13" r="2" fill="#4286F5"/>
    </g>
</svg>
