<svg xmlns="http://www.w3.org/2000/svg" xmlns:xlink="http://www.w3.org/1999/xlink" width="199" height="151" viewBox="0 0 199 151">
    <defs>
        <path id="a" d="M19.285.024l19.107 10.645v5.189a4 4 0 0 1-2.018 3.474L22.752 27.1a7 7 0 0 1-6.934 0L2.196 19.332a4 4 0 0 1-2.019-3.474v-5.19L19.285.025z"/>
        <linearGradient id="c" x1="75.464%" x2="50%" y1="0%" y2="100%">
            <stop offset="0%" stop-color="#A677FB"/>
            <stop offset="100%" stop-color="#4286F5"/>
        </linearGradient>
        <linearGradient id="d" x1="50%" x2="50%" y1="41.537%" y2="100%">
            <stop offset="0%" stop-color="#77BBFB" stop-opacity="0"/>
            <stop offset="64.063%" stop-color="#6AA0F7" stop-opacity=".839"/>
            <stop offset="100%" stop-color="#705AD7"/>
        </linearGradient>
        <path id="e" d="M2.502 10.002c-.147.27-1.226.235-1.509-1.532C.71 6.704.881 3.032 0 0c1.217 3.389 1.552 6.724 1.552 6.993.131 1.449 1.383 2.134.95 3.009z"/>
        <path id="g" d="M5.697 4.97C4.327 7.9 3.563 9.569 3.404 9.973c-.301.84-.341 2.037-.12 3.59l.249 2.617.095 1.822c-.486.917-1.204 1.241-2.155.97-.339-.075-.656-.617-.952-1.625C.147 14.16.04 12.115.2 11.213c.16-.902.327-1.581.501-2.038l2.43-4.421V3.07c0-.613-.068-1.85.388-2.586.456-.736 1.853-.581 2.18.522.247.845 0 .959 0 2.064.134-.102.377-.313.727-.632.239-.218.437-.218.597 0 .16.217.067.535-.278.953l-.526.567c-.174.17-.29.298-.345.383-.056.086-.115.295-.176.628z"/>
        <path id="i" d="M5.353.36c.257.187.307.152.796.53.488.378 1.959 1.34 2.611 1.651.865.358 2.435 1.432 3.09 2.25.296.572.241 1.645-.165 3.22-.273 2.813-.553 4.878-.84 6.192-.288 1.314-.237 3.305.15 5.971.356 2.647.534 4.9.534 6.76 0 2.788.07 4.714-.232 9.062a517.226 517.226 0 0 0-.453 7.094c-.267.494-.654.823-1.162.989-.76.249-1.36-.046-1.893-.669-.14-.17-.179-.19-.159-.917.02-.725.486-8.003.63-9.144.143-1.14.2-2.232-.215-3.749a1516.38 1516.38 0 0 0-2.102-7.514c-.09-.577-.286-.9-.59-.968-.112 3.644-.325 6.693-.639 9.148A513.464 513.464 0 0 0 3.67 39.15c-.27.665-.718 1.081-1.34 1.251-.624.17-1.263-.182-1.92-1.055.16-2.456.58-5.955 1.263-10.497.126-.918.448-2.106.224-3.037-.106-.441-.46-2.711-.913-5.067-.504-2.618-1.192-4.447-.769-6.872C.832 11.06 1.47 4.107 1.673 3.122c.203-.985-.006-.663.398-1.948C2.475-.112 4.59-.264 5.353.36z"/>
        <path id="k" d="M2.54 3.884c.667.635 2.203 2.03 4.607 4.187l4.576-3.613c.418-.403.627-.798.627-1.188 0-.583-.066-1.077.339-1.317.27-.16.395.023.378.55.186-.8.69-1.518 1.51-2.155.13-.178.637-.482.76 0s-1.2.96-1.2 1.762c.341-.02 1.031.066 1.031.846s.067 1.448-1.206 2.633c-.849.79-2.974 2.452-6.377 4.986-.661.558-1.392.491-2.19-.2-.8-.693-1.907-1.688-3.321-2.987C.596 6.367-.086 5.39.026 4.458.18 2.95 1.432 2.84 2.54 3.884z"/>
        <path id="m" d="M1.991 8.363c.022-.114.087-.247.193-.399.16-.228.192-.32.277-.487.18-.353.096-.478 0-.537C1.285 6.39.837 5.918.544 5.186.431 4.903.221 4.297.18 4.056.033 3.185.18 1.624 2.238.56c1.372-.709 2.672-.428 3.9.845.895 1.018 1.343 2.33 1.343 3.937 0 2.41-.199 2.675-1.746 2.675-.485-.024-1.02-.124-1.125.102-.106.225-.793.97-.126 1.273.362.163-.956.339-1.877-.164-.4-.223-.606-.51-.616-.865z"/>
        <path id="n" d="M2.023 8.124c.565.376 1.032.479 1.4.307.65-.288.705-.671.632-1.069-.074-.397-.393-1.007.19-1.281.584-.274 1.131.112 1.254.39.122.277.44.683.37-.172-.072-.854-.272-.853 0-1.548.27-.695.536-.874.536-1.74 0-.867.013-2.373-1.406-2.844-.98.1-.645.792-2.757 1.442-1.912.653-2.4 2.64-2.043 4.18.133.614.396 1.139.788 1.573.127.116.175.1.242.141.068.058.16.164.299.278.106.102.271.217.495.343z"/>
        <path id="p" d="M1.513.038C.189 2.03-.262 4.07.157 6.158c.63 3.131 1.26 2.872 1.26 7.38.044 1.281-1.037 1.682-.34 6.49.169 2.48.169 4.482 0 6.008-.49 1-.612 1.77-.368 2.31.367.812 1.905 1.328 3.662-.872 1.756-2.2.624-2.75 0-2.75h-.633c.435-4.99.808-8.282 1.12-9.877.31-1.595.465-5.928.465-12.998L1.513.038z"/>
        <path id="r" d="M6.181 1.528a13.97 13.97 0 0 1 .51 7.522c-.52 2.561-1.478 6.856-2.877 12.886-1.02 3.777-1.39 5.83-1.112 6.161.417.497 1.472.58 2.039.58.566 0 1.711.328 1.246 1.475-.465 1.148-3.147.859-4.257 1.286-2.141.248-1.69-1.132-1.69-2.129 0-.996.258-2.055.455-2.746.197-.691.043-3.85.33-8.128.344-3.095 1.142-3.909.905-6.396-.724-4.57-1.897-6.094 0-10.511C2.905-.51 4.389-.51 6.18 1.528z"/>
        <path id="t" d="M3.838.038c-.953-.188-1.68.315-2.18 1.51C1.16 2.74.66 4.288.164 6.191c-.455 1.52.043 2.243 1.496 2.169 1.453-.075 3.31-.209 5.573-.401.035-1.085-.112-1.675-.441-1.768-1.396-.396-3.427.518-3.614 0-.029-.911 1.506-2.87 1.73-4.645C4.887.695 4.531.192 3.837.038z"/>
        <path id="v" d="M6.624 1.346c1.36 2.432 1.215 4.097-.433 4.996-.27.405-.402.819-.397 1.241-.077.348.435.73 1.535 1.147 1.65.625 2.647 1.834 1.965 2.768-.683.934-1.936 3.625-1.31 6.204.156.607.323 1.12.501 1.536-2.945 1.183-5.387.798-7.327-1.157.136-1.082.392-3.546-.3-5.278-.692-1.732-1.657-5.586.3-6.023 1.594-.21 2.333.687 2.507-.106-.476-.267-2.891-.275-2.507-3.943C1.564-.602 5.241-.085 5.518.237c.42.235.79.605 1.106 1.11z"/>
        <path id="x" d="M1.435.067C2.697.724 3.328 1.82 3.328 3.355c0 2.303.39 5.437.592 6.456.135.678.384 1.895.746 3.65.08.364.298.723.658 1.076.36.352.29.487-.212.404.288.609.24 1.226-.144 1.85-.575.938-1.374.351-1.211-.639.109-.66-.108-1.485-.65-2.477-.999-2.113-1.604-3.724-1.816-4.83C1.078 7.738.828 6.149.54 4.077-.062 2.255-.161 1.073.248.53.56.05.956-.104 1.435.067z"/>
        <ellipse id="z" cx="8.804" cy="16.552" rx="4.874" ry="2.709"/>
        <path id="B" d="M2.304.687c-.118.233-.602.542-1.077.691-.476.15-1.125.282-1.173.251-.215-.136.309-1.027.95-1.376 1.056-.536 1.549-.056 1.3.434z"/>
        <path id="D" d="M2.304.687c-.118.233-.602.542-1.077.691-.476.15-1.125.282-1.173.251-.215-.136.309-1.027.95-1.376 1.056-.536 1.549-.056 1.3.434z"/>
        <path id="F" d="M2.304.687c-.118.233-.602.542-1.077.691-.476.15-1.125.282-1.173.251-.215-.136.309-1.027.95-1.376 1.056-.536 1.549-.056 1.3.434z"/>
        <path id="H" d="M2.304.687c-.118.233-.602.542-1.077.691-.476.15-1.125.282-1.173.251-.215-.136.309-1.027.95-1.376 1.056-.536 1.549-.056 1.3.434z"/>
        <path id="J" d="M2.304.687c-.118.233-.602.542-1.077.691-.476.15-1.125.282-1.173.251-.215-.136.309-1.027.95-1.376 1.056-.536 1.549-.056 1.3.434z"/>
        <path id="L" d="M2.304.687c-.118.233-.602.542-1.077.691-.476.15-1.125.282-1.173.251-.215-.136.309-1.027.95-1.376 1.056-.536 1.549-.056 1.3.434z"/>
        <path id="N" d="M2.304.687c-.118.233-.602.542-1.077.691-.476.15-1.125.282-1.173.251-.215-.136.309-1.027.95-1.376 1.056-.536 1.549-.056 1.3.434z"/>
        <path id="P" d="M3.1.935c-.16.318-.811.74-1.452.942-.64.203-1.515.383-1.58.342-.29-.185.416-1.4 1.28-1.874C2.771-.385 3.434.269 3.1.935z"/>
        <path id="R" d="M3.1.846c-.16.288-.811.67-1.452.853-.64.184-1.515.347-1.58.31C-.222 1.84.484.741 1.348.311 2.771-.35 3.434.243 3.1.846z"/>
        <path id="T" d="M3.1.887c-.16.302-.811.702-1.452.894-.64.193-1.515.364-1.58.324C-.222 1.93.484.778 1.348.327 2.771-.366 3.434.255 3.1.887z"/>
        <path id="V" d="M3.1.927c-.16.315-.811.733-1.452.934-.64.201-1.515.38-1.58.338-.29-.183.416-1.387 1.28-1.857C2.771-.382 3.434.267 3.1.927z"/>
        <path id="X" d="M3.374.86c-.174.293-.882.681-1.578.868-.695.187-1.645.353-1.715.315C-.234 1.873.533.754 1.47.317c1.547-.672 2.267-.07 1.904.544z"/>
        <path id="Z" d="M3.292.841c-.17.286-.861.665-1.541.848-.68.182-1.607.344-1.676.307-.084-.046-.038-.151.018-.302C.15 1.542.766.62 1.432.31c1.511-.657 2.216-.068 1.86.531z"/>
        <path id="ab" d="M3.283.817c-.16.278-.812.646-1.452.824-.64.177-1.65.389-1.715.352C-.174 1.832.666.716 1.53.301 2.954-.337 3.618.235 3.283.817z"/>
        <path id="ad" d="M3.217.927c-.16.315-.812.733-1.452.934-.64.201-1.657.393-1.722.352-.102-.157.558-1.4 1.421-1.871C2.888-.382 3.552.267 3.217.927z"/>
        <path id="af" d="M3.194.781c-.153.265-.776.617-1.388.787-.612.17-1.656.33-1.718.296C-.189 1.71.694.684 1.518.288 2.88-.322 3.515.225 3.195.78z"/>
        <ellipse id="ah" cx="6.851" cy="17.687" rx="4.943" ry="2.604"/>
        <path id="aj" d="M8.584 14.977s-.182-2.372-.307-3.169c-.125-.797-.82-5.439-.193-7.742.298-1.814 1.29-3.359 2.365-3.839 1.075-.48 1.826.003 1.495.696-.33.694-1.01 2.432-1.01 2.432s1.067-.754 2.153-.675c1.086.078 1.582.798 1.582.798s.661.998-.625 1.856c-1.287.858-2.33 1.312-2.33 1.312s1.417.635.319 1.581c-1.099.947-2.113 2.039-2.292 4.014-.18 1.975-.323 2.96-.323 2.96s1.265-1.93 2.287-2.401c.501-.42 2.167-.86 3.183.237.784.95-.127 1.275-.432 1.376-.567.048-1.123-.002-1.123-.002s.662.61.504 1.012c-.158.401-.467.623-.97.518-.504-.105-.895-.234-.895-.234s.867 1.462-.843 1.485c-1.71.024-2.377.85-2.377.85s-.158.32-.168.783c-.153.046-.5-.002-.5-.002s-.792-3.166-2.61-3.846c-.571-.263-1.372-.027-1.726-.686-.172-.48.012-.928.3-1.254.74-.822 1.981-.796 1.981-.796s-.29-1.132-1.579-1.558c-.794-.402-2.63.416-3.07-.953-.277-.943.559-1.562.981-1.91.731-.494 1.687-.689 1.687-.689s-1.795.279-2.668-.162C.506 6.527-.293 5.749.23 4.795c.525-.953 2.285-.544 2.285-.544s1.97.402 3.424 2.718c1.919 2.412 2.645 8.008 2.645 8.008z"/>
        <path id="al" d="M9.733.266C7.59.198 6.419.632 6.216 1.57c-.203.937-.659 2.804-1.367 5.6-.378.129-.872.024-1.481-.314-.61-.338-1.099-.459-1.468-.362L.634 5.86c.033.81-.163 1.33-.589 1.558.366.152.703.303 1.012.454-.068.551.106.962.523 1.232.625.405 2.252.45 3.309.45 1.056 0 1.437-.157 1.77-.86.222-.468.444-1.002.667-1.601.246-.261.369-.106.369.466 0 .572-.065 1.305-.194 2.2.484.835 1.517 1.285 3.101 1.35 1.584.065 2.753-.264 3.508-.986-.094-1.642.297-3.12 1.174-4.435.105-.119.255-.122.44.172.123.195.721.966 1.795 2.31.139.161.091.336-.143.524-.351.283-1.747.883-1.973 1.786-.156.198-.422.408-.8.629.533.655.8 1.102.8 1.34 0 .236.36.083 1.078-.461.91.255 1.581.109 2.012-.437.647-.82 1.832-2.848 1.016-4.458-.816-1.61-2.867-5.306-6.322-6.245-.727-.206-1.879-.4-3.454-.582z"/>
        <path id="an" d="M2.814.655c.073.73-.05 1.237-.368 1.524C1.716 3.05.01 3.664.01 5.323c-.165 1.53 2.026 1.049 2.437.76.412-.29 1.794-1.331 2.444-1.527.65-.196 1.077-.705 1.077-1.47 0-.763-.428-1.534-.428-2.338 0-.536-.908-.567-2.725-.093z"/>
        <path id="ap" d="M0 .418c.267 2.556.356 4.144.267 4.765-.133.93-.317 2.441 1.036 2.994 1.337.39 1.918-1.132 1.71-2.429-.209-1.297-.087-2.24-.209-3.054C2.683 1.88 2.794 0 1.87 0 1.252 0 .629.14 0 .418z"/>
        <path id="ar" d="M13.39 0c-1.429-.02-2.514.69-3.256 2.133C9.438 3.736 7.51 5.16 4.35 6.403c-.471.11-.897.042-1.278-.203-.57-.367-1.228-.8-1.362-.367-.133.435-2.6-.592-1.367 1.173.823 1.177 2.338 1.543 4.545 1.1 3.663-.93 5.79-1.805 6.384-2.628.95-1.243 2.6-2.577 2.6-4.708-.024-.4-.185-.656-.483-.77z"/>
        <path id="at" d="M3.786 1.523c-.94 2.682-1.302 4.66-1.082 5.936.237 1.274 1.676.621 1.442 1.233.001.09-1.347.09-2.1.26C.738 9.054.877 11.223.877 12.735c0 1.511-.75 7.298-.75 8.324 0 1.027-.676 3.131 1.081 5.28 1.757 2.149 3.932 2.253 5.846 1.882 1.276-.247 2.746-1.159 4.412-2.736.289-1.111.364-4.227.226-9.348.077-5.586-.64-5.621-1.651-6.294-.675-.449-1.518-.875-2.53-1.28.028-.774.113-1.4.256-1.875.216-.713.305-.96.557-.96.252 0 .915-.2.915-.95s.745-1.504 0-2.894C8.841 1.139 7.806-.306 5.397.058c-.772.157-1.31.645-1.61 1.465z"/>
        <path id="av" d="M.198 2.962c.915 3.28 1.372 5.514 1.372 6.703 0 1.783.116 7.167-.518 7.818-.635.652-1.027.899-1.027 1.506.111.363.453.274 1.027-.268-.558 1.427-.697 2.27-.419 2.528.419.386 2.251.043 2.485-1.109.233-1.151-.018-3.655.244-5.222.175-1.045.372-2.636.592-4.775.12-.786.105-1.637-.048-2.555-.23-1.376-.636-5.26-.788-5.839C2.965 1.17 2.426-.267 1.225.043.08.388-.263 1.36.198 2.962z"/>
    </defs>
    <g fill="none" fill-rule="evenodd" transform="translate(-1)">
        <ellipse cx="42.879" cy="131.852" fill="#DDD" fill-opacity=".2" rx="15.32" ry="7.141" transform="matrix(-1 0 0 1 85.757 0)"/>
        <ellipse cx="161.866" cy="128.791" fill="#DDD" fill-opacity=".2" rx="15.32" ry="7.141" transform="matrix(-1 0 0 1 323.733 0)"/>
        <path fill="#DDD" fill-opacity=".2" d="M6.639 69.167c-5.788 4.846-6.299 10-1.532 15.46 7.15 8.192 23.379 2.87 40.96-8.15 17.58-11.019 27.47-12 24.173-16.711-2.198-3.141-7.65-2.638-16.358 1.51l-22.091 7.89H6.639zM188.671 69.167c5.788 4.846 6.299 10 1.532 15.46-7.15 8.192-23.379 2.87-40.96-8.15-17.58-11.019-27.47-12-24.173-16.711 2.198-3.141 7.65-2.638 16.358 1.51l22.092 7.89h25.151z"/>
        <ellipse cx="129.183" cy="82.376" fill="#DDD" fill-opacity=".2" rx="15.32" ry="7.141" transform="matrix(-1 0 0 1 258.366 0)"/>
        <ellipse cx="58.71" cy="80.336" fill="#DDD" fill-opacity=".2" rx="15.32" ry="7.141" transform="matrix(-1 0 0 1 117.42 0)"/>
        <g fill-rule="nonzero" stroke="#78AEFC" stroke-width="2">
            <path d="M176.395 75.141l11.865 6.59-46.436 27.46-20.65-11.595 6.836-3.726-19.278-9.722-15.775 8.413"/>
            <path d="M130.527 84.308l16.21 8.226-27.475 17.62-8.319-4.558M155.868 127.228l-34.188 21.926L97.23 134.5l-16.567 10.984-22.708-13.97 35.096-21.901"/>
            <path d="M39.769 126.887l-9.666-6.376-11.028 5.699 36.762 22.944 41.02-26.203 21.552 12.401 18.672-10.641-29.683-17.11M59.876 81.032l27.04 14.473"/>
            <path d="M19.798 75.396L6.81 83.092l16.654 9.237-8.35 5.042 13.11 7.868 24.93-13.07 11.621 6.276-12.493 7.25 20.919 12.278 17.333-11.035"/>
        </g>
        <g transform="translate(78.134 48.965)">
            <path fill="#DDD" fill-opacity=".2" d="M19.236 41.171l19.096 10.621v5.17a4 4 0 0 1-2.021 3.477l-13.612 7.749a7 7 0 0 1-6.926 0l-13.612-7.75a4 4 0 0 1-2.02-3.475V51.792l19.095-10.62z"/>
            <path fill="#8571B3" fill-rule="nonzero" d="M19.236 37.09l19.096 10.622v5.17a4 4 0 0 1-2.021 3.476l-13.612 7.75a7 7 0 0 1-6.926 0l-13.612-7.75a4 4 0 0 1-2.02-3.476v-5.17L19.235 37.09z"/>
            <g transform="translate(0 35.198)">
                <mask id="b" fill="#fff">
                    <use xlink:href="#a"/>
                </mask>
                <path fill="#DDD6FF" fill-rule="nonzero" d="M19.285-.229l19.107 10.895-15.64 8.918a7 7 0 0 1-6.934 0L.178 10.666 19.284-.229z" mask="url(#b)"/>
            </g>
            <ellipse cx="19.096" cy="45.512" fill="#222" fill-opacity=".065" fill-rule="nonzero" rx="8.319" ry="3.312"/>
            <path fill="url(#c)" d="M9.921 35.28V23.637l7.237 3.937V39.16L9.921 35.28zm9.305-16.971l11.372-8.124v20.07L19.226 39.16v-20.85z"/>
            <path fill="url(#d)" fill-opacity=".7" fill-rule="nonzero" d="M19.83 0c6.539 0 12.786 3.407 18.74 10.22v35.694l-15.627 8.915a7 7 0 0 1-6.938 0L.378 45.914V10.22C6.808 3.407 13.292 0 19.83 0z"/>
        </g>
        <g fill-rule="nonzero">
            <path fill="#78AEFC" d="M188.44 23.9c-9.01 4.312-14.517 7.645-16.521 10-2.004 2.355-3.057 6.511-3.157 12.47L171 45.255v14.256l-5.988 3.28v19.684l23.428-12.99V23.9z"/>
            <path fill="#4E8DE8" d="M146.738 0l-16.966 12.255-2.832 10.298 2.832-1.501V36.8l-6.462 2.645 6.462 15.851 16.966-9.54z"/>
            <path fill="#767676" d="M159.866 50.15l-2.129 1.854-8.117-4.674v14.666l8.586 1.051c1.167-4.22 1.845-7.065 2.035-8.535.189-1.47.064-2.925-.375-4.362z"/>
            <path fill="#696969" d="M159.866 50.15l-2.129 1.854c2.025-.068 2.482 1.29 1.371 4.073-1.11 2.784-1.411 5.107-.902 6.97 1.167-4.22 1.845-7.065 2.035-8.535.189-1.47.064-2.925-.375-4.362z"/>
            <path fill="#639FF6" d="M165.012 62.783l-41.16-23.35v20.163l41.16 22.88z"/>
            <path fill="#5C9AF3" d="M170.984 59.527l-40.81-22.738-6.325 2.662 41.163 23.371z"/>
            <g>
                <path fill="#FFB6C3" d="M148.644 36.298c-1.522 6.524-2.693 10.34-3.51 11.45-.364.492-1.516.843-1.516 1.609s1.089 1.871 1.823 1.51c.49-.24.775-.661.856-1.261.185-.117.32-.162.404-.137.295.09.543.386.73.264.403-.261-.777-.964-.73-1.075 1.26-2.953 2.114-4.885 2.561-5.796 1.439-2.932 1.984-3.466 1.984-4.682 0-1.842-.867-2.469-2.602-1.882z"/>
                <path fill="#FAA8B6" d="M148.644 36.298c.457 3.206.518 5.394.184 6.564-.735 2.573-2.1 5.212-2.586 5.872-.025.034.126.416-.162.735-.141.158-.053.462-.182.67-.3.479-.728.861-.457.728.49-.24.775-.661.856-1.261.185-.117.32-.162.404-.137.295.09.543.386.73.264.403-.261-.777-.964-.73-1.075 1.26-2.953 2.114-4.885 2.561-5.796 1.439-2.932 1.984-3.466 1.984-4.682 0-1.842-.867-2.469-2.602-1.882z"/>
                <path fill="#565D98" d="M151.1 31.514c-3.223 4.6-3.976 7.29-2.257 8.074 2.577 1.174 2.403 1.355 2.403-1.408 0-1.842-.049-4.064-.146-6.666z"/>
                <g>
                    <path fill="#666DA5" d="M157.747 33.582c-2.44-2.55-5.708-3.894-7.53-1.096-1.216 1.865-1.495 6.875-.836 15.027l8.163 4.582c1.333-.793 2.03-1.487 2.092-2.085.719-6.993-.418-14.89-1.889-16.428z"/>
                    <path fill="#585F9A" d="M155.571 37.25c-1.353 8.22-1.171 12.72.547 13.503.823.375-.473-.339-.547-1.396-.158-2.255-.158-6.538-.158-8.419 0-1.842.053-3.071.158-3.688z"/>
                </g>
                <g>
                    <path fill="#FFB6C3" d="M157.814 38.188a177.48 177.48 0 0 1-4.73 10.684c-.475.982-.475 1.801-1.14 2.253-.02.014-1.03-.338-1.23 0-.201.338.821.452.705.565-.46.449-.888 1.214-.893 1.297-.029.554 2.006 1.51 2.558 1.212.367-.2.665-.93.894-2.189 3.441-5.412 5.162-9.04 5.162-10.881 0-1.842-.442-2.822-1.326-2.941z"/>
                    <path fill="#FAA8B6" d="M157.814 38.188c.35 2.816.235 5.03-.348 6.64-.711 1.964-2.743 5.116-3.488 6.656-.187.387-.19 1.168-.408 1.675-.334.777-.82 1.22-.486 1.04.367-.2.665-.93.894-2.189 3.441-5.412 5.162-9.04 5.162-10.881 0-1.842-.442-2.822-1.326-2.941z"/>
                    <path fill="#666DA5" d="M157.692 34.614c-2.661 4.967-3.133 7.841-1.415 8.624 2.577 1.174 2.863.653 2.863-2.11 0-1.841-.483-4.013-1.448-6.514z"/>
                    <path fill="#585F9A" d="M157.692 34.614c.817 4.222 1.097 6.755.84 7.6-.087.285-.089.914-.394 1.165-.393.324-2.8-.568-1.861-.141 2.577 1.174 2.863.653 2.863-2.11 0-1.841-.483-4.013-1.448-6.514z"/>
                </g>
            </g>
            <g>
                <path fill="#78AEFC" d="M171.307 34.828c1.505-2.575 7.158-6.262 16.96-11.062L146.426 0c-10.406 5.582-16.28 9.635-17.62 12.16-1.34 2.524-1.94 6.028-1.8 10.512l41.819 23.75c.15-5.155.978-9.02 2.483-11.594z"/>
                <path fill="#FFF" d="M171.307 34.828c1.505-2.575 7.158-6.262 16.96-11.062l-5.591-3.196c-10.406 5.582-16.28 9.635-17.62 12.16-1.341 2.524-1.941 6.029-1.8 10.513l5.568 3.178c.15-5.154.978-9.019 2.483-11.593zm-10.909-6.168c1.505-2.574 7.159-6.261 16.96-11.061l-5.591-3.196c-10.406 5.581-16.28 9.634-17.62 12.16-1.34 2.524-1.94 6.028-1.8 10.512l5.568 3.179c.15-5.155.979-9.02 2.483-11.594zm-11.509-6.48c1.505-2.575 7.158-6.263 16.96-11.062l-5.591-3.196c-10.407 5.581-16.28 9.634-17.62 12.159-1.341 2.524-1.941 6.029-1.8 10.513l5.568 3.178c.15-5.154.978-9.018 2.483-11.593zm-11.51-6.482c1.506-2.575 7.159-6.262 16.961-11.062l-5.592-3.196c-10.406 5.582-16.28 9.635-17.62 12.16-1.34 2.524-1.94 6.029-1.8 10.513l5.607 3.062c.125-5.077.94-8.903 2.445-11.477z"/>
            </g>
        </g>
        <g fill-rule="nonzero">
            <path fill="#78AEFC" d="M6.639 24.368c9.01 4.278 14.517 7.585 16.52 9.92 2.005 2.337 3.057 6.46 3.157 12.37l-2.237-1.104v14.141l5.988 3.255v19.526L6.639 69.59V24.368z"/>
            <path fill="#4E8DE8" d="M47.872.937l16.966 12.151L67.67 23.3l-2.832-1.488V37.425l6.462 2.623-6.462 15.717-16.966-9.46z"/>
            <path fill="#767676" d="M35.194 50.15l2.04 1.854 7.779-4.674v14.666l-8.229 1.051c-1.118-4.22-1.768-7.065-1.95-8.535a10.705 10.705 0 0 1 .36-4.362z"/>
            <path fill="#696969" d="M35.194 50.15l2.04 1.854c-1.941-.068-2.379 1.29-1.314 4.073 1.064 2.784 1.352 5.107.864 6.97-1.118-4.22-1.768-7.065-1.95-8.535a10.705 10.705 0 0 1 .36-4.362z"/>
            <path fill="#639FF6" d="M30.067 62.956l41.16-23.084v19.962l-41.16 22.642z"/>
            <path fill="#5C9AF3" d="M24.044 59.711l40.86-22.455 6.325 2.635-41.162 23.085z"/>
            <g>
                <path fill="#FFB6C3" d="M45.966 37.13c1.522 6.396 2.692 10.138 3.51 11.225.364.483 1.516.827 1.516 1.578 0 .75-1.09 1.834-1.824 1.48-.49-.236-.775-.648-.856-1.236-.184-.115-.318-.16-.403-.134-.295.089-.543.378-.73.259-.403-.257.777-.946.73-1.054-1.26-2.895-2.114-4.79-2.561-5.682-1.439-2.875-1.984-3.398-1.984-4.59 0-1.806.867-2.422 2.602-1.846z"/>
                <path fill="#FAA8B6" d="M45.966 37.13c-.457 3.143-.519 5.288-.184 6.436.735 2.521 2.1 5.11 2.586 5.756.025.033-.126.408.161.721.142.155.054.453.183.656.3.47.728.845.456.714-.49-.236-.775-.648-.856-1.236-.184-.115-.318-.16-.403-.134-.295.089-.543.378-.73.259-.403-.257.777-.946.73-1.054-1.26-2.895-2.114-4.79-2.561-5.682-1.439-2.875-1.984-3.398-1.984-4.59 0-1.806.867-2.422 2.602-1.846z"/>
                <path fill="#565D98" d="M43.51 32.44c3.223 4.51 3.975 7.148 2.257 7.915-2.577 1.151-2.403 1.329-2.403-1.38 0-1.805.049-3.984.146-6.535z"/>
                <g>
                    <path fill="#666DA5" d="M36.863 34.468c2.44-2.5 5.708-3.818 7.53-1.075 1.216 1.829 1.495 6.74.836 14.732l-8.163 4.492c-1.334-.777-2.03-1.458-2.092-2.044-.719-6.856.418-14.598 1.889-16.105z"/>
                    <path fill="#585F9A" d="M39.039 38.063c1.353 8.059 1.17 12.472-.547 13.239-.823.367.473-.333.547-1.37.157-2.21.158-6.409.158-8.253 0-1.806-.053-3.01-.158-3.616z"/>
                </g>
                <g>
                    <path fill="#FFB6C3" d="M36.796 38.983c1.494 3.618 3.07 7.11 4.73 10.475.475.962.475 1.765 1.14 2.209.02.013 1.03-.332 1.23 0 .201.331-.821.442-.705.554.46.439.888 1.19.893 1.27.029.544-2.006 1.482-2.558 1.189-.367-.196-.666-.911-.895-2.146-3.44-5.306-5.161-8.863-5.161-10.668 0-1.806.442-2.767 1.326-2.883z"/>
                    <path fill="#FAA8B6" d="M36.796 38.983c-.35 2.76-.235 4.93.348 6.509.711 1.926 2.743 5.016 3.487 6.526.188.38.19 1.145.408 1.642.335.762.82 1.197.487 1.02-.367-.196-.666-.911-.895-2.146-3.44-5.306-5.161-8.863-5.161-10.668 0-1.806.442-2.767 1.326-2.883z"/>
                    <path fill="#666DA5" d="M36.918 35.48c2.661 4.868 3.133 7.686 1.415 8.454-2.577 1.15-2.863.64-2.863-2.068 0-1.806.483-3.935 1.448-6.387z"/>
                    <path fill="#585F9A" d="M36.918 35.48c-.817 4.139-1.097 6.622-.84 7.45.086.279.089.896.394 1.143.393.317 2.8-.558 1.861-.14-2.577 1.152-2.863.641-2.863-2.067 0-1.806.483-3.935 1.448-6.387z"/>
                </g>
            </g>
            <g>
                <path fill="#78AEFC" d="M23.642 35.417c-1.494-2.55-7.105-6.2-16.832-10.951L48.335.937c10.327 5.526 16.156 9.539 17.487 12.038 1.33 2.5 1.926 5.969 1.786 10.408L26.106 46.894c-.15-5.103-.971-8.928-2.464-11.477z"/>
                <path fill="#FFF" d="M23.642 35.417c-1.494-2.55-7.105-6.2-16.832-10.951l5.55-3.164c10.326 5.525 16.155 9.538 17.486 12.037 1.33 2.5 1.926 5.97 1.786 10.408l-5.526 3.147c-.15-5.103-.971-8.928-2.464-11.477zm10.826-6.106c-1.494-2.549-7.105-6.2-16.832-10.951l5.55-3.164c10.326 5.526 16.155 9.538 17.486 12.038 1.33 2.5 1.926 5.968 1.786 10.408l-5.526 3.146c-.15-5.102-.971-8.928-2.464-11.477zm11.422-6.416c-1.494-2.55-7.104-6.2-16.832-10.951l5.55-3.164c10.327 5.525 16.156 9.538 17.486 12.037 1.33 2.5 1.926 5.969 1.786 10.408l-5.526 3.147c-.15-5.103-.97-8.929-2.464-11.477zm11.422-6.417c-1.493-2.549-7.104-6.2-16.832-10.95l5.55-3.165c10.327 5.526 16.156 9.538 17.486 12.038 1.33 2.5 1.926 5.969 1.787 10.408l-5.564 3.032c-.125-5.026-.933-8.814-2.427-11.363z"/>
            </g>
        </g>
        <g transform="translate(28.792 44.676)">
            <path fill="#E0CAFD" d="M1.73 11.953c.13 1.026.24 1.735.334 2.128.171.712.663 1.069 1.476 1.069 1.22 0 1.94-.223 2.086-1.07.096-.563.219-1.357.367-2.382l-.859-.337-2.41-.472-.995 1.064z"/>
            <path fill="#D1AAF4" stroke="#CCA3F1" d="M3.802 12.782c1.236 0 2.239-.635 2.239-1.42 0-.14.03-.594-.03-.722-.274-.588-1.194-.698-2.209-.698-1.07 0-2.017.163-2.239.799-.034.1 0 .515 0 .621 0 .785 1.003 1.42 2.239 1.42z"/>
            <ellipse cx="3.798" cy="10.889" fill="#E0CAFD" rx="2.25" ry="1.42"/>
            <ellipse cx="3.917" cy="10.77" fill="#552144" rx="1.895" ry="1.065"/>
            <path fill="#3C7C07" d="M2.87 10.304C2.503 8.584 1.565 7.08.058 5.79c.52.931 1.369 1.474 2.072 3.784.304.876.659 1.272 1.064 1.187l-.322-.456z"/>
            <path fill="#548926" d="M4.017 2.84c.31 1.62.09 2.928-.66 3.922-.687 1.053-.309 1.741.398 3.264.471 1.016.064.795-1.222-.662-.443-1.26-.35-2.279.279-3.058.629-.78 1.03-1.935 1.205-3.465z"/>
            <g transform="translate(1.311 .71)">
                <mask id="f" fill="#fff">
                    <use xlink:href="#e"/>
                </mask>
                <use fill="#AAE183" xlink:href="#e"/>
                <path fill="#548A23" d="M.594 3.58c.358 1.685.537 3.081.537 4.188.091 1.133.676 1.987 1.753 2.563l-1.297.285L.393 7.768l.2-4.188z" mask="url(#f)"/>
            </g>
            <path fill="#7DB24D" d="M3.596 10.889c-.212 0-.413-.653-.413-2.74C3.564 5.932 1.849 3.315 2.772 0c.059 1.159.192 2.842.626 3.935.433 1.093.982 2.493.658 4.214-.325 1.722.324 2.608-.46 2.74z"/>
            <path fill="#3C7C07" d="M3.976 10.404c.256-1.748 1.104-3.322 2.546-4.723-.464.97-1.288 1.574-1.843 3.938-.249.899-.582 1.32-1 1.265l.297-.48z"/>
            <path fill="#67A92F" d="M3.917 1.184c1.142 1.85 1.596 3.626 1.36 5.329-.235 1.702-.287 2.996-.156 3.88-.01.3-.076.465-.196.493-.18.042-.42-.356-.42-.89 0-.532.45-4.01.286-5.032-.036-.973-.327-2.233-.874-3.78z"/>
        </g>
        <path fill="#C1C7D7" d="M119.736 78.89v.746c.004.35.176.616.513.794.507.267 1.664.311 2.248-.385.785-1.126 2.052-2.387 1.807-3.53-.163-.763-1.686.03-4.568 2.376z"/>
        <path fill="#E1E7EC" d="M119.935 77.6c-.268.793-.223 1.382.135 1.768.536.58 1.67.542 2.409 0 1.121-1.413 1.842-2.37 1.827-2.93-.007-.64-.43-1.127-1.324-.84-.595.19-1.611.859-3.047 2.003z"/>
        <path fill="#C1C7D7" d="M126.772 83.898c-.231.71-.087 1.233.432 1.569.78.504 5.186.691 6.18.346.995-.346 1.181-.624 1.181-1.175 0-.368-.616-.478-1.85-.331l-4.791-.904-1.152.495z"/>
        <path fill="#E1E7EC" d="M127.273 81.21c-.321.037-.482.228-.482.572v1.798c-.023.487.215.821.712 1.002.746.272 3.835 1.28 6.02.865.773-.158 1.302-.549.895-1.208-.408-.66-1.932-.743-3.069-1.532-.757-.526-1.179-1.025-1.265-1.497h-2.811z"/>
        <path stroke="#63A0F6" stroke-linecap="round" stroke-linejoin="round" d="M129.707 83.008l.939-.903M130.413 83.542l.834-.9"/>
        <path stroke="#63A0F6" stroke-linecap="round" d="M131.164 83.996l.708-1.01"/>
        <g transform="scale(1 -1) rotate(-12 -213.257 -585.637)">
            <mask id="h" fill="#fff">
                <use xlink:href="#g"/>
            </mask>
            <use fill="#FFB6C3" xlink:href="#g"/>
            <path fill="#FFF" d="M7.214 14.821c-.15.506-.082.892.205 1.158.43.398 1.162.67 2.112.27.633-.268 2.416 1 5.35 3.804l1.255 1.309c-.594 1.103-1.33 1.913-2.205 2.43-.876.518-1.666 2.979-2.37 7.383-1.843.673-3.999.463-6.467-.63-1.91-.865-3.552-1.831-4.927-2.9l1.567-10.513.483-3.42 1.198-2.931c1.775.498 2.884 1.018 3.327 1.56.444.543.446 1.007.006 1.392l.466 1.088z" mask="url(#h)" transform="rotate(-21 8.152 21.17)"/>
            <path fill="#BA95CF" d="M.149 16.674c.247-.636.533-.91.857-.826.45-.21.584-.879.405-2.007-.9.347-1.4.746-1.495 1.198-.096.451-.018.996.233 1.635zM.566 17.8l.286-.71.459 1.269-.797-.317z" mask="url(#h)"/>
        </g>
        <g transform="translate(119.562 38.426)">
            <mask id="j" fill="#fff">
                <use xlink:href="#i"/>
            </mask>
            <use fill="#F5D3BB" xlink:href="#i"/>
            <path fill="#6B72AB" d="M-.3 13l4.8 3.504 3.403.85 3.454-.85 1.088 15.426-1.088 11.638-1.27 1.219-7.272-1.219-3.115-4.33L1.18 26.09-.3 15.883z" mask="url(#j)"/>
            <path fill="#4C5389" d="M5.346 21.1h-.284c-.075 3.82-.163 6.41-.264 7.769.268.065.696-1.767 1.283-5.493L5.346 21.1z" mask="url(#j)"/>
            <path fill="#FFF" d="M6.555.881c-.144.513-.081.904.188 1.172.404.402 1.312.896 2.207.485.597-.274 2.197.929 4.8 3.608l1.176 1.32c-.564 1.12-1.259 1.944-2.085 2.472-.825.528-1.535 3.044-2.128 7.548-1.823.652-3.894.43-6.213-.667-1.794-.866-3.335-1.838-4.626-2.914L1.39 3.248 1.857-.22l1.138-2.975c1.669.496 2.71 1.018 3.126 1.566.415.547.415 1.017 0 1.41l.434 1.1z" mask="url(#j)"/>
            <path fill="#BA95CF" d="M6 .641c-.15.693.133 1.265.846 1.714.712.45 1.655.57 2.826.36L5.999.641z" mask="url(#j)"/>
            <path fill="#BA95CF" d="M4.858-.069c.134 1.149.361 1.929.68 2.34 1.205 1.552 3.314 2.01 5.079 1.25 3.7-.272 4.131.123 1.293 1.187-2.046.458-3.98.23-5.802-.686-1.133-.752-1.957-2.116-2.47-4.09h1.22z" mask="url(#j)"/>
            <path fill="#BA95CF" d="M2.714.216c.617 2.797 1.98 4.548 4.088 5.252 2.19.611 4.233.611 6.131 0l1.098 1.006c-3.063 1.3-5.818 1.378-8.264.234C3.321 5.563 1.961 3.56 1.687.698L2.715.217z" mask="url(#j)"/>
            <path fill="#BA95CF" d="M1.4 2.806c-.214.78-.135 1.292.235 1.538.625 1.258 1.569 2.207 2.71 2.914 1.82 1.128 4.237 1.573 7.374 1.164.674.701.808 1.235.403 1.6-3.37.376-6.314-.235-8.834-1.831-1.73-1.466-1.81-1.894-1.888-2.482C.965 5.286.8 4.83.905 4.344L1.4 2.806z" mask="url(#j)"/>
            <path fill="#222" d="M11.685 8.221l-.311-.226c-.516 4.377-.831 6.782-.948 7.214-.116.433-.074 1.21.128 2.332l.243-.074.89-6.8-.002-2.446z" mask="url(#j)" opacity=".2"/>
            <path fill="#BA95CF" d="M1 7.781c3.482 3.385 7.05 4.514 10.7 3.385-.165 1.044-.292 1.67-.38 1.878-4.782.574-8.323-.608-10.624-3.545-2.3-2.937-2.2-3.51.303-1.718z" mask="url(#j)"/>
            <path fill="#BA95CF" d="M.387 11.277c4.185 3.2 7.82 4.063 10.905 2.592 3.086-1.472 3.086-.791 0 2.042-4.12 1.173-7.862.203-11.223-2.908-3.362-3.112-3.256-3.687.318-1.726z" mask="url(#j)"/>
        </g>
        <g transform="translate(129.401 39.427)">
            <mask id="l" fill="#fff">
                <use xlink:href="#k"/>
            </mask>
            <use fill="#FFB6C3" xlink:href="#k"/>
            <path fill="#FFF" d="M-3.329-.063c-.151.491-.085.864.198 1.12.424.385 1.146.645 2.086.252.627-.262 2.385.959 5.272 3.663l1.237 1.262c-.593 1.07-1.323 1.859-2.19 2.364-.868.505-1.658 2.893-2.372 7.163-1.824.66-3.954.466-6.39-.583-1.884-.828-3.503-1.757-4.858-2.786l1.591-10.191.491-3.316 1.196-2.845c1.752.475 2.847.974 3.283 1.497.436.524.436.973 0 1.348l.456 1.052z" mask="url(#l)"/>
            <path fill="#BA95CF" d="M1.907 7.36c1.453-.672 2.18-1.554 2.18-2.648 0-1.095.352-.706 1.055 1.166-.684 1.33-1.644 2.202-2.88 2.618-1.236.417-1.355.038-.355-1.136z" mask="url(#l)"/>
            <path fill="#BA95CF" d="M-7.252-.554c.646 2.687 2.072 4.369 4.279 5.046 2.918 1.004 4.966.407 6.142-1.79l.995 1.02c-1.615 2.912-4.355 3.565-8.22 1.96C-6.617 4.584-8.04 2.66-8.327-.09l1.074-.463z" mask="url(#l)"/>
            <path fill="#BA95CF" d="M.025 3.996c.814-.08 1.491-.355 2.03-.823.54-.468-.04-.577-1.74-.327l-.29 1.15z" mask="url(#l)"/>
        </g>
        <g>
            <use fill="#FFB6C3" transform="translate(123.531 31.527)" xlink:href="#m"/>
            <path fill="#FE86A0" d="M130.818 35.16c.279.391.451.734.516 1.029a.434.434 0 0 1-.336.198 7.614 7.614 0 0 0-.18-1.226z"/>
            <g transform="translate(123.31 29.991)">
                <mask id="o" fill="#fff">
                    <use xlink:href="#n"/>
                </mask>
                <use fill="#572243" opacity=".403" xlink:href="#n"/>
                <path fill="#81656A" d="M.95 7.36c.745.488 1.82.169 3.225-.957.359-.258 1.007.14 1.945 1.191l.91-5.42-1.665-2.3L.047 1.341-.96 5.595.95 7.36z" mask="url(#o)"/>
            </g>
        </g>
        <g>
            <g transform="matrix(-1 0 0 1 62.866 51.548)">
                <mask id="q" fill="#fff">
                    <use xlink:href="#p"/>
                </mask>
                <use fill="#FAABBA" fill-rule="nonzero" xlink:href="#p"/>
                <path fill="#4269B8" fill-opacity=".808" fill-rule="nonzero" d="M.719 25.495c.318.748.94 1.032 1.865.853.924-.178 1.384-.702 1.38-1.57l1.438-1.396.976 2.738-2.415 4.44-3.482-.928-1.627-2.16L.72 25.496z" mask="url(#q)"/>
                <path fill="#FFF" fill-rule="nonzero" d="M8.244-9.87c-3.487.633-4.855.12-4.104-1.537-1.64-.491-2.968-.588-3.983-.29l-.325 3.765.919 3.766.43 1.813L.752.111l-.919 2.487-1.742 3.337 2.66 6.213c.345 1.199 1.475 2.13 3.39 2.795s3.88.36 5.892-.918l1.699-8.788v-13.17L8.244-9.868z" mask="url(#q)"/>
            </g>
            <g transform="matrix(-1 0 0 1 60.523 50.61)">
                <mask id="s" fill="#fff">
                    <use xlink:href="#r"/>
                </mask>
                <use fill="#FFB6C3" fill-rule="nonzero" xlink:href="#r"/>
                <path fill="#4A75CD" fill-opacity=".808" fill-rule="nonzero" d="M-.105 26.823c.018.825.491 1.295 1.421 1.41.93.114 1.728-.789 2.393-2.708l2.35 2.708 1.31 1.78-2.82 1.926H.361l-1.09-.836.34-3.085.283-1.195z" mask="url(#s)"/>
                <path fill="#FFF" fill-rule="nonzero" d="M4.948-9.67c-3.326.641-4.63.12-3.914-1.563-1.564-.499-2.83-.597-3.798-.295l-.31 3.824.877 3.827.41 1.841-.41 2.503-.876 2.527-1.661 3.39 2.537 6.311c.328 1.218 1.405 2.164 3.231 2.84 1.826.675 3.7.364 5.618-.933l1.62-8.927V-7.704L4.948-9.67z" mask="url(#s)"/>
            </g>
            <g transform="matrix(-1 0 0 1 65.209 40.3)">
                <mask id="u" fill="#fff">
                    <use xlink:href="#t"/>
                </mask>
                <use fill="#FFB6C3" fill-rule="nonzero" xlink:href="#t"/>
                <path fill="#FFF" fill-rule="nonzero" d="M0 3.462c1.027 1.437 2.395 2.156 4.103 2.156 1.708 0 1.966-1.99.772-5.968H1.878L0 3.462z" mask="url(#u)"/>
            </g>
            <g transform="matrix(-1 0 0 1 62.397 33.74)">
                <mask id="w" fill="#fff">
                    <use xlink:href="#v"/>
                </mask>
                <use fill="#FFB6C3" fill-rule="nonzero" xlink:href="#v"/>
                <path fill="#FFF" fill-rule="nonzero" d="M7.267 8.177c-3.224.624-4.488.118-3.794-1.519-1.515-.485-2.743-.58-3.681-.286l-.3 3.718.849 3.721.398 1.79-.398 2.435-.849 2.456-1.61 3.297 2.459 6.138c.318 1.184 1.362 2.104 3.132 2.76 1.77.657 3.585.355 5.446-.906l1.57-8.681V10.09L7.267 8.177z" mask="url(#w)"/>
            </g>
            <g transform="matrix(-1 0 0 1 55.837 42.644)">
                <mask id="y" fill="#fff">
                    <use xlink:href="#x"/>
                </mask>
                <use fill="#FFB6C3" fill-rule="nonzero" xlink:href="#x"/>
                <path fill="#FFF" fill-rule="nonzero" d="M.17 5.497c1.146.717 2.317.532 3.511-.554s.887-3.086-.923-5.998L.464-.713-.727.42.17 5.497z" mask="url(#y)"/>
            </g>
            <path fill="#6B3E5A" fill-rule="nonzero" d="M56.701 35.454c-.527-1.236-.527-2.144 0-2.723.79-.868 2.03-1.288 2.85-.272.82 1.016 1.907.087 3.073 1.668 1.165 1.581.316 3.034.717 4.932.679 1.685.972 3.143-1.764 3.29-1.124.252-4.03 1.05-3.565-1.818-.094-.622-.25-1.97.358-2.6.608-.63.062-1.221-.358-1.117-.421.103-.89.32-.89-.168 0-.325-.14-.722-.421-1.192z"/>
        </g>
        <g transform="translate(184.062 51.865)">
            <ellipse cx="8.429" cy="24.603" fill="#857C99" rx="4.349" ry="1.881"/>
            <path fill="#A799E7" d="M12.951 23.152c-.08 1.433-1.989 2.58-4.331 2.58-2.394 0-4.335-1.198-4.335-2.675L4.286 23l-.356-6.597h9.749l-.722 6.75h-.006z"/>
            <mask id="A" fill="#fff">
                <use xlink:href="#z"/>
            </mask>
            <use fill="#6D5C95" xlink:href="#z"/>
            <ellipse cx="8.804" cy="18.057" fill="#6D5049" mask="url(#A)" rx="4.874" ry="2.709"/>
            <path stroke="#7AB251" d="M10.259 17.244s1.917-6.655 2.881-7.694M3.048 2.063s3.358 4.64 4.48 15.219"/>
            <g transform="translate(13.042 8.019)">
                <mask id="C" fill="#fff">
                    <use xlink:href="#B"/>
                </mask>
                <use fill="#7AB251" xlink:href="#B"/>
                <path fill="#5A8A39" d="M.196 1.615l-.115-.02s.208-.5.504-.5c.247 0 .467-.013.502-.253.031-.22.262-.376.447-.306.07.026.266.033.38-.048.114-.081.235-.318.348-.265.196.092.22.656.22.656l-1.015.654-1.071.283-.2-.201z" mask="url(#C)"/>
            </g>
            <g transform="rotate(16 -27.772 50.476)">
                <mask id="E" fill="#fff">
                    <use xlink:href="#D"/>
                </mask>
                <use fill="#7AB251" xlink:href="#D"/>
                <path fill="#5A8A39" d="M.175 1.695L.13 1.634s.16-.539.455-.539c.247 0 .467-.013.502-.253.031-.22.262-.376.447-.306.07.026.266.033.38-.048.114-.081.235-.318.348-.265.196.092.22.656.22.656l-1.015.654-1.071.283-.22-.121z" mask="url(#E)"/>
            </g>
            <g transform="rotate(7 -87.8 102.657)">
                <mask id="G" fill="#fff">
                    <use xlink:href="#F"/>
                </mask>
                <use fill="#7AB251" xlink:href="#F"/>
                <path fill="#5A8A39" d="M.175 1.695L.13 1.634s.16-.539.455-.539c.247 0 .467-.013.502-.253.031-.22.262-.376.447-.306.07.026.266.033.38-.048.114-.081.235-.318.348-.265.196.092.22.656.22.656l-1.015.654-1.071.283-.22-.121z" mask="url(#G)"/>
            </g>
            <g transform="rotate(-1 808.904 -607.747)">
                <mask id="I" fill="#fff">
                    <use xlink:href="#H"/>
                </mask>
                <use fill="#7AB251" xlink:href="#H"/>
                <path fill="#5A8A39" d="M.175 1.695L.13 1.634s.16-.539.455-.539c.247 0 .467-.013.502-.253.031-.22.262-.376.447-.306.07.026.266.033.38-.048.114-.081.235-.318.348-.265.196.092.22.656.22.656l-1.015.654-1.071.283-.22-.121z" mask="url(#I)"/>
            </g>
            <g transform="scale(-1 1) rotate(-35 8.83 25.72)">
                <mask id="K" fill="#fff">
                    <use xlink:href="#J"/>
                </mask>
                <use fill="#5A8A39" xlink:href="#J"/>
                <path fill="#7AB251" d="M.175 1.695L.13 1.634s.16-.539.455-.539c.247 0 .467-.013.502-.253.031-.22.262-.376.447-.306.07.026.266.033.38-.048.114-.081.235-.318.348-.265.196.092.22.656.22.656l-1.015.654-1.071.283-.22-.121z" mask="url(#K)"/>
            </g>
            <g transform="scale(-1 1) rotate(-35 13.006 25.67)">
                <mask id="M" fill="#fff">
                    <use xlink:href="#L"/>
                </mask>
                <use fill="#5A8A39" xlink:href="#L"/>
                <path fill="#7AB251" d="M.175 1.695L.13 1.634s.16-.539.455-.539c.247 0 .467-.013.502-.253.031-.22.262-.376.447-.306.07.026.266.033.38-.048.114-.081.235-.318.348-.265.196.092.22.656.22.656l-1.015.654-1.071.283-.22-.121z" mask="url(#M)"/>
            </g>
            <g transform="scale(-1 1) rotate(-25 26.311 32.818)">
                <mask id="O" fill="#fff">
                    <use xlink:href="#N"/>
                </mask>
                <use fill="#5A8A39" xlink:href="#N"/>
                <path fill="#7AB251" d="M.175 1.695L.13 1.634s.16-.539.455-.539c.247 0 .467-.013.502-.253.031-.22.262-.376.447-.306.07.026.266.033.38-.048.114-.081.235-.318.348-.265.196.092.22.656.22.656l-1.015.654-1.071.283-.22-.121z" mask="url(#O)"/>
            </g>
            <g transform="matrix(-1 0 0 1 3.266 0)">
                <mask id="Q" fill="#fff">
                    <use xlink:href="#P"/>
                </mask>
                <use fill="#7AB251" xlink:href="#P"/>
                <path fill="#5A8A39" d="M.26 2.199l.07.041s.055-.749.454-.749c.333 0 .63-.017.675-.344.043-.3.353-.513.603-.418.095.036.359.046.512-.064.154-.11.317-.434.47-.362.263.126.297.894.297.894l-1.37.891-1.443.385L.26 2.2z" mask="url(#Q)"/>
            </g>
            <g transform="scale(-1 1) rotate(13 -10.876 -15.255)">
                <mask id="S" fill="#fff">
                    <use xlink:href="#R"/>
                </mask>
                <use fill="#5A8A39" xlink:href="#R"/>
                <path fill="#7AB251" d="M.231 2.089l-.06-.075s.214-.664.613-.664c.333 0 .63-.016.675-.312.043-.271.353-.464.603-.378.095.033.359.042.512-.058.154-.1.317-.393.47-.327.263.113.297.808.297.808l-1.37.807-1.443.349-.297-.15z" mask="url(#S)"/>
            </g>
            <g transform="scale(-1 1) rotate(7 -40.097 -37.693)">
                <mask id="U" fill="#fff">
                    <use xlink:href="#T"/>
                </mask>
                <use fill="#5A8A39" xlink:href="#T"/>
                <path fill="#7AB251" d="M.231 2.19l-.145-.066s.299-.709.698-.709c.333 0 .63-.016.675-.327.043-.284.353-.486.603-.396.095.034.359.044.512-.061.154-.105.317-.412.47-.343.263.12.297.848.297.848l-1.37.846-1.443.365-.297-.157z" mask="url(#U)"/>
            </g>
            <g transform="scale(-1 1) rotate(-1 463.298 367.49)">
                <mask id="W" fill="#fff">
                    <use xlink:href="#V"/>
                </mask>
                <use fill="#5A8A39" xlink:href="#V"/>
                <path fill="#7AB251" d="M.231 2.288l-.146-.065s.3-.745.699-.745c.333 0 .63-.017.675-.341.043-.297.353-.508.603-.414.095.036.359.046.512-.064.154-.11.317-.43.47-.358.263.124.297.885.297.885l-1.37.884-1.443.382-.297-.164z" mask="url(#W)"/>
            </g>
            <g transform="rotate(-41 4.953 -2.518)">
                <mask id="Y" fill="#fff">
                    <use xlink:href="#X"/>
                </mask>
                <use fill="#7AB251" xlink:href="#X"/>
                <path fill="#5A8A39" d="M.258 2.125l-.18-.087s.347-.665.78-.665c.362 0 .683-.016.734-.317.046-.276.383-.472.655-.385.102.034.389.043.555-.059.167-.102.344-.4.51-.333.287.116.323.823.323.823l-1.487.82-1.567.355-.323-.152z" mask="url(#Y)"/>
            </g>
            <g transform="rotate(-35 10.688 -3.932)">
                <mask id="aa" fill="#fff">
                    <use xlink:href="#Z"/>
                </mask>
                <use fill="#7AB251" xlink:href="#Z"/>
                <path fill="#5A8A39" d="M.248 2.076l-.03-.068s.193-.666.616-.666c.353 0 .668-.016.717-.31.045-.27.375-.462.64-.376.1.033.38.042.543-.058.163-.1.336-.39.497-.325.28.113.316.804.316.804l-1.452.802-1.532.346-.315-.149z" mask="url(#aa)"/>
            </g>
            <g transform="rotate(-25 21.857 -7.88)">
                <mask id="ac" fill="#fff">
                    <use xlink:href="#ab"/>
                </mask>
                <use fill="#7AB251" xlink:href="#ab"/>
                <path fill="#5A8A39" d="M.414 2.017l-.318.018s.472-.731.87-.731c.334 0 .63-.016.676-.302.043-.262.353-.448.603-.364.095.031.358.04.512-.057.153-.097.317-.38.469-.316.264.11.298.781.298.781l-1.37.78-1.443.336-.297-.145z" mask="url(#ac)"/>
            </g>
            <g transform="scale(-1 1) rotate(-1 649.052 410.744)">
                <mask id="ae" fill="#fff">
                    <use xlink:href="#ad"/>
                </mask>
                <use fill="#5A8A39" xlink:href="#ad"/>
                <path fill="#7AB251" d="M.348 2.288l-.309-.04s.463-.77.862-.77c.332 0 .629-.017.675-.341C1.62.84 1.93.629 2.18.723c.095.036.358.046.512-.064.153-.11.317-.43.469-.358.264.124.298.885.298.885l-1.37.884-1.443.382-.297-.164z" mask="url(#ae)"/>
            </g>
            <g transform="rotate(-25 30.033 -8.022)">
                <mask id="ag" fill="#fff">
                    <use xlink:href="#af"/>
                </mask>
                <use fill="#7AB251" xlink:href="#af"/>
                <path fill="#5A8A39" d="M.453 1.927l-.377-.026s.523-.655.905-.655c.318 0 .6-.015.645-.288.04-.25.337-.428.576-.349.09.03.342.039.489-.054.147-.092.303-.362.448-.302.253.105.285.746.285.746l-1.308.745-1.38.322-.283-.139z" mask="url(#ag)"/>
            </g>
        </g>
        <g transform="scale(-1 1) rotate(-2 2725.92 663.857)">
            <ellipse cx="6.721" cy="25.223" fill="#92A1BA" rx="4.584" ry="2.245"/>
            <path fill="#94B7F3" d="M11.057 24.224c-.082 1.406-2.018 2.531-4.393 2.531-2.428 0-4.396-1.175-4.396-2.624v-.057l-.36-6.476h9.887l-.732 6.626h-.006z"/>
            <mask id="ai" fill="#fff">
                <use xlink:href="#ah"/>
            </mask>
            <use fill="#517BC1" xlink:href="#ah"/>
            <ellipse cx="6.851" cy="19.124" fill="#6D5049" mask="url(#ai)" rx="4.943" ry="2.604"/>
            <g transform="matrix(-1 0 0 1 15.39 0)">
                <mask id="ak" fill="#fff">
                    <use xlink:href="#aj"/>
                </mask>
                <use fill="#7AB251" xlink:href="#aj"/>
                <path fill="#5A8A39" d="M8.911 15.839s.168-.264.51-.679c.21-.396 1.389-2.328 1.389-2.328l2.538-1.217 4.796.551-5.797 6.104-3.825.78-.254-.235s-.175-.93.19-1.483c.365-.552.453-1.493.453-1.493z" mask="url(#ak)"/>
                <path fill="#578736" d="M6.625 15.812s1.238.46 1.512 1.477c.273 1.016.092.56.092.56s.702-.542 1.538-.383c.835.158-.642 1.39-.749 1.415-.107.026-1.486.195-1.486.195l-.951-1.855.044-1.409z" mask="url(#ak)"/>
                <path fill="#60973E" d="M11.97 6.796s-1.564.644-1.676.823c-.112.178-1.208.687-1.312 3.005.072 2.323.075 3.338.075 3.338l-.188 1.96.652-.92.559-1.911s2.55-4.573 2.55-4.663l.01-1.531-.67-.1z" mask="url(#ak)"/>
                <path fill="#578736" d="M6.032 12.239s1.407.39 1.595 1.437c-.269-.258-.626-1.24-2.565-1.402-1.939-.161.97-.035.97-.035zM11.73 6.645s-1.568.549-2.23 1.89c.774-.592 1.462-1.721 2.911-1.556 1.45.166-.68-.334-.68-.334z" mask="url(#ak)"/>
                <g mask="url(#ak)">
                    <path fill="#578736" d="M7.627 13.545s.885 2.192.809 3.063c-.003-.027.1-.426.607-.932s.574-.639 1.08-.8c-.465.731-1.498 2.176-1.498 2.176l-.408.755-.191-1.826-.29-1.84-.109-.596z"/>
                    <path stroke="#FFF" stroke-width=".7" d="M8.254 18.889s-.275-.93.507-2.08 2.192-3.631 5.145-3.344M12.8 15.089s-1.32-.677-3.159.473M11.332 16.362s-1.748-.55-2.758.732"/>
                    <path stroke="#FFF" stroke-width=".7" d="M10.473 1.568s-1.334.918-1.531 5.649c-.013 3.753.14 5.907.124 6.49-.016.583 0 1.657-.315 3.135M12.602 4.346s-3.116.387-3.66 4.415M11.399 7.679s-1.962 1.162-2.388 3.87M2.162 5.461s5.421.295 6.048 12.892M2.89 9.105s2.354-1.106 4.173 2.115M5.08 13.626s2.556-.19 2.978 2.617"/>
                </g>
            </g>
        </g>
        <g>
            <path fill="#81656A" fill-rule="nonzero" d="M161.5 84.343a.709.709 0 0 1 .186.482c0 .27.135.997.904.633.513-.242.382-.679-.392-1.31l-.699.195z"/>
            <path fill="#888" d="M161.146 128.968c-.2.643-.076 1.116.374 1.42.674.457 4.484.627 5.344.314.86-.313 1.02-.565 1.02-1.064 0-.333-.533-.433-1.599-.3l-4.143-.818-.996.448z"/>
            <path fill="#DDD" d="M161.58 126.534c-.279.034-.417.206-.417.518v1.628c-.02.44.185.743.615.908.645.246 3.316 1.158 5.205.783.668-.144 1.126-.497.774-1.094-.352-.597-1.67-.673-2.653-1.388-.655-.476-1.02-.928-1.094-1.355h-2.43z"/>
            <path fill="#888" d="M153.563 123.248c-.587.222-.852.594-.793 1.115.088.782 2.324 3.793 3.082 4.267.758.475 1.04.45 1.399.16.24-.195-.018-.66-.774-1.398l-1.974-3.645-.94-.5z"/>
            <path fill="#DDD" d="M155.586 122.157c-.196-.192-.406-.198-.63-.016l-1.175.951c-.33.243-.421.576-.274 1 .222.637 1.218 3.212 2.657 4.436.517.427 1.056.57 1.268-.047.213-.618-.548-1.67-.641-2.838-.062-.779.038-1.322.3-1.628l-1.505-1.858z"/>
            <path fill="#D083AF" fill-rule="nonzero" d="M167.412 96.121c1.24 1.292 1.698 3.424 1.371 6.399-.326 2.974-.858 6.365-1.597 10.174l-8.422 13.713c-2.552-.777-3.984-2.312-4.298-4.603 2.106-1.313 4.724-1.724 7.496-8.443 1.848-4.48 2.207-9.963 1.077-16.448l4.373-.792z"/>
            <path fill="#D58EB6" fill-rule="nonzero" d="M160.932 96.328c-1.182 2.047-1.502 4.846-.96 8.396.814 5.324-.423 16.272-1.779 22.486 1.005.75 5.267 1.06 8.045-.598-.46-2.432-2.473-18.446-1.712-23.383.023-.005 1.429-.524 2.397-2.764.275-.637.471-1.997.588-4.08l-6.579-.057z"/>
            <path fill="#FFB6C2" fill-rule="nonzero" d="M159.805 97.076c.412.138.727.138.947 0 .329-.207.646-.374.764-.215.117.16-.095.359-.194.42-.1.06-.194.279 0 .36.129.053.283.149.463.287.18.163.18.394 0 .691-.27.447-.26 1.04-1.12.997-.86-.045-.952-.987-.952-1.234.003-.228-.146-.406-.447-.533-.188-.118-.188-.326 0-.625.145-.218.325-.267.54-.148z"/>
            <g fill-rule="nonzero">
                <path fill="#F5A4B1" d="M175.366 92.184c.443.063.713.006.808-.171.143-.266.37-.188.403-.027.035.16-.128.483-.608.632-.32.098-.52-.046-.603-.434z"/>
                <path fill="#FFB6C2" d="M173.982 92.761c.616-.513 1.119-.753 1.509-.72.19.036.577.274 1.161.714.077-.304.199-.388.365-.251.095.088.19.406.287.955-.011.323-.162.4-.452.233-.436-.251-1.446-.848-1.781-.689a4.374 4.374 0 0 0-.763.489c-.166.077-.306-.002-.421-.237-.116-.235-.084-.4.095-.494z"/>
            </g>
            <g transform="matrix(-1 0 0 1 174.965 86.458)">
                <mask id="am" fill="#fff">
                    <use xlink:href="#al"/>
                </mask>
                <use fill="#C3709F" fill-rule="nonzero" xlink:href="#al"/>
                <path fill="#B36892" fill-rule="nonzero" d="M7.394 2.688a7.44 7.44 0 0 1-.953 1.95c-.613.893.002 2.203.747 2.517.496.209.626.488.39.837 1.022-.293 1.914-.199 2.678.284 1.145.724 2.033.784 2.722.602.46-.121.872 0 1.237.362 2.523-.845 3.98-1.217 4.37-1.116-.536-.377-3.422-1.61-3.422-2.762-.601.473-.774.289-1.976 2.084-1.202 1.794-2.984-.726-5.083-.509-1.91.077-1.623-2.199-1.21-2.5.235-.333.401-.916.5-1.749z" mask="url(#am)"/>
            </g>
            <g fill-rule="nonzero">
                <path fill="#4286F5" d="M178.004 92.258c.255-.169.29-.39.107-.666a7.739 7.739 0 0 1-.633-.82c-.06-.112-.153-.112-.282 0-.13.113-.952.757-2.468 1.931a.532.532 0 0 0-.055.59c.1.213.294.525.58.935.085.204.227.204.428 0 .201-.203.975-.86 2.323-1.97z"/>
                <path fill="#FFF" d="M177.944 91.788l-.624-.87-2.229 1.76.59 1.029z"/>
            </g>
            <path fill="#F5A4B1" fill-rule="nonzero" d="M165.019 85.957l.12 1.168c-.022.714-.473.914-1.355.599-.802-.344-1.282-1.393-1.44-3.146l2.675 1.379z"/>
            <path fill="#B36892" fill-rule="nonzero" d="M162.855 86.431c.807.619 1.577.717 2.31.295.086-.173.057-.297-.088-.373l.124-.365c.32.046.506.193.556.443.01.253.01.635 0 1.148-.078.6-.384.96-.919 1.078-.801.177-2.03.44-2.761-.815-.077-.252-.04-.682.112-1.291l.666-.12z"/>
            <path fill="#FFB6C2" fill-rule="nonzero" d="M166.614 80.741c.365.449.548 1.056.548 1.82 0 1.148.273 1.79 0 2.479-.274.688-.632 1.9-2.656 1.294-1.188-.387-1.961-.956-2.318-1.705a.515.515 0 0 0-.444-.252c-.273 0-1.386-.211-.83-1.12.242-.324.62-.362 1.134-.114-.64-.22-.814-.73-.526-1.531.21-.583 1.18-1.75 2.866-1.684.972-.066 1.714.205 2.226.813z"/>
            <path fill="#81656A" fill-rule="nonzero" d="M166.503 80.713c-.027 1.23-.807 1.734-2.34 1.512-.023.367-.553 1.184-1.416.592-.053.37-.114.72-.182 1.052-.243-.566-.553-.82-.93-.762-.512.159-.416.722-.416.907 0 .185-1.33-.456-.974-1.197.03-.242-1.16-.878-.4-2.563.301-.536.812-.767 1.53-.693.357-1.28 1.199-1.804 2.524-1.57.491.145.844.447 1.06.906.637-.385 1.115-.22 1.434.497.568.116 1.782 1.258.655 2.34-.15.018-.333-.323-.545-1.02z"/>
        </g>
        <g transform="translate(24.512 74.978)">
            <g transform="translate(11.598 49.907)">
                <mask id="ao" fill="#fff">
                    <use xlink:href="#an"/>
                </mask>
                <use fill="#365A89" fill-rule="nonzero" xlink:href="#an"/>
                <path fill="#BCBCBC" fill-rule="nonzero" d="M-.377 4.686c.626.735 1.28 1.02 1.962.856 1.023-.247 1.992-1.425 2.549-1.631.556-.206 1.979-.646 1.979-1.38 0-.49.04-.099.122 1.174l-1.44 1.837-2.772.747-1.756.17-.644-.917v-.856z" mask="url(#ao)"/>
            </g>
            <g transform="translate(20.413 52.732)">
                <mask id="aq" fill="#fff">
                    <use xlink:href="#ap"/>
                </mask>
                <use fill="#365A89" fill-rule="nonzero" xlink:href="#ap"/>
                <path fill="#BCBCBC" fill-rule="nonzero" d="M-.198 5.45c.47 1.332.922 2.045 1.356 2.138.65.14 1.86.012 2.035-2.127.117-1.426.176-.579.177 2.54l-.883.79-1.779-.14-1.43-1.86.524-1.34z" mask="url(#aq)"/>
            </g>
            <path fill="#5B7DAA" fill-rule="nonzero" d="M12.526 29.19v9.005c.331 4.788.743 8.897 1.235 12.327.83.368 1.85.368 3.059 0-.57-7.936-.712-12.977-.427-15.125.285-2.149.547-3.508.787-4.078v4.938c.413 4.602.835 8.034 1.267 10.295.432 2.26.8 4.56 1.105 6.9.507.645 1.22.839 2.137.584.917-.256 1.23-.885.937-1.889-.664-6.108-1.038-10.206-1.122-12.294-.083-2.088.007-5.122.27-9.102l-9.248-1.56z"/>
            <g transform="translate(.975 14.556)">
                <mask id="as" fill="#fff">
                    <use xlink:href="#ar"/>
                </mask>
                <use fill="#FFB6C3" fill-rule="nonzero" xlink:href="#ar"/>
                <path fill="#6194E6" fill-rule="nonzero" d="M9.234 2.343c1.228 1.05 2.181 1.706 2.86 1.968.679.263 1.199-.306 1.56-1.706l-.32-1.79-1.156-2.225-1.91 2.427-1.034 1.326z" mask="url(#as)"/>
            </g>
            <g transform="translate(11.598 5.65)">
                <mask id="au" fill="#fff">
                    <use xlink:href="#at"/>
                </mask>
                <use fill="#FFB6C3" fill-rule="nonzero" xlink:href="#at"/>
                <path fill="#6194E6" fill-rule="nonzero" d="M.819 8.235l-1.74 13.913 1.089 4.478 4.355 2.248 5.654-.647 3.393-3.814-.922-13.076L9.8 8.235l-3.015.228H4.523z" mask="url(#au)"/>
                <path fill="#F8ACBA" fill-rule="nonzero" d="M7.878 8.223c.292 1.032.113 1.822-.536 2.37-.975.82-3.152 1.648-3.152-.012 0-1.107-.014-1.737-.044-1.89l-.51-.316c2.041.067 3.455-.405 4.242-1.416.786-1.01.786-.59 0 1.264z" mask="url(#au)"/>
                <path fill="#81656A" fill-opacity=".55" fill-rule="nonzero" d="M7.942 1.883l-.52 2.862c.168.579.34.579.52 0 .05-.55.332-.831.765-.868.551-.01.882.65.652 1.154-.153.335.13-.218.847-1.66L7.942 1.883z" mask="url(#au)"/>
            </g>
            <path fill="#81656A" fill-rule="nonzero" d="M18.424 7.7c-2.406.07-3.418-.4-3.036-1.409.124-.315-.004-1.054.434-1.572.443-.525 1.46-.82 2.885.186.516.486 1.29-.095 2.199.692.936.748.094.694 1.277 2.35.418.85-.778 2.041-1.832 1.159-.8-.989-1.442-1.457-1.927-1.405z"/>
            <path fill="#DDD" fill-rule="nonzero" stroke="#4286F5" stroke-width=".6" d="M.059 20.493c-.079-.176-.079-.539 0-1.087-.042-.215.138-.238.541-.07a82.36 82.36 0 0 1 2.291 1.03c.45.232.674.461.674.69.052.24.096.47.132.685.077.343-.147.4-.67.173-.787-.342-2.965-1.154-2.968-1.42z"/>
            <g transform="translate(20.366 16.008)">
                <mask id="aw" fill="#fff">
                    <use xlink:href="#av"/>
                </mask>
                <use fill="#FFB6C3" fill-rule="nonzero" xlink:href="#av"/>
                <path fill="#6194E6" fill-rule="nonzero" d="M.351 4.76c1.598.675 2.818.44 3.66-.705.843-1.144.493-2.745-1.051-4.802H1.375L.15.348-.348 2.34l.7 2.422z" mask="url(#aw)"/>
            </g>
            <ellipse cx="19.068" cy="20.441" fill="#9EC3FF" fill-rule="nonzero" rx="1" ry="1"/>
        </g>
    </g>
</svg>
